<?xml version="1.0" encoding="utf-8"?>
<!-- Generator: Adobe Illustrator 25.0.0, SVG Export Plug-In . SVG Version: 6.00 Build 0)  -->
<svg version="1.1" id="Layer_1" xmlns="http://www.w3.org/2000/svg" xmlns:xlink="http://www.w3.org/1999/xlink" x="0px" y="0px"
	 viewBox="0 0 512 512" style="enable-background:new 0 0 512 512;" xml:space="preserve">
<style type="text/css">
	.st0{fill:#383A3A;}
	.st1{fill:#0084FF;}
	.st2{fill:#006EB2;}
	.st3{fill:#B0B6BC;}
	.st4{fill:#DAE6F1;}
</style>
<g>
	<g>
		<g>
			<g>
				<path class="st0" d="M408.8,283.9c-56.2,0-101.8,45.7-101.8,101.8c0,56.2,45.7,101.9,101.8,101.9c56.2,0,101.8-45.7,101.8-101.9
					C510.6,329.6,465,283.9,408.8,283.9z M408.8,471.9c-47.4,0-86.1-38.6-86.1-86.1c0-47.4,38.6-86.1,86.1-86.1
					c47.4,0,86.1,38.6,86.1,86.1C494.9,433.1,456.3,471.9,408.8,471.9z"/>
			</g>
		</g>
		<g>
			<g>
				<path class="st1" d="M393.8,399.2l43.5-53.4c5.5-6.8,15.6-7.7,22.2-2l2.4,2c6.5,5.5,7.4,15.4,1.8,22L407.2,435
					c-5.6,6.8-15.8,7.5-22.3,1.6l-32.7-29.1c-6.8-6-7-16.5-0.6-22.8l1.2-1.2c5.7-5.6,14.9-6,21-0.8L393.8,399.2z"/>
			</g>
		</g>
	</g>
	<g transform="translate(1.4065934065934016 1.4065934065934016) scale(2.81 2.81)">
		<path class="st0" d="M146.8,26.1H22.2c-3,0-5.3,2.4-5.4,5.3c0,0,0,0,0,0.1v111.8c0,3.1,2.4,5.4,5.4,5.4h72.4
			c-0.3-2.4-0.5-4.8-0.5-7.3c0-7.8,1.6-15.3,4.7-21.9V76.8c0-2.2,1.7-4,4-4h27.7c2.1,0,4,1.7,4,4v12.5c4.4-1.1,9-1.7,13.7-1.7
			c1.3,0,2.7,0,4,0.2V31.6C152.2,28.5,149.7,26.1,146.8,26.1z M81.6,117.9c0,2.2-1.8,3.8-3.9,3.8H38.6c-2,0-3.8-1.6-3.8-3.8V78.7
			c0-2.1,1.6-3.8,3.8-3.8h39.1c2.1,0,3.9,1.6,3.9,3.8L81.6,117.9L81.6,117.9z"/>
		<path class="st2" d="M17.3,56.4h-0.7C7.5,56.4,0.1,49,0.1,39.9v-5.7c10.3-3.5,21.4-3.7,33.8,0v5.7C33.8,49,26.3,56.4,17.3,56.4z"
			/>
		<path class="st3" d="M51,56.4h-0.7c-9.1,0-16.5-7.4-16.5-16.5v-5.7c12.1-2.5,23.3-2.7,33.8,0v5.7C67.7,49,60.2,56.4,51,56.4z"/>
		<path class="st2" d="M151.7,56.4h0.7c9.1,0,16.5-7.4,16.5-16.5v-5.7c-10.4-2.8-21.9-2.5-33.8,0v5.7
			C135.2,49,142.7,56.4,151.7,56.4z"/>
		<path class="st3" d="M118,56.4h0.7c9.1,0,16.5-7.4,16.5-16.5v-5.7c-11.3-4.8-22.5-4.8-33.8,0v5.7C101.4,49,108.9,56.4,118,56.4z"
			/>
		<path class="st4" d="M67.7,34.2c1.6-7.5,1.5-16.3,0-26h-24c-6.5,8.7-9.7,17.3-9.8,26H67.7z"/>
		<path class="st1" d="M0,34.2l18.9-22.9c1.6-1.9,4-3.1,6.6-3.1h18.2l-9.7,26H0z"/>
		<path class="st4" d="M101.4,34.2c-4.1-8.4-3.5-17.1,0-26h24c8.1,9.7,11.7,18.5,9.8,26H101.4z"/>
		<path class="st1" d="M169,34.2l-18.9-22.9c-1.6-1.9-4-3.1-6.6-3.1h-18.1l9.7,26H169z"/>
		<path class="st2" d="M84.9,56.4h-0.7c-9.1,0-16.5-7.4-16.5-16.5v-5.7c11.3-4.8,22.5-4.8,33.8,0v5.7C101.4,49,94,56.4,84.9,56.4z"
			/>
		<polygon class="st1" points="67.7,8.2 87.9,8.2 101.4,8.2 101.4,34.2 67.7,34.2 		"/>
	</g>
</g>
</svg>
