<?xml version="1.0" encoding="utf-8"?>
<!-- Generator: Adobe Illustrator 25.0.0, SVG Export Plug-In . SVG Version: 6.00 Build 0)  -->
<svg version="1.1" id="Layer_1" xmlns="http://www.w3.org/2000/svg" xmlns:xlink="http://www.w3.org/1999/xlink" x="0px" y="0px"
	 viewBox="0 0 512 512" style="enable-background:new 0 0 512 512;" xml:space="preserve">
<style type="text/css">
	.st0{fill:#0084FF;}
</style>
<g>
	<g>
		<path class="st0" d="M48.4,275.3l-8.4-7.2l-8.1-6.9l7.2-8.4l7.4,6.4L64,236.7l8.9,6.5L48.4,275.3z"/>
		<path class="st0" d="M104.5,256l-5.8-9.2l1.9-10.7l-8.9-6.3l-2.4-10.6l-10.6-2.4l-6.3-8.9l-10.7,1.8l-9.2-5.8l-9.2,5.8l-10.7-1.9
			l-6.3,8.9l-10.6,2.4l-2.4,10.6l-8.9,6.3l1.8,10.7L0.4,256l5.8,9.2l-1.9,10.7l8.9,6.3l2.4,10.6l10.6,2.4l6.3,8.9l10.7-1.8l9.2,5.8
			l9.2-5.8l10.7,1.9l6.3-8.9l10.6-2.4l2.4-10.6l8.9-6.3l-1.8-10.7L104.5,256z M52.4,293c-20.5,0-37-16.6-37-37s16.6-37,37-37
			s37,16.6,37,37S72.9,293,52.4,293z"/>
	</g>
	<g>
		<path class="st0" d="M231.1,222.7l-27.6,67.7h-8.2l-27.6-67.7h7.3c0.8,0,1.5,0.2,2,0.6c0.5,0.4,0.9,0.9,1.1,1.6l19.1,47.8
			c0.4,1.1,0.8,2.2,1.2,3.5c0.4,1.3,0.8,2.6,1.1,4c0.3-1.4,0.6-2.7,1-4c0.4-1.3,0.7-2.4,1.1-3.5l19-47.8c0.2-0.5,0.6-1,1.1-1.5
			c0.5-0.4,1.2-0.7,2-0.7L231.1,222.7L231.1,222.7z"/>
		<path class="st0" d="M274.8,283.7c-1,1.3-2.3,2.4-3.7,3.3c-1.5,1-3,1.7-4.7,2.3s-3.4,1-5.1,1.4c-1.8,0.3-3.5,0.4-5.2,0.4
			c-3.3,0-6.4-0.6-9.1-1.7c-2.8-1.1-5.2-2.7-7.2-4.9c-2-2.2-3.6-4.8-4.8-8c-1.1-3.2-1.7-6.8-1.7-11c0-3.3,0.5-6.5,1.5-9.4
			c1-2.9,2.5-5.4,4.4-7.5s4.2-3.8,7-5c2.8-1.2,5.9-1.8,9.4-1.8c2.9,0,5.5,0.5,8,1.4s4.6,2.3,6.3,4.2c1.8,1.8,3.2,4,4.2,6.7
			c1,2.6,1.5,5.7,1.5,9.1c0,1.3-0.1,2.2-0.4,2.6c-0.3,0.4-0.8,0.7-1.6,0.7h-32c0.1,3,0.5,5.6,1.3,7.9c0.7,2.2,1.8,4.1,3.1,5.6
			c1.3,1.5,2.9,2.6,4.7,3.4c1.8,0.8,3.9,1.1,6.1,1.1c2.1,0,3.9-0.2,5.5-0.7c1.5-0.5,2.8-1,3.9-1.6s2-1.1,2.8-1.6
			c0.7-0.5,1.4-0.7,1.9-0.7c0.7,0,1.2,0.3,1.6,0.8L274.8,283.7z M268,261.3c0-2-0.3-3.8-0.8-5.4c-0.5-1.6-1.4-3-2.4-4.2
			c-1-1.2-2.3-2.1-3.8-2.7c-1.5-0.6-3.2-1-5.1-1c-4,0-7.2,1.2-9.6,3.5s-3.8,5.6-4.4,9.8H268L268,261.3z"/>
		<path class="st0" d="M298.8,252.2c1.5-3.3,3.4-5.8,5.6-7.7c2.2-1.8,4.9-2.8,8.1-2.8c1,0,2,0.1,2.9,0.3c1,0.2,1.8,0.6,2.5,1
			l-0.6,6.3c-0.2,0.8-0.7,1.2-1.4,1.2c-0.4,0-1.1-0.1-2-0.3s-1.8-0.3-2.9-0.3c-1.5,0-2.9,0.2-4,0.7s-2.2,1.1-3.2,1.9
			c-1,0.9-1.8,1.9-2.5,3.2c-0.8,1.3-1.4,2.7-2,4.4v30.2h-8.5v-47.9h4.8c0.9,0,1.5,0.2,1.9,0.5c0.4,0.4,0.6,0.9,0.7,1.8L298.8,252.2z
			"/>
		<path class="st0" d="M341,227.5c0,0.8-0.2,1.6-0.5,2.3c-0.4,0.7-0.8,1.4-1.3,1.9c-0.5,0.5-1.2,1-1.9,1.3c-0.8,0.3-1.5,0.5-2.3,0.5
			c-0.8,0-1.6-0.2-2.3-0.5c-0.7-0.3-1.3-0.8-1.9-1.3c-0.5-0.6-1-1.2-1.3-1.9c-0.3-0.7-0.5-1.5-0.5-2.3s0.2-1.6,0.5-2.3
			c0.3-0.8,0.7-1.4,1.3-1.9c0.5-0.5,1.2-1,1.9-1.3c0.7-0.3,1.5-0.5,2.3-0.5c0.8,0,1.6,0.2,2.3,0.5c0.7,0.3,1.4,0.8,1.9,1.3
			c0.5,0.6,1,1.2,1.3,1.9C340.8,225.9,341,226.7,341,227.5z M339.2,242.6v47.9h-8.4v-47.9L339.2,242.6L339.2,242.6z"/>
		<path class="st0" d="M361.2,290.4v-40.7l-5.3-0.6c-0.7-0.2-1.3-0.4-1.7-0.7c-0.4-0.4-0.6-0.8-0.6-1.4v-3.4h7.6v-2.6
			c0-2.9,0.4-5.6,1.4-8.1c0.9-2.4,2.3-4.5,4.1-6.3c1.8-1.8,4.1-3.1,6.8-4.1c2.7-1,5.9-1.5,9.5-1.5c1.2,0,2.4,0.1,3.7,0.2
			s2.3,0.4,3.2,0.7l-0.3,4.4c0,0.3-0.2,0.5-0.4,0.7c-0.2,0.1-0.5,0.2-0.8,0.2s-0.8,0-1.3,0c-0.5,0-1.1,0-1.8,0
			c-5.6,0-9.7,1.2-12.2,3.5c-2.5,2.3-3.8,5.8-3.8,10.5v2.4h28.9v46.9h-8.5v-40.8h-20.2v40.8L361.2,290.4L361.2,290.4L361.2,290.4z"
			/>
		<path class="st0" d="M455.9,283.7c-1,1.3-2.3,2.4-3.7,3.3c-1.5,1-3,1.7-4.7,2.3s-3.4,1-5.1,1.4c-1.8,0.3-3.5,0.4-5.2,0.4
			c-3.3,0-6.4-0.6-9.1-1.7c-2.8-1.1-5.2-2.7-7.2-4.9c-2-2.1-3.6-4.8-4.8-8c-1.1-3.2-1.7-6.8-1.7-11c0-3.3,0.5-6.5,1.5-9.4
			c1-2.9,2.5-5.4,4.4-7.5s4.2-3.8,7-5c2.8-1.2,5.9-1.8,9.4-1.8c2.9,0,5.5,0.5,8,1.4c2.4,1,4.5,2.3,6.3,4.2c1.8,1.8,3.2,4,4.2,6.7
			c1,2.6,1.5,5.7,1.5,9.1c0,1.3-0.1,2.2-0.4,2.6s-0.8,0.7-1.6,0.7h-32c0.1,3,0.5,5.6,1.3,7.9c0.7,2.2,1.8,4.1,3.1,5.6
			c1.3,1.5,2.9,2.6,4.7,3.4c1.8,0.8,3.9,1.1,6.1,1.1c2.1,0,3.9-0.2,5.5-0.7c1.5-0.5,2.8-1,3.9-1.6s2-1.1,2.8-1.6
			c0.8-0.5,1.4-0.7,1.9-0.7c0.7,0,1.2,0.3,1.6,0.8L455.9,283.7z M449.2,261.3c0-2-0.3-3.8-0.8-5.4c-0.5-1.6-1.4-3-2.4-4.2
			c-1.1-1.2-2.3-2.1-3.8-2.7c-1.5-0.6-3.2-1-5.2-1c-4,0-7.2,1.2-9.6,3.5c-2.4,2.3-3.8,5.6-4.4,9.8H449.2L449.2,261.3z"/>
		<path class="st0" d="M511.6,220.8v69.6h-5c-1.2,0-2-0.6-2.3-1.7l-0.8-5.8c-2,2.5-4.4,4.4-7,6c-2.6,1.5-5.6,2.3-9.1,2.3
			c-2.7,0-5.2-0.5-7.5-1.6s-4.2-2.6-5.7-4.7s-2.8-4.6-3.6-7.7c-0.9-3.1-1.3-6.6-1.3-10.5c0-3.5,0.5-6.8,1.4-9.9c1-3,2.3-5.7,4.1-7.9
			c1.8-2.2,3.9-4,6.5-5.3s5.5-1.9,8.7-1.9c2.9,0,5.5,0.5,7.5,1.5c2.1,1,4,2.4,5.6,4.1v-26.5L511.6,220.8L511.6,220.8L511.6,220.8z
			 M503.2,254c-1.6-2.1-3.3-3.6-5.1-4.4c-1.8-0.9-3.9-1.3-6.1-1.3c-4.4,0-7.9,1.6-10.2,4.8c-2.4,3.2-3.6,7.7-3.6,13.6
			c0,3.1,0.2,5.8,0.8,8c0.5,2.2,1.3,4.1,2.4,5.5c1,1.4,2.3,2.5,3.8,3.1s3.2,1,5.2,1c2.8,0,5.2-0.6,7.2-1.9c2.1-1.3,4-3,5.7-5.3
			L503.2,254L503.2,254z"/>
	</g>
</g>
</svg>
