<?xml version="1.0" encoding="utf-8"?>
<!-- Generator: Adobe Illustrator 25.0.0, SVG Export Plug-In . SVG Version: 6.00 Build 0)  -->
<svg version="1.1" id="Layer_1" xmlns="http://www.w3.org/2000/svg" xmlns:xlink="http://www.w3.org/1999/xlink" x="0px" y="0px"
	 viewBox="0 0 512 180" style="enable-background:new 0 0 512 180;" xml:space="preserve">
<style type="text/css">
	.st0{fill:url(#SVGID_1_);}
	.st1{fill:#FFFFFF;}
</style>
<g>
	
		<linearGradient id="SVGID_1_" gradientUnits="userSpaceOnUse" x1="2.4" y1="103.95" x2="509.6" y2="103.95" gradientTransform="matrix(1 0 0 -1 0 194)">
		<stop  offset="0" style="stop-color:#8A0000"/>
		<stop  offset="0.3413" style="stop-color:#AC0A0C"/>
		<stop  offset="1" style="stop-color:#ED1C24"/>
	</linearGradient>
	<path class="st0" d="M487.4,156.1H24.6c-12.3,0-22.2-10-22.2-22.2V46.2C2.4,33.9,12.3,24,24.6,24h462.8c12.3,0,22.2,9.9,22.2,22.2
		v87.7C509.6,146.1,499.6,156.1,487.4,156.1z"/>
</g>
<path class="st1" d="M442,55.8c-18.9,0-34.2,15.3-34.2,34.2s15.3,34.2,34.2,34.2s34.2-15.3,34.2-34.2
	C476.2,71.1,460.9,55.8,442,55.8z M415.7,90c0-14.5,11.8-26.3,26.3-26.3c5.8,0,11.2,1.9,15.5,5.1l-36.7,36.7
	C417.6,101.2,415.7,95.8,415.7,90z M442,116.3c-5.9,0-11.2-1.9-15.6-5.1l36.8-36.7c3.2,4.4,5.1,9.8,5.1,15.6
	C468.4,104.5,456.6,116.3,442,116.3z"/>
<g>
	<path class="st1" d="M65.1,110.7c2.2,0,4.1-0.4,5.8-1.1c1.7-0.7,3.1-1.8,4.3-3.1c1.2-1.3,2.1-2.9,2.7-4.7s0.9-3.8,0.9-6V64h7v31.8
		c0,3-0.5,5.8-1.4,8.4c-1,2.6-2.3,4.8-4.1,6.7c-1.8,1.9-4,3.4-6.6,4.4s-5.5,1.6-8.7,1.6c-3.2,0-6.1-0.5-8.7-1.6s-4.8-2.5-6.6-4.4
		s-3.2-4.1-4.1-6.7c-1-2.6-1.4-5.4-1.4-8.4V64h7v31.8c0,2.2,0.3,4.2,0.9,6c0.6,1.8,1.5,3.4,2.7,4.7c1.2,1.3,2.6,2.3,4.3,3.1
		C61,110.3,63,110.7,65.1,110.7z"/>
	<path class="st1" d="M102,84.7c0.8-0.9,1.7-1.7,2.6-2.4s1.9-1.4,2.9-1.9s2.1-0.9,3.2-1.2s2.4-0.4,3.7-0.4c2,0,3.8,0.3,5.3,1
		s2.8,1.6,3.9,2.8c1,1.2,1.8,2.7,2.4,4.4c0.5,1.7,0.8,3.6,0.8,5.7v23.5h-6.5V92.7c0-2.8-0.6-5-1.9-6.5s-3.2-2.3-5.8-2.3
		c-1.9,0-3.7,0.5-5.4,1.4c-1.7,0.9-3.2,2.2-4.6,3.8v27.2h-6.5v-37h3.9c0.9,0,1.5,0.5,1.7,1.4L102,84.7z"/>
	<path class="st1" d="M162.2,85.9c-0.2,0.3-0.4,0.5-0.6,0.6c-0.2,0.1-0.5,0.2-0.8,0.2c-0.4,0-0.8-0.2-1.2-0.5s-1-0.6-1.6-1
		s-1.4-0.7-2.4-1c-0.9-0.3-2.1-0.5-3.4-0.5c-1.8,0-3.4,0.3-4.8,1c-1.4,0.6-2.5,1.6-3.5,2.8c-0.9,1.2-1.6,2.7-2.1,4.4
		c-0.5,1.7-0.7,3.7-0.7,5.8c0,2.2,0.3,4.2,0.8,6c0.5,1.7,1.2,3.2,2.2,4.4c0.9,1.2,2.1,2.1,3.4,2.7c1.3,0.6,2.8,0.9,4.5,0.9
		c1.6,0,2.9-0.2,3.9-0.6s1.9-0.8,2.5-1.3c0.7-0.5,1.2-0.9,1.7-1.3c0.4-0.4,0.9-0.6,1.3-0.6c0.5,0,0.9,0.2,1.2,0.6l1.8,2.4
		c-0.8,1-1.7,1.8-2.7,2.6c-1,0.7-2.1,1.3-3.3,1.8s-2.4,0.8-3.7,1s-2.6,0.3-3.9,0.3c-2.3,0-4.5-0.4-6.4-1.3c-2-0.9-3.7-2.1-5.2-3.7
		s-2.6-3.6-3.4-6c-0.8-2.4-1.2-5-1.2-8.1c0-2.8,0.4-5.3,1.1-7.6s1.9-4.3,3.4-6s3.3-3,5.4-4c2.2-0.9,4.6-1.4,7.4-1.4
		c2.6,0,4.9,0.4,6.9,1.3c2,0.8,3.7,2,5.3,3.6L162.2,85.9z"/>
	<path class="st1" d="M177.9,62.5v53.8h-6.5V62.5L177.9,62.5L177.9,62.5z"/>
	<path class="st1" d="M187.3,84.6c2-2,4.2-3.4,6.6-4.4c2.4-1,5-1.5,7.8-1.5c2.1,0,3.9,0.3,5.5,1s3,1.6,4.1,2.8s1.9,2.7,2.5,4.4
		s0.8,3.6,0.8,5.7v23.7h-2.9c-0.6,0-1.1-0.1-1.5-0.3s-0.6-0.6-0.8-1.2l-0.7-3.5c-1,0.9-1.9,1.7-2.8,2.4c-0.9,0.7-1.9,1.3-2.9,1.8
		s-2.1,0.8-3.3,1.1c-1.2,0.3-2.4,0.4-3.9,0.4c-1.4,0-2.8-0.2-4.1-0.6s-2.4-1-3.3-1.8c-0.9-0.8-1.7-1.8-2.2-3s-0.8-2.7-0.8-4.4
		c0-1.5,0.4-2.9,1.2-4.2c0.8-1.4,2.1-2.5,3.9-3.6s4.1-1.9,7-2.6s6.4-1.1,10.7-1.2v-2.9c0-2.9-0.6-5-1.9-6.5
		c-1.2-1.5-3.1-2.2-5.4-2.2c-1.6,0-3,0.2-4,0.6c-1.1,0.4-2,0.9-2.8,1.4s-1.5,0.9-2,1.4S191,88,190.4,88c-0.4,0-0.8-0.1-1.1-0.3
		s-0.6-0.5-0.8-0.9L187.3,84.6z M208.3,99.7c-3,0.1-5.5,0.3-7.6,0.7c-2.1,0.4-3.8,0.9-5.1,1.5s-2.3,1.3-2.9,2.2
		c-0.6,0.8-0.9,1.8-0.9,2.8s0.2,1.8,0.5,2.5s0.7,1.3,1.3,1.7c0.5,0.5,1.2,0.8,1.9,1s1.5,0.3,2.4,0.3c1.1,0,2.2-0.1,3.1-0.3
		c0.9-0.2,1.8-0.6,2.7-1c0.8-0.4,1.6-1,2.4-1.6c0.8-0.6,1.5-1.3,2.2-2.1L208.3,99.7L208.3,99.7z"/>
	<path class="st1" d="M232.6,67.7c0,0.6-0.1,1.2-0.4,1.8c-0.3,0.5-0.6,1-1,1.5c-0.4,0.4-0.9,0.8-1.5,1s-1.2,0.4-1.8,0.4
		s-1.2-0.1-1.8-0.4c-0.5-0.2-1-0.6-1.4-1s-0.7-0.9-1-1.5c-0.2-0.5-0.4-1.1-0.4-1.8c0-0.6,0.1-1.2,0.4-1.8c0.2-0.6,0.6-1.1,1-1.5
		s0.9-0.8,1.4-1s1.1-0.4,1.8-0.4c0.6,0,1.2,0.1,1.8,0.4c0.6,0.2,1.1,0.6,1.5,1s0.8,0.9,1,1.5C232.5,66.5,232.6,67.1,232.6,67.7z
		 M231.2,79.3v37h-6.5v-37L231.2,79.3L231.2,79.3z"/>
	<path class="st1" d="M241.7,116.3v-37h3.9c0.9,0,1.5,0.5,1.7,1.4l0.5,3.8c1.4-1.7,2.9-3.1,4.6-4.1c1.7-1.1,3.7-1.6,5.9-1.6
		c2.5,0,4.5,0.7,6,2.1c1.5,1.4,2.7,3.3,3.3,5.6c0.5-1.3,1.2-2.5,2.1-3.5c0.8-1,1.8-1.8,2.8-2.4c1-0.6,2.2-1.1,3.3-1.4
		c1.2-0.3,2.4-0.4,3.6-0.4c1.9,0,3.7,0.3,5.2,0.9c1.5,0.6,2.8,1.5,3.9,2.7s1.9,2.7,2.4,4.4c0.6,1.7,0.8,3.7,0.8,6v23.5h-6.5V92.8
		c0-2.9-0.6-5.1-1.9-6.6s-3.1-2.2-5.5-2.2c-1.1,0-2.1,0.2-3,0.6c-1,0.4-1.8,0.9-2.5,1.7c-0.7,0.7-1.3,1.6-1.7,2.8
		c-0.4,1.1-0.6,2.4-0.6,3.9v23.5h-6.5V93c0-3-0.6-5.2-1.8-6.6s-2.9-2.2-5.2-2.2c-1.6,0-3.1,0.4-4.5,1.3c-1.4,0.9-2.6,2-3.8,3.5v27.6
		h-6.5V116.3z"/>
	<path class="st1" d="M331.6,111.1c-0.8,1-1.8,1.8-2.9,2.5s-2.3,1.3-3.6,1.8c-1.3,0.5-2.6,0.8-4,1s-2.7,0.3-4.1,0.3
		c-2.6,0-4.9-0.4-7.1-1.3s-4-2.1-5.6-3.8s-2.8-3.7-3.7-6.2c-0.9-2.5-1.3-5.3-1.3-8.5c0-2.6,0.4-5,1.2-7.2c0.8-2.2,1.9-4.2,3.4-5.8
		s3.3-2.9,5.4-3.9c2.1-0.9,4.5-1.4,7.2-1.4c2.2,0,4.3,0.4,6.2,1.1c1.9,0.7,3.5,1.8,4.9,3.2s2.5,3.1,3.2,5.2c0.8,2.1,1.2,4.4,1.2,7
		c0,1-0.1,1.7-0.3,2s-0.6,0.5-1.2,0.5H306c0.1,2.3,0.4,4.4,1,6.1s1.4,3.2,2.4,4.3c1,1.2,2.2,2,3.7,2.6c1.4,0.6,3,0.9,4.7,0.9
		c1.6,0,3-0.2,4.2-0.6s2.2-0.8,3-1.2c0.9-0.4,1.6-0.8,2.1-1.2c0.6-0.4,1.1-0.6,1.5-0.6c0.5,0,0.9,0.2,1.2,0.6L331.6,111.1z
		 M326.4,93.8c0-1.5-0.2-2.9-0.6-4.1c-0.4-1.3-1-2.3-1.9-3.2c-0.8-0.9-1.8-1.6-3-2.1s-2.5-0.7-4-0.7c-3.1,0-5.6,0.9-7.4,2.7
		s-2.9,4.3-3.4,7.5L326.4,93.8L326.4,93.8z"/>
	<path class="st1" d="M370.6,62.5v53.8h-3.9c-0.9,0-1.5-0.5-1.8-1.4l-0.6-4.5c-1.6,1.9-3.4,3.4-5.4,4.6s-4.4,1.8-7,1.8
		c-2.1,0-4-0.4-5.8-1.2c-1.7-0.8-3.2-2-4.4-3.6s-2.2-3.6-2.8-5.9s-1-5.1-1-8.1c0-2.7,0.4-5.3,1.1-7.6c0.7-2.3,1.8-4.4,3.1-6.1
		c1.4-1.7,3-3.1,5-4.1s4.2-1.5,6.7-1.5c2.3,0,4.2,0.4,5.8,1.1c1.6,0.8,3.1,1.8,4.3,3.2V62.5L370.6,62.5L370.6,62.5z M364.1,88.1
		c-1.2-1.6-2.5-2.8-3.9-3.4c-1.4-0.6-3-1-4.7-1c-3.4,0-6.1,1.2-7.9,3.7s-2.8,6-2.8,10.5c0,2.4,0.2,4.5,0.6,6.2s1,3.1,1.8,4.2
		s1.8,1.9,3,2.4s2.5,0.8,4,0.8c2.1,0,4-0.5,5.6-1.5s3.1-2.3,4.4-4.1V88.1H364.1z"/>
</g>
</svg>
