<?xml version="1.0" encoding="utf-8"?>
<!-- Generator: Adobe Illustrator 25.0.0, SVG Export Plug-In . SVG Version: 6.00 Build 0)  -->
<svg version="1.1" id="Layer_1" xmlns="http://www.w3.org/2000/svg" xmlns:xlink="http://www.w3.org/1999/xlink" x="0px" y="0px"
	 viewBox="0 0 350 120" style="enable-background:new 0 0 350 120;" xml:space="preserve">
<style type="text/css">
	.st0{fill:#0084FF;}
	.st1{fill:#002A64;stroke:#0084FF;stroke-width:5;stroke-miterlimit:10;}
	.st2{fill:#FFFFFF;}
</style>
<g>
	<path class="st0" d="M60.7,40.2c-1.7-1.6-3.4-3-5.3-4.4c-1.9-1.3-3.9-2.5-6-3.5s-4.2-1.8-6.5-2.3c-2.2-0.6-4.4-0.9-6.7-0.9
		c-4.9,0-9.5,0.9-13.8,2.7s-8.1,4.3-11.3,7.6s-5.8,7.2-7.6,11.7c-1.9,4.5-2.8,9.5-2.8,15c0,5.8,0.9,11,2.8,15.6s4.4,8.4,7.6,11.6
		c3.2,3.1,7,5.5,11.3,7.2s8.9,2.5,13.8,2.5c2.3,0,4.5-0.3,6.7-0.8c2.2-0.6,4.3-1.3,6.4-2.3s4.1-2.1,6-3.5c1.9-1.3,3.7-2.7,5.4-4.3
		l6.9,9.6h4.3V31.9h-4.3L60.7,40.2z M52.6,73.1c-0.9,2.3-2.2,4.3-3.8,6.1c-1.6,1.8-3.5,3.2-5.6,4.2C41,84.5,38.8,85,36.3,85
		c-2.4,0-4.7-0.4-6.9-1.2c-2.2-0.8-4-2-5.6-3.6s-2.8-3.6-3.7-6s-1.4-5.1-1.4-8.1s0.5-5.7,1.4-8.1s2.2-4.4,3.7-6
		c1.6-1.6,3.5-2.8,5.6-3.6c2.2-0.8,4.4-1.2,6.9-1.2c2.4,0,4.7,0.5,6.9,1.6s4,2.5,5.6,4.2c1.6,1.8,2.9,3.8,3.8,6.1s1.4,4.6,1.4,7.1
		C54,68.5,53.6,70.8,52.6,73.1z"/>
	<polygon class="st0" points="103.4,31.8 103.4,101.6 85.5,101.6 85.5,39.8 99.1,31.8 	"/>
	<path class="st0" d="M103,4.4c-1.1-1.1-2.4-1.9-3.8-2.5S96.2,1,94.5,1s-3.2,0.3-4.7,0.9S87.1,3.4,86,4.4c-1.1,1.1-1.9,2.3-2.5,3.8
		s-0.9,3-0.9,4.6c0,1.7,0.3,3.2,0.9,4.6s1.5,2.7,2.5,3.7c1.1,1.1,2.3,1.9,3.8,2.5c1.4,0.6,3,0.9,4.7,0.9s3.2-0.3,4.7-0.9
		s2.7-1.5,3.8-2.5c1.1-1.1,1.9-2.3,2.6-3.7c0.6-1.4,0.9-3,0.9-4.6s-0.3-3.1-0.9-4.6C104.9,6.7,104.1,5.5,103,4.4z"/>
	<path class="st0" d="M165.1,73.1c-0.9,2.3-2.2,4.3-3.8,6.1c-1.6,1.8-3.5,3.2-5.6,4.2c-2.2,1.1-4.4,1.6-6.9,1.6
		c-2.4,0-4.7-0.5-6.9-1.5s-4-2.4-5.6-4.1s-2.8-3.8-3.7-6.1c-0.9-2.3-1.4-4.7-1.4-7.3c0-3,0.5-5.6,1.4-8c0.9-2.3,2.2-4.3,3.7-6
		c1.6-1.6,3.5-2.9,5.6-3.7s4.4-1.3,6.9-1.3c2.4,0,4.7,0.5,6.9,1.6s4,2.5,5.6,4.2c1.6,1.8,2.9,3.8,3.8,6.1c0.9,2.3,1.4,4.6,1.4,7.1
		C166.5,68.5,166,70.8,165.1,73.1z M180,4l-13.5,9.5v23.1c-1-1.4-2.1-2.6-3.5-3.5c-1.4-1-2.9-1.7-4.5-2.3s-3.2-1-4.9-1.3
		s-3.3-0.4-4.9-0.4c-4.9,0-9.5,0.9-13.8,2.8s-8.1,4.5-11.3,7.8s-5.8,7.2-7.7,11.7s-2.8,9.4-2.8,14.7s0.9,10.2,2.8,14.7
		c1.9,4.5,4.4,8.4,7.7,11.7c3.2,3.3,7,5.8,11.3,7.7c4.3,1.8,8.9,2.8,13.8,2.8c2.3,0,4.5-0.3,6.7-0.8c2.2-0.6,4.3-1.3,6.4-2.3
		c2.1-1,4.1-2.1,6-3.5c1.9-1.3,3.7-2.7,5.4-4.3l6.9,9.6h4.3V4.1L180,4L180,4z"/>
	<path class="st0" d="M242,31.9v2.7c-2.4,2.7-5.8,7.5-7.8,15h-4.9c-1.9,0-3.6,0.3-5.3,1s-3.1,1.7-4.3,2.9s-2.2,2.7-2.9,4.3
		c-0.7,1.7-1,3.4-1,5.3v38.5H198V31.8h4.3l5.9,8.3c2.9-2.6,6.1-4.6,9.8-6s7.4-2.1,11.3-2.1L242,31.9L242,31.9z"/>
	<g>
		<g>
			<g>
				<g>
					<g>
						<g>
							<g>
								<path class="st0" d="M346.8,49.2c-1.9-4.8-4.6-8.8-7.9-12.2c-3.4-3.4-7.3-5.9-11.8-7.8c-3.8-1.5-7.7-2.4-12-2.6
									c2.4,1.6,4.7,3.5,6.7,5.5c3.4,3.4,6.3,7.3,8.5,11.7l0,0c0.3,0.6,0.6,1.2,1,1.8c0.4,0.7,0.7,1.6,1.1,2.4
									c2.1,5.1,3.2,10.7,3.2,17c0,4.9-0.7,9.4-2.1,13.7l0,0c-2.2,7.2-6.3,13.8-11.4,19c-2,2.1-4.3,3.9-6.7,5.6
									c4.2-0.2,8.3-1.3,12.1-2.9c4.5-2,8.5-4.7,11.8-8.1c3.4-3.4,6-7.4,7.9-12.2c1.9-4.7,3-9.8,3-15.2
									C349.8,59.3,348.8,54,346.8,49.2z"/>
							</g>
						</g>
					</g>
				</g>
			</g>
		</g>
	</g>
	<g>
		<path class="st1" d="M321.8,65c0,10.6-4.3,20.2-11.3,27.2s-16.6,11.3-27.2,11.3c-8.8,0-16.9-2.9-23.3-7.9c0,0-0.1,0-0.1-0.1
			c0,0,0,0-0.1-0.1c0,0-0.1,0-0.1-0.1c-0.7-0.5-1.4-1.1-2.1-1.8c-0.6-0.6-1.3-1.1-1.9-1.8l0,0c0,0,0,0-0.1,0l0,0
			c-0.4-0.3-0.7-0.7-0.9-1l-0.1-0.1c-6-6.8-9.7-14.7-9.7-24.5c0-10.6,4.3-21.2,11.3-28.2s16.6-11.3,27.2-11.3s20.2,4.3,27.2,11.3
			C317.4,44.8,321.8,54.4,321.8,65z"/>
		<g>
			<g>
				<path class="st2" d="M295.4,68.7l6.6,20.9l-15.2-10.9v-0.1l4.4-7.5l-24.5,18.3l1.6-5.7c7-10,23.3-22.5,23.3-22.5
					c-13.8,0.3-22.7,4.5-22.7,4.5l-13.3-9.9h21.6l7-20.9l6.8,20.9l21.8,0.1L295.4,68.7z"/>
			</g>
			<path class="st0" d="M266.7,89.6c0,0,7-12.5,25-28.3c0,0-16,5.7-22.8,15.8L266.7,89.6z"/>
		</g>
	</g>
</g>
</svg>
