<?xml version="1.0" encoding="utf-8"?>
<!-- Generator: Adobe Illustrator 27.3.1, SVG Export Plug-In . SVG Version: 6.00 Build 0)  -->
<svg version="1.1" id="Layer_1" xmlns="http://www.w3.org/2000/svg" xmlns:xlink="http://www.w3.org/1999/xlink" x="0px" y="0px"
	 viewBox="0 0 512 123" style="enable-background:new 0 0 512 123;" xml:space="preserve">
<style type="text/css">
	.st0{fill:#353535;}
	.st1{fill:#FFFFFF;}
</style>
<g>
	<path class="st0" d="M489.4,116.9H22.6c-12,0-21.8-9.7-21.8-21.8V27.3c0-12,9.7-21.8,21.8-21.8h466.8c12,0,21.8,9.7,21.8,21.8v67.8
		C511.2,107.1,501.4,116.9,489.4,116.9z"/>
	<g>
		<g>
			<path class="st1" d="M193.1,82.2h-2.5c-0.3,0-0.5-0.1-0.7-0.2s-0.3-0.4-0.4-0.6l-5.3-13h-22l-5.3,13c-0.1,0.2-0.2,0.4-0.4,0.6
				s-0.5,0.2-0.8,0.2h-2.5l18.3-44.7h3.2L193.1,82.2z M183.2,65.9l-9.1-22.6c-0.3-0.7-0.6-1.6-0.9-2.6c-0.1,0.5-0.3,1-0.4,1.4
				c-0.2,0.5-0.3,0.9-0.5,1.3L163.2,66L183.2,65.9L183.2,65.9z"/>
			<path class="st1" d="M201.8,56.4c1.4-1.9,3-3.4,4.9-4.5s4-1.7,6.3-1.7c3.8,0,6.9,1.4,9,4c2.2,2.7,3.2,6.7,3.2,12
				c0,2.3-0.3,4.5-0.9,6.4c-0.6,2-1.5,3.7-2.6,5.2c-1.2,1.5-2.6,2.6-4.3,3.5c-1.7,0.8-3.7,1.3-5.9,1.3c-2.1,0-4-0.4-5.5-1.2
				c-1.6-0.8-2.9-1.9-4.1-3.4v15.3h-3V50.7h1.7c0.5,0,0.8,0.3,0.9,0.8L201.8,56.4z M201.9,75.3c0.6,0.9,1.3,1.7,1.9,2.3
				c0.7,0.6,1.4,1.1,2.1,1.5c0.7,0.4,1.5,0.7,2.4,0.8c0.8,0.2,1.7,0.2,2.6,0.2c1.8,0,3.5-0.3,4.9-1s2.6-1.6,3.5-2.9
				c1-1.2,1.7-2.7,2.1-4.4c0.5-1.7,0.7-3.6,0.7-5.7c0-4.7-0.9-8.1-2.6-10.3c-1.7-2.2-4.2-3.3-7.4-3.3c-2.1,0-4,0.5-5.7,1.6
				s-3.2,2.6-4.5,4.5V75.3z"/>
			<path class="st1" d="M236.7,56.4c1.4-1.9,3-3.4,4.9-4.5s4-1.7,6.3-1.7c3.8,0,6.9,1.4,9,4c2.2,2.7,3.2,6.7,3.2,12
				c0,2.3-0.3,4.5-0.9,6.4c-0.6,2-1.5,3.7-2.6,5.2s-2.6,2.6-4.3,3.5c-1.7,0.8-3.7,1.3-5.9,1.3c-2.1,0-4-0.4-5.5-1.2
				c-1.6-0.8-2.9-1.9-4.1-3.4v15.3h-3V50.7h1.7c0.5,0,0.8,0.3,0.9,0.8L236.7,56.4z M236.8,75.3c0.6,0.9,1.3,1.7,1.9,2.3
				c0.7,0.6,1.4,1.1,2.1,1.5c0.7,0.4,1.5,0.7,2.4,0.8c0.8,0.2,1.7,0.2,2.6,0.2c1.8,0,3.5-0.3,4.9-1s2.6-1.6,3.5-2.9
				c1-1.2,1.7-2.7,2.1-4.4c0.5-1.7,0.7-3.6,0.7-5.7c0-4.7-0.9-8.1-2.6-10.3c-1.7-2.2-4.2-3.3-7.4-3.3c-2.1,0-4,0.5-5.7,1.6
				s-3.2,2.6-4.5,4.5V75.3z"/>
			<path class="st1" d="M309,42.9c-0.2,0.4-0.5,0.5-0.8,0.5s-0.6-0.2-1-0.6s-1-0.8-1.8-1.3c-0.7-0.5-1.7-0.9-2.8-1.3
				c-1.1-0.4-2.5-0.6-4.1-0.6s-3,0.2-4.3,0.7c-1.2,0.5-2.3,1.1-3.1,1.9c-0.8,0.8-1.5,1.7-1.9,2.8s-0.6,2.2-0.6,3.3
				c0,1.5,0.3,2.8,1,3.7s1.5,1.8,2.6,2.5c1,0.7,2.2,1.3,3.6,1.8s2.7,1,4.1,1.4c1.4,0.5,2.8,1,4.1,1.5c1.3,0.6,2.5,1.3,3.6,2.1
				c1,0.8,1.9,1.9,2.6,3.1c0.6,1.2,1,2.8,1,4.6c0,1.9-0.3,3.7-1,5.3c-0.6,1.7-1.6,3.1-2.8,4.3c-1.2,1.2-2.7,2.2-4.5,2.9
				c-1.8,0.7-3.8,1-6.1,1c-2.9,0-5.5-0.5-7.6-1.6c-2.1-1-4-2.5-5.6-4.3l0.9-1.4c0.2-0.3,0.6-0.5,0.9-0.5c0.2,0,0.4,0.1,0.7,0.4
				c0.3,0.2,0.6,0.6,1.1,0.9c0.4,0.4,0.9,0.8,1.5,1.2c0.6,0.4,1.3,0.8,2.1,1.2c0.8,0.4,1.7,0.7,2.7,0.9c1,0.2,2.2,0.4,3.4,0.4
				c1.8,0,3.3-0.3,4.7-0.8s2.6-1.3,3.5-2.2c1-0.9,1.7-2,2.2-3.3s0.8-2.6,0.8-4.1c0-1.6-0.3-2.9-1-3.9c-0.6-1-1.5-1.9-2.6-2.6
				c-1-0.7-2.2-1.3-3.6-1.7c-1.4-0.5-2.7-0.9-4.1-1.4c-1.4-0.4-2.8-0.9-4.1-1.5c-1.4-0.6-2.6-1.3-3.6-2.1c-1-0.9-1.9-1.9-2.6-3.2
				c-0.6-1.3-1-2.9-1-4.8c0-1.5,0.3-2.9,0.9-4.3c0.6-1.4,1.4-2.6,2.5-3.7c1.1-1.1,2.5-1.9,4.1-2.6c1.6-0.6,3.4-1,5.5-1
				c2.3,0,4.4,0.4,6.2,1.1c1.8,0.7,3.5,1.9,5,3.4L309,42.9z"/>
			<path class="st1" d="M326.8,82.7c-2.1,0-3.8-0.6-5-1.8c-1.2-1.2-1.8-3-1.8-5.5V53.9h-4.5c-0.2,0-0.4-0.1-0.6-0.2
				c-0.2-0.1-0.2-0.3-0.2-0.6V52l5.4-0.4l0.8-11.2c0-0.2,0.1-0.4,0.2-0.5c0.1-0.2,0.3-0.2,0.6-0.2h1.4v12h9.9v2.2h-9.9v21.4
				c0,0.9,0.1,1.6,0.3,2.2c0.2,0.6,0.5,1.1,0.9,1.5s0.9,0.7,1.4,0.9c0.5,0.2,1.1,0.3,1.7,0.3c0.8,0,1.4-0.1,2-0.3
				c0.6-0.2,1-0.5,1.4-0.7c0.4-0.3,0.7-0.5,1-0.7c0.2-0.2,0.5-0.3,0.6-0.3c0.2,0,0.3,0.1,0.5,0.3l0.8,1.3c-0.8,0.9-1.8,1.6-3,2.1
				S328.1,82.7,326.8,82.7z"/>
			<path class="st1" d="M352.2,50.2c2.2,0,4.3,0.4,6.1,1.2c1.8,0.8,3.3,1.9,4.5,3.3s2.2,3.1,2.8,5.1c0.6,2,1,4.2,1,6.7
				s-0.3,4.7-1,6.7c-0.6,2-1.6,3.7-2.8,5.1c-1.2,1.4-2.7,2.5-4.5,3.3s-3.8,1.1-6.1,1.1s-4.3-0.4-6.1-1.1c-1.8-0.8-3.3-1.8-4.5-3.3
				c-1.2-1.4-2.2-3.1-2.8-5.1c-0.6-2-1-4.2-1-6.7s0.3-4.7,1-6.7c0.6-2,1.6-3.7,2.8-5.1c1.2-1.4,2.7-2.5,4.5-3.3
				C348,50.6,350,50.2,352.2,50.2z M352.2,80.2c1.9,0,3.5-0.3,4.9-1c1.4-0.6,2.6-1.6,3.5-2.8c1-1.2,1.6-2.6,2.1-4.3
				c0.5-1.7,0.7-3.6,0.7-5.7s-0.2-4-0.7-5.7s-1.2-3.2-2.1-4.4s-2.1-2.2-3.5-2.8s-3-1-4.9-1s-3.5,0.3-4.9,1s-2.6,1.6-3.5,2.8
				s-1.6,2.7-2.1,4.4s-0.7,3.6-0.7,5.7s0.2,4,0.7,5.7s1.2,3.1,2.1,4.3s2.1,2.1,3.5,2.8S350.4,80.2,352.2,80.2z"/>
			<path class="st1" d="M378,58.3c0.5-1.3,1-2.4,1.7-3.4s1.4-1.8,2.2-2.6s1.7-1.2,2.7-1.6c1-0.4,2.1-0.6,3.3-0.6
				c0.6,0,1.3,0.1,1.9,0.2c0.6,0.1,1.2,0.3,1.7,0.6l-0.2,2.1c-0.1,0.3-0.3,0.5-0.6,0.5c-0.2,0-0.6-0.1-1.2-0.2
				c-0.5-0.2-1.2-0.2-2-0.2c-1.2,0-2.3,0.2-3.2,0.6c-1,0.4-1.8,0.9-2.5,1.7c-0.7,0.7-1.4,1.7-2,2.7c-0.6,1.1-1.1,2.3-1.5,3.7v20.4
				h-3V50.7h1.6c0.4,0,0.6,0.1,0.8,0.2c0.2,0.2,0.2,0.4,0.3,0.8L378,58.3z"/>
			<path class="st1" d="M396.7,65.2v0.6c0,2.4,0.3,4.4,0.8,6.2c0.6,1.8,1.3,3.3,2.3,4.5s2.2,2.1,3.7,2.7c1.4,0.6,3,0.9,4.8,0.9
				c1.6,0,2.9-0.2,4.1-0.5s2.1-0.7,2.9-1.2c0.8-0.4,1.4-0.8,1.9-1.2c0.5-0.3,0.8-0.5,1-0.5c0.3,0,0.5,0.1,0.6,0.3l0.8,1
				c-0.5,0.6-1.2,1.2-2,1.8c-0.8,0.6-1.8,1-2.8,1.4s-2.1,0.7-3.3,0.9s-2.3,0.3-3.5,0.3c-2.2,0-4.1-0.4-5.9-1.1
				c-1.8-0.8-3.3-1.8-4.5-3.3c-1.3-1.4-2.2-3.2-2.9-5.3c-0.7-2.1-1-4.5-1-7.1c0-2.2,0.3-4.3,1-6.2c0.6-1.9,1.6-3.6,2.8-4.9
				s2.7-2.5,4.5-3.2c1.8-0.8,3.7-1.2,6-1.2c1.8,0,3.4,0.3,4.9,0.9c1.5,0.6,2.8,1.5,4,2.7c1.1,1.2,2,2.6,2.6,4.3s1,3.7,1,5.9
				c0,0.5-0.1,0.8-0.2,1s-0.3,0.2-0.6,0.2L396.7,65.2L396.7,65.2z M417.7,63.2c0-1.7-0.2-3.2-0.7-4.5c-0.5-1.4-1.1-2.5-2-3.4
				s-1.9-1.6-3.1-2.1s-2.5-0.7-3.9-0.7c-1.6,0-3.1,0.2-4.4,0.8c-1.3,0.5-2.4,1.2-3.3,2.2c-1,1-1.7,2.1-2.3,3.4
				c-0.6,1.3-1,2.8-1.1,4.5h20.8V63.2z"/>
		</g>
	</g>
	<path class="st1" d="M84.9,59.5c-0.1-9.4,7.7-14,8.1-14.2c-4.4-6.5-11.3-7.3-13.7-7.4C73.6,37.3,68,41.3,65,41.3s-7.5-3.4-12.4-3.3
		c-6.3,0.1-12.1,3.7-15.3,9.3c-6.6,11.5-1.7,28.3,4.7,37.6c3.2,4.5,6.9,9.6,11.7,9.4s6.5-3,12.3-3c5.7,0,7.3,3,12.3,2.9
		c5.1-0.1,8.3-4.5,11.4-9.1c3.7-5.2,5.1-10.3,5.2-10.6C94.8,74.5,85,70.7,84.9,59.5L84.9,59.5z M75.6,31.8c2.6-3.2,4.3-7.5,3.8-12
		c-3.7,0.2-8.3,2.6-11,5.7c-2.4,2.8-4.5,7.3-3.9,11.5C68.7,37.3,72.9,34.9,75.6,31.8z"/>
</g>
</svg>
