<?xml version="1.0" encoding="utf-8"?>
<!-- Generator: Adobe Illustrator 25.0.0, SVG Export Plug-In . SVG Version: 6.00 Build 0)  -->
<svg version="1.1" id="Layer_1" xmlns="http://www.w3.org/2000/svg" xmlns:xlink="http://www.w3.org/1999/xlink" x="0px" y="0px"
	 viewBox="0 0 512 512" style="enable-background:new 0 0 512 512;" xml:space="preserve">
<style type="text/css">
	.st0{display:none;}
	.st1{display:inline;}
	.st2{fill:#FF3728;stroke:#CC0E05;stroke-miterlimit:10;}
	.st3{fill:#FFFFFF;stroke:#9B9B9B;stroke-miterlimit:10;}
	.st4{opacity:0.23;fill:url(#SVGID_1_);enable-background:new    ;}
	.st5{opacity:0.23;fill:url(#SVGID_2_);enable-background:new    ;}
	.st6{fill:#FFFFFF;}
	.st7{fill:#CFF0FF;}
	.st8{fill-rule:evenodd;clip-rule:evenodd;fill:#FFFFFF;}
	.st9{fill-rule:evenodd;clip-rule:evenodd;fill:#F7B932;}
	.st10{fill-rule:evenodd;clip-rule:evenodd;fill:#CC8200;}
	.st11{fill:url(#SVGID_3_);}
	.st12{opacity:0.5;}
	.st13{opacity:0.5;enable-background:new    ;}
	.st14{fill:url(#XMLID_7_);}
	.st15{fill:url(#XMLID_8_);}
	.st16{fill:#03070A;}
	.st17{fill:#00133D;}
	.st18{opacity:9.000000e-02;fill-rule:evenodd;clip-rule:evenodd;fill:url(#SVGID_4_);enable-background:new    ;}
	.st19{opacity:9.000000e-02;fill-rule:evenodd;clip-rule:evenodd;fill:url(#SVGID_5_);enable-background:new    ;}
	.st20{fill:url(#SVGID_6_);}
	.st21{fill:#FFFFFF;stroke:#4390FF;stroke-width:1.0481;stroke-miterlimit:10;}
	.st22{fill:#73C6FF;}
	.st23{fill:#CCE8FF;}
	.st24{fill:#0090FF;}
	.st25{opacity:0.43;fill:url(#SVGID_7_);enable-background:new    ;}
	.st26{fill:#FEB097;}
	.st27{fill:url(#SVGID_8_);}
	.st28{fill:#613531;}
	.st29{fill:#004D9C;}
	.st30{fill:#0D3474;}
	.st31{fill:#F6B5A0;}
	.st32{fill:#0084FF;}
	.st33{fill:#0058A5;}
	.st34{fill:#B1B1B1;}
	.st35{fill:#E3F3FF;}
	.st36{fill:#D9D9D9;}
	.st37{fill:#2C4367;}
	.st38{fill:#F5AD95;}
	.st39{fill:#8ACFE4;}
	.st40{fill:#002A64;}
	.st41{fill:none;stroke:#0084FF;stroke-width:0.5;stroke-miterlimit:10;}
	.st42{stroke:#0080FF;stroke-width:1.0481;stroke-miterlimit:10;}
	.st43{fill:#05AFFE;}
	.st44{fill:#057ED1;}
	.st45{fill:#FDFEFE;}
	.st46{fill:url(#SVGID_9_);}
	.st47{fill:url(#SVGID_10_);}
	.st48{fill:url(#SVGID_11_);}
	.st49{fill:url(#SVGID_12_);}
	.st50{fill:url(#SVGID_13_);}
	.st51{fill:url(#SVGID_14_);}
	.st52{fill:url(#SVGID_15_);}
	.st53{fill:url(#SVGID_16_);}
	.st54{fill:url(#SVGID_17_);}
	.st55{fill:url(#SVGID_18_);}
	.st56{fill:url(#SVGID_19_);}
	.st57{fill:url(#SVGID_20_);}
	.st58{fill:url(#SVGID_21_);}
	.st59{fill:url(#SVGID_22_);}
	.st60{fill:url(#SVGID_23_);}
	.st61{fill:url(#SVGID_24_);}
	.st62{fill:#EDBB1B;}
	.st63{fill:url(#SVGID_25_);}
	.st64{fill:url(#SVGID_26_);}
	.st65{fill:url(#SVGID_27_);}
	.st66{fill:url(#SVGID_28_);}
	.st67{enable-background:new    ;}
	.st68{fill:url(#SVGID_29_);}
	.st69{fill:#0096C3;}
	.st70{fill:#00DAF9;}
	.st71{opacity:0.5;fill:url(#SVGID_30_);enable-background:new    ;}
	.st72{opacity:0.5;fill:url(#SVGID_31_);enable-background:new    ;}
	.st73{fill:url(#SVGID_32_);}
	.st74{fill:url(#SVGID_33_);}
	.st75{fill:#148E81;}
	.st76{fill:#00C3B8;}
	.st77{opacity:0.5;fill:url(#SVGID_34_);enable-background:new    ;}
	.st78{opacity:0.5;fill:url(#SVGID_35_);enable-background:new    ;}
	.st79{fill:url(#SVGID_36_);}
	.st80{fill:url(#SVGID_37_);}
	.st81{fill:#D3302A;}
	.st82{fill:#FF7676;}
	.st83{opacity:0.5;fill:url(#SVGID_38_);enable-background:new    ;}
	.st84{opacity:0.5;fill:url(#SVGID_39_);enable-background:new    ;}
	.st85{fill:url(#SVGID_40_);}
	.st86{fill:url(#SVGID_41_);}
	.st87{fill:#F15F22;}
	.st88{fill:#FF9E00;}
	.st89{opacity:0.5;fill:url(#SVGID_42_);enable-background:new    ;}
	.st90{fill:url(#SVGID_43_);}
	.st91{opacity:0.15;}
	.st92{fill:#3D3D3D;}
	.st93{fill:url(#SVGID_44_);}
	.st94{fill:url(#SVGID_45_);}
	.st95{fill:url(#SVGID_46_);}
	.st96{fill:url(#SVGID_47_);}
	.st97{fill:#232020;}
	.st98{fill:url(#SVGID_48_);}
	.st99{fill:url(#SVGID_49_);}
	.st100{fill:url(#SVGID_50_);}
	.st101{fill:url(#SVGID_51_);}
	.st102{fill:url(#SVGID_52_);}
	.st103{fill:url(#SVGID_53_);}
	.st104{fill:url(#SVGID_54_);}
	.st105{fill:url(#SVGID_55_);}
	.st106{fill:url(#SVGID_56_);}
	.st107{fill:url(#SVGID_57_);}
	.st108{fill:url(#SVGID_58_);}
	.st109{fill:url(#SVGID_59_);}
	.st110{fill:url(#SVGID_60_);}
	.st111{fill:url(#SVGID_61_);}
</style>
<g class="st0">
	<g class="st1">
		<path class="st2" d="M86.5,240c0,13.6,11.1,24.7,24.7,24.7c13.7,0,24.7-11.1,24.7-24.7c0-13.6-11.1-24.7-24.7-24.7
			c-6,0-11.5,2.1-15.7,5.7l3.5,3.2l3.7,3.3l3.8,3.5l0.1,0.1c0.1,0.1,0.2,0.3,0.3,0.4c1.2,1.5,1.1,3.8-0.3,5.2
			c-0.7,0.7-1.7,1.2-2.8,1.2c-0.6,0-1.2-0.1-1.8-0.4c-0.4-0.2-0.7-0.4-1-0.7l-3.5-3.2l-3.7-3.4l-3.5-3.2
			C87.9,230.7,86.5,235.2,86.5,240z"/>
		<path class="st3" d="M91.2,240c0,11.1,9,20.1,20.1,20.1s20.1-9,20.1-20.1s-9-20.1-20.1-20.1c-4.6,0-8.9,1.6-12.3,4.2l3.7,3.3
			l3.8,3.5l0.1,0.1c0.1,0.1,0.2,0.3,0.3,0.4c1.2,1.5,1.1,3.8-0.3,5.2c-0.7,0.7-1.7,1.2-2.8,1.2c-0.6,0-1.2-0.1-1.8-0.4
			c-0.4-0.2-0.7-0.4-1-0.7l-3.5-3.2l-3.7-3.4C92.1,233,91.2,236.4,91.2,240z"/>
		<path class="st2" d="M96,240c0,8.4,6.8,15.2,15.2,15.2s15.2-6.8,15.2-15.2s-6.8-15.2-15.2-15.2c-3.2,0-6.2,1-8.6,2.7l3.8,3.5
			l0.1,0.1c0.1,0.1,0.2,0.3,0.3,0.4c1.2,1.5,1.1,3.8-0.3,5.2c-0.7,0.7-1.7,1.2-2.8,1.2c-0.6,0-1.2-0.1-1.8-0.4
			c-0.4-0.2-0.7-0.4-1-0.7l-3.5-3.2C96.5,235.4,96,237.7,96,240z"/>
		<path class="st3" d="M101.6,240c0,5.3,4.3,9.7,9.7,9.7c5.3,0,9.7-4.3,9.7-9.7c0-5.3-4.3-9.7-9.7-9.7c-1.6,0-3.1,0.4-4.4,1
			c1.2,1.5,1.1,3.8-0.3,5.2c-0.7,0.7-1.7,1.2-2.8,1.2c-0.6,0-1.2-0.1-1.8-0.4C101.7,238.2,101.6,239.1,101.6,240z"/>
		<circle class="st2" cx="111.2" cy="240" r="4.5"/>
	</g>
	<g class="st1">
		<polygon class="st2" points="80.7,211 80.7,206.1 88.1,212.5 87.8,217.4 		"/>
		<polygon class="st2" points="78.9,213.2 74,213.8 81.2,220.5 86,219.6 		"/>
		<path class="st3" d="M104.3,232.4c0.6,0.6,0.6,1.5,0,2c-0.6,0.6-1.5,0.6-2,0c-8.1-7.3-16.1-14.6-24.2-21.9
			c-0.6-0.5-0.6-1.5-0.1-2.1l0,0c0.5-0.5,1.4-0.6,2,0L104.3,232.4z"/>
	</g>
</g>
<g>
	<g>
		
			<linearGradient id="SVGID_1_" gradientUnits="userSpaceOnUse" x1="405.4058" y1="333.4035" x2="382.5942" y2="263.1965" gradientTransform="matrix(1 0 0 -1 0 514)">
			<stop  offset="0" style="stop-color:#55D6FF"/>
			<stop  offset="0.1354" style="stop-color:#6CDAF9;stop-opacity:0.8563"/>
			<stop  offset="0.4098" style="stop-color:#96E2EF;stop-opacity:0.5651"/>
			<stop  offset="0.6252" style="stop-color:#B0E6E8;stop-opacity:0.3363"/>
			<stop  offset="0.7537" style="stop-color:#BAE8E6;stop-opacity:0.2"/>
		</linearGradient>
		<circle class="st4" cx="394" cy="215.7" r="36.9"/>
		
			<linearGradient id="SVGID_2_" gradientUnits="userSpaceOnUse" x1="310.2597" y1="374.305" x2="252.9323" y2="104.6008" gradientTransform="matrix(1 0 0 -1 0 514)">
			<stop  offset="0" style="stop-color:#55D6FF"/>
			<stop  offset="0.1354" style="stop-color:#6CDAF9;stop-opacity:0.8563"/>
			<stop  offset="0.4098" style="stop-color:#96E2EF;stop-opacity:0.5651"/>
			<stop  offset="0.6252" style="stop-color:#B0E6E8;stop-opacity:0.3363"/>
			<stop  offset="0.7537" style="stop-color:#BAE8E6;stop-opacity:0.2"/>
		</linearGradient>
		<path class="st5" d="M331.7,402.9c7.8-6,81.5-28,117.7-75.1c12.2-15.8,11.7-41-1.7-55.8c-14.9-16.5-40.4-16-62.5-13.8
			s-47.2,3.9-63.5-11.2c-13.2-12.3-16.1-32-17.4-50s-2.5-37.4-13.8-51.6c-15.1-19.1-45.6-21.4-66.1-8.3s-31.2,38.3-31.5,62.6
			c-0.1,10.4,0.5,22.9-8.1,28.8c-6.9,4.7-16.3,2.4-23.6-1.4c-7.4-3.8-14.3-9.1-22.5-10.2c-11-1.5-21.9,5.2-28,14.4s-8,20.6-8.4,31.7
			c-1,31.4,22.3,99.9,42.9,123.5L331.7,402.9z"/>
	</g>
	<g>
		<g>
			<g>
				<circle class="st6" cx="389.4" cy="341.7" r="20.3"/>
				<path class="st7" d="M389.4,362.5c-11.5,0-20.8-9.3-20.8-20.8s9.3-20.8,20.8-20.8c11.5,0,20.8,9.3,20.8,20.8
					S400.9,362.5,389.4,362.5z M389.4,321.9c-10.9,0-19.8,8.9-19.8,19.8s8.9,19.8,19.8,19.8s19.8-8.9,19.8-19.8
					S400.3,321.9,389.4,321.9z"/>
			</g>
		</g>
		<g>
			<g>
				<path class="st8" d="M389.4,324.9c2.2,0,3.4,1.4,4.6,2.8c0.5,0.6,1,1.2,1.5,1.4c0.4,0.2,1.2,0.2,2,0.3c1.8,0.1,3.7,0.2,5,1.9
					c1.4,1.7,1,3.5,0.7,5.3c-0.1,0.8-0.3,1.6-0.2,2c0.1,0.5,0.6,1.1,1,1.7c1.1,1.5,2.2,2.9,1.7,5.1c-0.5,2.1-2.1,3-3.7,3.9
					c-0.7,0.4-1.4,0.7-1.7,1.1c-0.3,0.4-0.5,1.2-0.7,1.9c-0.5,1.8-1,3.5-2.9,4.5c-2,1-3.6,0.2-5.3-0.5c-0.7-0.3-1.5-0.6-1.9-0.6
					c-0.5,0-1.2,0.3-1.9,0.6c-1.7,0.7-3.4,1.5-5.3,0.5c-2-1-2.5-2.7-2.9-4.5c-0.2-0.8-0.4-1.5-0.7-1.9c-0.3-0.4-1-0.8-1.7-1.1
					c-1.6-0.9-3.2-1.7-3.7-3.9c-0.5-2.1,0.6-3.6,1.7-5.1c0.5-0.6,0.9-1.3,1-1.7c0.1-0.5,0-1.3-0.2-2c-0.3-1.8-0.7-3.6,0.7-5.3
					c1.4-1.7,3.2-1.8,5-1.9c0.8,0,1.6-0.1,2-0.3c0.4-0.2,1-0.8,1.5-1.4C386,326.3,387.2,324.9,389.4,324.9L389.4,324.9L389.4,324.9z
					"/>
				<path class="st9" d="M404.1,345c-0.1,0.5-0.3,0.8-0.6,1.2c-1.1,1.2-3.4,1.7-4.5,3.1c-1.4,1.7-1,5-3,6s-4.3-1.4-6.5-1.4
					c-0.6,0-1.2,0.2-1.8,0.4c-1.6,0.6-3.3,1.7-4.7,1c-2-1-1.6-4.2-3-6c-1.4-1.7-4.6-2.1-5.1-4.3c-0.5-2.2,2.3-3.9,2.8-6.1
					s-1.3-4.9,0.1-6.7c1.4-1.7,4.5-0.6,6.5-1.6c1-0.5,1.8-1.5,2.6-2.4s1.6-1.7,2.7-1.7c2.2,0,3.3,3.1,5.3,4.1s5.1-0.1,6.5,1.6
					s-0.4,4.5,0.1,6.7S404.6,342.9,404.1,345z"/>
			</g>
			<path class="st10" d="M403.4,346.2c-1.1,1.2-3.4,1.7-4.5,3.1c-1.4,1.7-1,5-3,6s-4.3-1.4-6.5-1.4c-0.6,0-1.2,0.2-1.8,0.4l-4-4.5
				l15.1-10.9L403.4,346.2L403.4,346.2z"/>
			<path class="st6" d="M392.8,337.7l5.3,0.8c0.5,0.1,0.7,0.7,0.4,1.1l-3.9,3.8c-0.2,0.1-0.2,0.4-0.2,0.6l0.9,5.3
				c0.1,0.5-0.5,0.9-0.9,0.7l-4.8-2.5c-0.2-0.1-0.4-0.1-0.6,0l-4.8,2.5c-0.5,0.2-1-0.2-0.9-0.7l0.9-5.3c0-0.2,0-0.4-0.2-0.6
				l-3.9-3.8c-0.4-0.4-0.2-1,0.4-1.1l5.3-0.8c0.2,0,0.4-0.2,0.5-0.3l2.4-4.8c0.2-0.5,0.9-0.5,1.1,0l2.4,4.8
				C392.5,337.6,392.6,337.7,392.8,337.7z"/>
		</g>
	</g>
	<g>
		<g>
			<g>
				
					<ellipse transform="matrix(0.1602 -0.9871 0.9871 0.1602 -264.1358 364.5256)" class="st6" cx="82.2" cy="337.5" rx="20.3" ry="20.3"/>
				<path class="st7" d="M82.2,358.3c-11.5,0-20.8-9.3-20.8-20.8s9.3-20.8,20.8-20.8S103,326,103,337.5S93.6,358.3,82.2,358.3z
					 M82.2,317.7c-10.9,0-19.8,8.9-19.8,19.8c0,10.9,8.9,19.8,19.8,19.8s19.8-8.9,19.8-19.8C102,326.6,93.1,317.7,82.2,317.7z"/>
			</g>
		</g>
		<g>
			<g>
				<g>
					<g>
						<g>
							
								<linearGradient id="SVGID_3_" gradientUnits="userSpaceOnUse" x1="83.0908" y1="-1087.4017" x2="82.3993" y2="-1107.3844" gradientTransform="matrix(1 0 0 -1 0 -752)">
								<stop  offset="0" style="stop-color:#61011E"/>
								<stop  offset="1" style="stop-color:#F7063B"/>
							</linearGradient>
							<polygon class="st11" points="88.5,352.3 82.6,349.3 76.6,352.3 77.8,337.3 87.4,337.3 							"/>
						</g>
						<g class="st12">
							<polygon class="st13" points="82.6,349.3 81.2,340.8 83.9,340.8 							"/>
						</g>
					</g>
					
						<linearGradient id="XMLID_7_" gradientUnits="userSpaceOnUse" x1="85.9977" y1="-1073.4854" x2="77.5245" y2="-1101.1379" gradientTransform="matrix(1 0 0 -1 0 -752)">
						<stop  offset="0" style="stop-color:#FDF3A6"/>
						<stop  offset="0.3123" style="stop-color:#BB8000"/>
						<stop  offset="0.7557" style="stop-color:#DEBC56"/>
						<stop  offset="1" style="stop-color:#EFDA81"/>
					</linearGradient>
					<path id="XMLID_12_" class="st14" d="M85.7,343.8c-0.5,0-1-0.2-1.5-0.3c-0.5-0.2-1-0.3-1.5-0.3s-1,0.2-1.5,0.3
						c-0.5,0.2-1,0.3-1.5,0.3c-0.2,0-0.5,0-0.6-0.1c-0.7-0.2-1.2-0.9-1.7-1.5c-0.3-0.4-0.6-0.8-1-1.1c-0.4-0.2-0.9-0.5-1.3-0.6
						c-0.7-0.2-1.5-0.6-1.9-1.2s-0.5-1.3-0.5-2.1c0-0.5-0.1-1-0.2-1.5c-0.2-0.4-0.4-0.9-0.7-1.3c-0.4-0.6-0.9-1.3-0.9-2
						c0-0.7,0.5-1.4,0.9-2c0.3-0.5,0.6-0.9,0.7-1.3c0.2-0.5,0.2-0.9,0.2-1.5c0.1-0.8,0.1-1.6,0.5-2.1c0.5-0.6,1.2-0.9,1.9-1.2
						c0.5-0.2,0.9-0.4,1.3-0.6c0.4-0.2,0.7-0.6,1-1.1c0.5-0.6,0.9-1.3,1.7-1.5c0.2-0.1,0.4-0.1,0.6-0.1c0.5,0,1,0.2,1.5,0.3
						c0.5,0.2,1,0.3,1.5,0.3s1-0.2,1.5-0.3c0.5-0.2,1-0.3,1.5-0.3c0.2,0,0.5,0,0.6,0.1c0.7,0.2,1.2,0.9,1.7,1.5
						c0.3,0.4,0.6,0.8,1,1.1c0.4,0.2,0.9,0.5,1.3,0.6c0.7,0.2,1.5,0.6,1.9,1.2c0.4,0.6,0.5,1.3,0.5,2.1c0,0.5,0.1,1,0.2,1.5
						c0.2,0.4,0.4,0.9,0.7,1.3c0.4,0.6,0.9,1.3,0.9,2c0,0.7-0.5,1.4-0.9,2c-0.3,0.5-0.6,0.9-0.7,1.3c-0.2,0.5-0.2,0.9-0.2,1.5
						c-0.1,0.8-0.1,1.6-0.5,2.1c-0.5,0.6-1.2,0.9-1.9,1.2c-0.5,0.2-0.9,0.4-1.3,0.6c-0.4,0.2-0.7,0.6-1,1.1
						c-0.5,0.6-0.9,1.3-1.7,1.5C86.2,343.8,85.9,343.8,85.7,343.8z"/>
					
						<linearGradient id="XMLID_8_" gradientUnits="userSpaceOnUse" x1="73.3791" y1="-1074.7196" x2="91.732" y2="-1094.2594" gradientTransform="matrix(1 0 0 -1 0 -752)">
						<stop  offset="0" style="stop-color:#FDF3A6"/>
						<stop  offset="0.3123" style="stop-color:#BB8000"/>
						<stop  offset="0.7557" style="stop-color:#DEBC56"/>
						<stop  offset="1" style="stop-color:#EFDA81"/>
					</linearGradient>
					<path id="XMLID_6_" class="st15" d="M94.4,332.5c0,1.2-1.2,2.2-1.6,3.3s0,2.7-0.7,3.6c-0.7,0.9-2.3,1.1-3.2,1.7
						c-0.9,0.7-1.5,2.1-2.7,2.5c-1.1,0.3-2.4-0.5-3.6-0.5s-2.5,0.8-3.6,0.5c-1.1-0.4-1.7-1.8-2.7-2.5c-1-0.7-2.5-0.8-3.2-1.7
						s-0.3-2.4-0.7-3.6c-0.3-1.1-1.6-2.1-1.6-3.3c0-1.2,1.2-2.2,1.6-3.3c0.4-1.1,0-2.7,0.7-3.6s2.3-1.1,3.2-1.7
						c0.9-0.7,1.5-2.1,2.7-2.5c1.1-0.3,2.4,0.5,3.6,0.5s2.5-0.8,3.6-0.5c1.1,0.4,1.7,1.8,2.7,2.5c0.9,0.7,2.5,0.8,3.2,1.7
						s0.3,2.4,0.7,3.6C93.2,330.3,94.4,331.2,94.4,332.5z"/>
					<g id="XMLID_3_">
						<g>
							<path id="XMLID_5_" class="st16" d="M85.7,342.6c-0.3,0-0.7-0.1-1.2-0.2c-0.6-0.2-1.2-0.3-1.8-0.3s-1.3,0.2-1.8,0.3
								c-0.5,0.1-0.9,0.2-1.2,0.2c-0.1,0-0.2,0-0.2,0c-0.4-0.1-0.7-0.6-1.1-1c-0.4-0.5-0.7-0.9-1.3-1.3c-0.5-0.4-1.1-0.6-1.7-0.8
								c-0.6-0.2-1.1-0.4-1.3-0.7c-0.2-0.3-0.2-0.9-0.2-1.5c0-0.6-0.1-1.2-0.2-1.8c-0.2-0.6-0.6-1.1-0.9-1.6c-0.3-0.6-0.6-1-0.6-1.4
								s0.3-0.9,0.6-1.4s0.6-0.9,0.9-1.6c0.2-0.6,0.2-1.2,0.2-1.8s0.1-1.2,0.2-1.5c0.2-0.3,0.8-0.5,1.3-0.7c0.6-0.2,1.1-0.4,1.7-0.8
								c0.5-0.4,0.9-0.9,1.3-1.3c0.4-0.5,0.8-0.9,1.1-1c0.1,0,0.2,0,0.2,0c0.3,0,0.8,0.1,1.2,0.2c0.6,0.2,1.2,0.3,1.8,0.3
								s1.3-0.2,1.8-0.3c0.5-0.1,0.9-0.2,1.2-0.2c0.1,0,0.2,0,0.2,0c0.4,0.1,0.7,0.6,1.1,1c0.4,0.5,0.7,0.9,1.3,1.3
								c0.5,0.4,1.1,0.6,1.7,0.8s1.1,0.4,1.3,0.7c0.2,0.3,0.2,0.9,0.2,1.5c0,0.6,0.1,1.2,0.2,1.8c0.2,0.6,0.6,1.1,0.9,1.6
								c0.3,0.6,0.6,1,0.6,1.4s-0.3,0.9-0.6,1.4c-0.3,0.5-0.6,0.9-0.9,1.6c-0.2,0.6-0.2,1.2-0.2,1.8c0,0.6-0.1,1.2-0.2,1.5
								c-0.2,0.3-0.8,0.5-1.3,0.7c-0.6,0.2-1.1,0.4-1.7,0.8c-0.5,0.4-0.9,0.9-1.3,1.3c-0.4,0.5-0.8,0.9-1.1,1
								C85.9,342.5,85.8,342.6,85.7,342.6z"/>
						</g>
					</g>
					<g id="XMLID_1_">
						<g>
							<path id="XMLID_2_" class="st17" d="M85.7,342.6c-0.3,0-0.7-0.1-1.2-0.2c-0.6-0.2-1.2-0.3-1.8-0.3s-1.3,0.2-1.8,0.3
								c-0.5,0.1-0.9,0.2-1.2,0.2c-0.1,0-0.2,0-0.2,0c-0.4-0.1-0.7-0.6-1.1-1c-0.4-0.5-0.7-0.9-1.3-1.3c-0.5-0.4-1.1-0.6-1.7-0.8
								c-0.6-0.2-1.1-0.4-1.3-0.7c-0.2-0.3-0.2-0.9-0.2-1.5c0-0.6-0.1-1.2-0.2-1.8c-0.2-0.6-0.6-1.1-0.9-1.6c-0.3-0.6-0.6-1-0.6-1.4
								s0.3-0.9,0.6-1.4s0.6-0.9,0.9-1.6c0.2-0.6,0.2-1.2,0.2-1.8s0.1-1.2,0.2-1.5c0.2-0.3,0.8-0.5,1.3-0.7c0.6-0.2,1.1-0.4,1.7-0.8
								c0.5-0.4,0.9-0.9,1.3-1.3c0.4-0.5,0.8-0.9,1.1-1c0.1,0,0.2,0,0.2,0c0.3,0,0.8,0.1,1.2,0.2c0.6,0.2,1.2,0.3,1.8,0.3
								s1.3-0.2,1.8-0.3c0.5-0.1,0.9-0.2,1.2-0.2c0.1,0,0.2,0,0.2,0c0.4,0.1,0.7,0.6,1.1,1c0.4,0.5,0.7,0.9,1.3,1.3
								c0.5,0.4,1.1,0.6,1.7,0.8s1.1,0.4,1.3,0.7c0.2,0.3,0.2,0.9,0.2,1.5c0,0.6,0.1,1.2,0.2,1.8c0.2,0.6,0.6,1.1,0.9,1.6
								c0.3,0.6,0.6,1,0.6,1.4s-0.3,0.9-0.6,1.4c-0.3,0.5-0.6,0.9-0.9,1.6c-0.2,0.6-0.2,1.2-0.2,1.8c0,0.6-0.1,1.2-0.2,1.5
								c-0.2,0.3-0.8,0.5-1.3,0.7c-0.6,0.2-1.1,0.4-1.7,0.8c-0.5,0.4-0.9,0.9-1.3,1.3c-0.4,0.5-0.8,0.9-1.1,1
								C85.9,342.5,85.8,342.6,85.7,342.6z"/>
						</g>
					</g>
					
						<linearGradient id="SVGID_4_" gradientUnits="userSpaceOnUse" x1="76.594" y1="-1078.8875" x2="91.2957" y2="-1080.9039" gradientTransform="matrix(1 0 0 -1 0 -752)">
						<stop  offset="0" style="stop-color:#FFFFFF"/>
						<stop  offset="1" style="stop-color:#C8FFE5;stop-opacity:0"/>
					</linearGradient>
					<path class="st18" d="M75,330.3c0.2,1.5,3.9-0.9,7.7-2c4.4-1.3,7.7,1.5,8.2,1.3c0.8-0.2-2.4-5.8-7.3-5.7
						C77.9,323.9,74.8,327.8,75,330.3z"/>
					
						<linearGradient id="SVGID_5_" gradientUnits="userSpaceOnUse" x1="-3664.0562" y1="425.1713" x2="-3649.4031" y2="423.1613" gradientTransform="matrix(-0.9409 0.3387 0.3387 0.9409 -3500.5481 1176.5515)">
						<stop  offset="0" style="stop-color:#FFFFFF"/>
						<stop  offset="1" style="stop-color:#C8FFE5;stop-opacity:0"/>
					</linearGradient>
					<path class="st19" d="M91.4,331.9c-0.6-1.4-3.4,2.2-6.5,4.4c-3.6,2.6-7.8,1-8.2,1.3c-0.6,0.5,4.2,4.7,9,3.1
						C90.9,338.8,92.5,334.1,91.4,331.9z"/>
				</g>
			</g>
			
				<linearGradient id="SVGID_6_" gradientUnits="userSpaceOnUse" x1="77.712" y1="1018.4828" x2="87.6468" y2="1018.4828" gradientTransform="matrix(1 0 0 1 0 -686)">
				<stop  offset="0" style="stop-color:#FDF3A6"/>
				<stop  offset="0.3123" style="stop-color:#BB8000"/>
				<stop  offset="0.7557" style="stop-color:#DEBC56"/>
				<stop  offset="1" style="stop-color:#EFDA81"/>
			</linearGradient>
			<path class="st20" d="M87.5,328.6l-0.6-0.5c-0.2-0.2-0.6-0.2-0.7,0.1l-4.5,5.2l-2.3-2c-0.3-0.2-0.7-0.2-1,0l0,0
				c0,0-0.6,0.5-0.6,0.6l0,0l0,0l0,0c-0.2,0.2-0.1,0.4,0,0.7l3.2,4.1c0.2,0.3,0.7,0.3,1,0l5.4-7.5C87.7,329.1,87.7,328.8,87.5,328.6
				z"/>
		</g>
	</g>
	<g>
		<g>
			<path class="st21" d="M427.9,207.1H267.1c-7.3,0-13.2,5.9-13.2,13.2v68.4c0,7.3,5.9,13.2,13.2,13.2H329l11.1,11.1l11.1-11.1H428
				c7.3,0,13.2-5.9,13.2-13.2v-68.4C441.1,213,435.2,207.1,427.9,207.1z"/>
			<g>
				<g>
					<g>
						<rect x="269.5" y="254.5" class="st22" width="12.1" height="3.2"/>
						<rect x="284.7" y="254.5" class="st22" width="18.2" height="3.2"/>
					</g>
					<g>
						<g>
							<rect x="269.5" y="264.1" class="st23" width="26.2" height="3.2"/>
							<rect x="306.4" y="264.1" class="st23" width="61.3" height="3.2"/>
							<rect x="378.3" y="264.1" class="st23" width="47.2" height="3.2"/>
						</g>
						<g>
							<rect x="269.5" y="274.4" class="st23" width="58.5" height="3.2"/>
							<rect x="396.2" y="274.4" class="st23" width="29.3" height="3.2"/>
							<rect x="338.1" y="274.4" class="st23" width="51.3" height="3.2"/>
						</g>
						<g>
							<rect x="269.5" y="284.8" class="st23" width="74.7" height="3.2"/>
						</g>
					</g>
				</g>
			</g>
		</g>
		<g>
			<g>
				<g>
					<g>
						<g>
							<path class="st24" d="M391.3,233.8c0,2.3-0.9,4.4-2.4,5.9s-3.6,2.4-5.9,2.4c-1.9,0-3.7-0.6-5.1-1.7l0,0l0,0l0,0
								c-0.2-0.1-0.3-0.3-0.5-0.4c-0.1-0.1-0.3-0.3-0.4-0.4l0,0l0,0l0,0c-0.1-0.1-0.1-0.1-0.2-0.2l0,0c-1.3-1.5-2.1-3.4-2.1-5.5
								c0-2.3,0.9-4.4,2.4-5.9s3.6-2.4,5.9-2.4s4.4,0.9,5.9,2.4C390.4,229.4,391.3,231.5,391.3,233.8z"/>
						</g>
					</g>
				</g>
				<g>
					<g>
						<path class="st6" d="M385.4,234.6l1.4,4.6l-3.3-2.4l1-1.7l-5.4,4l0.4-1.3c1.6-2.2,5.1-5,5.1-5c-2.1,0.4-4.1,1.7-4.1,1.7
							l-3.8-2.9h4.8l1.5-4.6l1.5,4.6h4.8L385.4,234.6z"/>
					</g>
				</g>
			</g>
			<g>
				<g>
					<path class="st24" d="M412.3,233.8c0-2.3-0.9-4.4-2.4-5.9c-1.1-1.1-2.6-1.9-4.2-2.3V242c1.6-0.3,3.1-1.1,4.2-2.3
						C411.4,238.2,412.3,236.1,412.3,233.8z"/>
					<path class="st24" d="M404,225.4c-2.3,0-4.4,0.9-5.9,2.4s-2.4,3.6-2.4,5.9c0,2.1,0.8,4.1,2.1,5.5l0,0c0.1,0.1,0.1,0.1,0.2,0.2
						l0,0l0,0l0,0c0.1,0.1,0.3,0.3,0.4,0.4c0.1,0.1,0.3,0.3,0.5,0.4l0,0l0,0l0,0c1.4,1.1,3.2,1.7,5.1,1.7c0.6,0,1.1-0.1,1.7-0.2
						v-16.3C405.1,225.5,404.6,225.4,404,225.4z"/>
				</g>
				<g>
					<g>
						<path class="st6" d="M406.5,234.6l1.4,4.6l-3.3-2.4l1-1.7l-5.4,4l0.4-1.3c1.6-2.2,5.1-5,5.1-5c-2.1,0.4-4.1,1.7-4.1,1.7
							l-3.8-2.9h4.8l1.5-4.6l1.5,4.6h4.8L406.5,234.6z"/>
					</g>
				</g>
			</g>
			<g>
				<g>
					<g>
						<g>
							<path class="st24" d="M370.3,233.8c0,2.3-0.9,4.4-2.4,5.9s-3.6,2.4-5.9,2.4c-1.9,0-3.7-0.6-5.1-1.7l0,0l0,0l0,0
								c-0.2-0.1-0.3-0.3-0.5-0.4c-0.1-0.1-0.3-0.3-0.4-0.4l0,0l0,0l0,0c-0.1-0.1-0.1-0.1-0.2-0.2l0,0c-1.3-1.5-2.1-3.4-2.1-5.5
								c0-2.3,0.9-4.4,2.4-5.9s3.6-2.4,5.9-2.4s4.4,0.9,5.9,2.4C369.4,229.4,370.3,231.5,370.3,233.8z"/>
						</g>
					</g>
				</g>
				<g>
					<g>
						<path class="st6" d="M364.4,234.6l1.4,4.6l-3.3-2.4l1-1.7l-5.4,4l0.4-1.3c1.6-2.2,5.1-5,5.1-5c-2.1,0.4-4.1,1.7-4.1,1.7
							l-3.8-2.9h4.8l1.5-4.6l1.5,4.6h4.8L364.4,234.6z"/>
					</g>
				</g>
			</g>
			<g>
				<g>
					<g>
						<g>
							<path class="st24" d="M349.3,233.8c0,2.3-0.9,4.4-2.4,5.9s-3.6,2.4-5.9,2.4c-1.9,0-3.7-0.6-5.1-1.7l0,0l0,0l0,0
								c-0.2-0.1-0.3-0.3-0.5-0.4c-0.1-0.1-0.3-0.3-0.4-0.4l0,0l0,0l0,0c-0.1-0.1-0.1-0.1-0.2-0.2l0,0c-1.3-1.5-2.1-3.4-2.1-5.5
								c0-2.3,0.9-4.4,2.4-5.9s3.6-2.4,5.9-2.4s4.4,0.9,5.9,2.4C348.3,229.4,349.3,231.5,349.3,233.8z"/>
						</g>
					</g>
				</g>
				<g>
					<g>
						<path class="st6" d="M343.4,234.6l1.4,4.6l-3.3-2.4l1-1.7l-5.4,4l0.4-1.3c1.6-2.2,5.1-5,5.1-5c-2.1,0.4-4.1,1.7-4.1,1.7
							l-3.8-2.9h4.8l1.5-4.6l1.5,4.6h4.8L343.4,234.6z"/>
					</g>
				</g>
			</g>
			<g>
				<g>
					<g>
						<g>
							<path class="st24" d="M328.2,233.8c0,2.3-0.9,4.4-2.4,5.9s-3.6,2.4-5.9,2.4c-1.9,0-3.7-0.6-5.1-1.7l0,0l0,0l0,0
								c-0.2-0.1-0.3-0.3-0.5-0.4c-0.1-0.1-0.3-0.3-0.4-0.4l0,0l0,0l0,0c-0.1-0.1-0.1-0.1-0.2-0.2l0,0c-1.3-1.5-2.1-3.4-2.1-5.5
								c0-2.3,0.9-4.4,2.4-5.9s3.6-2.4,5.9-2.4s4.4,0.9,5.9,2.4C327.3,229.4,328.2,231.5,328.2,233.8z"/>
						</g>
					</g>
				</g>
				<g>
					<g>
						<path class="st6" d="M322.3,234.6l1.4,4.6l-3.3-2.4l1-1.7l-5.4,4l0.4-1.3c1.6-2.2,5.1-5,5.1-5c-2.1,0.4-4.1,1.7-4.1,1.7
							l-3.8-2.9h4.8l1.5-4.6l1.5,4.6h4.8L322.3,234.6z"/>
					</g>
				</g>
			</g>
		</g>
	</g>
	
		<linearGradient id="SVGID_7_" gradientUnits="userSpaceOnUse" x1="-3906.1265" y1="141.181" x2="-3912.1526" y2="110.2977" gradientTransform="matrix(-1 0 0 -1 -3691.1599 514)">
		<stop  offset="0" style="stop-color:#E9F0FF"/>
		<stop  offset="1" style="stop-color:#C2D7F0"/>
	</linearGradient>
	<path class="st25" d="M107.7,393.9c6.2-4.6,22.5-7.4,42.1-7.7c16.2-0.3,32.4,1.1,46.5,3.1c13.1,1.9,23.8,5.4,37.2,7
		c12.5,1.5,29.9,1.1,43.4,1.5c21.9,0.6,56.2,1.4,59.8,8.5c2.5,4.9-16.7,7.3-33.2,7.9c-12.6,0.5-25.3,0.3-37.9,0.1
		c-11.7-0.2-22.4,0-34.2,0.1c-42.3,0.6-114.7,0-125.5-13.2C103.9,398.9,104.5,396.3,107.7,393.9z"/>
	<g>
		<g>
			<path class="st26" d="M182.4,244.5c0,0-2.3,7.8-3.8,11.7c-1.5,3.9-2.5,5.6-3.4,6.6s-11.6,8.6-11.6,8.6s10.5,11,17.9,11
				s22.8-9,22.8-9s-8.1-6.7-9.3-10.1s-0.7-10.8-0.7-10.8L182.4,244.5z"/>
			
				<linearGradient id="SVGID_8_" gradientUnits="userSpaceOnUse" x1="5475.0029" y1="261.4283" x2="5471.0859" y2="240.6515" gradientTransform="matrix(1 0 0 -1 -5287.3149 514)">
				<stop  offset="0" style="stop-color:#AE8C8F"/>
				<stop  offset="0.9677" style="stop-color:#FFFFFF;stop-opacity:0"/>
			</linearGradient>
			<path class="st27" d="M182.4,244.5c0,0-2.3,7.8-3.8,11.7c-1.5,3.9-2.5,5.6-3.4,6.6s-11.6,8.6-11.6,8.6s10.5,11,17.9,11
				s22.8-9,22.8-9s-8.1-6.7-9.3-10.1s-0.7-10.8-0.7-10.8L182.4,244.5z"/>
			<path class="st26" d="M198.4,220.7c1.9,1.6,6.9,7.2,7.7,11.5s0.1,14.3-0.5,18.5c-0.8,5.8-2.5,10.9-6.2,13.3s-10.8-1.3-14.3-4.7
				s-4-8.7-5-13.6c-1-4.9-0.2-10.3-0.2-10.3s-2.1-8.1,1.8-11.5C196.4,210.7,201.1,218.1,198.4,220.7z"/>
			<path class="st28" d="M203.3,225.7c-2.4,1.9-7.8,1.9-12.2,1.4c-4.5-0.5-7.3-2.8-7.5,0.4c-0.1,3.3,1.6,6.6,1.8,9.3
				c0.3,2.7-0.2,4-0.2,4s-3.4,3.2-4.3,4.5c-0.4,0.5,0.4,2.9,0.4,4.8c0,3-2,8.2-2,8.2s-4.3-7.5-4.8-8.7c-0.4-1.3-3.9-8.1-6.2-12
				s-2.7-11.5,6.1-18s15.8-6.8,20.1-4.8c4.3,1.9,8.1,1.2,8.1,1.2S207.4,222.4,203.3,225.7z"/>
			<path class="st26" d="M183.4,243.3c-0.2-2.1-1.3-7.5-6.1-7.2s-1.2,7.7,0.1,9.5c1.8,2.4,4,3.3,4,3.3S183.8,246.4,183.4,243.3z"/>
		</g>
		<g>
			<path class="st29" d="M216.1,342c0,0-19.8,0.8-45.4,0.2c-10.1,15.4-16.2,28.7-14.3,44.3c0,0,4,12.7,23.6,13.9l39.4-6.1l34.8,1.3
				c0,0,33.9-37.2,12.2-43.7l-42.1,5.4L216.1,342z"/>
			<g>
				<g>
					<path class="st30" d="M161.8,371c0.6-0.4,1.3-0.7,1.9-1.2c0.5-0.4,0.8-0.9,1.3-1.4c0.9-1,1.8-1.9,2.7-2.9
						c1.7-1.9,3.4-3.8,5.2-5.6c1.5-1.6,3-3.2,3.9-5.2c0.4-1,1-1.5,1.9-2.1c0.3-0.2,0.8-0.5,0.9-0.8c0.1-0.4-0.1-0.6,0.2-1
						c0.1-0.2-0.3-0.1-0.4-0.1c-0.5,0.4-1.1,0.4-1.6,0.6s-0.9,0.6-1.3,0.9c-1,0.6-2.1,1.1-3.2,1.7c-1.1,0.6-2.3,1.3-3.3,2.1
						c-1,0.8-1.9,1.7-2.7,2.6c-1.8,1.8-3.5,3.6-5.1,5.5c-0.9,1-1.7,2-2.5,3.1c-0.3,0.5-0.8,0.9-1.1,1.4s-0.3,1.1-0.4,1.7
						c-0.1,0.6,1,0.9,1.4,1C160.2,371.3,161.2,371.4,161.8,371L161.8,371z"/>
				</g>
			</g>
			<path class="st31" d="M204.8,294.5c-2.4-14.6,5-15.4,5-15.4c8.3-2.1,12.1,10.5,12.1,10.5s6,27.9,5.9,40.4c0,0-8.8,5.4-12.9-2.3
				L204.8,294.5z"/>
			<path class="st32" d="M197,266.1l17.8,9.3l-7.7,68.7c-7.4,3.8-11.5,1.4-22.9,1.3c-3.6,0-14.5,2-16.1-1.8c-1-2.3-3.7-7.2-3.6-9.7
				c0.1-2.5-2.6-6.5-2.8-9s-0.2-4.9-1.4-7.1c-2.3-4.1-2.2-10.3-3.2-14.9c-1-4.7-1.8-7.1-1.8-11.9c0-2.6-2.2-5.5-2.8-8
				c-0.7-2.7-0.3-5.9,2.3-7.1c2.3-1.1,3.7-2.4,6.1-3.3l11.9-8C172.9,264.7,193.4,271.9,197,266.1z"/>
			<path class="st32" d="M207.4,318.7l-4.5-24.6c0,0-6.6-14.3,4.9-21.8c0,0,12.3,1.9,14.6,13.6l6.2,24.6
				C228.6,310.4,228,316.5,207.4,318.7z"/>
			<path class="st32" d="M165.7,373.7c3.2-5.4,4.2-12.2,8.3-17.1c3.9-4.7,11-9.4,17.4-9.1c3.9,0.2,9.5,5.7,13.6,4.9
				c4.8-1,13.3,3.7,17.3,1c3.2-2.2-6.4-20.1-5.5-24c1.1-4.3,0.7-8.1-0.7-12.1c-1.8-4.9-3.9-3.9-5.1-9c-1-4.4-2-8.7-5.4-11.9
				c-10-9.3-27.2-7.7-38.8-3c-1.8,0.7-2.8,1.3-3.5,2c-1,1.1-4.2-0.4-4.3,2.8c-0.1,5.5-1.1,4.9-1.1,10.5c0,4-0.8,10.7-1.6,14.6
				c-1.2,5.7-0.7,12.9-2.2,18.5c-2.7,10-3.7,29.9-2,40.5C152.2,382.2,161.6,383.2,165.7,373.7z"/>
			<path class="st31" d="M205.4,350.7c-18-2.6-62.2,2.1-63.9-18.6c-1.4-16.9,4.3-43.6,12-49.7c5.8-4.5,13.5-2,16.6,4.8
				c3.4,7.5-7.1,33.5-8.8,44.3c0,0,15.5,10.6,48.2,14L205.4,350.7z"/>
			<path class="st32" d="M135.5,326.3l13.4-42.5c2.7-7.2,7.3-8.4,8.3-8.4c14.3,0,15.5,17.6,15.5,17.6l-6.9,31.2
				C165.8,324.2,150.3,333.1,135.5,326.3z"/>
			<path class="st31" d="M202.8,347.1c0.7-1,4.8-1.6,6.8-1.7c5.3-0.3,9.8,0,14.7,1.2c1.7,0.4,5.3,1.4,6.9,2.2
				c0.9,0.5,2.8,0.9,2.5,2.1c-0.7,0.4-5-0.5-7.8-1.1c4.1,1.2,5,2.3,5.1,2.9c-1,1.1-5.8-1.1-9.1-1.8c-1.1-0.2,6.4,2.6,2.7,2.9
				c-0.8,0.1-5.9-1.4-8.4-2c0.3,0.3,3.5,1.9,3.4,2.2c-0.1,0.8-3.3,0-4.9-0.5C212.4,353.1,199.8,351,202.8,347.1z"/>
			<path class="st31" d="M254.3,336.8c0.9-0.8,5-0.8,6.9-0.6c5.2,0.5,9.6,1.6,14.3,3.7c1.6,0.7,5,2.3,6.4,3.4
				c0.8,0.7,2.6,1.4,2.1,2.5c-0.8,0.3-4.8-1.3-7.5-2.4c3.8,1.9,4.6,3.1,4.6,3.7c-1.2,0.9-5.5-2-8.7-3.3c-1-0.4,5.9,3.6,2.2,3.3
				c-0.8-0.1-5.6-2.4-7.9-3.3c0.2,0.3,3.1,2.5,3,2.8c-0.2,0.7-3.2-0.6-4.8-1.3C262.8,344.2,250.7,340.1,254.3,336.8z"/>
			<path class="st31" d="M227.2,321.1l35.9,17.7l-3.6,3.2c0,0-38.5-5.6-44-12C215.5,330,219.3,319.3,227.2,321.1z"/>
			<g>
				<path class="st33" d="M198.5,270.3c0.3,0.8-1,0.7-1.5,0.6C197.5,270.7,198,270.5,198.5,270.3c0.3,0.8-1.1,1.4-1.7,1.7
					c-1,0.5-2.2,0.8-3.3,1.1c-1,0.2-2.1,0.2-3.1,0.3c-0.2,0-0.4,0-0.6,0c-0.2,0-0.5,0-0.7,0c0.2,0,0.4,0,0.6,0
					c-0.2-0.1-0.7,0.1-0.9,0.1c-0.4,0-0.8,0-1.2,0c-0.3,0-0.6,0-0.9-0.1c-0.1,0-1.1-0.3-0.6-0.2c0.3,0,0.2,0-0.1,0
					c-0.1,0-0.3,0-0.4,0c-0.4,0-0.8,0-1.2,0c-1.1-0.1-2.2-0.4-3.4-0.8c0.2,0,0.1,0-0.2-0.1c-0.2,0-0.3-0.1-0.5-0.2
					c-0.3-0.1-0.6-0.3-0.9-0.4c-0.2-0.1-0.2-0.1-0.4-0.2c-0.4-0.1-0.3-0.1,0.2,0c-0.2,0-0.4-0.1-0.6-0.1c-0.6-0.1-1.2-0.3-1.7-0.6
					c-0.6-0.4-0.8-0.7-0.7-1.4c0-0.5,0.8-0.7,1.2-0.7c0.7-0.1,1.3,0,2,0.3c0.2,0.1,0.4,0.1,0.5,0.2c0.2,0.1,0.4,0.2,0.6,0.4
					c-0.3-0.1-0.7-0.2-1-0.3c0.2,0.2,0.7,0.1,1,0.1c0.3,0.1,0.6,0.1,0.9,0.2c0.8,0.3,1.4,0.6,2.1,0.9l0.4,0.2c0,0-0.8-0.1,0,0
					c0.3,0,0.5,0.1,0.8,0.1c0.1,0,0.8,0.1,0.3,0.1s0.3-0.1,0.4-0.1c0.4,0,0.7,0,1.1,0.1c0.4,0.1,0.9,0.2,1.3,0.3
					c0,0,0.7,0.1,0.4,0.1c0.6,0,1.1,0,1.7,0c-0.1,0-0.3,0,0.1,0c0.3,0,0.5,0,0.8,0c0.4,0,0.9,0,1.3,0c0.8,0,1.7-0.3,2.4-0.5
					c0.8-0.3,1.5-0.7,2.3-0.9C197.1,269.8,198.2,269.7,198.5,270.3L198.5,270.3z"/>
			</g>
			<g>
				<path class="st33" d="M162.5,275.2c0.3,0.2,0.6,0.4,0.9,0.6c0.2,0.2,0.5,0.2,0.7,0.4c0.7,0.4,1.3,1,2,1.5
					c1.1,0.9,2.1,2.1,2.8,3.3c0.8,1.4,1.5,2.8,1.8,4.3c0.2,0.7,0.3,1.4,0.4,2.1c0.1,0.7,0,1.4,0.1,2.1c0,0.3,0.1,0.5,0.1,0.8
					s-0.1,0.5-0.1,0.8c0,0.8-0.2,1.6-0.3,2.4c-0.2,1.5-0.5,3-0.8,4.6s-0.8,3-1.3,4.5c-0.2,0.7-0.5,1.4-0.7,2.1
					c-0.2,0.8-0.4,1.6-0.6,2.4c-0.5,1.7-1,3.5-1.4,5.3s-0.8,3.5-1.5,5.1c-0.1,0.2-0.9,0.2-0.9-0.1c0-1.5-0.2-3-0.2-4.5
					s0.2-3,0.5-4.5c0.2-1.5,0.6-3,0.6-4.5c0-1.4,0.3-3,0.6-4.4c0.3-1.5,0.6-3,0.8-4.5c0.1-0.7,0.1-1.4,0.2-2
					c0.1-0.7,0.1-1.5,0.2-2.2c0-0.2,0.1-0.4,0.1-0.6c0-0.3-0.1-0.5-0.1-0.8c-0.1-0.7,0-1.5-0.1-2.2c-0.2-1.5-0.5-2.8-1.1-4.1
					c-0.3-0.7-0.6-1.5-1-2.2s-0.9-1.2-1.3-1.9c-0.4-0.6-0.8-1.1-1.1-1.7c-0.3-0.5-0.5-1.1-0.7-1.7
					C160.7,274.8,162.3,275,162.5,275.2L162.5,275.2z"/>
			</g>
			<g>
				<path class="st33" d="M202.4,268.9c0.8,0.8,1.8,1.3,2.6,2.2c0.8,0.9,1.4,2.1,1.9,3.2c0.3,0.5,0.6,1.1,0.8,1.6
					c0.2,0.6,0.2,1.2,0.3,1.8c0.1,1.2,0.4,2.5,0.5,3.7c0.1,0.6,0.2,1.1,0.2,1.7c0,0.7-0.2,1.3-0.2,1.9c0,1.2-0.1,2.4,0,3.6
					c0.3,2.5,0.1,5.1,0,7.7c0,0.7-0.1,1.5,0,2.2c0,0.3,0.1,0.5,0.1,0.8c0,0.4,0,0.7,0,1.1c-0.1,1.4-0.1,2.9-0.1,4.3
					c0,0.4-1,0.4-1.1,0.1c-0.8-2.2-1.4-4.6-1.5-7c0-2.5,0.1-5.1,0-7.6c0-1.2-0.2-2.4-0.2-3.6c0-0.6,0-1.2,0-1.7
					c0-0.7,0.2-1.3,0.2-1.9c-0.1-1.2-0.4-2.4-0.5-3.6s-0.2-2.6-0.8-3.7c-0.6-1.2-1.1-2.5-1.8-3.7c-0.3-0.5-0.7-0.9-1-1.3
					c-0.3-0.5-0.5-0.9-0.6-1.4C201.1,268.7,202.2,268.8,202.4,268.9L202.4,268.9z"/>
			</g>
			<g>
				<path class="st33" d="M205.6,310.2c1.1,1.5,1.7,3.2,2.4,4.9c0.4,0.8,0.7,1.7,1.2,2.4c0.6,0.7,0.8,1.6,1.1,2.4
					c0.2,0.8,0.2,1.6,0.2,2.4c0.1,0.8,0.1,1.5,0,2.2c-0.1,0.5-0.1,1.1-0.4,1.6c-0.4,0.7-1.5,0.9-2.3,0.8c-0.3-0.1-1.5-0.5-0.8-1
					c-0.1,0.1-0.2,0.4,0,0c0-0.1,0.1-0.1,0.1-0.2c0.1-0.2,0.2-0.4,0.3-0.6c0.2-0.5,0.3-1,0.4-1.5c0.1-1.5,0.1-3.3-0.4-4.7
					c-0.3-0.7-0.7-1.3-1-2.1c-0.2-0.7-0.4-1.4-0.6-2.1c-0.2-0.8-0.5-1.6-0.6-2.4c-0.1-0.7,0.1-1.4,0.1-2.1
					C205.2,310.1,205.6,310.1,205.6,310.2L205.6,310.2z"/>
			</g>
			<g>
				<g>
					<path class="st33" d="M173.6,349.6c-1,0.3,0,0.1-0.3,0.1s-0.5-0.1-0.8-0.1c-0.8,0-1.6,0.2-2.3,0.5c-1.1,0.5-2.2,1.1-3.1,2
						c-1.6,1.7-2.5,3.5-3.1,5.7c-0.2,0.9-0.3,1.9-0.4,2.9c-0.2,1-0.6,2-1,2.9c-0.4,1-0.8,2-1.4,2.8c-0.4,0.6-1.2,0.9-1.4,1.6
						c-0.4,1.3,1,1.8,2.1,2.1c1.4,0.3,3.3,0.2,4.4-0.7c-0.3,0.2-0.1,0.1,0.1,0c0.2-0.1,0.5-0.3,0.7-0.5c0.3-0.3,0.7-0.7,0.9-1.1
						c0.5-0.8,0.9-1.7,1.1-2.5c0.6-1.9,1-3.8,1.1-5.8c0-0.9,0-1.8,0.2-2.7c0.2-0.9,0.6-1.8,1.1-2.5c0.5-0.8,1.1-1.6,1.8-2.2
						c0.3-0.3,0.9-0.6,1.1-1c0.2-0.4-0.1-0.8,0-1.2C174.5,349.6,173.7,349.6,173.6,349.6L173.6,349.6z"/>
				</g>
			</g>
			<g>
				<rect x="198.1" y="353.9" class="st34" width="63.3" height="3"/>
				<g>
					<g>
						<path class="st35" d="M279.7,356.9h-58.9l5.2-41.6h55.9c1.6,0,2.8,1.4,2.6,3L279.7,356.9z"/>
						<path class="st36" d="M218.7,356.9h2.1l5.2-41.6h-0.2c-1.1,0-2,0.8-2.2,1.9L218.7,356.9z"/>
					</g>
				</g>
			</g>
			<g>
				<path class="st37" d="M196,400.3"/>
				<polygon class="st38" points="223.4,387.9 209.9,393.4 213.4,403.8 227.1,399.2 				"/>
				<g>
					<polygon class="st38" points="241.7,387.2 256.2,388.5 256,399.5 241.5,399.1 					"/>
					<path class="st39" d="M251.8,399.5c6.3,1.7,24.1,0.3,30.6-2.2c7.9-3,7.3-18.7-2.6-16.5c-9,2-18.4,5.7-27.6,6.5
						C252.3,387.3,246.8,391.6,251.8,399.5z"/>
				</g>
				<path class="st29" d="M251.8,399.5c2.2-4.6,1-14.2,1-14.2l-7.8-4.1c-9.7-7.5-21.1-12.4-30.6-20.1c-7.3-6-14.5-16-25.1-15
					c-7.2,0.7-12.1,6.1-16.3,11.6c-6.9,9-16.6,16.4-16.6,28.8c0,10.5,13.9,18.3,21.4,17.1c5.5-0.9,13.9-7.9,16.9-12.1l8.3-10.2
					c0,0,3.3,10.7,35.2,17.4C238.2,398.8,247.6,400.8,251.8,399.5z"/>
				<g>
					<g>
						<path class="st30" d="M194.9,346.9c0.7,0.4,1,0.9,1.6,1.4c0.8,0.7,1.6,1.3,2.3,2c1.7,1.6,3.4,3,5.2,4.4
							c2.8,2.1,5.6,4.2,8.2,6.6c2.6,2.3,5.1,4.6,7.6,7.1c3.5,3.4,7.3,6.3,11.4,9.1c2.3,1.5,4.6,3.1,7,4.5c1.3,0.8,2.6,1.5,3.8,2.3
							c0.8,0.5,1.6,0.8,2.5,1.1c0.9,0.2,2.1,0.2,2.8,0.3c0.4,0.1,1.9,0,1.9-0.7c0-0.1,0.4-0.5,0.4-0.8c0-0.2-0.2-0.6-0.3-0.8
							c-0.3-0.5-0.7-0.9-1.2-1.2c-1-0.7-2-1.5-3.1-2.2c-2-1.4-4-2.7-6-4c-4.1-2.8-8.1-5.8-11.8-9.1c-5.7-4.9-11.7-9.5-18.2-13.2
							c-2.5-1.4-4.7-3.1-7.1-4.6c-1.1-0.7-2.2-1.4-3.4-1.8c-1-0.4-2.1-0.6-3.1-0.7C195.2,346.4,194.3,346.6,194.9,346.9L194.9,346.9
							z"/>
					</g>
				</g>
				<g>
					<g>
						<path class="st30" d="M215.2,390.1c0.6,0.1-2.7-0.8-0.8-0.2C214.7,390.1,214.9,390.1,215.2,390.1c0.4,0.1,0.8,0,1.1,0.1
							c-1.9-0.2,1.1,0,1.3,0c1.3-0.2,2.6-0.6,3.7-1.1c1.8-0.8,3.6-1.6,5.4-2.5c2-1,3.9-2.1,5.8-3.2c2-1.3,4-2.4,5.6-4.1
							c1.2-1.3,2.7-2.3,4-3.5c1.1-1,2.2-2,3.3-3c4.6-4.3,9.3-8.4,14-12.6c2.3-2.1,4.9-4,7.6-5.7c1.3-0.8,2.7-1.6,4.1-2.3
							c1.3-0.7,4-1.5,4.2-3.2c0.1-1.3-2.5-1.7-3.3-1.6c-1.2,0.1-2.4,0.2-3.5,0.7c-0.6,0.3-1.3,0.7-1.9,1c-1.3,0.7-2.6,1.4-3.8,2.1
							c-2.4,1.4-4.8,2.9-7,4.6c-2.3,1.8-4.3,4-6.4,6c-2,1.9-4.2,3.7-6.3,5.6c-1.8,1.6-3.6,3.3-5.4,4.9c-0.2,0.2-0.5,0.4-0.7,0.6
							c-0.1,0.1-0.2,0.2-0.3,0.3c0.6-0.5-0.3,0.2-0.6,0.4c-0.1,0.1-0.4,0.3,0,0c-0.2,0.1-0.4,0.2-0.5,0.3c-0.4,0.3-0.8,0.5-1.2,0.8
							c-1.8,1.1-3.7,1.9-5.6,2.8c-0.7,0.3-1.3,0.8-1.9,1.2c-0.9,0.5,0.4-0.3-0.1,0.1c-0.2,0.1-0.4,0.3-0.7,0.4
							c-0.9,0.6-1.8,1.1-2.7,1.7c-2.1,1.3-4,2.7-6.1,4c-0.7,0.5-1.4,1-2.1,1.5c-0.6,0.4-1.1,0.9-1.7,1.4c-0.3,0.2-0.5,0.5-0.5,0.9
							c0,0.1,0,0.2,0,0.3C213.2,389.7,214.3,390,215.2,390.1L215.2,390.1z"/>
					</g>
				</g>
				<g>
					<g>
						<path class="st30" d="M197.6,390.3c1-1.2,2.4-2.5,3.8-3.1c0.4-0.2,0.8-0.2,1.2-0.4c0.6-0.2-0.5,0,0.2,0c-0.5,0-0.8,0-1.3-0.1
							c-0.9-0.3-0.4-0.1-0.1,0c0.1,0,0.6,0.3,0.2,0.1c-0.3-0.2,0.5,0.3,0.6,0.4c0.2,0.1,0.4,0.2,0.6,0.3c-0.3-0.2-0.2-0.1,0.1,0
							c0.2,0.1,0.3,0.2,0.5,0.3c0.3,0.2,0.6,0.5,0.9,0.7c0.6,0.5,1.3,1,1.9,1.5c2.5,1.8,6,3,9,2c0.8-0.2,2.6-1.1,1.9-2.2
							c-0.6-0.9-1.5-1.2-2.4-1.4c-0.9-0.2,0,0,0,0s-0.5-0.3-0.6-0.3c-0.4-0.2-0.9-0.4-1.3-0.7c-0.2-0.1-0.4-0.3-0.6-0.4
							c-0.7-0.4,0.5,0.3-0.2-0.1c-2.2-1.4-4.2-2.7-6.9-3.1c-2.3-0.3-5.4-0.2-7.1,1.6c-1.2,1.3-2.3,2.6-3.1,4.2
							C194.3,390.8,197.1,390.9,197.6,390.3L197.6,390.3z"/>
					</g>
				</g>
				<path class="st29" d="M285.6,346.6c14.6,1.9,10.8,15.4,5.7,20.1c-13.7,12.6-33.6,22.1-50.9,28.8c-0.6,0.2-17,6.3-19.7,7.4
					c3.4-8.2-4.2-14-4.2-14s19.4-9.4,32.3-23C248.8,365.9,268.2,342.9,285.6,346.6z"/>
				<path class="st39" d="M217.4,402.6c-5.5,3.5-23,7.4-29.9,6.9c-8.4-0.5-12.5-15.7-2.4-16.5c9.2-0.7,19.3,0,28.2-1.9
					C213.4,391.1,219.8,393.6,217.4,402.6z"/>
			</g>
		</g>
		<g>
			<path class="st40" d="M249.8,337c0,1.3,0.5,2.5,1.3,3.3c0.8,0.9,2,1.4,3.3,1.4c1.1,0,2.1-0.3,2.8-0.9l0,0l0,0l0,0
				c0.1-0.1,0.2-0.1,0.3-0.2c0.1-0.1,0.2-0.1,0.2-0.2l0,0l0,0l0,0l0.1-0.1l0,0c0.7-0.8,1.2-1.9,1.2-3.1c0-1.3-0.5-2.5-1.3-3.3
				s-2-1.4-3.3-1.4s-2.5,0.5-3.3,1.3C250.3,334.6,249.8,335.7,249.8,337z"/>
			<path class="st41" d="M248.8,337c0,1.5,0.6,2.9,1.6,3.9s2.4,1.6,3.9,1.7c1.3,0,2.4-0.4,3.4-1.1l0,0l0,0l0,0
				c0.1-0.1,0.2-0.2,0.3-0.3c0.1-0.1,0.2-0.2,0.3-0.3l0,0l0,0l0,0c0.1,0,0.1-0.1,0.1-0.1l0,0c0.9-1,1.4-2.3,1.4-3.7
				c0-1.5-0.6-2.9-1.6-3.9s-2.4-1.6-3.9-1.7c-1.5,0-2.9,0.6-3.9,1.6C249.5,334.1,248.9,335.5,248.8,337z"/>
			<g>
				<g>
					<path class="st6" d="M252.9,337.6l-0.9,2.8l2.1-1.5l0,0l-0.6-1l3.3,2.5l-0.2-0.8c-0.9-1.4-3.1-3-3.1-3c1.9,0.1,3.1,0.6,3.1,0.6
						l1.8-1.3h-2.9l-0.9-2.8l-0.9,2.8h-2.9L252.9,337.6z"/>
				</g>
				<path class="st32" d="M256.8,340.4c0,0-0.9-1.7-3.4-3.8c0,0,2.2,0.8,3.1,2.1L256.8,340.4z"/>
			</g>
		</g>
	</g>
	<g>
		<path class="st42" d="M293.5,246.3h-19.1c-1.7,0-3-1.3-3-3v-19.1c0-1.7,1.3-3,3-3h19.1c1.7,0,3,1.3,3,3v19.1
			C296.5,245,295.2,246.3,293.5,246.3z"/>
		<g>
			<path class="st6" d="M290.6,226.5H289l-4.2,4.9l-3.4-4.9h-4.8l5.6,8l-5.7,6.6h1.5l4.8-5.7l4,5.7h4.8l-6.2-8.8L290.6,226.5z
				 M289.4,239.9h-1.9l-8.6-12.2h1.9L289.4,239.9z"/>
		</g>
	</g>
	<g>
		<g>
			<g>
				<circle class="st6" cx="379.4" cy="170.9" r="20.3"/>
				<path class="st7" d="M379.4,191.7c-11.5,0-20.8-9.3-20.8-20.8s9.3-20.8,20.8-20.8s20.8,9.3,20.8,20.8S390.9,191.7,379.4,191.7z
					 M379.4,151.1c-10.9,0-19.8,8.9-19.8,19.8c0,10.9,8.9,19.8,19.8,19.8s19.8-8.9,19.8-19.8C399.2,160,390.4,151.1,379.4,151.1z"/>
			</g>
		</g>
		<g>
			<path class="st43" d="M394.8,170.9c0-2.2-1.2-3.8-3-4.9c-0.1-0.1-0.2-0.2-0.1-0.4c0.6-2.1,0.3-4-1.3-5.6
				c-1.6-1.5-3.5-1.9-5.6-1.3c-0.1,0.1-0.3,0-0.4-0.1c-1.1-1.9-2.7-3-4.9-3s-3.8,1.2-4.9,3c-0.1,0.1-0.3,0.2-0.4,0.1
				c-0.9-0.3-1.9-0.3-2.8-0.1c-1.2,0.3-2.2,0.7-3,1.6c-1.4,1.6-1.7,3.5-1.2,5.5c0.1,0.2,0,0.3-0.1,0.3c-0.7,0.4-1.3,0.9-1.9,1.5
				c-0.8,1-1.3,2.2-1.2,3.5c0.1,2.2,1.2,3.8,3.1,4.9l0,0c0.1,0.1,0.2,0.2,0.1,0.4c-0.6,2.1-0.3,4,1.3,5.6c1.5,1.5,3.5,1.9,5.6,1.3
				c0.1-0.1,0.3,0,0.4,0.1c1.1,1.9,2.7,3,4.9,3c2.2,0,3.8-1.2,4.9-3c0.1-0.1,0.2-0.2,0.4-0.1c2.1,0.6,4,0.3,5.6-1.3s2-3.5,1.3-5.6
				c-0.1-0.1,0-0.3,0.1-0.4C393.7,174.8,394.8,173.1,394.8,170.9z"/>
			<path class="st44" d="M376.8,178.1c-1.5-1.5-3-3-4.4-4.4c-0.3-0.3-0.3-0.9,0-1.3c0.3-0.3,0.6-0.6,0.8-0.8c0.3-0.3,0.9-0.3,1.2,0
				c0.9,0.9,1.8,1.8,2.8,2.8c2.2-2.4,4.4-4.8,6.6-7.2c0.3-0.4,0.9-0.4,1.3-0.1c0.3,0.3,0.6,0.6,0.9,0.8c0.4,0.3,0.4,0.9,0.1,1.2
				c-2.7,3-5.5,5.9-8.1,8.9C377.6,178.4,377.1,178.4,376.8,178.1z"/>
			<path class="st45" d="M376.7,176.3c-1.5-1.5-3-3-4.4-4.4c-0.3-0.3-0.3-0.9,0-1.3c0.3-0.3,0.6-0.6,0.8-0.8c0.3-0.3,0.9-0.3,1.2,0
				c0.9,0.9,1.8,1.8,2.8,2.8c2.2-2.4,4.4-4.8,6.6-7.2c0.3-0.4,0.9-0.4,1.3-0.1c0.3,0.3,0.6,0.6,0.9,0.8c0.4,0.3,0.4,0.9,0.1,1.2
				c-2.7,3-5.5,5.9-8.1,8.9C377.6,176.7,377.1,176.7,376.7,176.3z"/>
		</g>
	</g>
	<g>
		<g>
			<g>
				
					<ellipse transform="matrix(0.1194 -0.9928 0.9928 0.1194 82.1532 361.8979)" class="st6" cx="245.1" cy="134.6" rx="20.3" ry="20.3"/>
				<path class="st7" d="M247.6,114c11.4,1.4,19.5,11.7,18.2,23.1c-1.4,11.4-11.7,19.5-23.1,18.2c-11.4-1.4-19.5-11.7-18.2-23.1
					C225.8,120.8,236.2,112.6,247.6,114z M242.7,154.3c10.8,1.3,20.7-6.5,22-17.3c1.3-10.8-6.5-20.7-17.3-22
					c-10.8-1.3-20.7,6.5-22,17.3C224.1,143.1,231.9,153,242.7,154.3z"/>
			</g>
		</g>
		<g>
			
				<linearGradient id="SVGID_9_" gradientUnits="userSpaceOnUse" x1="250.7036" y1="386.4431" x2="252.3486" y2="382.2002" gradientTransform="matrix(1 0 0 -1 0 514)">
				<stop  offset="0" style="stop-color:#D69B12"/>
				<stop  offset="1" style="stop-color:#FEE227"/>
			</linearGradient>
			<polygon class="st46" points="259.6,129.4 249.6,128 245.1,134.1 			"/>
			
				<linearGradient id="SVGID_10_" gradientUnits="userSpaceOnUse" x1="253.7793" y1="377.943" x2="252.3609" y2="382.1613" gradientTransform="matrix(1 0 0 -1 0 514)">
				<stop  offset="0" style="stop-color:#B56101"/>
				<stop  offset="0.8956" style="stop-color:#D79E13"/>
				<stop  offset="1" style="stop-color:#FEE227"/>
			</linearGradient>
			<polygon class="st47" points="259.6,129.4 245.1,134.1 252.4,136.5 			"/>
			<g>
				
					<linearGradient id="SVGID_11_" gradientUnits="userSpaceOnUse" x1="240.6036" y1="387.4638" x2="245.0951" y2="387.4638" gradientTransform="matrix(1 0 0 -1 0 514)">
					<stop  offset="0" style="stop-color:#B56101"/>
					<stop  offset="1" style="stop-color:#FEE227"/>
				</linearGradient>
				<polygon class="st48" points="245.1,134.1 245.1,118.9 240.6,128 				"/>
			</g>
			
				<linearGradient id="SVGID_12_" gradientUnits="userSpaceOnUse" x1="249.5933" y1="387.4638" x2="245.0788" y2="387.4638" gradientTransform="matrix(1 0 0 -1 0 514)">
				<stop  offset="0" style="stop-color:#B56101"/>
				<stop  offset="0.9176" style="stop-color:#E1AE18"/>
				<stop  offset="1" style="stop-color:#FEE227"/>
			</linearGradient>
			<polygon class="st49" points="245.1,118.9 245.1,118.9 245.1,134.1 245.1,134.1 245.1,134.1 249.6,128 			"/>
			
				<linearGradient id="SVGID_13_" gradientUnits="userSpaceOnUse" x1="253.2326" y1="376.2355" x2="249.5557" y2="373.6372" gradientTransform="matrix(1 0 0 -1 0 514)">
				<stop  offset="0" style="stop-color:#B56101"/>
				<stop  offset="0.9286" style="stop-color:#F9D924"/>
				<stop  offset="1" style="stop-color:#FEE227"/>
			</linearGradient>
			<polygon class="st50" points="254.1,146.5 252.4,136.5 245.1,134.1 			"/>
			
				<linearGradient id="SVGID_14_" gradientUnits="userSpaceOnUse" x1="239.3161" y1="386.4554" x2="237.8714" y2="382.2946" gradientTransform="matrix(1 0 0 -1 0 514)">
				<stop  offset="0" style="stop-color:#D69B12"/>
				<stop  offset="1" style="stop-color:#FEE227"/>
			</linearGradient>
			<polygon class="st51" points="230.6,129.4 240.6,128 245.1,134.1 			"/>
			
				<linearGradient id="SVGID_15_" gradientUnits="userSpaceOnUse" x1="236.4718" y1="377.8954" x2="237.8387" y2="382.1994" gradientTransform="matrix(1 0 0 -1 0 514)">
				<stop  offset="0" style="stop-color:#B56101"/>
				<stop  offset="0.8956" style="stop-color:#D79E13"/>
				<stop  offset="1" style="stop-color:#FEE227"/>
			</linearGradient>
			<polygon class="st52" points="230.6,129.4 245.1,134.1 237.8,136.5 			"/>
			
				<linearGradient id="SVGID_16_" gradientUnits="userSpaceOnUse" x1="236.9729" y1="376.2665" x2="240.6393" y2="373.6307" gradientTransform="matrix(1 0 0 -1 0 514)">
				<stop  offset="0" style="stop-color:#B56101"/>
				<stop  offset="1" style="stop-color:#F5D323"/>
			</linearGradient>
			<polygon class="st53" points="236.1,146.5 237.8,136.5 245.1,134.1 			"/>
			
				<linearGradient id="SVGID_17_" gradientUnits="userSpaceOnUse" x1="245.8635" y1="371.0782" x2="249.4951" y2="373.5957" gradientTransform="matrix(1 0 0 -1 0 514)">
				<stop  offset="0" style="stop-color:#B56101"/>
				<stop  offset="0.9121" style="stop-color:#DFAB17"/>
				<stop  offset="1" style="stop-color:#F2CD21"/>
			</linearGradient>
			<polygon class="st54" points="245.1,134.1 245.1,141.8 254.1,146.5 			"/>
			<g>
				
					<linearGradient id="SVGID_18_" gradientUnits="userSpaceOnUse" x1="236.0933" y1="367.4638" x2="236.0933" y2="367.4638" gradientTransform="matrix(1 0 0 -1 0 514)">
					<stop  offset="0" style="stop-color:#B56101"/>
					<stop  offset="0.8956" style="stop-color:#D79E13"/>
					<stop  offset="1" style="stop-color:#FEE227"/>
				</linearGradient>
				<path class="st55" d="M236.1,146.5L236.1,146.5L236.1,146.5z"/>
				
					<linearGradient id="SVGID_19_" gradientUnits="userSpaceOnUse" x1="244.2432" y1="371.0134" x2="240.6096" y2="373.6519" gradientTransform="matrix(1 0 0 -1 0 514)">
					<stop  offset="0" style="stop-color:#B56101"/>
					<stop  offset="0.8956" style="stop-color:#D79E13"/>
					<stop  offset="1" style="stop-color:#FEE227"/>
				</linearGradient>
				<polygon class="st56" points="236.1,146.5 245.1,141.8 245.1,134.1 				"/>
			</g>
			
				<linearGradient id="SVGID_20_" gradientUnits="userSpaceOnUse" x1="1104.6846" y1="564.3651" x2="1107.5413" y2="564.4232" gradientTransform="matrix(0.14 0 0 -3.972 90.3375 2368.9097)">
				<stop  offset="0" style="stop-color:#D69B12"/>
				<stop  offset="1" style="stop-color:#FEE227"/>
			</linearGradient>
			<path class="st57" d="M245.4,127.1c0,3.8-0.1,6.8-0.2,6.8c-0.1,0-0.2-3-0.2-6.8c0-3.8,0.1-6.8,0.2-6.8
				C245.3,120.3,245.4,123.4,245.4,127.1z"/>
			
				<linearGradient id="SVGID_21_" gradientUnits="userSpaceOnUse" x1="2409.1396" y1="638.2451" x2="2410.9026" y2="641.0864" gradientTransform="matrix(4.390000e-02 0.133 3.7721 -1.2441 -2266.2922 607.0859)">
				<stop  offset="0" style="stop-color:#D69B12"/>
				<stop  offset="1" style="stop-color:#FEE227"/>
			</linearGradient>
			<path class="st58" d="M252.2,132.1c-3.6,1.2-6.5,2-6.5,1.9s2.8-1.2,6.4-2.4c3.6-1.2,6.5-2,6.5-1.9
				C258.6,129.9,255.8,130.9,252.2,132.1z"/>
			
				<linearGradient id="SVGID_22_" gradientUnits="userSpaceOnUse" x1="1516.8145" y1="694.9467" x2="1517.4172" y2="698.3314" gradientTransform="matrix(-0.1127 8.300000e-02 2.3548 3.1987 -1220.0734 -2214.2737)">
				<stop  offset="0" style="stop-color:#D69B12"/>
				<stop  offset="1" style="stop-color:#FEE227"/>
			</linearGradient>
			<path class="st59" d="M249.2,140.1c-2.2-3-3.9-5.5-3.8-5.6c0.1-0.1,2,2.3,4.2,5.3s3.9,5.5,3.8,5.6
				C253.3,145.5,251.4,143.1,249.2,140.1z"/>
			
				<linearGradient id="SVGID_23_" gradientUnits="userSpaceOnUse" x1="2402.6826" y1="673.8222" x2="2406.2129" y2="673.406" gradientTransform="matrix(0.1127 8.300000e-02 -2.3548 3.1987 1556.2395 -2214.2737)">
				<stop  offset="0" style="stop-color:#D69B12"/>
				<stop  offset="1" style="stop-color:#FEE227"/>
			</linearGradient>
			<path class="st60" d="M241.2,140.1c2.2-3,3.9-5.5,3.8-5.6c-0.1-0.1-2,2.3-4.2,5.3s-3.9,5.5-3.8,5.6
				C237.1,145.5,238.9,143.1,241.2,140.1z"/>
			
				<linearGradient id="SVGID_24_" gradientUnits="userSpaceOnUse" x1="2256.4382" y1="619.8234" x2="2252.6062" y2="619.7034" gradientTransform="matrix(-4.180000e-02 0.1336 -3.7911 -1.1851 2681.9175 565.1636)">
				<stop  offset="0" style="stop-color:#D69B12"/>
				<stop  offset="1" style="stop-color:#FEE227"/>
			</linearGradient>
			<path class="st61" d="M238,132.1c3.6,1.1,6.5,1.9,6.6,1.8c0-0.1-2.8-1.1-6.4-2.3c-3.6-1.1-6.5-1.9-6.6-1.8
				C231.6,130,234.5,131,238,132.1z"/>
		</g>
		<g>
			<path class="st62" d="M245.1,129.4c-2.8,0-5.1,2.3-5.1,5.1s2.3,5.1,5.1,5.1s5.1-2.3,5.1-5.1S247.9,129.4,245.1,129.4z"/>
			<path class="st6" d="M245.1,130.2c-2.4,0-4.3,1.9-4.3,4.3s1.9,4.3,4.3,4.3c2.4,0,4.3-1.9,4.3-4.3S247.5,130.2,245.1,130.2z"/>
			<polygon class="st62" points="244.1,135.4 243,134.4 242.2,135.2 244.2,137.2 247.9,132.7 246.9,131.9 			"/>
		</g>
	</g>
	<g>
		<g>
			<g>
				<circle class="st6" cx="105.4" cy="220.1" r="20.3"/>
				<path class="st7" d="M105.4,240.9c-11.5,0-20.8-9.3-20.8-20.8s9.3-20.8,20.8-20.8s20.8,9.3,20.8,20.8S116.9,240.9,105.4,240.9z
					 M105.4,200.3c-10.9,0-19.8,8.9-19.8,19.8s8.9,19.8,19.8,19.8c10.9,0,19.8-8.9,19.8-19.8S116.3,200.3,105.4,200.3z"/>
			</g>
		</g>
		<circle class="st6" cx="105.2" cy="220.1" r="18.9"/>
		<g>
			<g class="st12">
				
					<linearGradient id="SVGID_25_" gradientUnits="userSpaceOnUse" x1="94.6703" y1="281.8715" x2="101.929" y2="277.6372" gradientTransform="matrix(1 0 0 -1 0 514)">
					<stop  offset="0" style="stop-color:#88817F"/>
					<stop  offset="0.9984" style="stop-color:#FFFFFF;stop-opacity:0"/>
				</linearGradient>
				<polygon class="st63" points="102.6,234.4 98.4,236.8 91.6,232.9 95.9,230.4 				"/>
				
					<linearGradient id="SVGID_26_" gradientUnits="userSpaceOnUse" x1="100.5824" y1="285.3464" x2="110.9865" y2="279.2975" gradientTransform="matrix(1 0 0 -1 0 514)">
					<stop  offset="0" style="stop-color:#88817F"/>
					<stop  offset="0.9984" style="stop-color:#FFFFFF;stop-opacity:0"/>
				</linearGradient>
				<polyline class="st64" points="112,232.9 107.7,235.3 97.6,229.4 101.8,227 112,232.9 				"/>
				
					<linearGradient id="SVGID_27_" gradientUnits="userSpaceOnUse" x1="106.9615" y1="288.558" x2="120.2691" y2="280.8153" gradientTransform="matrix(1 0 0 -1 0 514)">
					<stop  offset="0" style="stop-color:#88817F"/>
					<stop  offset="0.9984" style="stop-color:#FFFFFF;stop-opacity:0"/>
				</linearGradient>
				<polygon class="st65" points="121.4,231.4 117.1,233.9 103.6,226 107.8,223.5 				"/>
				
					<linearGradient id="SVGID_28_" gradientUnits="userSpaceOnUse" x1="113.393" y1="291.7233" x2="129.725" y2="282.287" gradientTransform="matrix(1 0 0 -1 0 514)">
					<stop  offset="0" style="stop-color:#88817F"/>
					<stop  offset="0.9984" style="stop-color:#FFFFFF;stop-opacity:0"/>
				</linearGradient>
				<polygon class="st66" points="130.8,229.9 126.5,232.4 109.6,222.5 113.8,220.1 				"/>
			</g>
			<g class="st67">
				<g>
					
						<linearGradient id="SVGID_29_" gradientUnits="userSpaceOnUse" x1="115.9827" y1="309.7356" x2="115.9827" y2="290.1161" gradientTransform="matrix(1 0 0 -1 0 514)">
						<stop  offset="0" style="stop-color:#07DAF8"/>
						<stop  offset="0.9984" style="stop-color:#008FC4"/>
					</linearGradient>
					<polygon class="st68" points="118,202.9 118.1,222.5 113.8,225 113.8,205.4 					"/>
				</g>
				<g>
					<polygon class="st69" points="113.8,225 109.6,222.5 109.5,202.9 113.8,205.4 					"/>
				</g>
				<g>
					<polygon class="st70" points="113.8,205.4 109.5,202.9 113.8,200.5 118,202.9 					"/>
				</g>
			</g>
			
				<linearGradient id="SVGID_30_" gradientUnits="userSpaceOnUse" x1="111.7827" y1="288.8669" x2="111.7827" y2="308.7072" gradientTransform="matrix(1 0 0 -1 0 514)">
				<stop  offset="0" style="stop-color:#353535"/>
				<stop  offset="0.9984" style="stop-color:#FFFFFF;stop-opacity:0"/>
			</linearGradient>
			<path class="st71" d="M113.8,205.4c0,0-3.8,7.4-4.2,17.1l4.3,2.5L113.8,205.4z"/>
			
				<radialGradient id="SVGID_31_" cx="193.9826" cy="1008.4982" r="11.2425" gradientTransform="matrix(6.123234e-17 1 0.3228 -1.976709e-17 -211.4819 11.5924)" gradientUnits="userSpaceOnUse">
				<stop  offset="0" style="stop-color:#F2F2F2"/>
				<stop  offset="1" style="stop-color:#FFFFFF;stop-opacity:0"/>
			</radialGradient>
			<path class="st72" d="M118,202.9c0,0-2.8,4.5-3.6,15.4l-0.7-12.9L118,202.9z"/>
			
				<radialGradient id="SVGID_32_" cx="351.4679" cy="-196.6579" r="2.0482" gradientTransform="matrix(0 1.4756 0.1411 0 141.593 -311.7116)" gradientUnits="userSpaceOnUse">
				<stop  offset="0" style="stop-color:#F2F2F2"/>
				<stop  offset="1" style="stop-color:#FFFFFF;stop-opacity:0"/>
			</radialGradient>
			<ellipse class="st73" cx="113.8" cy="207" rx="0.3" ry="3"/>
			<g class="st67">
				<g>
					
						<linearGradient id="SVGID_33_" gradientUnits="userSpaceOnUse" x1="109.9827" y1="302.4567" x2="109.9827" y2="286.6358" gradientTransform="matrix(1 0 0 -1 0 514)">
						<stop  offset="0" style="stop-color:#00C2B7"/>
						<stop  offset="1" style="stop-color:#008D84"/>
					</linearGradient>
					<polygon class="st74" points="112.1,210.3 112.1,226 107.8,228.5 107.8,212.8 					"/>
				</g>
				<g>
					<polygon class="st75" points="107.8,228.5 103.6,226 103.5,210.3 107.8,212.8 					"/>
				</g>
				<g>
					<polygon class="st76" points="107.8,212.8 103.5,210.3 107.8,207.8 112.1,210.3 					"/>
				</g>
			</g>
			
				<linearGradient id="SVGID_34_" gradientUnits="userSpaceOnUse" x1="105.7827" y1="285.9633" x2="105.7827" y2="301.1492" gradientTransform="matrix(1 0 0 -1 0 514)">
				<stop  offset="0" style="stop-color:#353535"/>
				<stop  offset="0.9984" style="stop-color:#FFFFFF;stop-opacity:0"/>
			</linearGradient>
			<path class="st77" d="M107.8,212.8c0,0-2.6,6-4.2,13.2l4.3,2.5L107.8,212.8z"/>
			
				<radialGradient id="SVGID_35_" cx="188.0014" cy="1001.1191" r="11.2425" gradientTransform="matrix(6.123234e-17 1 0.3228 -1.976709e-17 -215.081 24.9526)" gradientUnits="userSpaceOnUse">
				<stop  offset="0" style="stop-color:#F2F2F2"/>
				<stop  offset="1" style="stop-color:#FFFFFF;stop-opacity:0"/>
			</radialGradient>
			<path class="st78" d="M112.1,210.3c0,0-2.8,4.5-3.6,15.4l-0.7-12.9L112.1,210.3z"/>
			
				<radialGradient id="SVGID_36_" cx="356.9417" cy="-239.3303" r="2.0482" gradientTransform="matrix(0 1.4756 0.1411 0 141.593 -311.7116)" gradientUnits="userSpaceOnUse">
				<stop  offset="0" style="stop-color:#F2F2F2"/>
				<stop  offset="1" style="stop-color:#FFFFFF;stop-opacity:0"/>
			</radialGradient>
			<ellipse class="st79" cx="107.8" cy="215" rx="0.3" ry="3"/>
			<g class="st67">
				<g>
					
						<linearGradient id="SVGID_37_" gradientUnits="userSpaceOnUse" x1="103.9827" y1="294.8755" x2="103.9827" y2="282.9955" gradientTransform="matrix(1 0 0 -1 0 514)">
						<stop  offset="0" style="stop-color:#F97675"/>
						<stop  offset="1" style="stop-color:#D12D27"/>
					</linearGradient>
					<polygon class="st80" points="106.1,217.7 106.1,229.4 101.8,231.9 101.8,220.2 					"/>
				</g>
				<g>
					<polygon class="st81" points="101.8,231.9 97.6,229.4 97.5,217.7 101.8,220.2 					"/>
				</g>
				<g>
					<polygon class="st82" points="101.8,220.2 97.5,217.7 101.8,215.2 106.1,217.7 					"/>
				</g>
			</g>
			
				<radialGradient id="SVGID_38_" cx="182.0195" cy="994.4811" r="8.464" gradientTransform="matrix(6.123234e-17 1 0.3228 -1.976709e-17 -218.9201 37.5726)" gradientUnits="userSpaceOnUse">
				<stop  offset="0" style="stop-color:#F2F2F2"/>
				<stop  offset="1" style="stop-color:#FFFFFF;stop-opacity:0"/>
			</radialGradient>
			<path class="st83" d="M106.1,217.7c0,0-3.4,3-3.8,11.1l-0.5-8.7L106.1,217.7z"/>
			
				<linearGradient id="SVGID_39_" gradientUnits="userSpaceOnUse" x1="99.7827" y1="282.5155" x2="99.7827" y2="293.8313" gradientTransform="matrix(1 0 0 -1 0 514)">
				<stop  offset="0" style="stop-color:#353535"/>
				<stop  offset="0.9984" style="stop-color:#FFFFFF;stop-opacity:0"/>
			</linearGradient>
			<path class="st84" d="M101.8,220.2c0,0-1.7,4.9-4.2,9.3l4.3,2.5L101.8,220.2z"/>
			
				<radialGradient id="SVGID_40_" cx="362.0789" cy="-281.7707" r="2.0482" gradientTransform="matrix(0 1.4756 0.1411 0 141.593 -311.7116)" gradientUnits="userSpaceOnUse">
				<stop  offset="0" style="stop-color:#F2F2F2"/>
				<stop  offset="1" style="stop-color:#FFFFFF;stop-opacity:0"/>
			</radialGradient>
			<ellipse class="st85" cx="101.8" cy="222.6" rx="0.3" ry="3"/>
			<g>
				<g>
					<g>
						
							<linearGradient id="SVGID_41_" gradientUnits="userSpaceOnUse" x1="97.9827" y1="287.8586" x2="97.9827" y2="279.8542" gradientTransform="matrix(1 0 0 -1 0 514)">
							<stop  offset="0" style="stop-color:#FEA000"/>
							<stop  offset="1" style="stop-color:#FC6700"/>
						</linearGradient>
						<polygon class="st86" points="100.1,225.1 100.1,232.9 95.8,235.4 95.8,227.5 						"/>
					</g>
					<g>
						<polygon class="st87" points="95.8,235.4 91.6,232.9 91.6,225.1 95.8,227.5 						"/>
					</g>
					<g>
						<polygon class="st88" points="95.8,227.5 91.6,225.1 95.8,222.6 100.1,225.1 						"/>
					</g>
				</g>
				
					<radialGradient id="SVGID_42_" cx="176.0383" cy="987.5124" r="6.9907" gradientTransform="matrix(6.123234e-17 1 0.3228 -1.976709e-17 -222.6516 50.5225)" gradientUnits="userSpaceOnUse">
					<stop  offset="0" style="stop-color:#F2F2F2"/>
					<stop  offset="1" style="stop-color:#FFFFFF;stop-opacity:0"/>
				</radialGradient>
				<path class="st89" d="M100.1,225.1c0,0-3.7,2.8-3.9,8.8l-0.3-6.3L100.1,225.1z"/>
				
					<radialGradient id="SVGID_43_" cx="329.1716" cy="-665.5401" r="2.0482" gradientTransform="matrix(-3.500000e-03 1.3448 0.1411 4.000000e-04 190.9505 -212.7189)" gradientUnits="userSpaceOnUse">
					<stop  offset="0" style="stop-color:#F2F2F2"/>
					<stop  offset="1" style="stop-color:#FFFFFF;stop-opacity:0"/>
				</radialGradient>
				<path class="st90" d="M95.9,232.5c-0.2,0-0.3-1.2-0.3-2.8c0-1.5,0.1-2.8,0.3-2.8c0.2,0,0.3,1.2,0.3,2.8
					C96.1,231.2,96,232.5,95.9,232.5z"/>
			</g>
			<g>
				<g class="st91">
					<g>
						<polygon class="st92" points="114.6,203.2 112.8,203.4 112.6,203.4 112.4,203.7 109.5,208 109.5,208.8 109.1,208.6 
							107.2,211.4 105.5,211.9 105.3,212 105.2,212.1 103.5,214.8 103.5,215.5 105.5,212.5 107.3,212 107.4,211.9 107.5,211.8 
							112.7,204.2 114.6,204.1 114.8,204.1 115,203.8 116.1,201.8 115.6,201.5 						"/>
						
							<radialGradient id="SVGID_44_" cx="-92.7693" cy="119.3601" r="1.0498" gradientTransform="matrix(0.7071 -0.7071 -0.451 -0.451 234.5038 189.9687)" gradientUnits="userSpaceOnUse">
							<stop  offset="0" style="stop-color:#FFFFFF"/>
							<stop  offset="0.9984" style="stop-color:#FFFFFF;stop-opacity:0"/>
						</radialGradient>
						<polygon class="st93" points="114.6,203.2 112.8,203.4 112.6,203.4 112.4,203.7 109.5,208 109.5,208.8 109.1,208.6 
							107.2,211.4 105.5,211.9 105.3,212 105.2,212.1 103.5,214.8 103.5,215.5 105.5,212.5 107.3,212 107.4,211.9 107.5,211.8 
							112.7,204.2 114.6,204.1 114.8,204.1 115,203.8 116.1,201.8 115.6,201.5 						"/>
						
							<radialGradient id="SVGID_45_" cx="-153.097" cy="-1125.4175" r="2.6786" gradientTransform="matrix(0.5349 -0.8449 -0.1276 -8.075343e-02 51.0262 -15.4805)" gradientUnits="userSpaceOnUse">
							<stop  offset="0" style="stop-color:#FFFFFF"/>
							<stop  offset="0.9984" style="stop-color:#FFFFFF;stop-opacity:0"/>
						</radialGradient>
						<polygon class="st94" points="114.6,203.2 112.8,203.4 112.6,203.4 112.4,203.7 109.5,208 109.5,208.8 109.1,208.6 
							107.2,211.4 105.5,211.9 105.3,212 105.2,212.1 103.5,214.8 103.5,215.5 105.5,212.5 107.3,212 107.4,211.9 107.5,211.8 
							112.7,204.2 114.6,204.1 114.8,204.1 115,203.8 116.1,201.8 115.6,201.5 						"/>
						
							<radialGradient id="SVGID_46_" cx="-164.8088" cy="-587.7029" r="1.5389" gradientTransform="matrix(0.5042 -0.8636 -0.1898 -0.1108 81.5083 0.3225)" gradientUnits="userSpaceOnUse">
							<stop  offset="0" style="stop-color:#FFFFFF"/>
							<stop  offset="0.9984" style="stop-color:#FFFFFF;stop-opacity:0"/>
						</radialGradient>
						<polygon class="st95" points="114.6,203.2 112.8,203.4 112.6,203.4 112.4,203.7 109.5,208 109.5,208.8 109.1,208.6 
							107.2,211.4 105.5,211.9 105.3,212 105.2,212.1 103.5,214.8 103.5,215.5 105.5,212.5 107.3,212 107.4,211.9 107.5,211.8 
							112.7,204.2 114.6,204.1 114.8,204.1 115,203.8 116.1,201.8 115.6,201.5 						"/>
						
							<radialGradient id="SVGID_47_" cx="-185.3947" cy="-1041.3505" r="2.0012" gradientTransform="matrix(0.4369 -0.8995 -0.1353 -6.570509e-02 47.9712 -25.3513)" gradientUnits="userSpaceOnUse">
							<stop  offset="0" style="stop-color:#FFFFFF"/>
							<stop  offset="0.9984" style="stop-color:#FFFFFF;stop-opacity:0"/>
						</radialGradient>
						<polygon class="st96" points="114.6,203.2 112.8,203.4 112.6,203.4 112.4,203.7 109.5,208 109.5,208.8 109.1,208.6 
							107.2,211.4 105.5,211.9 105.3,212 105.2,212.1 103.5,214.8 103.5,215.5 105.5,212.5 107.3,212 107.4,211.9 107.5,211.8 
							112.7,204.2 114.6,204.1 114.8,204.1 115,203.8 116.1,201.8 115.6,201.5 						"/>
						<polygon class="st97" points="114.6,203.2 112.8,203.4 112.6,203.4 112.4,203.7 109.5,208 109.5,208.8 109.1,208.6 
							107.2,211.4 105.5,211.9 105.3,212 105.2,212.1 103.5,214.8 103.5,215.5 105.5,212.5 107.3,212 107.4,211.9 107.5,211.8 
							112.7,204.2 114.6,204.1 114.8,204.1 115,203.8 116.1,201.8 115.6,201.5 						"/>
					</g>
					<g>
						<polygon class="st92" points="100.2,218.1 101.9,217.7 102.1,217.7 102.1,217.6 103.2,216 102.9,215.8 101.9,217.3 
							100.1,217.7 100,217.7 99.9,217.9 97.6,222.5 97.6,223 						"/>
						
							<radialGradient id="SVGID_48_" cx="-105.118" cy="105.1731" r="0.5389" gradientTransform="matrix(0.7071 -0.7071 -0.451 -0.451 224.4883 189.0253)" gradientUnits="userSpaceOnUse">
							<stop  offset="0" style="stop-color:#FFFFFF"/>
							<stop  offset="0.9984" style="stop-color:#FFFFFF;stop-opacity:0"/>
						</radialGradient>
						<polygon class="st98" points="100.2,218.1 101.9,217.7 102.1,217.7 102.1,217.6 103.2,216 102.9,215.8 101.9,217.3 
							100.1,217.7 100,217.7 99.9,217.9 97.6,222.5 97.6,223 						"/>
						
							<radialGradient id="SVGID_49_" cx="-164.142" cy="-1138.1411" r="1.3605" gradientTransform="matrix(0.5349 -0.8449 -0.1276 -8.075343e-02 44.2658 -13.1167)" gradientUnits="userSpaceOnUse">
							<stop  offset="0" style="stop-color:#FFFFFF"/>
							<stop  offset="0.9984" style="stop-color:#FFFFFF;stop-opacity:0"/>
						</radialGradient>
						<polygon class="st99" points="100.2,218.1 101.9,217.7 102.1,217.7 102.1,217.6 103.2,216 102.9,215.8 101.9,217.3 
							100.1,217.7 100,217.7 99.9,217.9 97.6,222.5 97.6,223 						"/>
						
							<radialGradient id="SVGID_50_" cx="-174.3184" cy="-598.9606" r="0.7516" gradientTransform="matrix(0.5042 -0.8636 -0.1898 -0.1108 74.6565 2.1203)" gradientUnits="userSpaceOnUse">
							<stop  offset="0" style="stop-color:#FFFFFF"/>
							<stop  offset="0.9984" style="stop-color:#FFFFFF;stop-opacity:0"/>
						</radialGradient>
						<polygon class="st100" points="100.2,218.1 101.9,217.7 102.1,217.7 102.1,217.6 103.2,216 102.9,215.8 101.9,217.3 
							100.1,217.7 100,217.7 99.9,217.9 97.6,222.5 97.6,223 						"/>
						
							<radialGradient id="SVGID_51_" cx="-193.7496" cy="-1051.6025" r="0.9383" gradientTransform="matrix(0.4369 -0.8995 -0.1353 -6.570509e-02 41.8798 -23.2883)" gradientUnits="userSpaceOnUse">
							<stop  offset="0" style="stop-color:#FFFFFF"/>
							<stop  offset="0.9984" style="stop-color:#FFFFFF;stop-opacity:0"/>
						</radialGradient>
						<polygon class="st101" points="100.2,218.1 101.9,217.7 102.1,217.7 102.1,217.6 103.2,216 102.9,215.8 101.9,217.3 
							100.1,217.7 100,217.7 99.9,217.9 97.6,222.5 97.6,223 						"/>
						<polygon class="st97" points="100.2,218.1 101.9,217.7 102.1,217.7 102.1,217.6 103.2,216 102.9,215.8 101.9,217.3 
							100.1,217.7 100,217.7 99.9,217.9 97.6,222.5 97.6,223 						"/>
					</g>
					<g>
						<polygon class="st92" points="96.6,224.6 96.7,224.6 96.8,224.5 97.3,223.4 97.1,223.3 96.6,224.3 94.8,224.6 94.7,224.6 
							94.7,224.6 91.6,229.5 91.6,229.7 94.8,224.8 						"/>
						
							<radialGradient id="SVGID_52_" cx="-110.9946" cy="97.6777" r="0.4766" gradientTransform="matrix(0.7071 -0.7071 -0.451 -0.451 219.3865 188.9847)" gradientUnits="userSpaceOnUse">
							<stop  offset="0" style="stop-color:#FFFFFF"/>
							<stop  offset="0.9984" style="stop-color:#FFFFFF;stop-opacity:0"/>
						</radialGradient>
						<polygon class="st102" points="96.6,224.6 96.7,224.6 96.8,224.5 97.3,223.4 97.1,223.3 96.6,224.3 94.8,224.6 94.7,224.6 
							94.7,224.6 91.6,229.5 91.6,229.7 94.8,224.8 						"/>
						
							<radialGradient id="SVGID_53_" cx="-170.0403" cy="-1145.4565" r="1.2166" gradientTransform="matrix(0.5349 -0.8449 -0.1276 -8.075343e-02 40.5892 -11.3756)" gradientUnits="userSpaceOnUse">
							<stop  offset="0" style="stop-color:#FFFFFF"/>
							<stop  offset="0.9984" style="stop-color:#FFFFFF;stop-opacity:0"/>
						</radialGradient>
						<polygon class="st103" points="96.6,224.6 96.7,224.6 96.8,224.5 97.3,223.4 97.1,223.3 96.6,224.3 94.8,224.6 94.7,224.6 
							94.7,224.6 91.6,229.5 91.6,229.7 94.8,224.8 						"/>
						
							<radialGradient id="SVGID_54_" cx="-180.2421" cy="-606.0958" r="0.7" gradientTransform="matrix(0.5042 -0.8636 -0.1898 -0.1108 70.3651 3.3491)" gradientUnits="userSpaceOnUse">
							<stop  offset="0" style="stop-color:#FFFFFF"/>
							<stop  offset="0.9984" style="stop-color:#FFFFFF;stop-opacity:0"/>
						</radialGradient>
						<polygon class="st104" points="96.6,224.6 96.7,224.6 96.8,224.5 97.3,223.4 97.1,223.3 96.6,224.3 94.8,224.6 94.7,224.6 
							94.7,224.6 91.6,229.5 91.6,229.7 94.8,224.8 						"/>
						
							<radialGradient id="SVGID_55_" cx="-199.6926" cy="-1058.614" r="0.9115" gradientTransform="matrix(0.4369 -0.8995 -0.1353 -6.570509e-02 37.5849 -22.0831)" gradientUnits="userSpaceOnUse">
							<stop  offset="0" style="stop-color:#FFFFFF"/>
							<stop  offset="0.9984" style="stop-color:#FFFFFF;stop-opacity:0"/>
						</radialGradient>
						<polygon class="st105" points="96.6,224.6 96.7,224.6 96.8,224.5 97.3,223.4 97.1,223.3 96.6,224.3 94.8,224.6 94.7,224.6 
							94.7,224.6 91.6,229.5 91.6,229.7 94.8,224.8 						"/>
						<polygon class="st97" points="96.6,224.6 96.7,224.6 96.8,224.5 97.3,223.4 97.1,223.3 96.6,224.3 94.8,224.6 94.7,224.6 
							94.7,224.6 91.6,229.5 91.6,229.7 94.8,224.8 						"/>
					</g>
				</g>
				<g>
					
						<radialGradient id="SVGID_56_" cx="117.9259" cy="319.7162" r="50.3332" gradientTransform="matrix(1 0 0 -1 0 514)" gradientUnits="userSpaceOnUse">
						<stop  offset="0.791" style="stop-color:#353535"/>
						<stop  offset="0.9984" style="stop-color:#353535;stop-opacity:0"/>
					</radialGradient>
					<polygon class="st106" points="115.1,196.2 116.4,196.8 113.7,201.9 112,202.1 111.8,202.1 111.6,202.3 106.6,210.3 
						104.9,210.9 104.8,210.9 104.7,211.1 101.5,216.4 99.8,216.8 99.7,216.8 99.6,217 96.4,223.6 94.7,223.9 94.6,223.9 94.5,224 
						87.7,235.3 94.6,224.2 96.4,223.9 96.5,223.9 96.6,223.8 99.8,217.2 101.5,216.8 101.6,216.8 101.7,216.7 105,211.4 
						106.7,210.9 106.8,210.9 106.9,210.7 111.9,202.9 113.7,202.8 113.9,202.7 114.1,202.4 117,197 118.4,197.7 118.5,193.7 					
						"/>
					
						<radialGradient id="SVGID_57_" cx="-91.9769" cy="126.6343" r="3.1297" gradientTransform="matrix(0.7071 -0.7071 -0.451 -0.451 238.0167 186.5356)" gradientUnits="userSpaceOnUse">
						<stop  offset="0" style="stop-color:#FFFFFF"/>
						<stop  offset="0.9984" style="stop-color:#FFFFFF;stop-opacity:0"/>
					</radialGradient>
					<polygon class="st107" points="115.1,196.2 116.4,196.8 113.7,201.9 112,202.1 111.8,202.1 111.6,202.3 106.6,210.3 
						104.9,210.9 104.8,210.9 104.7,211.1 101.5,216.4 99.8,216.8 99.7,216.8 99.6,217 96.4,223.6 94.7,223.9 94.6,223.9 94.5,224 
						87.7,235.3 94.6,224.2 96.4,223.9 96.5,223.9 96.6,223.8 99.8,217.2 101.5,216.8 101.6,216.8 101.7,216.7 105,211.4 
						106.7,210.9 106.8,210.9 106.9,210.7 111.9,202.9 113.7,202.8 113.9,202.7 114.1,202.4 117,197 118.4,197.7 118.5,193.7 					
						"/>
					
						<radialGradient id="SVGID_58_" cx="-155.7036" cy="-1124.1161" r="7.8695" gradientTransform="matrix(0.5349 -0.8449 -0.1276 -8.075343e-02 49.9799 -18.8793)" gradientUnits="userSpaceOnUse">
						<stop  offset="0" style="stop-color:#FFFFFF"/>
						<stop  offset="0.9984" style="stop-color:#FFFFFF;stop-opacity:0"/>
					</radialGradient>
					<polygon class="st108" points="115.1,196.2 116.4,196.8 113.7,201.9 112,202.1 111.8,202.1 111.6,202.3 106.6,210.3 
						104.9,210.9 104.8,210.9 104.7,211.1 101.5,216.4 99.8,216.8 99.7,216.8 99.6,217 96.4,223.6 94.7,223.9 94.6,223.9 94.5,224 
						87.7,235.3 94.6,224.2 96.4,223.9 96.5,223.9 96.6,223.8 99.8,217.2 101.5,216.8 101.6,216.8 101.7,216.7 105,211.4 
						106.7,210.9 106.8,210.9 106.9,210.7 111.9,202.9 113.7,202.8 113.9,202.7 114.1,202.4 117,197 118.4,197.7 118.5,193.7 					
						"/>
					
						<radialGradient id="SVGID_59_" cx="-171.4186" cy="-592.3843" r="4.2813" gradientTransform="matrix(0.5042 -0.8636 -0.1898 -0.1108 77.3424 -1.2231)" gradientUnits="userSpaceOnUse">
						<stop  offset="0" style="stop-color:#FFFFFF"/>
						<stop  offset="0.9984" style="stop-color:#FFFFFF;stop-opacity:0"/>
					</radialGradient>
					<polygon class="st109" points="115.1,196.2 116.4,196.8 113.7,201.9 112,202.1 111.8,202.1 111.6,202.3 106.6,210.3 
						104.9,210.9 104.8,210.9 104.7,211.1 101.5,216.4 99.8,216.8 99.7,216.8 99.6,217 96.4,223.6 94.7,223.9 94.6,223.9 94.5,224 
						87.7,235.3 94.6,224.2 96.4,223.9 96.5,223.9 96.6,223.8 99.8,217.2 101.5,216.8 101.6,216.8 101.7,216.7 105,211.4 
						106.7,210.9 106.8,210.9 106.9,210.7 111.9,202.9 113.7,202.8 113.9,202.7 114.1,202.4 117,197 118.4,197.7 118.5,193.7 					
						"/>
					
						<radialGradient id="SVGID_60_" cx="-195.0151" cy="-1050.136" r="5.25" gradientTransform="matrix(0.4369 -0.8995 -0.1353 -6.570509e-02 41.3655 -25.7967)" gradientUnits="userSpaceOnUse">
						<stop  offset="0" style="stop-color:#FFFFFF"/>
						<stop  offset="0.9984" style="stop-color:#FFFFFF;stop-opacity:0"/>
					</radialGradient>
					<polygon class="st110" points="115.1,196.2 116.4,196.8 113.7,201.9 112,202.1 111.8,202.1 111.6,202.3 106.6,210.3 
						104.9,210.9 104.8,210.9 104.7,211.1 101.5,216.4 99.8,216.8 99.7,216.8 99.6,217 96.4,223.6 94.7,223.9 94.6,223.9 94.5,224 
						87.7,235.3 94.6,224.2 96.4,223.9 96.5,223.9 96.6,223.8 99.8,217.2 101.5,216.8 101.6,216.8 101.7,216.7 105,211.4 
						106.7,210.9 106.8,210.9 106.9,210.7 111.9,202.9 113.7,202.8 113.9,202.7 114.1,202.4 117,197 118.4,197.7 118.5,193.7 					
						"/>
					
						<radialGradient id="SVGID_61_" cx="-194.297" cy="-1466.5157" r="5.7961" gradientTransform="matrix(0.4582 -0.8888 -0.1076 -5.547091e-02 24.479 -28.7525)" gradientUnits="userSpaceOnUse">
						<stop  offset="0" style="stop-color:#FFFFFF"/>
						<stop  offset="0.9984" style="stop-color:#FFFFFF;stop-opacity:0"/>
					</radialGradient>
					<polygon class="st111" points="115.1,196.2 116.4,196.8 113.7,201.9 112,202.1 111.8,202.1 111.6,202.3 106.6,210.3 
						104.9,210.9 104.8,210.9 104.7,211.1 101.5,216.4 99.8,216.8 99.7,216.8 99.6,217 96.4,223.6 94.7,223.9 94.6,223.9 94.5,224 
						87.7,235.3 94.6,224.2 96.4,223.9 96.5,223.9 96.6,223.8 99.8,217.2 101.5,216.8 101.6,216.8 101.7,216.7 105,211.4 
						106.7,210.9 106.8,210.9 106.9,210.7 111.9,202.9 113.7,202.8 113.9,202.7 114.1,202.4 117,197 118.4,197.7 118.5,193.7 					
						"/>
				</g>
			</g>
		</g>
	</g>
</g>
</svg>
