<?xml version="1.0" encoding="utf-8"?>
<!-- Generator: Adobe Illustrator 25.0.0, SVG Export Plug-In . SVG Version: 6.00 Build 0)  -->
<svg version="1.1" id="Layer_1" xmlns="http://www.w3.org/2000/svg" xmlns:xlink="http://www.w3.org/1999/xlink" x="0px" y="0px"
	 viewBox="0 0 512 512" style="enable-background:new 0 0 512 512;" xml:space="preserve">
<style type="text/css">
	.st0{fill:#05AFFE;}
	.st1{fill:none;}
	.st2{fill:#464849;}
</style>
<g>
	<path class="st0" d="M435.7,173.1c-2.9-4-7-6.7-12-8.9c-52.8-23.5-105.4-47.2-158.1-71c-2-0.9-4-1.7-5.9-2.5c-3.9-1.7-7,0-7,0
		c-22,10-44,20-66,29.9c-33.6,15.1-67.1,30.3-100.7,45.3C81,168,78.3,171.7,76,176c-0.8,1.4-1.3,2.9-1.5,4.6
		c-0.1,1.4-0.1,3.2,0.8,4.9c3.9,9.4,10.8,12.5,20.9,12.5c106.9-0.2,213.8-0.2,320.7,0c10,0,17.2-2.9,21.1-12.5
		c0.5-1,0.6-2.3,0.6-3.5C438.6,178.8,437.5,175.7,435.7,173.1z M256.6,164.8c-11.5,0-20.8-9.4-20.8-20.9c0-11.5,9.3-20.8,20.8-20.8
		c11.5,0,20.8,9.3,20.8,20.8C277.4,155.4,268.1,164.8,256.6,164.8z"/>
	<g>
		<rect x="149.9" y="229.4" class="st1" width="48.7" height="148"/>
		<path class="st1" d="M276.6,377.7c0.8,0,1.5-0.1,2-0.2l-46.8,0.1C247.1,377.6,261.8,377.5,276.6,377.7z"/>
		<path class="st1" d="M281.3,372.8c-0.2-15.3-0.1-30.6-0.1-45.8c0-30.9-0.1-61.8,0.1-92.6c0-4.1-1-5.6-5.3-5.4
			c-7.9,0.3-15.7,0.1-23.6,0.1h-20.6v148.6l46.8-0.1C280.7,377,281.3,375.7,281.3,372.8z"/>
		<rect x="314.4" y="229.3" class="st1" width="48.7" height="147.9"/>
		<path class="st0" d="M402.8,377.7c-2-0.2-3.9-0.3-6-0.4l-33.6-0.1l-84.6,0.2c-0.6,0.1-1.2,0.2-2,0.2c-14.8-0.2-29.5-0.1-44.7-0.1
			l-33.2-0.2h-48.7l-33.7-0.1c-1.9,0.1-3.6,0.3-5.2,0.4c-8.7,0.7-15,7.5-15.1,16.4c-0.1,8.3,6.4,15.3,14.9,16.1
			c1.8,0.1,3.7,0.1,5.5,0.1h279.5c2.3,0,4.7-0.1,7-0.3c8.3-1,14.1-7.7,14.2-16.2C417.1,385.6,411,378.6,402.8,377.7z"/>
		<path class="st2" d="M149.9,229.4h48.7v148l33.2,0.2V229h20.6c7.9,0,15.7,0.3,23.6-0.1c4.3-0.2,5.3,1.3,5.3,5.4
			c-0.1,30.8-0.1,61.7-0.1,92.6c0,15.2-0.1,30.5,0.1,45.8c0,2.8-0.6,4.2-2.7,4.7l84.6-0.2h-48.7V229.3h48.7v147.9l33.6,0.1V229.4
			c1.9-0.3,3.4-0.4,4.9-0.6c4.3-0.5,6.6-3,7-7.2c0.4-4.2-1.7-7.1-5.7-8.4c-1.6-0.5-3.3-0.5-5-0.5h-283c-1.7,0-3.4,0.1-5,0.6
			c-4.1,1.2-6,4-5.7,8.3c0.3,4,2.5,6.4,6.5,7.2c1.8,0.3,3.6,0.5,5.4,0.7v147.8l33.7,0.1V229.4z"/>
	</g>
</g>
</svg>
