<?xml version="1.0" encoding="utf-8"?>
<!-- Generator: Adobe Illustrator 27.3.1, SVG Export Plug-In . SVG Version: 6.00 Build 0)  -->
<svg version="1.1" id="Layer_1" xmlns="http://www.w3.org/2000/svg" xmlns:xlink="http://www.w3.org/1999/xlink" x="0px" y="0px"
	 viewBox="0 0 512 122" style="enable-background:new 0 0 512 122;" xml:space="preserve">
<style type="text/css">
	.st0{fill:#353535;}
	.st1{fill:url(#SVGID_1_);}
	.st2{fill:url(#SVGID_00000116212699107864617050000003177726936948309168_);}
	.st3{fill:url(#SVGID_00000060712055329053939170000009011129028709052801_);}
	.st4{fill:url(#SVGID_00000169539429526587452070000008217291786065677458_);}
	.st5{fill:#FFFFFF;}
</style>
<g>
	<path class="st0" d="M489.4,116.9H22.6c-12,0-21.8-9.7-21.8-21.8V27.3c0-12,9.7-21.8,21.8-21.8h466.8c12,0,21.8,9.7,21.8,21.8v67.8
		C511.2,107.1,501.4,116.9,489.4,116.9z"/>
	<g>
		<g>
			
				<linearGradient id="SVGID_1_" gradientUnits="userSpaceOnUse" x1="-197.0523" y1="-137.5757" x2="-189.7412" y2="-137.5757" gradientTransform="matrix(5.3545 0 0 -5.3545 1106.2235 -693.5938)">
				<stop  offset="0" style="stop-color:#63BE6B"/>
				<stop  offset="0.506" style="stop-color:#5BBC6A"/>
				<stop  offset="1" style="stop-color:#4AB96A"/>
			</linearGradient>
			<path class="st1" d="M90.3,47.6L53.4,26.5c-0.5-0.3-1-0.2-1.5,0c-0.5,0.3-0.7,0.7-0.7,1.3c0,0,0,1.9,0,5.2L78,59.8L90.3,47.6z"/>
			
				<linearGradient id="SVGID_00000152976027230413481360000011349917899400713610_" gradientUnits="userSpaceOnUse" x1="-197.0466" y1="-140.6842" x2="-192.0228" y2="-140.6842" gradientTransform="matrix(5.3545 0 0 -5.3545 1106.2235 -693.5938)">
				<stop  offset="0" style="stop-color:#3EC6F2"/>
				<stop  offset="1" style="stop-color:#45AFE3"/>
			</linearGradient>
			<path style="fill:url(#SVGID_00000152976027230413481360000011349917899400713610_);" d="M51.1,32.9c0,11.6,0.2,39.6,0.2,53.6
				L78,59.8L51.1,32.9z"/>
			
				<linearGradient id="SVGID_00000137817814190296393990000015590653724341960632_" gradientUnits="userSpaceOnUse" x1="-192.0298" y1="-140.8523" x2="-185.6577" y2="-140.8523" gradientTransform="matrix(5.3545 0 0 -5.3545 1106.2235 -693.5938)">
				<stop  offset="0" style="stop-color:#FAA51A"/>
				<stop  offset="0.387" style="stop-color:#FAB716"/>
				<stop  offset="0.741" style="stop-color:#FAC412"/>
				<stop  offset="1" style="stop-color:#FAC80F"/>
			</linearGradient>
			<path style="fill:url(#SVGID_00000137817814190296393990000015590653724341960632_);" d="M111.4,59.7L90.3,47.6L78,59.8
				l13.8,13.8l19.6-11.4c0.5-0.3,0.7-0.8,0.7-1.3C112.2,60.4,111.9,59.9,111.4,59.7z"/>
			
				<linearGradient id="SVGID_00000083802824806038867450000016598075280353062821_" gradientUnits="userSpaceOnUse" x1="-197.0064" y1="-144.1043" x2="-189.4485" y2="-144.1043" gradientTransform="matrix(5.3545 0 0 -5.3545 1106.2235 -693.5938)">
				<stop  offset="0" style="stop-color:#EC3B50"/>
				<stop  offset="1" style="stop-color:#E7515B"/>
			</linearGradient>
			<path style="fill:url(#SVGID_00000083802824806038867450000016598075280353062821_);" d="M51.4,86.5c0,5,0,8.2,0,8.2
				c0,0.6,0.3,1,0.7,1.3c0.5,0.3,1,0.3,1.5,0l38.2-22.3L78,59.8L51.4,86.5z"/>
		</g>
		<g>
			<g>
				<path class="st5" d="M188.7,58.8v15.9c-2.2,1.6-4.6,2.8-7.2,3.6s-5.4,1.3-8.5,1.3c-3.5,0-6.7-0.6-9.6-1.6s-5.2-2.6-7.2-4.6
					s-3.5-4.4-4.6-7.2c-1-2.8-1.6-6-1.6-9.4s0.5-6.6,1.6-9.4c1-2.8,2.6-5.2,4.5-7.2s4.3-3.5,7.1-4.6s5.9-1.6,9.3-1.6
					c1.7,0,3.3,0.1,4.7,0.3s2.8,0.6,4,1c1.3,0.5,2.4,1,3.5,1.7s2.1,1.4,3.1,2.3l-0.9,1.4c-0.3,0.5-0.7,0.6-1.3,0.3
					c-0.3-0.1-0.8-0.4-1.4-0.9c-0.6-0.5-1.4-1-2.4-1.4c-1-0.5-2.3-1-3.8-1.4s-3.4-0.6-5.6-0.6c-2.9,0-5.5,0.5-7.9,1.4s-4.4,2.2-6,4
					c-1.7,1.7-2.9,3.8-3.8,6.3c-0.9,2.5-1.4,5.3-1.4,8.4c0,3.1,0.5,6,1.4,8.5s2.2,4.6,3.9,6.4s3.7,3.1,6.2,4
					c2.4,0.9,5.2,1.4,8.2,1.4c1.3,0,2.6-0.1,3.7-0.2c1.1-0.2,2.2-0.4,3.2-0.7c1-0.3,2-0.7,3-1.1c1-0.5,1.9-1,2.9-1.5v-12h-8.6
					c-0.2,0-0.4-0.1-0.6-0.2c-0.2-0.2-0.2-0.3-0.2-0.5v-1.8L188.7,58.8L188.7,58.8z"/>
				<path class="st5" d="M210.1,47.1c2.2,0,4.3,0.4,6.1,1.2s3.3,1.9,4.5,3.3s2.2,3.1,2.8,5.1s1,4.2,1,6.7c0,2.5-0.3,4.7-1,6.7
					s-1.6,3.7-2.8,5.1s-2.7,2.5-4.5,3.3s-3.8,1.1-6.1,1.1c-2.2,0-4.3-0.4-6.1-1.1c-1.8-0.8-3.3-1.8-4.5-3.3
					c-1.2-1.4-2.2-3.1-2.8-5.1s-1-4.2-1-6.7s0.3-4.7,1-6.7c0.6-2,1.6-3.7,2.8-5.1c1.2-1.4,2.7-2.5,4.5-3.3
					C205.8,47.5,207.8,47.1,210.1,47.1z M210.1,77.1c1.9,0,3.5-0.3,4.9-1c1.4-0.6,2.6-1.6,3.5-2.8c1-1.2,1.6-2.6,2.1-4.3
					c0.5-1.7,0.7-3.6,0.7-5.7s-0.2-4-0.7-5.7s-1.2-3.2-2.1-4.4c-0.9-1.2-2.1-2.2-3.5-2.8s-3-1-4.9-1s-3.5,0.3-4.9,1
					s-2.6,1.6-3.5,2.8s-1.6,2.7-2.1,4.4s-0.7,3.6-0.7,5.7s0.2,4,0.7,5.7s1.2,3.1,2.1,4.3c1,1.2,2.1,2.1,3.5,2.8
					S208.2,77.1,210.1,77.1z"/>
				<path class="st5" d="M245.4,47.1c2.2,0,4.3,0.4,6.1,1.2s3.3,1.9,4.5,3.3c1.2,1.4,2.2,3.1,2.8,5.1c0.6,2,1,4.2,1,6.7
					c0,2.5-0.3,4.7-1,6.7s-1.6,3.7-2.8,5.1s-2.7,2.5-4.5,3.3s-3.8,1.1-6.1,1.1s-4.3-0.4-6.1-1.1c-1.8-0.8-3.3-1.8-4.5-3.3
					c-1.2-1.4-2.2-3.1-2.8-5.1s-1-4.2-1-6.7s0.3-4.7,1-6.7c0.6-2,1.6-3.7,2.8-5.1c1.2-1.4,2.7-2.5,4.5-3.3
					C241.1,47.5,243.1,47.1,245.4,47.1z M245.4,77.1c1.9,0,3.5-0.3,4.9-1c1.4-0.6,2.6-1.6,3.5-2.8c1-1.2,1.6-2.6,2.1-4.3
					s0.7-3.6,0.7-5.7s-0.2-4-0.7-5.7c-0.5-1.7-1.2-3.2-2.1-4.4c-0.9-1.2-2.1-2.2-3.5-2.8s-3-1-4.9-1s-3.5,0.3-4.9,1
					c-1.4,0.6-2.6,1.6-3.5,2.8s-1.6,2.7-2.1,4.4s-0.7,3.6-0.7,5.7s0.2,4,0.7,5.7s1.2,3.1,2.1,4.3c1,1.2,2.1,2.1,3.5,2.8
					C241.8,76.8,243.5,77.1,245.4,77.1z"/>
				<path class="st5" d="M293.4,49v1c0,0.5-0.3,0.7-0.9,0.9l-4.8,0.3c0.6,0.8,1,1.7,1.4,2.7c0.3,1,0.5,2.1,0.5,3.2
					c0,1.5-0.3,2.9-0.8,4.1c-0.5,1.2-1.3,2.3-2.3,3.2c-1,0.9-2.2,1.6-3.5,2c-1.4,0.5-2.9,0.7-4.6,0.7c-1.8,0-3.4-0.3-4.9-0.8
					c-0.9,0.5-1.6,1.1-2.1,1.8c-0.5,0.7-0.8,1.4-0.8,2c0,0.9,0.3,1.6,1,2.1c0.6,0.5,1.5,0.8,2.5,1s2.2,0.4,3.6,0.4s2.7,0.1,4.1,0.2
					s2.8,0.2,4.1,0.4c1.4,0.2,2.5,0.5,3.6,1c1,0.5,1.9,1.1,2.5,2s1,2,1,3.4c0,1.3-0.3,2.6-1,3.7c-0.6,1.2-1.6,2.3-2.8,3.2
					s-2.7,1.7-4.5,2.2c-1.8,0.6-3.7,0.8-5.9,0.8c-2.2,0-4.1-0.2-5.8-0.7s-3.1-1.1-4.2-1.8c-1.1-0.8-2-1.7-2.6-2.7s-0.9-2.1-0.9-3.2
					c0-1.7,0.6-3.1,1.7-4.3c1.1-1.2,2.6-2.1,4.5-2.8c-1-0.4-1.9-0.9-2.6-1.6c-0.6-0.7-1-1.6-1-2.8c0-0.4,0.1-0.9,0.2-1.4
					c0.2-0.5,0.4-1,0.8-1.4c0.3-0.5,0.7-0.9,1.2-1.4c0.5-0.4,1-0.8,1.7-1.1c-1.5-0.9-2.7-2-3.5-3.4s-1.3-3.1-1.3-5
					c0-1.5,0.3-2.9,0.8-4.1c0.5-1.2,1.3-2.3,2.3-3.2s2.2-1.6,3.6-2.1s2.9-0.7,4.6-0.7c1.4,0,2.7,0.2,3.8,0.5
					c1.2,0.3,2.2,0.8,3.1,1.4L293.4,49L293.4,49z M290.1,81.2c0-1-0.2-1.8-0.8-2.4c-0.5-0.6-1.2-1.1-2.1-1.4s-1.9-0.6-3-0.7
					s-2.3-0.2-3.5-0.3c-1.2-0.1-2.5-0.1-3.7-0.2c-1.3-0.1-2.4-0.2-3.5-0.4c-0.8,0.3-1.5,0.7-2.2,1.1s-1.3,0.9-1.8,1.4
					s-0.9,1.1-1.1,1.7c-0.3,0.6-0.4,1.3-0.4,2c0,0.9,0.2,1.8,0.7,2.6c0.5,0.8,1.2,1.5,2.1,2.1s2,1,3.4,1.4c1.3,0.3,2.9,0.5,4.6,0.5
					c1.6,0,3.1-0.2,4.5-0.5c1.4-0.4,2.6-0.9,3.6-1.5s1.8-1.4,2.4-2.3C289.9,83.3,290.1,82.3,290.1,81.2z M278.4,65.2
					c1.4,0,2.6-0.2,3.6-0.6s1.9-0.9,2.6-1.6s1.3-1.5,1.7-2.5c0.4-1,0.6-2.1,0.6-3.2c0-1.2-0.2-2.3-0.6-3.2c-0.4-1-1-1.8-1.7-2.5
					S283,50.4,282,50c-1-0.4-2.2-0.6-3.6-0.6c-1.3,0-2.5,0.2-3.6,0.6c-1,0.4-1.9,0.9-2.6,1.6c-0.7,0.7-1.3,1.5-1.7,2.5
					c-0.4,1-0.6,2.1-0.6,3.2c0,1.2,0.2,2.2,0.6,3.2s0.9,1.8,1.7,2.5c0.7,0.7,1.6,1.2,2.6,1.6C275.9,65,277,65.2,278.4,65.2z"/>
				<path class="st5" d="M303.7,33.1v46h-3v-46H303.7z"/>
				<path class="st5" d="M315.4,62.1v0.6c0,2.4,0.3,4.4,0.8,6.2s1.3,3.3,2.3,4.5s2.2,2.1,3.7,2.7c1.4,0.6,3,0.9,4.8,0.9
					c1.6,0,2.9-0.2,4.1-0.5s2.1-0.7,2.9-1.2s1.4-0.8,1.9-1.2c0.5-0.3,0.8-0.5,1-0.5c0.3,0,0.5,0.1,0.6,0.3l0.8,1
					c-0.5,0.6-1.2,1.2-2,1.8c-0.8,0.6-1.8,1-2.8,1.4s-2.1,0.7-3.3,0.9c-1.2,0.2-2.3,0.3-3.5,0.3c-2.2,0-4.1-0.4-5.9-1.1
					c-1.8-0.8-3.3-1.8-4.5-3.3s-2.2-3.2-2.9-5.3c-0.7-2.1-1-4.5-1-7.1c0-2.2,0.3-4.3,1-6.2s1.6-3.6,2.8-4.9s2.7-2.5,4.5-3.2
					s3.7-1.2,6-1.2c1.8,0,3.4,0.3,4.9,0.9c1.5,0.6,2.8,1.5,4,2.7c1.1,1.2,2,2.6,2.6,4.3s1,3.7,1,5.9c0,0.5-0.1,0.8-0.2,1
					s-0.3,0.2-0.6,0.2L315.4,62.1L315.4,62.1z M336.4,60.2c0-1.7-0.2-3.2-0.7-4.5c-0.5-1.4-1.1-2.5-2-3.4s-1.9-1.6-3.1-2.1
					s-2.5-0.7-3.9-0.7c-1.6,0-3.1,0.2-4.4,0.8s-2.4,1.2-3.3,2.2c-1,1-1.7,2.1-2.3,3.4c-0.6,1.3-1,2.8-1.1,4.5h20.8V60.2z"/>
				<path class="st5" d="M377.5,34.4c5.3,0,9.2,1.1,11.9,3.4c2.7,2.3,4,5.6,4,9.8c0,2-0.4,3.7-1.1,5.4s-1.8,3.1-3.2,4.2
					c-1.4,1.2-3,2.1-5,2.8s-4.2,1-6.6,1h-8.3v18h-3.3V34.3L377.5,34.4L377.5,34.4z M377.5,58.5c2,0,3.7-0.3,5.3-0.8
					c1.6-0.6,2.9-1.3,4-2.3s1.9-2.1,2.5-3.4s0.9-2.8,0.9-4.3c0-3.4-1-6.1-3.2-7.9c-2.1-1.8-5.3-2.8-9.5-2.8h-8.3v21.6h8.3V58.5z"/>
				<path class="st5" d="M404,33.1v46h-3v-46H404z"/>
				<path class="st5" d="M413.8,52.1c1.7-1.7,3.4-2.9,5.2-3.7c1.8-0.8,3.9-1.3,6.2-1.3c1.7,0,3.2,0.3,4.4,0.8
					c1.3,0.5,2.3,1.3,3.1,2.3s1.5,2.2,1.9,3.6c0.4,1.4,0.6,3,0.6,4.8v20.5H434c-0.6,0-1-0.3-1.2-0.9l-0.4-4.1
					c-0.9,0.8-1.7,1.6-2.6,2.3c-0.9,0.7-1.8,1.2-2.7,1.7c-0.9,0.5-1.9,0.8-3,1.1s-2.2,0.4-3.5,0.4c-1.1,0-2.1-0.2-3.1-0.5
					s-1.9-0.8-2.7-1.4c-0.8-0.6-1.4-1.5-1.9-2.5s-0.7-2.2-0.7-3.7c0-1.3,0.4-2.6,1.1-3.7c0.8-1.1,1.9-2.1,3.6-3
					c1.6-0.8,3.7-1.5,6.2-2c2.6-0.5,5.6-0.8,9.2-0.9v-3.3c0-2.9-0.6-5.1-1.9-6.7c-1.3-1.6-3.1-2.4-5.6-2.4c-1.5,0-2.8,0.2-3.9,0.6
					c-1.1,0.4-2,0.9-2.7,1.4s-1.4,1-1.8,1.4c-0.5,0.4-0.9,0.6-1.2,0.6c-0.2,0-0.4-0.1-0.6-0.2c-0.2-0.1-0.3-0.2-0.4-0.4L413.8,52.1z
					 M432.3,63.9c-3,0.1-5.6,0.3-7.7,0.7c-2.2,0.4-3.9,0.9-5.3,1.5s-2.4,1.4-3.1,2.3s-1,1.9-1,3c0,1,0.2,2,0.5,2.7
					c0.3,0.8,0.8,1.4,1.4,1.9s1.3,0.9,2,1.1c0.8,0.2,1.5,0.3,2.4,0.3c1.2,0,2.3-0.1,3.4-0.4c1-0.3,2-0.6,2.9-1.1s1.7-1,2.5-1.7
					c0.8-0.6,1.5-1.4,2.2-2.1L432.3,63.9L432.3,63.9z"/>
				<path class="st5" d="M470.1,47.6L452,89.2c-0.1,0.3-0.3,0.5-0.5,0.7s-0.5,0.3-0.9,0.3h-2.2l5.5-12.3l-13.3-30.3h2.5
					c0.3,0,0.6,0.1,0.8,0.2c0.2,0.2,0.3,0.3,0.4,0.5l10.6,24.5c0.1,0.3,0.2,0.6,0.3,1c0.1,0.3,0.2,0.6,0.3,1c0.1-0.3,0.2-0.7,0.3-1
					c0.1-0.3,0.2-0.6,0.4-1l10.5-24.5c0.1-0.2,0.2-0.4,0.4-0.6c0.2-0.1,0.4-0.2,0.6-0.2L470.1,47.6L470.1,47.6z"/>
			</g>
		</g>
	</g>
</g>
</svg>
