<?xml version="1.0" encoding="utf-8"?>
<!-- Generator: Adobe Illustrator 25.0.0, SVG Export Plug-In . SVG Version: 6.00 Build 0)  -->
<svg version="1.1" id="Layer_1" xmlns="http://www.w3.org/2000/svg" xmlns:xlink="http://www.w3.org/1999/xlink" x="0px" y="0px"
	 viewBox="0 0 512 180" style="enable-background:new 0 0 512 180;" xml:space="preserve">
<style type="text/css">
	.st0{fill:#0084FF;}
	.st1{fill:#FFFFFF;}
	.st2{fill:#F3FFF7;}
</style>
<g>
	<g>
		<path class="st0" d="M487.2,163.6H24.7C11.1,163.6,0,152.5,0,138.8V41.2c0-13.7,11.1-24.7,24.7-24.7h462.5
			c13.7,0,24.7,11.1,24.7,24.7v97.7C512,152.5,500.9,163.6,487.2,163.6z"/>
	</g>
	<g>
		<path class="st1" d="M465.2,59.6c-1.1-1-2.4-1.5-3.8-1.5c-0.1,0-0.3,0-0.4,0s-1,0.1-2.4,0.1c-2.3,0-6.9-0.2-11.2-1.2
			c-5.6-1.3-12-7.6-13.8-8.9c-0.9-0.6-2-0.9-3.1-0.9s-2.2,0.2-3.1,0.9c-1.6,1.2-7,7.3-13.5,8.9c-4.3,1.1-8.9,1.2-11.3,1.2
			c-1.4,0-2.3,0-2.4-0.1c-0.1,0-0.2,0-0.4,0c-1.4,0-2.8,0.5-3.8,1.5c-1.1,1.1-1.8,2.5-1.8,4.1v13.8c0,51.2,33.8,57.9,35.2,58.1
			c0.3,0,0.7,0.1,1,0.1s0.7,0,1-0.1c1.4-0.3,35.5-6.9,35.5-58.1V63.6C467,62.1,466.3,60.6,465.2,59.6L465.2,59.6z M461.4,77.5
			c0,47.2-30.9,52.6-30.9,52.6s-30.6-5.4-30.6-52.6V63.6c0,0,1.1,0.1,2.8,0.1c2.9,0,7.8-0.2,12.6-1.3c7.7-1.9,15.3-9.7,15.3-9.7
			s7.9,7.8,15.6,9.7c4.7,1.2,9.6,1.3,12.5,1.3c1.7,0,2.8-0.1,2.8-0.1L461.4,77.5z"/>
		<path class="st1" d="M451.7,81.8c1.3-1.3,1.3-3.5,0-4.7c-1.3-1.3-3.5-1.3-4.7,0l-21.6,21.6l-10.9-10.9c-1.3-1.3-3.5-1.3-4.7,0
			c-1.3,1.3-1.3,3.5,0,4.7l13.2,13.2c1.3,1.3,3.5,1.3,4.7,0L451.7,81.8z"/>
	</g>
	<g>
		<path class="st2" d="M84,105.1c0.5,0,0.9,0.2,1.2,0.6l3.4,3.6c-2.6,3-5.7,5.3-9.3,7c-3.7,1.7-8.1,2.5-13.3,2.5
			c-4.5,0-8.6-0.8-12.2-2.3c-3.7-1.5-6.8-3.7-9.4-6.6c-2.6-2.8-4.6-6.2-6-10.1s-2.2-8.3-2.2-13s0.7-9,2.2-13
			c1.5-3.9,3.6-7.3,6.3-10.1c2.7-2.8,5.9-5,9.7-6.6c3.8-1.5,7.9-2.3,12.5-2.3c4.5,0,8.4,0.7,11.8,2.2c3.4,1.4,6.4,3.4,9,5.8
			l-2.8,3.9c-0.2,0.3-0.4,0.5-0.7,0.7c-0.3,0.2-0.6,0.3-1.1,0.3s-1.2-0.3-1.9-0.8c-0.8-0.6-1.8-1.2-3-1.9c-1.2-0.7-2.8-1.3-4.6-1.9
			c-1.8-0.6-4.1-0.8-6.8-0.8c-3.3,0-6.2,0.6-8.9,1.7c-2.7,1.1-5,2.7-6.9,4.9c-1.9,2.1-3.5,4.7-4.5,7.8c-1.1,3.1-1.6,6.5-1.6,10.3
			c0,3.9,0.6,7.4,1.7,10.4c1.1,3.1,2.6,5.6,4.6,7.8c1.9,2.1,4.2,3.7,6.9,4.8c2.6,1.1,5.5,1.7,8.6,1.7c1.8,0,3.6-0.1,5-0.3
			c1.5-0.2,2.9-0.6,4.2-1c1.3-0.5,2.5-1.1,3.6-1.8c1.1-0.7,2.2-1.6,3.3-2.6C83,105.3,83.5,105.1,84,105.1z"/>
		<path class="st2" d="M104.6,53.6V118h-7.8V53.6H104.6z"/>
		<path class="st2" d="M116.1,80c2.5-2.4,5.1-4.1,7.9-5.3c2.8-1.2,5.9-1.8,9.4-1.8c2.5,0,4.7,0.4,6.6,1.2c1.9,0.8,3.6,1.9,4.9,3.4
			c1.3,1.5,2.3,3.2,3,5.3c0.7,2.1,1,4.3,1,6.8V118h-3.5c-0.8,0-1.3-0.1-1.8-0.4c-0.4-0.2-0.7-0.7-1-1.5l-0.9-4.2
			c-1.2,1.1-2.3,2-3.4,2.9c-1.1,0.8-2.3,1.5-3.5,2.1s-2.5,1-3.9,1.3s-2.9,0.5-4.6,0.5c-1.7,0-3.3-0.2-4.9-0.7
			c-1.5-0.5-2.8-1.2-3.9-2.2s-2-2.2-2.7-3.6c-0.7-1.5-1-3.2-1-5.2c0-1.8,0.5-3.4,1.5-5s2.5-3.1,4.7-4.3s5-2.3,8.4-3.1
			c3.5-0.8,7.7-1.3,12.8-1.4v-3.5c0-3.4-0.7-6-2.2-7.8s-3.6-2.6-6.5-2.6c-1.9,0-3.5,0.2-4.8,0.7s-2.4,1-3.4,1.6
			c-0.9,0.6-1.8,1.2-2.5,1.6c-0.7,0.5-1.4,0.7-2,0.7c-0.5,0-1-0.2-1.4-0.4c-0.4-0.3-0.7-0.6-1-1L116.1,80z M141.2,98
			c-3.6,0.1-6.6,0.4-9.2,0.8c-2.5,0.5-4.6,1-6.2,1.8c-1.6,0.7-2.7,1.6-3.5,2.6c-0.7,1-1.1,2.1-1.1,3.3c0,1.2,0.2,2.2,0.6,3
			s0.9,1.5,1.5,2.1c0.7,0.5,1.4,0.9,2.3,1.2c0.9,0.2,1.8,0.4,2.9,0.4c1.4,0,2.6-0.2,3.8-0.4c1.1-0.3,2.2-0.7,3.2-1.2s2-1.2,2.9-1.9
			c0.9-0.7,1.8-1.5,2.7-2.5L141.2,98L141.2,98z"/>
		<path class="st2" d="M170.5,59.8c0,0.8-0.2,1.5-0.5,2.1c-0.3,0.7-0.7,1.2-1.2,1.8c-0.5,0.5-1.1,0.9-1.8,1.2
			c-0.7,0.3-1.4,0.4-2.2,0.4s-1.5-0.2-2.1-0.4c-0.7-0.3-1.2-0.7-1.7-1.2c-0.5-0.5-0.9-1.1-1.2-1.8s-0.4-1.4-0.4-2.1
			c0-0.8,0.2-1.5,0.4-2.2c0.3-0.7,0.7-1.3,1.2-1.8s1.1-0.9,1.7-1.2c0.7-0.3,1.4-0.4,2.1-0.4c0.8,0,1.5,0.2,2.2,0.4
			c0.7,0.3,1.3,0.7,1.8,1.2s0.9,1.1,1.2,1.8C170.4,58.3,170.5,59,170.5,59.8z M168.9,73.7V118h-7.8V73.7H168.9z"/>
		<path class="st2" d="M181.7,118V73.7h4.7c1.1,0,1.8,0.5,2.1,1.6l0.6,4.6c1.6-2,3.5-3.7,5.5-4.9c2-1.3,4.4-1.9,7.1-1.9
			c3,0,5.4,0.8,7.2,2.5s3.2,3.9,4,6.7c0.6-1.6,1.5-3,2.5-4.2s2.1-2.1,3.4-2.9c1.2-0.8,2.6-1.3,4-1.7s2.9-0.5,4.3-0.5
			c2.3,0,4.4,0.4,6.2,1.1c1.8,0.8,3.4,1.8,4.6,3.3s2.2,3.2,2.9,5.3c0.7,2.1,1,4.5,1,7.2V118H234V89.8c0-3.5-0.8-6.1-2.3-7.9
			s-3.7-2.7-6.6-2.7c-1.3,0-2.5,0.2-3.6,0.7c-1.2,0.5-2.2,1.1-3,2c-0.9,0.9-1.6,2-2.1,3.3s-0.8,2.9-0.8,4.6V118h-7.8V89.8
			c0-3.6-0.7-6.2-2.2-8c-1.4-1.8-3.5-2.6-6.2-2.6c-1.9,0-3.7,0.5-5.3,1.5s-3.1,2.4-4.5,4.2v33L181.7,118L181.7,118L181.7,118z"/>
		<path class="st2" d="M289.5,111.8c-1,1.2-2.1,2.2-3.5,3c-1.3,0.8-2.8,1.6-4.3,2.1s-3.1,1-4.7,1.2c-1.6,0.3-3.3,0.4-4.9,0.4
			c-3.1,0-5.9-0.5-8.5-1.5s-4.8-2.6-6.7-4.6c-1.9-2-3.3-4.5-4.4-7.4c-1.1-2.9-1.6-6.3-1.6-10.1c0-3.1,0.5-6,1.4-8.7s2.3-5,4.1-7
			c1.8-2,3.9-3.5,6.5-4.6s5.5-1.7,8.7-1.7c2.6,0,5.1,0.5,7.4,1.3c2.2,0.9,4.2,2.2,5.9,3.9s2.9,3.7,3.9,6.2c0.9,2.5,1.4,5.3,1.4,8.4
			c0,1.2-0.1,2-0.4,2.5c-0.3,0.4-0.8,0.6-1.5,0.6h-29.6c0.1,2.8,0.5,5.2,1.2,7.3c0.7,2.1,1.6,3.8,2.9,5.2c1.2,1.4,2.7,2.4,4.4,3.1
			c1.7,0.7,3.6,1,5.7,1c1.9,0,3.6-0.2,5-0.7s2.6-0.9,3.6-1.5c1-0.5,1.9-1,2.6-1.5s1.3-0.7,1.8-0.7c0.6,0,1.1,0.2,1.5,0.7
			L289.5,111.8z M283.2,91c0-1.8-0.2-3.5-0.8-4.9s-1.2-2.8-2.2-3.9s-2.2-1.9-3.6-2.6c-1.4-0.6-3-0.9-4.8-0.9c-3.7,0-6.7,1.1-8.9,3.3
			c-2.2,2.2-3.5,5.2-4,9H283.2L283.2,91L283.2,91z"/>
		<path class="st2" d="M336.4,53.6V118h-4.6c-1.1,0-1.8-0.5-2.1-1.6L329,111c-1.9,2.3-4,4.1-6.5,5.5c-2.4,1.4-5.2,2.1-8.4,2.1
			c-2.6,0-4.8-0.5-6.9-1.5s-3.8-2.4-5.3-4.3s-2.6-4.3-3.4-7.1c-0.8-2.8-1.2-6.1-1.2-9.7c0-3.3,0.4-6.3,1.3-9.1
			c0.9-2.8,2.1-5.2,3.8-7.3c1.6-2.1,3.6-3.7,6-4.9c2.4-1.2,5-1.8,8-1.8c2.7,0,5,0.5,7,1.4c1.9,0.9,3.7,2.2,5.2,3.8V53.6H336.4
			L336.4,53.6L336.4,53.6z M328.6,84.2c-1.5-1.9-3-3.3-4.7-4.1c-1.7-0.8-3.6-1.2-5.7-1.2c-4.1,0-7.3,1.5-9.5,4.4s-3.3,7.1-3.3,12.6
			c0,2.9,0.2,5.3,0.8,7.4c0.5,2.1,1.2,3.7,2.2,5.1c1,1.3,2.2,2.3,3.6,2.9s3,0.9,4.8,0.9c2.6,0,4.8-0.6,6.7-1.8
			c1.9-1.2,3.7-2.8,5.3-4.9L328.6,84.2L328.6,84.2z"/>
	</g>
</g>
</svg>
