<?xml version="1.0" encoding="utf-8"?>
<!-- Generator: Adobe Illustrator 25.0.0, SVG Export Plug-In . SVG Version: 6.00 Build 0)  -->
<svg version="1.1" id="Layer_1" xmlns="http://www.w3.org/2000/svg" xmlns:xlink="http://www.w3.org/1999/xlink" x="0px" y="0px"
	 viewBox="0 0 512 512" style="enable-background:new 0 0 512 512;" xml:space="preserve">
<style type="text/css">
	.st0{fill:#FF0000;}
</style>
<g>
	<path class="st0" d="M323.9,256l132.6-127.2c18.7-18,19.4-47.7,1.4-66.5C440,43.6,410.2,43,391.5,61L256,190.9L120.5,61
		C101.8,43,72,43.6,54.1,62.4c-18,18.7-17.3,48.5,1.4,66.5L188.1,256L55.5,383.2c-18.7,18-19.4,47.7-1.4,66.5
		c18,18.7,47.7,19.4,66.5,1.4L256,321.1L391.5,451c18.7,18,48.5,17.3,66.5-1.4c18-18.7,17.3-48.5-1.4-66.5L323.9,256z"/>
</g>
</svg>
