<?xml version="1.0" encoding="utf-8"?>
<!-- Generator: Adobe Illustrator 25.0.0, SVG Export Plug-In . SVG Version: 6.00 Build 0)  -->
<svg version="1.1" id="Layer_1" xmlns="http://www.w3.org/2000/svg" xmlns:xlink="http://www.w3.org/1999/xlink" x="0px" y="0px"
	 viewBox="0 0 512 512" style="enable-background:new 0 0 512 512;" xml:space="preserve">
<style type="text/css">
	.st0{fill-rule:evenodd;clip-rule:evenodd;fill:#D1D3D4;}
	.st1{fill-rule:evenodd;clip-rule:evenodd;fill:#FFFFFF;}
	.st2{clip-path:url(#SVGID_2_);fill:#19AEFF;}
	.st3{clip-path:url(#SVGID_4_);fill:#19AEFF;}
	.st4{clip-path:url(#SVGID_6_);fill:#19ADFF;}
	.st5{clip-path:url(#SVGID_8_);fill:#18ACFE;}
	.st6{clip-path:url(#SVGID_10_);fill:#18ABFE;}
	.st7{clip-path:url(#SVGID_12_);fill:#18AAFE;}
	.st8{clip-path:url(#SVGID_14_);fill:#17A9FD;}
	.st9{clip-path:url(#SVGID_16_);fill:#17A8FD;}
	.st10{clip-path:url(#SVGID_18_);fill:#17A7FD;}
	.st11{clip-path:url(#SVGID_20_);fill:#16A6FC;}
	.st12{clip-path:url(#SVGID_22_);fill:#16A5FC;}
	.st13{clip-path:url(#SVGID_24_);fill:#16A4FC;}
	.st14{clip-path:url(#SVGID_26_);fill:#15A3FB;}
	.st15{clip-path:url(#SVGID_28_);fill:#15A2FB;}
	.st16{clip-path:url(#SVGID_30_);fill:#14A1FB;}
	.st17{clip-path:url(#SVGID_32_);fill:#14A0FA;}
	.st18{clip-path:url(#SVGID_34_);fill:#149FFA;}
	.st19{clip-path:url(#SVGID_36_);fill:#139EFA;}
	.st20{clip-path:url(#SVGID_38_);fill:#139DF9;}
	.st21{clip-path:url(#SVGID_40_);fill:#139CF9;}
	.st22{clip-path:url(#SVGID_42_);fill:#129BF9;}
	.st23{clip-path:url(#SVGID_44_);fill:#129AF8;}
	.st24{clip-path:url(#SVGID_46_);fill:#1299F8;}
	.st25{clip-path:url(#SVGID_48_);fill:#1198F8;}
	.st26{clip-path:url(#SVGID_50_);fill:#1197F7;}
	.st27{clip-path:url(#SVGID_52_);fill:#1196F7;}
	.st28{clip-path:url(#SVGID_54_);fill:#1095F7;}
	.st29{clip-path:url(#SVGID_56_);fill:#1094F6;}
	.st30{clip-path:url(#SVGID_58_);fill:#1093F6;}
	.st31{clip-path:url(#SVGID_60_);fill:#0F92F6;}
	.st32{clip-path:url(#SVGID_62_);fill:#0F91F5;}
	.st33{clip-path:url(#SVGID_64_);fill:#0F90F5;}
	.st34{clip-path:url(#SVGID_66_);fill:#0E8FF5;}
	.st35{clip-path:url(#SVGID_68_);fill:#0E8EF4;}
	.st36{clip-path:url(#SVGID_70_);fill:#0E8DF4;}
	.st37{clip-path:url(#SVGID_72_);fill:#0D8CF4;}
	.st38{clip-path:url(#SVGID_74_);fill:#0D8BF3;}
	.st39{clip-path:url(#SVGID_76_);fill:#0D8AF3;}
	.st40{clip-path:url(#SVGID_78_);fill:#0C88F3;}
	.st41{clip-path:url(#SVGID_80_);fill:#0C87F2;}
	.st42{clip-path:url(#SVGID_82_);fill:#0B86F2;}
	.st43{clip-path:url(#SVGID_84_);fill:#0B85F2;}
	.st44{clip-path:url(#SVGID_86_);fill:#0B84F1;}
	.st45{clip-path:url(#SVGID_88_);fill:#0A83F1;}
	.st46{clip-path:url(#SVGID_90_);fill:#0A82F1;}
	.st47{clip-path:url(#SVGID_92_);fill:#0A81F0;}
	.st48{clip-path:url(#SVGID_94_);fill:#0980F0;}
	.st49{clip-path:url(#SVGID_96_);fill:#097FF0;}
	.st50{clip-path:url(#SVGID_98_);fill:#097EEF;}
	.st51{clip-path:url(#SVGID_100_);fill:#087DEF;}
	.st52{clip-path:url(#SVGID_102_);fill:#087CEF;}
	.st53{clip-path:url(#SVGID_104_);fill:#087BEE;}
	.st54{clip-path:url(#SVGID_106_);fill:#077AEE;}
	.st55{clip-path:url(#SVGID_108_);fill:#0779EE;}
	.st56{clip-path:url(#SVGID_110_);fill:#0778ED;}
	.st57{clip-path:url(#SVGID_112_);fill:#0677ED;}
	.st58{clip-path:url(#SVGID_114_);fill:#0676ED;}
	.st59{clip-path:url(#SVGID_116_);fill:#0675EC;}
	.st60{clip-path:url(#SVGID_118_);fill:#0574EC;}
	.st61{clip-path:url(#SVGID_120_);fill:#0573EC;}
	.st62{clip-path:url(#SVGID_122_);fill:#0572EB;}
	.st63{clip-path:url(#SVGID_124_);fill:#0471EB;}
	.st64{clip-path:url(#SVGID_126_);fill:#0470EB;}
	.st65{clip-path:url(#SVGID_128_);fill:#036FEA;}
	.st66{clip-path:url(#SVGID_130_);fill:#036EEA;}
	.st67{clip-path:url(#SVGID_132_);fill:#036DEA;}
	.st68{clip-path:url(#SVGID_134_);fill:#026CE9;}
	.st69{clip-path:url(#SVGID_136_);fill:#026BE9;}
	.st70{clip-path:url(#SVGID_138_);fill:#026AE9;}
	.st71{clip-path:url(#SVGID_140_);fill:#0169E8;}
	.st72{clip-path:url(#SVGID_142_);fill:#0168E8;}
	.st73{clip-path:url(#SVGID_144_);fill:#0167E8;}
	.st74{clip-path:url(#SVGID_146_);fill:#0066E7;}
	.st75{clip-path:url(#SVGID_148_);fill:#0065E7;}
	.st76{clip-path:url(#SVGID_150_);fill:#0065E7;}
</style>
<g>
	<g id="XMLID_40_">
		<circle class="st0" cx="269.95" cy="270.95" r="239.64"/>
	</g>
	<g id="XMLID_39_">
		<circle class="st1" cx="240.05" cy="241.05" r="239.64"/>
	</g>
	<g id="XMLID_38_">
		<g>
			<g>
				<defs>
					<path id="SVGID_1_" d="M240.42,43.66c109.28,0,197.77,88.49,197.77,197.77c0,109.28-88.49,197.77-197.77,197.77
						S42.66,350.7,42.66,241.42S131.15,43.66,240.42,43.66L240.42,43.66z"/>
				</defs>
				<clipPath id="SVGID_2_">
					<use xlink:href="#SVGID_1_"  style="overflow:visible;"/>
				</clipPath>
				<path class="st2" d="M42.66,43.66v395.53V43.66z"/>
			</g>
			<g>
				<defs>
					<path id="SVGID_3_" d="M240.42,43.66c109.28,0,197.77,88.49,197.77,197.77c0,109.28-88.49,197.77-197.77,197.77
						S42.66,350.7,42.66,241.42S131.15,43.66,240.42,43.66L240.42,43.66z"/>
				</defs>
				<clipPath id="SVGID_4_">
					<use xlink:href="#SVGID_3_"  style="overflow:visible;"/>
				</clipPath>
				<rect x="42.66" y="43.66" class="st3" width="5.4" height="395.53"/>
			</g>
			<g>
				<defs>
					<path id="SVGID_5_" d="M240.42,43.66c109.28,0,197.77,88.49,197.77,197.77c0,109.28-88.49,197.77-197.77,197.77
						S42.66,350.7,42.66,241.42S131.15,43.66,240.42,43.66L240.42,43.66z"/>
				</defs>
				<clipPath id="SVGID_6_">
					<use xlink:href="#SVGID_5_"  style="overflow:visible;"/>
				</clipPath>
				<rect x="48.06" y="43.66" class="st4" width="5.4" height="395.53"/>
			</g>
			<g>
				<defs>
					<path id="SVGID_7_" d="M240.42,43.66c109.28,0,197.77,88.49,197.77,197.77c0,109.28-88.49,197.77-197.77,197.77
						S42.66,350.7,42.66,241.42S131.15,43.66,240.42,43.66L240.42,43.66z"/>
				</defs>
				<clipPath id="SVGID_8_">
					<use xlink:href="#SVGID_7_"  style="overflow:visible;"/>
				</clipPath>
				<rect x="53.46" y="43.66" class="st5" width="5.4" height="395.53"/>
			</g>
			<g>
				<defs>
					<path id="SVGID_9_" d="M240.42,43.66c109.28,0,197.77,88.49,197.77,197.77c0,109.28-88.49,197.77-197.77,197.77
						S42.66,350.7,42.66,241.42S131.15,43.66,240.42,43.66L240.42,43.66z"/>
				</defs>
				<clipPath id="SVGID_10_">
					<use xlink:href="#SVGID_9_"  style="overflow:visible;"/>
				</clipPath>
				<rect x="58.79" y="43.66" class="st6" width="5.4" height="395.53"/>
			</g>
			<g>
				<defs>
					<path id="SVGID_11_" d="M240.42,43.66c109.28,0,197.77,88.49,197.77,197.77c0,109.28-88.49,197.77-197.77,197.77
						S42.66,350.7,42.66,241.42S131.15,43.66,240.42,43.66L240.42,43.66z"/>
				</defs>
				<clipPath id="SVGID_12_">
					<use xlink:href="#SVGID_11_"  style="overflow:visible;"/>
				</clipPath>
				<rect x="64.19" y="43.66" class="st7" width="5.4" height="395.53"/>
			</g>
			<g>
				<defs>
					<path id="SVGID_13_" d="M240.42,43.66c109.28,0,197.77,88.49,197.77,197.77c0,109.28-88.49,197.77-197.77,197.77
						S42.66,350.7,42.66,241.42S131.15,43.66,240.42,43.66L240.42,43.66z"/>
				</defs>
				<clipPath id="SVGID_14_">
					<use xlink:href="#SVGID_13_"  style="overflow:visible;"/>
				</clipPath>
				<rect x="69.59" y="43.66" class="st8" width="5.4" height="395.53"/>
			</g>
			<g>
				<defs>
					<path id="SVGID_15_" d="M240.42,43.66c109.28,0,197.77,88.49,197.77,197.77c0,109.28-88.49,197.77-197.77,197.77
						S42.66,350.7,42.66,241.42S131.15,43.66,240.42,43.66L240.42,43.66z"/>
				</defs>
				<clipPath id="SVGID_16_">
					<use xlink:href="#SVGID_15_"  style="overflow:visible;"/>
				</clipPath>
				<rect x="74.99" y="43.66" class="st9" width="5.4" height="395.53"/>
			</g>
			<g>
				<defs>
					<path id="SVGID_17_" d="M240.42,43.66c109.28,0,197.77,88.49,197.77,197.77c0,109.28-88.49,197.77-197.77,197.77
						S42.66,350.7,42.66,241.42S131.15,43.66,240.42,43.66L240.42,43.66z"/>
				</defs>
				<clipPath id="SVGID_18_">
					<use xlink:href="#SVGID_17_"  style="overflow:visible;"/>
				</clipPath>
				<rect x="80.39" y="43.66" class="st10" width="5.4" height="395.53"/>
			</g>
			<g>
				<defs>
					<path id="SVGID_19_" d="M240.42,43.66c109.28,0,197.77,88.49,197.77,197.77c0,109.28-88.49,197.77-197.77,197.77
						S42.66,350.7,42.66,241.42S131.15,43.66,240.42,43.66L240.42,43.66z"/>
				</defs>
				<clipPath id="SVGID_20_">
					<use xlink:href="#SVGID_19_"  style="overflow:visible;"/>
				</clipPath>
				<rect x="85.79" y="43.66" class="st11" width="5.4" height="395.53"/>
			</g>
			<g>
				<defs>
					<path id="SVGID_21_" d="M240.42,43.66c109.28,0,197.77,88.49,197.77,197.77c0,109.28-88.49,197.77-197.77,197.77
						S42.66,350.7,42.66,241.42S131.15,43.66,240.42,43.66L240.42,43.66z"/>
				</defs>
				<clipPath id="SVGID_22_">
					<use xlink:href="#SVGID_21_"  style="overflow:visible;"/>
				</clipPath>
				<rect x="91.19" y="43.66" class="st12" width="5.4" height="395.53"/>
			</g>
			<g>
				<defs>
					<path id="SVGID_23_" d="M240.42,43.66c109.28,0,197.77,88.49,197.77,197.77c0,109.28-88.49,197.77-197.77,197.77
						S42.66,350.7,42.66,241.42S131.15,43.66,240.42,43.66L240.42,43.66z"/>
				</defs>
				<clipPath id="SVGID_24_">
					<use xlink:href="#SVGID_23_"  style="overflow:visible;"/>
				</clipPath>
				<rect x="96.59" y="43.66" class="st13" width="5.4" height="395.53"/>
			</g>
			<g>
				<defs>
					<path id="SVGID_25_" d="M240.42,43.66c109.28,0,197.77,88.49,197.77,197.77c0,109.28-88.49,197.77-197.77,197.77
						S42.66,350.7,42.66,241.42S131.15,43.66,240.42,43.66L240.42,43.66z"/>
				</defs>
				<clipPath id="SVGID_26_">
					<use xlink:href="#SVGID_25_"  style="overflow:visible;"/>
				</clipPath>
				<rect x="102" y="43.66" class="st14" width="5.4" height="395.53"/>
			</g>
			<g>
				<defs>
					<path id="SVGID_27_" d="M240.42,43.66c109.28,0,197.77,88.49,197.77,197.77c0,109.28-88.49,197.77-197.77,197.77
						S42.66,350.7,42.66,241.42S131.15,43.66,240.42,43.66L240.42,43.66z"/>
				</defs>
				<clipPath id="SVGID_28_">
					<use xlink:href="#SVGID_27_"  style="overflow:visible;"/>
				</clipPath>
				<rect x="107.32" y="43.66" class="st15" width="5.4" height="395.53"/>
			</g>
			<g>
				<defs>
					<path id="SVGID_29_" d="M240.42,43.66c109.28,0,197.77,88.49,197.77,197.77c0,109.28-88.49,197.77-197.77,197.77
						S42.66,350.7,42.66,241.42S131.15,43.66,240.42,43.66L240.42,43.66z"/>
				</defs>
				<clipPath id="SVGID_30_">
					<use xlink:href="#SVGID_29_"  style="overflow:visible;"/>
				</clipPath>
				<rect x="112.72" y="43.66" class="st16" width="5.4" height="395.53"/>
			</g>
			<g>
				<defs>
					<path id="SVGID_31_" d="M240.42,43.66c109.28,0,197.77,88.49,197.77,197.77c0,109.28-88.49,197.77-197.77,197.77
						S42.66,350.7,42.66,241.42S131.15,43.66,240.42,43.66L240.42,43.66z"/>
				</defs>
				<clipPath id="SVGID_32_">
					<use xlink:href="#SVGID_31_"  style="overflow:visible;"/>
				</clipPath>
				<rect x="118.12" y="43.66" class="st17" width="5.4" height="395.53"/>
			</g>
			<g>
				<defs>
					<path id="SVGID_33_" d="M240.42,43.66c109.28,0,197.77,88.49,197.77,197.77c0,109.28-88.49,197.77-197.77,197.77
						S42.66,350.7,42.66,241.42S131.15,43.66,240.42,43.66L240.42,43.66z"/>
				</defs>
				<clipPath id="SVGID_34_">
					<use xlink:href="#SVGID_33_"  style="overflow:visible;"/>
				</clipPath>
				<rect x="123.53" y="43.66" class="st18" width="5.4" height="395.53"/>
			</g>
			<g>
				<defs>
					<path id="SVGID_35_" d="M240.42,43.66c109.28,0,197.77,88.49,197.77,197.77c0,109.28-88.49,197.77-197.77,197.77
						S42.66,350.7,42.66,241.42S131.15,43.66,240.42,43.66L240.42,43.66z"/>
				</defs>
				<clipPath id="SVGID_36_">
					<use xlink:href="#SVGID_35_"  style="overflow:visible;"/>
				</clipPath>
				<rect x="128.93" y="43.66" class="st19" width="5.4" height="395.53"/>
			</g>
			<g>
				<defs>
					<path id="SVGID_37_" d="M240.42,43.66c109.28,0,197.77,88.49,197.77,197.77c0,109.28-88.49,197.77-197.77,197.77
						S42.66,350.7,42.66,241.42S131.15,43.66,240.42,43.66L240.42,43.66z"/>
				</defs>
				<clipPath id="SVGID_38_">
					<use xlink:href="#SVGID_37_"  style="overflow:visible;"/>
				</clipPath>
				<rect x="134.33" y="43.66" class="st20" width="5.4" height="395.53"/>
			</g>
			<g>
				<defs>
					<path id="SVGID_39_" d="M240.42,43.66c109.28,0,197.77,88.49,197.77,197.77c0,109.28-88.49,197.77-197.77,197.77
						S42.66,350.7,42.66,241.42S131.15,43.66,240.42,43.66L240.42,43.66z"/>
				</defs>
				<clipPath id="SVGID_40_">
					<use xlink:href="#SVGID_39_"  style="overflow:visible;"/>
				</clipPath>
				<rect x="139.73" y="43.66" class="st21" width="5.4" height="395.53"/>
			</g>
			<g>
				<defs>
					<path id="SVGID_41_" d="M240.42,43.66c109.28,0,197.77,88.49,197.77,197.77c0,109.28-88.49,197.77-197.77,197.77
						S42.66,350.7,42.66,241.42S131.15,43.66,240.42,43.66L240.42,43.66z"/>
				</defs>
				<clipPath id="SVGID_42_">
					<use xlink:href="#SVGID_41_"  style="overflow:visible;"/>
				</clipPath>
				<rect x="145.13" y="43.66" class="st22" width="5.4" height="395.53"/>
			</g>
			<g>
				<defs>
					<path id="SVGID_43_" d="M240.42,43.66c109.28,0,197.77,88.49,197.77,197.77c0,109.28-88.49,197.77-197.77,197.77
						S42.66,350.7,42.66,241.42S131.15,43.66,240.42,43.66L240.42,43.66z"/>
				</defs>
				<clipPath id="SVGID_44_">
					<use xlink:href="#SVGID_43_"  style="overflow:visible;"/>
				</clipPath>
				<rect x="150.46" y="43.66" class="st23" width="5.4" height="395.53"/>
			</g>
			<g>
				<defs>
					<path id="SVGID_45_" d="M240.42,43.66c109.28,0,197.77,88.49,197.77,197.77c0,109.28-88.49,197.77-197.77,197.77
						S42.66,350.7,42.66,241.42S131.15,43.66,240.42,43.66L240.42,43.66z"/>
				</defs>
				<clipPath id="SVGID_46_">
					<use xlink:href="#SVGID_45_"  style="overflow:visible;"/>
				</clipPath>
				<rect x="155.86" y="43.66" class="st24" width="5.4" height="395.53"/>
			</g>
			<g>
				<defs>
					<path id="SVGID_47_" d="M240.42,43.66c109.28,0,197.77,88.49,197.77,197.77c0,109.28-88.49,197.77-197.77,197.77
						S42.66,350.7,42.66,241.42S131.15,43.66,240.42,43.66L240.42,43.66z"/>
				</defs>
				<clipPath id="SVGID_48_">
					<use xlink:href="#SVGID_47_"  style="overflow:visible;"/>
				</clipPath>
				<rect x="161.26" y="43.66" class="st25" width="5.4" height="395.53"/>
			</g>
			<g>
				<defs>
					<path id="SVGID_49_" d="M240.42,43.66c109.28,0,197.77,88.49,197.77,197.77c0,109.28-88.49,197.77-197.77,197.77
						S42.66,350.7,42.66,241.42S131.15,43.66,240.42,43.66L240.42,43.66z"/>
				</defs>
				<clipPath id="SVGID_50_">
					<use xlink:href="#SVGID_49_"  style="overflow:visible;"/>
				</clipPath>
				<rect x="166.66" y="43.66" class="st26" width="5.4" height="395.53"/>
			</g>
			<g>
				<defs>
					<path id="SVGID_51_" d="M240.42,43.66c109.28,0,197.77,88.49,197.77,197.77c0,109.28-88.49,197.77-197.77,197.77
						S42.66,350.7,42.66,241.42S131.15,43.66,240.42,43.66L240.42,43.66z"/>
				</defs>
				<clipPath id="SVGID_52_">
					<use xlink:href="#SVGID_51_"  style="overflow:visible;"/>
				</clipPath>
				<rect x="172.06" y="43.66" class="st27" width="5.4" height="395.53"/>
			</g>
			<g>
				<defs>
					<path id="SVGID_53_" d="M240.42,43.66c109.28,0,197.77,88.49,197.77,197.77c0,109.28-88.49,197.77-197.77,197.77
						S42.66,350.7,42.66,241.42S131.15,43.66,240.42,43.66L240.42,43.66z"/>
				</defs>
				<clipPath id="SVGID_54_">
					<use xlink:href="#SVGID_53_"  style="overflow:visible;"/>
				</clipPath>
				<rect x="177.46" y="43.66" class="st28" width="5.4" height="395.53"/>
			</g>
			<g>
				<defs>
					<path id="SVGID_55_" d="M240.42,43.66c109.28,0,197.77,88.49,197.77,197.77c0,109.28-88.49,197.77-197.77,197.77
						S42.66,350.7,42.66,241.42S131.15,43.66,240.42,43.66L240.42,43.66z"/>
				</defs>
				<clipPath id="SVGID_56_">
					<use xlink:href="#SVGID_55_"  style="overflow:visible;"/>
				</clipPath>
				<rect x="182.86" y="43.66" class="st29" width="5.4" height="395.53"/>
			</g>
			<g>
				<defs>
					<path id="SVGID_57_" d="M240.42,43.66c109.28,0,197.77,88.49,197.77,197.77c0,109.28-88.49,197.77-197.77,197.77
						S42.66,350.7,42.66,241.42S131.15,43.66,240.42,43.66L240.42,43.66z"/>
				</defs>
				<clipPath id="SVGID_58_">
					<use xlink:href="#SVGID_57_"  style="overflow:visible;"/>
				</clipPath>
				<rect x="188.26" y="43.66" class="st30" width="5.4" height="395.53"/>
			</g>
			<g>
				<defs>
					<path id="SVGID_59_" d="M240.42,43.66c109.28,0,197.77,88.49,197.77,197.77c0,109.28-88.49,197.77-197.77,197.77
						S42.66,350.7,42.66,241.42S131.15,43.66,240.42,43.66L240.42,43.66z"/>
				</defs>
				<clipPath id="SVGID_60_">
					<use xlink:href="#SVGID_59_"  style="overflow:visible;"/>
				</clipPath>
				<rect x="193.59" y="43.66" class="st31" width="5.4" height="395.53"/>
			</g>
			<g>
				<defs>
					<path id="SVGID_61_" d="M240.42,43.66c109.28,0,197.77,88.49,197.77,197.77c0,109.28-88.49,197.77-197.77,197.77
						S42.66,350.7,42.66,241.42S131.15,43.66,240.42,43.66L240.42,43.66z"/>
				</defs>
				<clipPath id="SVGID_62_">
					<use xlink:href="#SVGID_61_"  style="overflow:visible;"/>
				</clipPath>
				<rect x="198.99" y="43.66" class="st32" width="5.4" height="395.53"/>
			</g>
			<g>
				<defs>
					<path id="SVGID_63_" d="M240.42,43.66c109.28,0,197.77,88.49,197.77,197.77c0,109.28-88.49,197.77-197.77,197.77
						S42.66,350.7,42.66,241.42S131.15,43.66,240.42,43.66L240.42,43.66z"/>
				</defs>
				<clipPath id="SVGID_64_">
					<use xlink:href="#SVGID_63_"  style="overflow:visible;"/>
				</clipPath>
				<rect x="204.39" y="43.66" class="st33" width="5.4" height="395.53"/>
			</g>
			<g>
				<defs>
					<path id="SVGID_65_" d="M240.42,43.66c109.28,0,197.77,88.49,197.77,197.77c0,109.28-88.49,197.77-197.77,197.77
						S42.66,350.7,42.66,241.42S131.15,43.66,240.42,43.66L240.42,43.66z"/>
				</defs>
				<clipPath id="SVGID_66_">
					<use xlink:href="#SVGID_65_"  style="overflow:visible;"/>
				</clipPath>
				<rect x="209.79" y="43.66" class="st34" width="5.4" height="395.53"/>
			</g>
			<g>
				<defs>
					<path id="SVGID_67_" d="M240.42,43.66c109.28,0,197.77,88.49,197.77,197.77c0,109.28-88.49,197.77-197.77,197.77
						S42.66,350.7,42.66,241.42S131.15,43.66,240.42,43.66L240.42,43.66z"/>
				</defs>
				<clipPath id="SVGID_68_">
					<use xlink:href="#SVGID_67_"  style="overflow:visible;"/>
				</clipPath>
				<rect x="215.2" y="43.66" class="st35" width="5.4" height="395.53"/>
			</g>
			<g>
				<defs>
					<path id="SVGID_69_" d="M240.42,43.66c109.28,0,197.77,88.49,197.77,197.77c0,109.28-88.49,197.77-197.77,197.77
						S42.66,350.7,42.66,241.42S131.15,43.66,240.42,43.66L240.42,43.66z"/>
				</defs>
				<clipPath id="SVGID_70_">
					<use xlink:href="#SVGID_69_"  style="overflow:visible;"/>
				</clipPath>
				<rect x="220.6" y="43.66" class="st36" width="5.4" height="395.53"/>
			</g>
			<g>
				<defs>
					<path id="SVGID_71_" d="M240.42,43.66c109.28,0,197.77,88.49,197.77,197.77c0,109.28-88.49,197.77-197.77,197.77
						S42.66,350.7,42.66,241.42S131.15,43.66,240.42,43.66L240.42,43.66z"/>
				</defs>
				<clipPath id="SVGID_72_">
					<use xlink:href="#SVGID_71_"  style="overflow:visible;"/>
				</clipPath>
				<rect x="226" y="43.66" class="st37" width="5.4" height="395.53"/>
			</g>
			<g>
				<defs>
					<path id="SVGID_73_" d="M240.42,43.66c109.28,0,197.77,88.49,197.77,197.77c0,109.28-88.49,197.77-197.77,197.77
						S42.66,350.7,42.66,241.42S131.15,43.66,240.42,43.66L240.42,43.66z"/>
				</defs>
				<clipPath id="SVGID_74_">
					<use xlink:href="#SVGID_73_"  style="overflow:visible;"/>
				</clipPath>
				<rect x="231.4" y="43.66" class="st38" width="5.4" height="395.53"/>
			</g>
			<g>
				<defs>
					<path id="SVGID_75_" d="M240.42,43.66c109.28,0,197.77,88.49,197.77,197.77c0,109.28-88.49,197.77-197.77,197.77
						S42.66,350.7,42.66,241.42S131.15,43.66,240.42,43.66L240.42,43.66z"/>
				</defs>
				<clipPath id="SVGID_76_">
					<use xlink:href="#SVGID_75_"  style="overflow:visible;"/>
				</clipPath>
				<rect x="236.73" y="43.66" class="st39" width="5.4" height="395.53"/>
			</g>
			<g>
				<defs>
					<path id="SVGID_77_" d="M240.42,43.66c109.28,0,197.77,88.49,197.77,197.77c0,109.28-88.49,197.77-197.77,197.77
						S42.66,350.7,42.66,241.42S131.15,43.66,240.42,43.66L240.42,43.66z"/>
				</defs>
				<clipPath id="SVGID_78_">
					<use xlink:href="#SVGID_77_"  style="overflow:visible;"/>
				</clipPath>
				<rect x="242.13" y="43.66" class="st40" width="5.4" height="395.53"/>
			</g>
			<g>
				<defs>
					<path id="SVGID_79_" d="M240.42,43.66c109.28,0,197.77,88.49,197.77,197.77c0,109.28-88.49,197.77-197.77,197.77
						S42.66,350.7,42.66,241.42S131.15,43.66,240.42,43.66L240.42,43.66z"/>
				</defs>
				<clipPath id="SVGID_80_">
					<use xlink:href="#SVGID_79_"  style="overflow:visible;"/>
				</clipPath>
				<rect x="247.53" y="43.66" class="st41" width="5.4" height="395.53"/>
			</g>
			<g>
				<defs>
					<path id="SVGID_81_" d="M240.42,43.66c109.28,0,197.77,88.49,197.77,197.77c0,109.28-88.49,197.77-197.77,197.77
						S42.66,350.7,42.66,241.42S131.15,43.66,240.42,43.66L240.42,43.66z"/>
				</defs>
				<clipPath id="SVGID_82_">
					<use xlink:href="#SVGID_81_"  style="overflow:visible;"/>
				</clipPath>
				<rect x="252.93" y="43.66" class="st42" width="5.4" height="395.53"/>
			</g>
			<g>
				<defs>
					<path id="SVGID_83_" d="M240.42,43.66c109.28,0,197.77,88.49,197.77,197.77c0,109.28-88.49,197.77-197.77,197.77
						S42.66,350.7,42.66,241.42S131.15,43.66,240.42,43.66L240.42,43.66z"/>
				</defs>
				<clipPath id="SVGID_84_">
					<use xlink:href="#SVGID_83_"  style="overflow:visible;"/>
				</clipPath>
				<rect x="258.33" y="43.66" class="st43" width="5.4" height="395.53"/>
			</g>
			<g>
				<defs>
					<path id="SVGID_85_" d="M240.42,43.66c109.28,0,197.77,88.49,197.77,197.77c0,109.28-88.49,197.77-197.77,197.77
						S42.66,350.7,42.66,241.42S131.15,43.66,240.42,43.66L240.42,43.66z"/>
				</defs>
				<clipPath id="SVGID_86_">
					<use xlink:href="#SVGID_85_"  style="overflow:visible;"/>
				</clipPath>
				<rect x="263.73" y="43.66" class="st44" width="5.4" height="395.53"/>
			</g>
			<g>
				<defs>
					<path id="SVGID_87_" d="M240.42,43.66c109.28,0,197.77,88.49,197.77,197.77c0,109.28-88.49,197.77-197.77,197.77
						S42.66,350.7,42.66,241.42S131.15,43.66,240.42,43.66L240.42,43.66z"/>
				</defs>
				<clipPath id="SVGID_88_">
					<use xlink:href="#SVGID_87_"  style="overflow:visible;"/>
				</clipPath>
				<rect x="269.13" y="43.66" class="st45" width="5.4" height="395.53"/>
			</g>
			<g>
				<defs>
					<path id="SVGID_89_" d="M240.42,43.66c109.28,0,197.77,88.49,197.77,197.77c0,109.28-88.49,197.77-197.77,197.77
						S42.66,350.7,42.66,241.42S131.15,43.66,240.42,43.66L240.42,43.66z"/>
				</defs>
				<clipPath id="SVGID_90_">
					<use xlink:href="#SVGID_89_"  style="overflow:visible;"/>
				</clipPath>
				<rect x="274.53" y="43.66" class="st46" width="5.4" height="395.53"/>
			</g>
			<g>
				<defs>
					<path id="SVGID_91_" d="M240.42,43.66c109.28,0,197.77,88.49,197.77,197.77c0,109.28-88.49,197.77-197.77,197.77
						S42.66,350.7,42.66,241.42S131.15,43.66,240.42,43.66L240.42,43.66z"/>
				</defs>
				<clipPath id="SVGID_92_">
					<use xlink:href="#SVGID_91_"  style="overflow:visible;"/>
				</clipPath>
				<rect x="279.86" y="43.66" class="st47" width="5.4" height="395.53"/>
			</g>
			<g>
				<defs>
					<path id="SVGID_93_" d="M240.42,43.66c109.28,0,197.77,88.49,197.77,197.77c0,109.28-88.49,197.77-197.77,197.77
						S42.66,350.7,42.66,241.42S131.15,43.66,240.42,43.66L240.42,43.66z"/>
				</defs>
				<clipPath id="SVGID_94_">
					<use xlink:href="#SVGID_93_"  style="overflow:visible;"/>
				</clipPath>
				<rect x="285.26" y="43.66" class="st48" width="5.4" height="395.53"/>
			</g>
			<g>
				<defs>
					<path id="SVGID_95_" d="M240.42,43.66c109.28,0,197.77,88.49,197.77,197.77c0,109.28-88.49,197.77-197.77,197.77
						S42.66,350.7,42.66,241.42S131.15,43.66,240.42,43.66L240.42,43.66z"/>
				</defs>
				<clipPath id="SVGID_96_">
					<use xlink:href="#SVGID_95_"  style="overflow:visible;"/>
				</clipPath>
				<rect x="290.66" y="43.66" class="st49" width="5.4" height="395.53"/>
			</g>
			<g>
				<defs>
					<path id="SVGID_97_" d="M240.42,43.66c109.28,0,197.77,88.49,197.77,197.77c0,109.28-88.49,197.77-197.77,197.77
						S42.66,350.7,42.66,241.42S131.15,43.66,240.42,43.66L240.42,43.66z"/>
				</defs>
				<clipPath id="SVGID_98_">
					<use xlink:href="#SVGID_97_"  style="overflow:visible;"/>
				</clipPath>
				<rect x="296.06" y="43.66" class="st50" width="5.4" height="395.53"/>
			</g>
			<g>
				<defs>
					<path id="SVGID_99_" d="M240.42,43.66c109.28,0,197.77,88.49,197.77,197.77c0,109.28-88.49,197.77-197.77,197.77
						S42.66,350.7,42.66,241.42S131.15,43.66,240.42,43.66L240.42,43.66z"/>
				</defs>
				<clipPath id="SVGID_100_">
					<use xlink:href="#SVGID_99_"  style="overflow:visible;"/>
				</clipPath>
				<rect x="301.46" y="43.66" class="st51" width="5.4" height="395.53"/>
			</g>
			<g>
				<defs>
					<path id="SVGID_101_" d="M240.42,43.66c109.28,0,197.77,88.49,197.77,197.77c0,109.28-88.49,197.77-197.77,197.77
						S42.66,350.7,42.66,241.42S131.15,43.66,240.42,43.66L240.42,43.66z"/>
				</defs>
				<clipPath id="SVGID_102_">
					<use xlink:href="#SVGID_101_"  style="overflow:visible;"/>
				</clipPath>
				<rect x="306.86" y="43.66" class="st52" width="5.4" height="395.53"/>
			</g>
			<g>
				<defs>
					<path id="SVGID_103_" d="M240.42,43.66c109.28,0,197.77,88.49,197.77,197.77c0,109.28-88.49,197.77-197.77,197.77
						S42.66,350.7,42.66,241.42S131.15,43.66,240.42,43.66L240.42,43.66z"/>
				</defs>
				<clipPath id="SVGID_104_">
					<use xlink:href="#SVGID_103_"  style="overflow:visible;"/>
				</clipPath>
				<rect x="312.27" y="43.66" class="st53" width="5.4" height="395.53"/>
			</g>
			<g>
				<defs>
					<path id="SVGID_105_" d="M240.42,43.66c109.28,0,197.77,88.49,197.77,197.77c0,109.28-88.49,197.77-197.77,197.77
						S42.66,350.7,42.66,241.42S131.15,43.66,240.42,43.66L240.42,43.66z"/>
				</defs>
				<clipPath id="SVGID_106_">
					<use xlink:href="#SVGID_105_"  style="overflow:visible;"/>
				</clipPath>
				<rect x="317.67" y="43.66" class="st54" width="5.4" height="395.53"/>
			</g>
			<g>
				<defs>
					<path id="SVGID_107_" d="M240.42,43.66c109.28,0,197.77,88.49,197.77,197.77c0,109.28-88.49,197.77-197.77,197.77
						S42.66,350.7,42.66,241.42S131.15,43.66,240.42,43.66L240.42,43.66z"/>
				</defs>
				<clipPath id="SVGID_108_">
					<use xlink:href="#SVGID_107_"  style="overflow:visible;"/>
				</clipPath>
				<rect x="322.99" y="43.66" class="st55" width="5.4" height="395.53"/>
			</g>
			<g>
				<defs>
					<path id="SVGID_109_" d="M240.42,43.66c109.28,0,197.77,88.49,197.77,197.77c0,109.28-88.49,197.77-197.77,197.77
						S42.66,350.7,42.66,241.42S131.15,43.66,240.42,43.66L240.42,43.66z"/>
				</defs>
				<clipPath id="SVGID_110_">
					<use xlink:href="#SVGID_109_"  style="overflow:visible;"/>
				</clipPath>
				<rect x="328.39" y="43.66" class="st56" width="5.4" height="395.53"/>
			</g>
			<g>
				<defs>
					<path id="SVGID_111_" d="M240.42,43.66c109.28,0,197.77,88.49,197.77,197.77c0,109.28-88.49,197.77-197.77,197.77
						S42.66,350.7,42.66,241.42S131.15,43.66,240.42,43.66L240.42,43.66z"/>
				</defs>
				<clipPath id="SVGID_112_">
					<use xlink:href="#SVGID_111_"  style="overflow:visible;"/>
				</clipPath>
				<rect x="333.8" y="43.66" class="st57" width="5.4" height="395.53"/>
			</g>
			<g>
				<defs>
					<path id="SVGID_113_" d="M240.42,43.66c109.28,0,197.77,88.49,197.77,197.77c0,109.28-88.49,197.77-197.77,197.77
						S42.66,350.7,42.66,241.42S131.15,43.66,240.42,43.66L240.42,43.66z"/>
				</defs>
				<clipPath id="SVGID_114_">
					<use xlink:href="#SVGID_113_"  style="overflow:visible;"/>
				</clipPath>
				<rect x="339.2" y="43.66" class="st58" width="5.4" height="395.53"/>
			</g>
			<g>
				<defs>
					<path id="SVGID_115_" d="M240.42,43.66c109.28,0,197.77,88.49,197.77,197.77c0,109.28-88.49,197.77-197.77,197.77
						S42.66,350.7,42.66,241.42S131.15,43.66,240.42,43.66L240.42,43.66z"/>
				</defs>
				<clipPath id="SVGID_116_">
					<use xlink:href="#SVGID_115_"  style="overflow:visible;"/>
				</clipPath>
				<rect x="344.6" y="43.66" class="st59" width="5.4" height="395.53"/>
			</g>
			<g>
				<defs>
					<path id="SVGID_117_" d="M240.42,43.66c109.28,0,197.77,88.49,197.77,197.77c0,109.28-88.49,197.77-197.77,197.77
						S42.66,350.7,42.66,241.42S131.15,43.66,240.42,43.66L240.42,43.66z"/>
				</defs>
				<clipPath id="SVGID_118_">
					<use xlink:href="#SVGID_117_"  style="overflow:visible;"/>
				</clipPath>
				<rect x="350" y="43.66" class="st60" width="5.4" height="395.53"/>
			</g>
			<g>
				<defs>
					<path id="SVGID_119_" d="M240.42,43.66c109.28,0,197.77,88.49,197.77,197.77c0,109.28-88.49,197.77-197.77,197.77
						S42.66,350.7,42.66,241.42S131.15,43.66,240.42,43.66L240.42,43.66z"/>
				</defs>
				<clipPath id="SVGID_120_">
					<use xlink:href="#SVGID_119_"  style="overflow:visible;"/>
				</clipPath>
				<rect x="355.4" y="43.66" class="st61" width="5.4" height="395.53"/>
			</g>
			<g>
				<defs>
					<path id="SVGID_121_" d="M240.42,43.66c109.28,0,197.77,88.49,197.77,197.77c0,109.28-88.49,197.77-197.77,197.77
						S42.66,350.7,42.66,241.42S131.15,43.66,240.42,43.66L240.42,43.66z"/>
				</defs>
				<clipPath id="SVGID_122_">
					<use xlink:href="#SVGID_121_"  style="overflow:visible;"/>
				</clipPath>
				<rect x="360.8" y="43.66" class="st62" width="5.4" height="395.53"/>
			</g>
			<g>
				<defs>
					<path id="SVGID_123_" d="M240.42,43.66c109.28,0,197.77,88.49,197.77,197.77c0,109.28-88.49,197.77-197.77,197.77
						S42.66,350.7,42.66,241.42S131.15,43.66,240.42,43.66L240.42,43.66z"/>
				</defs>
				<clipPath id="SVGID_124_">
					<use xlink:href="#SVGID_123_"  style="overflow:visible;"/>
				</clipPath>
				<rect x="366.13" y="43.66" class="st63" width="5.4" height="395.53"/>
			</g>
			<g>
				<defs>
					<path id="SVGID_125_" d="M240.42,43.66c109.28,0,197.77,88.49,197.77,197.77c0,109.28-88.49,197.77-197.77,197.77
						S42.66,350.7,42.66,241.42S131.15,43.66,240.42,43.66L240.42,43.66z"/>
				</defs>
				<clipPath id="SVGID_126_">
					<use xlink:href="#SVGID_125_"  style="overflow:visible;"/>
				</clipPath>
				<rect x="371.53" y="43.66" class="st64" width="5.4" height="395.53"/>
			</g>
			<g>
				<defs>
					<path id="SVGID_127_" d="M240.42,43.66c109.28,0,197.77,88.49,197.77,197.77c0,109.28-88.49,197.77-197.77,197.77
						S42.66,350.7,42.66,241.42S131.15,43.66,240.42,43.66L240.42,43.66z"/>
				</defs>
				<clipPath id="SVGID_128_">
					<use xlink:href="#SVGID_127_"  style="overflow:visible;"/>
				</clipPath>
				<rect x="376.93" y="43.66" class="st65" width="5.4" height="395.53"/>
			</g>
			<g>
				<defs>
					<path id="SVGID_129_" d="M240.42,43.66c109.28,0,197.77,88.49,197.77,197.77c0,109.28-88.49,197.77-197.77,197.77
						S42.66,350.7,42.66,241.42S131.15,43.66,240.42,43.66L240.42,43.66z"/>
				</defs>
				<clipPath id="SVGID_130_">
					<use xlink:href="#SVGID_129_"  style="overflow:visible;"/>
				</clipPath>
				<rect x="382.33" y="43.66" class="st66" width="5.4" height="395.53"/>
			</g>
			<g>
				<defs>
					<path id="SVGID_131_" d="M240.42,43.66c109.28,0,197.77,88.49,197.77,197.77c0,109.28-88.49,197.77-197.77,197.77
						S42.66,350.7,42.66,241.42S131.15,43.66,240.42,43.66L240.42,43.66z"/>
				</defs>
				<clipPath id="SVGID_132_">
					<use xlink:href="#SVGID_131_"  style="overflow:visible;"/>
				</clipPath>
				<rect x="387.73" y="43.66" class="st67" width="5.4" height="395.53"/>
			</g>
			<g>
				<defs>
					<path id="SVGID_133_" d="M240.42,43.66c109.28,0,197.77,88.49,197.77,197.77c0,109.28-88.49,197.77-197.77,197.77
						S42.66,350.7,42.66,241.42S131.15,43.66,240.42,43.66L240.42,43.66z"/>
				</defs>
				<clipPath id="SVGID_134_">
					<use xlink:href="#SVGID_133_"  style="overflow:visible;"/>
				</clipPath>
				<rect x="393.13" y="43.66" class="st68" width="5.4" height="395.53"/>
			</g>
			<g>
				<defs>
					<path id="SVGID_135_" d="M240.42,43.66c109.28,0,197.77,88.49,197.77,197.77c0,109.28-88.49,197.77-197.77,197.77
						S42.66,350.7,42.66,241.42S131.15,43.66,240.42,43.66L240.42,43.66z"/>
				</defs>
				<clipPath id="SVGID_136_">
					<use xlink:href="#SVGID_135_"  style="overflow:visible;"/>
				</clipPath>
				<rect x="398.53" y="43.66" class="st69" width="5.4" height="395.53"/>
			</g>
			<g>
				<defs>
					<path id="SVGID_137_" d="M240.42,43.66c109.28,0,197.77,88.49,197.77,197.77c0,109.28-88.49,197.77-197.77,197.77
						S42.66,350.7,42.66,241.42S131.15,43.66,240.42,43.66L240.42,43.66z"/>
				</defs>
				<clipPath id="SVGID_138_">
					<use xlink:href="#SVGID_137_"  style="overflow:visible;"/>
				</clipPath>
				<rect x="403.94" y="43.66" class="st70" width="5.4" height="395.53"/>
			</g>
			<g>
				<defs>
					<path id="SVGID_139_" d="M240.42,43.66c109.28,0,197.77,88.49,197.77,197.77c0,109.28-88.49,197.77-197.77,197.77
						S42.66,350.7,42.66,241.42S131.15,43.66,240.42,43.66L240.42,43.66z"/>
				</defs>
				<clipPath id="SVGID_140_">
					<use xlink:href="#SVGID_139_"  style="overflow:visible;"/>
				</clipPath>
				<rect x="409.26" y="43.66" class="st71" width="5.4" height="395.53"/>
			</g>
			<g>
				<defs>
					<path id="SVGID_141_" d="M240.42,43.66c109.28,0,197.77,88.49,197.77,197.77c0,109.28-88.49,197.77-197.77,197.77
						S42.66,350.7,42.66,241.42S131.15,43.66,240.42,43.66L240.42,43.66z"/>
				</defs>
				<clipPath id="SVGID_142_">
					<use xlink:href="#SVGID_141_"  style="overflow:visible;"/>
				</clipPath>
				<rect x="414.66" y="43.66" class="st72" width="5.4" height="395.53"/>
			</g>
			<g>
				<defs>
					<path id="SVGID_143_" d="M240.42,43.66c109.28,0,197.77,88.49,197.77,197.77c0,109.28-88.49,197.77-197.77,197.77
						S42.66,350.7,42.66,241.42S131.15,43.66,240.42,43.66L240.42,43.66z"/>
				</defs>
				<clipPath id="SVGID_144_">
					<use xlink:href="#SVGID_143_"  style="overflow:visible;"/>
				</clipPath>
				<rect x="420.06" y="43.66" class="st73" width="5.4" height="395.53"/>
			</g>
			<g>
				<defs>
					<path id="SVGID_145_" d="M240.42,43.66c109.28,0,197.77,88.49,197.77,197.77c0,109.28-88.49,197.77-197.77,197.77
						S42.66,350.7,42.66,241.42S131.15,43.66,240.42,43.66L240.42,43.66z"/>
				</defs>
				<clipPath id="SVGID_146_">
					<use xlink:href="#SVGID_145_"  style="overflow:visible;"/>
				</clipPath>
				<rect x="425.47" y="43.66" class="st74" width="5.4" height="395.53"/>
			</g>
			<g>
				<defs>
					<path id="SVGID_147_" d="M240.42,43.66c109.28,0,197.77,88.49,197.77,197.77c0,109.28-88.49,197.77-197.77,197.77
						S42.66,350.7,42.66,241.42S131.15,43.66,240.42,43.66L240.42,43.66z"/>
				</defs>
				<clipPath id="SVGID_148_">
					<use xlink:href="#SVGID_147_"  style="overflow:visible;"/>
				</clipPath>
				<rect x="430.87" y="43.66" class="st75" width="5.4" height="395.53"/>
			</g>
			<g>
				<defs>
					<path id="SVGID_149_" d="M240.42,43.66c109.28,0,197.77,88.49,197.77,197.77c0,109.28-88.49,197.77-197.77,197.77
						S42.66,350.7,42.66,241.42S131.15,43.66,240.42,43.66L240.42,43.66z"/>
				</defs>
				<clipPath id="SVGID_150_">
					<use xlink:href="#SVGID_149_"  style="overflow:visible;"/>
				</clipPath>
				<rect x="436.27" y="43.66" class="st76" width="1.92" height="395.53"/>
			</g>
		</g>
	</g>
	<g id="XMLID_36_">
		<path class="st1" d="M197.07,396.43h60.23V257.48h44.47l8.88-56.08h-53.34V159c0-15.76,15.02-24.64,29.45-24.64h25.97V87.83
			l-46.54-2.07c-44.47-2.74-69.1,32.18-69.1,73.91v41.73h-50.61v56.08h50.61L197.07,396.43L197.07,396.43z"/>
	</g>
</g>
</svg>
