<?xml version="1.0" encoding="utf-8"?>
<!-- Generator: Adobe Illustrator 25.0.0, SVG Export Plug-In . SVG Version: 6.00 Build 0)  -->
<svg version="1.1" id="Layer_1" xmlns="http://www.w3.org/2000/svg" xmlns:xlink="http://www.w3.org/1999/xlink" x="0px" y="0px"
	 viewBox="0 0 512 512" style="enable-background:new 0 0 512 512;" xml:space="preserve">
<style type="text/css">
	.st0{fill-rule:evenodd;clip-rule:evenodd;fill:#D1D3D4;}
	.st1{fill-rule:evenodd;clip-rule:evenodd;fill:#FFFFFF;}
	.st2{fill-rule:evenodd;clip-rule:evenodd;fill:#0066C8;}
	.st3{fill:#FFFFFF;}
</style>
<g>
	<g>
		<g id="XMLID_14_">
			<path class="st0" d="M509.63,270.96c-5.4,314.96-473.88,314.96-479.29,0C35.74-44,504.3-43.93,509.63,270.96z"/>
		</g>
		<g id="XMLID_13_">
			<path class="st1" d="M479.66,241.07c-5.4,314.96-473.88,314.96-479.29,0C5.85-73.97,474.33-73.89,479.66,241.07z"/>
		</g>
		<g id="XMLID_12_">
			<g>
				<path class="st2" d="M240.46,43.67c258.66,1.11,258.66,394.5,0,395.53C-18.2,438.02-18.2,44.71,240.46,43.67z"/>
			</g>
		</g>
	</g>
	<g>
		<path class="st3" d="M196.34,146.35c0,3.27-0.66,6.34-1.99,9.21c-1.33,2.87-3.14,5.39-5.43,7.56c-2.3,2.17-4.97,3.89-8.02,5.17
			c-3.05,1.28-6.3,1.92-9.74,1.92c-3.36,0-6.5-0.64-9.41-1.92c-2.92-1.28-5.5-3-7.75-5.17c-2.25-2.16-4.02-4.68-5.3-7.56
			c-1.28-2.87-1.92-5.94-1.92-9.21c0-3.36,0.64-6.5,1.92-9.41c1.28-2.92,3.05-5.48,5.3-7.69c2.25-2.21,4.84-3.93,7.75-5.17
			c2.92-1.24,6.05-1.86,9.41-1.86c3.45,0,6.69,0.62,9.74,1.86c3.05,1.24,5.72,2.96,8.02,5.17c2.3,2.21,4.11,4.77,5.43,7.69
			C195.68,139.85,196.34,142.99,196.34,146.35z M192.1,192.33v120.79c0,4.6-3.73,8.34-8.34,8.34h-24.42c-4.6,0-8.34-3.73-8.34-8.34
			V192.33c0-4.6,3.73-8.34,8.34-8.34h24.42C188.37,183.99,192.1,187.73,192.1,192.33z"/>
		<path class="st3" d="M263.78,198.84c2.65-2.47,5.39-4.77,8.22-6.89c2.83-2.12,5.85-3.91,9.08-5.37c3.23-1.46,6.72-2.61,10.47-3.45
			c3.76-0.84,7.84-1.26,12.26-1.26c7.51,0,14.16,1.3,19.95,3.91c5.79,2.61,10.67,6.23,14.65,10.87c3.98,4.64,6.98,10.16,9.01,16.57
			c2.03,6.41,3.05,13.37,3.05,20.88v79.02c0,4.6-3.73,8.34-8.34,8.34h-24.42c-4.6,0-8.34-3.73-8.34-8.34V234.1
			c0-6.72-1.55-11.95-4.64-15.71c-3.09-3.76-7.65-5.63-13.65-5.63c-4.51,0-8.73,0.95-12.66,2.85c-3.93,1.9-7.75,4.49-11.47,7.75
			v89.76c0,4.6-3.73,8.34-8.34,8.34H234.2c-4.6,0-8.34-3.73-8.34-8.34V183.99h25.45c5.12,0,8.48,2.3,10.07,6.89L263.78,198.84z"/>
	</g>
</g>
</svg>
