<?xml version="1.0" encoding="utf-8"?>
<!-- Generator: Adobe Illustrator 25.0.0, SVG Export Plug-In . SVG Version: 6.00 Build 0)  -->
<svg version="1.1" id="Layer_1" xmlns="http://www.w3.org/2000/svg" xmlns:xlink="http://www.w3.org/1999/xlink" x="0px" y="0px"
	 viewBox="0 0 512 512" style="enable-background:new 0 0 512 512;" xml:space="preserve">
<style type="text/css">
	.st0{fill:#464849;}
	.st1{fill:#05AFFE;}
</style>
<g>
	<g>
		<path class="st0" d="M418.1,349.9V215.6c0-87.5-68.1-162.1-155.6-165.7c-92.2-3.7-168.6,70.8-168.6,162.1v138.1
			c-24,0-43.2,19.4-43.2,43.2v17.4h43.2h54.3h215.4h54.4h43.2v-17.5C461.3,370.2,442,349.9,418.1,349.9z M363.7,349.9H148.3v-138
			c0-58.9,48.8-107.7,107.7-107.7S363.7,153,363.7,211.9V349.9z"/>
		<path class="st1" d="M316.8,431c0,17.5-11,31.3-24.9,31.3h-75.4c-13.9,0-24.9-13.9-24.9-31.3H316.8z"/>
	</g>
</g>
</svg>
