<?xml version="1.0" encoding="utf-8"?>
<!-- Generator: Adobe Illustrator 25.0.0, SVG Export Plug-In . SVG Version: 6.00 Build 0)  -->
<svg version="1.1" id="Layer_1" xmlns="http://www.w3.org/2000/svg" xmlns:xlink="http://www.w3.org/1999/xlink" x="0px" y="0px"
	 viewBox="0 0 512 512" style="enable-background:new 0 0 512 512;" xml:space="preserve">
<style type="text/css">
	.st0{fill:url(#SVGID_1_);}
	.st1{opacity:0.5;}
	.st2{opacity:0.5;enable-background:new    ;}
	.st3{fill:url(#XMLID_2_);}
	.st4{fill:url(#XMLID_3_);}
	.st5{fill:#03070A;}
	.st6{fill:#00133D;}
	.st7{opacity:9.000000e-02;fill-rule:evenodd;clip-rule:evenodd;fill:url(#SVGID_2_);enable-background:new    ;}
	.st8{opacity:9.000000e-02;fill-rule:evenodd;clip-rule:evenodd;fill:url(#SVGID_3_);enable-background:new    ;}
	.st9{fill:url(#SVGID_4_);}
</style>
<g>
	<g>
		<g>
			<g>
				<g>
					
						<linearGradient id="SVGID_1_" gradientUnits="userSpaceOnUse" x1="261.8677" y1="2225.0491" x2="252.3665" y2="2499.6089" gradientTransform="matrix(1 0 0 1 0 -1986)">
						<stop  offset="0" style="stop-color:#61011E"/>
						<stop  offset="1" style="stop-color:#F7063B"/>
					</linearGradient>
					<polygon class="st0" points="335.9,471 253.8,429.9 171.8,471 188,264.6 319.7,264.6 					"/>
				</g>
				<g class="st1">
					<polygon class="st2" points="253.8,429.9 235.5,313.3 272.2,313.3 					"/>
				</g>
			</g>
			
				<linearGradient id="XMLID_2_" gradientUnits="userSpaceOnUse" x1="301.8896" y1="2033.9216" x2="185.4677" y2="2413.8655" gradientTransform="matrix(1 0 0 1 0 -1986)">
				<stop  offset="0" style="stop-color:#FDF3A6"/>
				<stop  offset="0.3123" style="stop-color:#BB8000"/>
				<stop  offset="0.7557" style="stop-color:#DEBC56"/>
				<stop  offset="1" style="stop-color:#EFDA81"/>
			</linearGradient>
			<path id="XMLID_24_" class="st3" d="M297.1,354.3c-6.5,0-14-2.2-20.5-4.3c-6.5-2.2-14-4.3-20.5-4.3c-6.5,0-14,2.2-20.5,4.3
				c-6.5,2.2-14,4.3-20.5,4.3c-3.2,0-6.5,0-8.6-1.1c-9.7-3.2-16.2-11.9-23.8-20.5c-4.3-5.4-8.6-10.8-14-15.1
				c-5.4-3.2-11.9-6.5-18.4-8.6c-9.7-3.2-20.5-7.6-25.9-16.2c-5.4-7.6-6.5-18.4-6.5-29.2c0-6.5-1.1-14-3.2-20.5
				c-2.2-5.4-5.4-11.9-9.7-17.3c-5.4-8.6-11.9-18.4-11.9-28.1s6.5-19.4,11.9-28.1c4.3-6.5,7.6-11.9,9.7-17.3
				c2.2-6.5,2.2-13,3.2-20.5c1.1-10.8,1.1-21.6,6.5-29.2c6.5-8.6,16.2-11.9,25.9-16.2c6.5-2.2,13-5.4,18.4-8.6
				c5.4-3.2,9.7-8.6,14-15.1c6.5-8.6,13-17.3,23.8-20.5c3.2-1.1,5.4-1.1,8.6-1.1c6.5,0,14,2.2,20.5,4.3c6.5,2.2,14,4.3,20.5,4.3
				c6.5,0,14-2.2,20.5-4.3c6.5-2.2,14-4.3,20.5-4.3c3.2,0,6.5,0,8.6,1.1c9.7,3.2,16.2,11.9,23.8,20.5c4.3,5.4,8.6,10.8,14,15.1
				c5.4,3.2,11.9,6.5,18.4,8.6c9.7,3.2,20.5,7.6,25.9,16.2c5.4,7.6,6.5,18.4,6.5,29.2c0,6.5,1.1,14,3.2,20.5
				c2.2,5.4,5.4,11.9,9.7,17.3c5.4,8.6,11.9,18.4,11.9,28.1c0,9.7-6.5,19.4-11.9,28.1c-4.3,6.5-7.6,11.9-9.7,17.3
				c-2.2,6.5-2.2,13-3.2,20.5c-1.1,10.8-1.1,21.6-6.5,29.2c-6.5,8.6-16.2,11.9-25.9,16.2c-6.5,2.2-13,5.4-18.4,8.6
				c-5.4,3.2-9.7,8.6-14,15.1c-6.5,8.6-13,17.3-23.8,20.5C303.5,354.3,300.3,354.3,297.1,354.3z"/>
			
				<linearGradient id="XMLID_3_" gradientUnits="userSpaceOnUse" x1="128.6818" y1="2050.3521" x2="380.8488" y2="2318.8281" gradientTransform="matrix(1 0 0 1 0 -1986)">
				<stop  offset="0" style="stop-color:#FDF3A6"/>
				<stop  offset="0.3123" style="stop-color:#BB8000"/>
				<stop  offset="0.7557" style="stop-color:#DEBC56"/>
				<stop  offset="1" style="stop-color:#EFDA81"/>
			</linearGradient>
			<path id="XMLID_23_" class="st4" d="M416.9,198.8c0,16.2-16.2,30.2-21.6,45.4c-5.4,15.1,0,36.7-9.7,49.7
				c-9.7,13-31.3,15.1-44.3,23.8c-13,9.7-20.5,29.2-36.7,34.6c-15.1,4.3-33.5-6.5-49.7-6.5s-34.6,10.8-49.7,6.5
				c-15.1-5.4-23.8-24.8-36.7-34.6c-13-9.7-34.6-10.8-44.3-23.8c-9.7-13-4.3-33.5-9.7-49.7c-4.3-15.1-21.6-29.2-21.6-45.4
				s16.2-30.2,21.6-45.4c5.4-15.1,0-36.7,9.7-49.7s31.3-15.1,44.3-23.8c13-9.7,20.5-29.2,36.7-34.6c15.1-4.3,33.5,6.5,49.7,6.5
				s34.6-10.8,49.7-6.5c15.1,5.4,23.8,24.8,36.7,34.6s34.6,10.8,44.3,23.8c9.7,13,4.3,33.5,9.7,49.7
				C399.7,168.5,416.9,181.5,416.9,198.8z"/>
			<g id="XMLID_19_">
				<g>
					<path id="XMLID_20_" class="st5" d="M297.1,338.1c-4.3,0-9.7-1.1-16.2-3.2c-7.6-2.2-16.2-4.3-24.8-4.3
						c-8.6,0-17.3,2.2-24.8,4.3c-6.5,1.1-11.9,3.2-16.2,3.2c-1.1,0-2.2,0-3.2,0c-5.4-1.1-9.7-7.6-15.1-14s-9.7-13-17.3-17.3
						c-6.5-5.4-15.1-7.6-22.7-10.8s-15.1-5.4-18.4-9.7c-3.2-4.3-3.2-11.9-3.2-20.5c0-7.6-1.1-16.2-3.2-24.8
						c-2.2-7.6-7.6-15.1-11.9-21.6c-4.3-7.6-8.6-14-8.6-19.4c0-5.4,4.3-11.9,8.6-19.4c4.3-6.5,8.6-13,11.9-21.6
						c2.2-8.6,3.2-16.2,3.2-24.8s1.1-16.2,3.2-20.5c3.2-4.3,10.8-6.5,18.4-9.7c7.6-3.2,15.1-5.4,22.7-10.8
						c6.5-5.4,11.9-11.9,17.3-17.3c5.4-6.5,10.8-13,15.1-14c1.1,0,2.2,0,3.2,0c4.3,0,10.8,1.1,16.2,3.2c7.6,2.2,16.2,4.3,24.8,4.3
						c8.6,0,17.3-2.2,24.8-4.3c6.5-1.1,11.9-3.2,16.2-3.2c1.1,0,2.2,0,3.2,0c5.4,1.1,9.7,7.6,15.1,14s9.7,13,17.3,17.3
						c6.5,5.4,15.1,7.6,22.7,10.8c7.6,3.2,15.1,5.4,18.4,9.7c3.2,4.3,3.2,11.9,3.2,20.5c0,7.6,1.1,16.2,3.2,24.8
						c2.2,7.6,7.6,15.1,11.9,21.6c4.3,7.6,8.6,14,8.6,19.4c0,5.4-4.3,11.9-8.6,19.4c-4.3,6.5-8.6,13-11.9,21.6
						c-2.2,8.6-3.2,16.2-3.2,24.8c0,8.6-1.1,16.2-3.2,20.5c-3.2,4.3-10.8,6.5-18.4,9.7c-7.6,3.2-15.1,5.4-22.7,10.8
						c-6.5,5.4-11.9,11.9-17.3,17.3c-5.4,6.5-10.8,13-15.1,14C299.2,337,298.1,338.1,297.1,338.1z"/>
				</g>
			</g>
			<g id="XMLID_22_">
				<g>
					<path id="XMLID_46_" class="st6" d="M297.1,338.1c-4.3,0-9.7-1.1-16.2-3.2c-7.6-2.2-16.2-4.3-24.8-4.3
						c-8.6,0-17.3,2.2-24.8,4.3c-6.5,1.1-11.9,3.2-16.2,3.2c-1.1,0-2.2,0-3.2,0c-5.4-1.1-9.7-7.6-15.1-14s-9.7-13-17.3-17.3
						c-6.5-5.4-15.1-7.6-22.7-10.8s-15.1-5.4-18.4-9.7c-3.2-4.3-3.2-11.9-3.2-20.5c0-7.6-1.1-16.2-3.2-24.8
						c-2.2-7.6-7.6-15.1-11.9-21.6c-4.3-7.6-8.6-14-8.6-19.4c0-5.4,4.3-11.9,8.6-19.4c4.3-6.5,8.6-13,11.9-21.6
						c2.2-8.6,3.2-16.2,3.2-24.8s1.1-16.2,3.2-20.5c3.2-4.3,10.8-6.5,18.4-9.7c7.6-3.2,15.1-5.4,22.7-10.8
						c6.5-5.4,11.9-11.9,17.3-17.3c5.4-6.5,10.8-13,15.1-14c1.1,0,2.2,0,3.2,0c4.3,0,10.8,1.1,16.2,3.2c7.6,2.2,16.2,4.3,24.8,4.3
						c8.6,0,17.3-2.2,24.8-4.3c6.5-1.1,11.9-3.2,16.2-3.2c1.1,0,2.2,0,3.2,0c5.4,1.1,9.7,7.6,15.1,14s9.7,13,17.3,17.3
						c6.5,5.4,15.1,7.6,22.7,10.8c7.6,3.2,15.1,5.4,18.4,9.7c3.2,4.3,3.2,11.9,3.2,20.5c0,7.6,1.1,16.2,3.2,24.8
						c2.2,7.6,7.6,15.1,11.9,21.6c4.3,7.6,8.6,14,8.6,19.4c0,5.4-4.3,11.9-8.6,19.4c-4.3,6.5-8.6,13-11.9,21.6
						c-2.2,8.6-3.2,16.2-3.2,24.8c0,8.6-1.1,16.2-3.2,20.5c-3.2,4.3-10.8,6.5-18.4,9.7c-7.6,3.2-15.1,5.4-22.7,10.8
						c-6.5,5.4-11.9,11.9-17.3,17.3c-5.4,6.5-10.8,13-15.1,14C299.2,337,298.1,338.1,297.1,338.1z"/>
				</g>
			</g>
			
				<linearGradient id="SVGID_2_" gradientUnits="userSpaceOnUse" x1="172.4769" y1="2107.4258" x2="374.4774" y2="2135.1328" gradientTransform="matrix(1 0 0 1 0 -1986)">
				<stop  offset="0" style="stop-color:#FFFFFF"/>
				<stop  offset="1" style="stop-color:#C8FFE5;stop-opacity:0"/>
			</linearGradient>
			<path class="st7" d="M150.2,168.5c2.2,20.5,54-13,105.9-28.1c60.5-17.3,105.9,20.5,112.3,18.4c10.8-3.2-32.4-79.9-100.5-78.9
				C190.1,81,146.9,135,150.2,168.5z"/>
			
				<linearGradient id="SVGID_3_" gradientUnits="userSpaceOnUse" x1="-3031.9121" y1="399.3257" x2="-2830.5774" y2="426.9418" gradientTransform="matrix(-0.9409 0.3387 -0.3387 -0.9409 -2347.739 1643.3838)">
				<stop  offset="0" style="stop-color:#FFFFFF"/>
				<stop  offset="1" style="stop-color:#C8FFE5;stop-opacity:0"/>
			</linearGradient>
			<path class="st8" d="M374.8,190.1c-8.6-19.4-46.4,30.2-89.7,60.5c-49.7,35.6-106.9,14-112.3,18.4c-8.6,6.5,58.3,64.8,123.1,42.1
				C368.3,285.2,389.9,221.4,374.8,190.1z"/>
		</g>
	</g>
	
		<linearGradient id="SVGID_4_" gradientUnits="userSpaceOnUse" x1="187.7516" y1="-217.6175" x2="324.2528" y2="-217.6175" gradientTransform="matrix(1 0 0 -1 0 -18)">
		<stop  offset="0" style="stop-color:#FDF3A6"/>
		<stop  offset="0.3123" style="stop-color:#BB8000"/>
		<stop  offset="0.7557" style="stop-color:#DEBC56"/>
		<stop  offset="1" style="stop-color:#EFDA81"/>
	</linearGradient>
	<path class="st9" d="M321.7,145.8l-7.6-6.5c-3.2-2.2-7.6-2.2-9.7,1.1l-61.6,71.3l-31.3-27c-4.1-3.1-9.1-3.2-13.3,0.4v0
		c0,0-8.7,7.6-8.7,7.6l0,0l0,0l0,0c-2.6,2.2-2,6,0.5,9.3l44.3,56.2c3.2,4.3,9.7,4.3,14,0l74.5-102.6
		C324.9,152.3,324.9,148,321.7,145.8z"/>
</g>
</svg>
