<?xml version="1.0" encoding="utf-8"?>
<!-- Generator: Adobe Illustrator 25.0.0, SVG Export Plug-In . SVG Version: 6.00 Build 0)  -->
<svg version="1.1" id="Layer_1" xmlns="http://www.w3.org/2000/svg" xmlns:xlink="http://www.w3.org/1999/xlink" x="0px" y="0px"
	 viewBox="0 0 512 512" style="enable-background:new 0 0 512 512;" xml:space="preserve">
<style type="text/css">
	.st0{fill-rule:evenodd;clip-rule:evenodd;fill:#D1D3D4;}
	.st1{fill-rule:evenodd;clip-rule:evenodd;fill:#FFFFFF;}
	.st2{fill-rule:evenodd;clip-rule:evenodd;}
	.st3{fill:#FFFFFF;}
</style>
<g>
	<g id="XMLID_35_">
		<circle class="st0" cx="269.95" cy="270.95" r="239.64"/>
	</g>
	<g id="XMLID_34_">
		<circle class="st1" cx="240.05" cy="241.05" r="239.64"/>
	</g>
	<g id="XMLID_33_">
		<path class="st2" d="M240.42,43.66c109.28,0,197.77,88.49,197.77,197.77c0,109.28-88.49,197.77-197.77,197.77
			S42.66,350.7,42.66,241.42S131.15,43.66,240.42,43.66L240.42,43.66z"/>
	</g>
	<g>
		<path class="st3" d="M237.91,274.5c-0.3,0.3-0.52,0.52-0.74,0.81c-14.72,16.8-29.45,33.66-44.17,50.46
			c-7.69,8.8-15.39,17.61-23.08,26.41c-0.59,0.67-1.11,0.96-2,0.89c-11.84,0-23.68,0-35.44,0c-0.37,0-0.74,0-1.11,0
			c-0.07-0.07-0.07-0.15-0.07-0.15v-0.07c0-0.07,0.07-0.15,0.07-0.15c0.07-0.07,0.07-0.07,0.15-0.15
			c29.45-33.66,58.89-67.4,88.41-101.07l0.07-0.07c0,0,0-0.07,0.07-0.22c-31.22-40.84-62.52-81.76-93.89-122.74
			c0.44,0,0.74-0.07,0.96-0.07c25.6,0,51.12,0,76.72,0c0.59,0,1.04,0.15,1.41,0.67c8.88,11.76,17.76,23.53,26.71,35.29
			c8.88,11.69,17.68,23.38,26.56,35.14c0.15,0.22,0.3,0.37,0.52,0.67c0.3-0.3,0.52-0.52,0.74-0.74c10.21-11.69,20.42-23.31,30.63-35
			c10.28-11.76,20.57-23.53,30.93-35.37c0.44-0.44,0.81-0.67,1.48-0.67c12.13,0,24.19,0,36.33,0c0.22,0,0.44,0,0.81,0.07
			c-2.52,3.03-5.11,5.84-7.55,8.73c-2.52,2.89-5.03,5.77-7.55,8.66c-2.52,2.89-5.03,5.77-7.55,8.66s-5.03,5.77-7.55,8.66
			c-2.52,2.89-5.03,5.77-7.55,8.66c-2.52,2.89-5.11,5.77-7.62,8.73c-2.52,2.89-5.03,5.77-7.55,8.66c-2.52,2.89-5.03,5.77-7.55,8.66
			c-2.52,2.89-5.03,5.77-7.55,8.66c-2.52,2.89-5.03,5.77-7.55,8.66c-2.52,2.89-5.03,5.77-7.62,8.73
			c32.63,43.13,65.26,86.27,97.96,129.55c-0.44,0.07-0.74,0.07-1.04,0.07c-3.18,0-6.36,0-9.54,0c-21.6,0-43.21,0-64.81,0
			c-0.89,0-1.48-0.3-2-1.04c-16.43-21.53-32.85-42.99-49.35-64.52c-3.11-4.07-6.21-8.14-9.4-12.28
			C238.35,275.09,238.13,274.87,237.91,274.5z M170.58,149.9c0.44,0.59,0.74,1.04,1.04,1.41c18.72,24.49,37.51,48.98,56.23,73.54
			c20.86,27.3,41.73,54.6,62.59,81.83c5.77,7.55,11.62,15.17,17.39,22.71c0.37,0.52,0.67,0.89,1.41,0.89c6.51,0,13.02,0,19.53,0
			c0.22,0,0.44-0.07,0.74-0.15c-0.3-0.37-0.44-0.67-0.67-0.96c-6.14-8.14-12.28-16.2-18.42-24.34
			c-20.79-27.45-41.58-54.97-62.37-82.42c-18.05-23.9-36.11-47.72-54.16-71.62c-0.52-0.67-0.96-0.89-1.78-0.89
			c-6.73,0-13.47,0-20.27,0C171.54,149.9,171.17,149.9,170.58,149.9z"/>
	</g>
</g>
</svg>
