<?xml version="1.0" encoding="utf-8"?>
<!-- Generator: Adobe Illustrator 25.0.0, SVG Export Plug-In . SVG Version: 6.00 Build 0)  -->
<svg version="1.1" id="Layer_1" xmlns="http://www.w3.org/2000/svg" xmlns:xlink="http://www.w3.org/1999/xlink" x="0px" y="0px"
	 viewBox="0 0 512 512" style="enable-background:new 0 0 512 512;" xml:space="preserve">
<style type="text/css">
	.st0{fill:#54595D;}
	.st1{fill:#0090FF;}
</style>
<g>
	<path class="st0" d="M255.8,45.4c-116,0-210.5,94.5-210.5,210.6c0,59.3,24.6,112.8,64.2,151.2c7.2,7.1,15.2,13.6,23.6,19.7
		c34.7,25.1,77.1,39.7,122.9,39.7c45.8,0,88.2-14.7,122.9-39.7c8.3-6.1,16.2-12.6,23.6-19.7c39.6-38.4,64.2-91.9,64.2-151.2
		C466.5,139.8,372,45.4,255.8,45.4z M402.2,380.9c-6.4,7.2-13.1,14.1-20.5,20.5c-33.7,29.1-77.8,46.8-125.8,46.8
		c-48,0-91.9-17.7-125.6-46.8c-7.4-6.4-14.3-13.1-20.5-20.5C80.9,347.3,63.5,303.7,63.5,256c0-106.2,86.2-192.5,192.3-192.5
		c106.2,0,192.5,86.2,192.5,192.5C448.3,303.7,430.9,347.3,402.2,380.9z"/>
	<path class="st1" d="M308.1,288.4c-0.1,0-0.1,0-0.2-0.1c0.1,0,0.1-0.1,0.2-0.1c25.7-17,42.6-46.1,42.6-79.1
		c0-52.3-42.5-94.8-94.8-94.8s-94.8,42.5-94.8,94.8c0,33,17,62.2,42.6,79.1c0.1,0,0.1,0.1,0.2,0.1c-0.1,0-0.1,0-0.2,0.1
		c-35.1,12.8-64.2,38.1-81.9,70.6c1.7,2.4,3.7,4.6,5.5,6.9c3.8,4.5,7.9,8.7,12.1,12.8c19.6-42.8,62.3-73,112-74.7
		c1.4-0.1,2.9-0.1,4.3-0.1c1.4,0,2.9,0,4.3,0.1c49.7,1.6,92.4,31.9,112,74.7c4.3-4,8.3-8.3,12.1-12.8c2-2.3,3.8-4.5,5.5-6.9
		C372.3,326.5,343.2,301.3,308.1,288.4z M260,279.1c-1.3,0.1-2.7,0.1-4.1,0.1c-1.4,0-2.8,0-4.1-0.1c-36.8-2.2-66-32.7-66-70
		c0-38.6,31.4-70.1,70.1-70.1s70.1,31.4,70.1,70.1C326,246.4,296.7,276.9,260,279.1z"/>
</g>
</svg>
