<?xml version="1.0" encoding="utf-8"?>
<!-- Generator: Adobe Illustrator 25.0.0, SVG Export Plug-In . SVG Version: 6.00 Build 0)  -->
<svg version="1.1" id="Layer_1" xmlns="http://www.w3.org/2000/svg" xmlns:xlink="http://www.w3.org/1999/xlink" x="0px" y="0px"
	 viewBox="0 0 512 512" style="enable-background:new 0 0 512 512;" xml:space="preserve">
<style type="text/css">
	.st0{fill:#0090FF;}
	.st1{fill:#003B82;}
	.st2{fill:#FDFEFE;}
</style>
<g>
	<path class="st0" d="M471,256c0-31.4-16.1-53.7-42.1-69c-1.8-0.9-2.7-2.7-1.8-5.4c8.1-29.6,3.6-56.4-18.8-78.8
		c-22.4-21.5-49.3-26-77.9-17.9c-1.8,0.9-3.6,0-5.4-1.8C309.8,56.3,287.4,41,256,41S202.3,57.2,188,83.1c-0.9,1.8-3.6,2.7-5.4,1.8
		c-12.5-3.6-26-4.5-39.4-1.8c-16.1,3.6-30.5,9.9-41.2,22.4c-19.7,22.4-24.2,48.4-16.1,77c0.9,2.7,0,3.6-1.8,4.5
		c-9.9,5.4-18.8,12.5-26,21.5c-11.6,14.3-17.9,30.5-17,48.4c0.9,30.5,16.1,52.8,43,68.1l0,0c1.8,0.9,2.7,2.7,1.8,5.4
		c-8.1,29.6-3.6,56.4,17.9,77.9c21.5,21.5,49.3,26.9,78.8,18.8c1.8-0.9,3.6,0,5.4,1.8c15.2,26.9,37.6,42.1,69,42.1
		s53.7-16.1,68.1-42.1c0.9-1.8,2.7-2.7,5.4-1.8c29.6,9,56.4,3.6,78.8-18.8c22.4-22.4,27.8-49.3,18.8-78.8c-0.9-1.8,0-4.5,1.8-5.4
		C454.9,309.7,471,286.5,471,256z"/>
	<path class="st1" d="M218.3,368.2c-22.6-22.6-45.1-45.1-66.7-66.7c-4.9-4.9-4.9-13.7,0-19.6c3.9-3.9,8.8-8.8,12.8-12.8
		c4.9-4.9,13.7-4.9,18.6,0c13.7,13.7,27.5,27.5,42.2,42.2c34.3-37.3,67.7-73.6,101.1-110.9c4.9-5.9,13.7-5.9,19.6-1
		c4.9,3.9,8.8,8.8,13.7,12.8c5.9,4.9,5.9,13.7,1,18.6c-41.2,45.1-83.4,90.3-124.6,135.4C231,373.2,223.2,373.2,218.3,368.2z"/>
	<path class="st2" d="M218.4,331.2c-20.6-20.6-41.2-41.2-60.9-60.9c-4.5-4.5-4.5-12.5,0-17.9c3.6-3.6,8.1-8.1,11.6-11.6
		c4.5-4.5,12.5-4.5,17,0c12.5,12.5,25.1,25.1,38.5,38.5c31.4-34,61.8-67.2,92.3-101.2c4.5-5.4,12.5-5.4,17.9-0.9
		c4.5,3.6,8.1,8.1,12.5,11.6c5.4,4.5,5.4,12.5,0.9,17c-37.6,41.2-76.1,82.4-113.7,123.6C230.1,335.7,222.9,335.7,218.4,331.2z"/>
</g>
</svg>
