<?xml version="1.0" encoding="utf-8"?>
<!-- Generator: Adobe Illustrator 25.0.0, SVG Export Plug-In . SVG Version: 6.00 Build 0)  -->
<svg version="1.1" id="Layer_1" xmlns="http://www.w3.org/2000/svg" xmlns:xlink="http://www.w3.org/1999/xlink" x="0px" y="0px"
	 viewBox="0 0 512 512" style="enable-background:new 0 0 512 512;" xml:space="preserve">
<style type="text/css">
	.st0{fill:#4C4C4C;}
</style>
<path class="st0" d="M512,134.49c0-3.35,0-6.7-0.84-10.06c-5.87-35.19-33.52-59.5-69.55-59.5H70.39C30.17,64.94,0.84,95.11,0,134.49
	c0,81.28,0,162.57,0,243.01c0,38.55,30.17,69.55,69.55,69.55c62.01,0,124.02,0,186.03,0s124.02,0,186.03,0
	c38.55,0,69.55-30.17,69.55-69.55C512,296.22,512,215.78,512,134.49z M282.4,265.22c-7.54,6.7-16.76,10.06-26.82,10.06l0,0
	c-9.22,0-18.44-3.35-25.98-10.06L50.28,105.17c5.87-4.19,12.57-5.87,20.11-5.87h371.22c8.38,0,15.08,1.68,20.95,5.87L282.4,265.22z
	 M35.19,198.18v-57.82l170.95,152.51c14.25,12.57,31.84,19.27,50.28,19.27s36.87-6.7,50.28-19.27l170.95-152.51v62.85
	c0,57.82,0,116.48,0,174.3c0,17.6-10.06,31-26.82,34.36c-2.51,0.84-5.87,0.84-9.22,0.84c-76.26,0-152.51,0-228.77,0H69.55
	c-20.11,0-35.19-15.08-35.19-34.36C35.19,318.85,35.19,258.51,35.19,198.18z"/>
</svg>
