<?xml version="1.0" encoding="utf-8"?>
<!-- Generator: Adobe Illustrator 25.0.0, SVG Export Plug-In . SVG Version: 6.00 Build 0)  -->
<svg version="1.1" id="Layer_1" xmlns="http://www.w3.org/2000/svg" xmlns:xlink="http://www.w3.org/1999/xlink" x="0px" y="0px"
	 viewBox="0 0 512 512" style="enable-background:new 0 0 512 512;" xml:space="preserve">
<style type="text/css">
	.st0{fill:#828282;}
	.st1{fill:#008CFF;}
	.st2{fill:#EB4335;}
	.st3{fill:#34A853;}
	.st4{fill:#FBBC04;}
	.st5{fill:#1973E9;}
</style>
<g>
	<g>
		<path class="st0" d="M345.27,356.76l-16.32,20.16c92.15,9.6,146.86,34.55,146.86,54.71c0,24-83.51,57.59-219.81,57.59
			S36.19,455.63,36.19,431.63c0-19.2,51.83-44.15,141.1-53.75l-12.48-21.12c-83.51,10.56-150.7,35.51-150.7,74.87
			c0,52.79,121.9,79.67,241.88,79.67s241.88-27.84,241.88-79.67C497.88,392.28,429.73,367.32,345.27,356.76z"/>
	</g>
	<g>
		<path class="st1" d="M208.01,123.52c11.52-13.44,28.8-22.08,47.99-22.08c34.55,0,63.35,27.84,63.35,63.35
			c0,9.6-1.92,19.2-6.72,27.84l88.31-104.62c-20.16-37.43-54.71-66.23-95.99-79.67L208.01,123.52L208.01,123.52z"/>
		<path class="st2" d="M131.22,59.21c-24,27.84-38.39,65.27-38.39,104.62c0,11.52,0.96,24,3.84,34.55l0,0
			c0,0.96,1.92,18.24,12.48,41.27l98.86-117.1L131.22,59.21z"/>
		<path class="st3" d="M399.98,88.01l-88.31,104.62c-4.8,8.64-11.52,17.28-19.2,23.04L183.05,346.21
			c18.24,23.04,34.55,47.03,46.07,74.87c4.8,12.48,9.6,24.96,12.48,36.47c3.84,14.4,24,14.4,27.84,0c3.84-11.52,7.68-24,12.48-36.47
			c21.12-52.79,60.47-90.23,95.03-135.34c32.63-44.15,38.39-83.51,38.39-85.43l0,0c1.92-11.52,3.84-23.04,3.84-34.55
			C419.17,136.96,412.46,111.04,399.98,88.01z"/>
		<path class="st4" d="M270.4,225.26h-1.92c-8.64,1.92-17.28,1.92-25.92,0l0,0c-12.48-1.92-24-7.68-32.63-17.28
			c-10.56-11.52-17.28-26.88-17.28-44.15c0-15.36,5.76-29.76,15.36-41.27l0,0l-98.86,117.1c5.76,13.44,14.4,27.84,25.92,44.15
			c15.36,21.12,32.63,40.31,48.95,61.43l109.42-130.54l0,0C285.76,220.46,278.08,223.34,270.4,225.26z"/>
		<path class="st5" d="M304.95,8.34c-15.36-4.8-31.68-7.68-48.95-7.68c-49.91,0-95.03,22.08-124.78,58.55l76.79,64.31L304.95,8.34z"
			/>
	</g>
</g>
</svg>
