<?xml version="1.0" encoding="utf-8"?>
<!-- Generator: Adobe Illustrator 25.0.0, SVG Export Plug-In . SVG Version: 6.00 Build 0)  -->
<svg version="1.1" id="Layer_1" xmlns="http://www.w3.org/2000/svg" xmlns:xlink="http://www.w3.org/1999/xlink" x="0px" y="0px"
	 viewBox="0 0 512 512" style="enable-background:new 0 0 512 512;" xml:space="preserve">
<style type="text/css">
	.st0{fill:#4C4C4C;}
</style>
<g>
	<g>
		<path class="st0" d="M2.12,118.59c-2.24-15.21-1.87-30.71,1.44-45.72c0.02-0.08,0.04-0.16,0.05-0.24
			c1.8-8.12,6.32-15.34,11.73-21.66c9.93-9.93,19.85-20.75,29.78-29.78c4.51-4.51,10.83-8.12,16.24-11.73
			c18.95-10.83,36.99-9.93,55.04,1.8c11.73,8.12,20.75,18.05,29.78,28.87c9.93,12.63,18.95,26.17,26.17,41.51
			c8.12,19.85,7.22,37.9-6.32,55.04c-2.71,3.61-6.32,7.22-9.02,10.83c-4.51,5.41-9.02,9.93-14.44,14.44
			c-7.22,6.32-8.12,14.44-7.22,22.56c2.71,12.63,9.02,24.36,16.24,35.19c14.44,21.65,32.48,41.51,50.53,60.45
			c23.46,24.36,47.82,47.82,74.89,68.57c12.63,9.93,25.26,18.95,40.6,24.36c6.32,2.71,13.53,4.51,19.85,3.61
			c4.51-0.9,8.12-2.71,11.73-5.41c7.22-7.22,14.44-14.44,21.65-21.65c18.05-17.14,38.8-19.85,61.36-9.93
			c26.17,12.63,49.63,28.87,67.67,52.33c14.44,19.85,15.34,38.8,1.8,59.55c-1.8,3.61-4.51,7.22-7.22,9.93
			c-11.73,12.63-24.36,25.26-36.99,36.99c-8.12,8.12-18.95,9.93-30.68,10.83c-23.46,2.71-45.11-1.8-66.77-9.02
			c-42.41-12.63-81.21-34.29-118.2-59.55C172.35,392.03,112.79,332.48,64.97,262.1c-21.66-32.48-40.6-65.87-53.24-102.86
			C7.58,146.17,4.2,132.7,2.12,118.59z"/>
	</g>
</g>
</svg>
