<?xml version="1.0" encoding="utf-8"?>
<!-- Generator: Adobe Illustrator 25.0.0, SVG Export Plug-In . SVG Version: 6.00 Build 0)  -->
<svg version="1.1" id="Layer_1" xmlns="http://www.w3.org/2000/svg" xmlns:xlink="http://www.w3.org/1999/xlink" x="0px" y="0px"
	 viewBox="0 0 512 512" style="enable-background:new 0 0 512 512;" xml:space="preserve">
<style type="text/css">
	.st0{fill:#05AFFE;}
	.st1{fill:#464849;}
</style>
<g>
	<path class="st0" d="M256,153l94-56.4l-64.7-38.8c-18.1-10.8-40.5-10.8-58.6,0L162,96.6L256,153L256,153z"/>
	<path class="st0" d="M155.2,254.7l71.5,42.9c9,5.4,19.1,8.1,29.3,8.1c10.1,0,20.2-2.7,29.3-8.1l71.5-42.9L256,194.3L155.2,254.7z"
		/>
	<path class="st0" d="M391.2,234.1l68.7-41.2c5.3-3.2,8.6-9,8.6-15.2s-3.3-12-8.6-15.2v0l-75.5-45.3l-94,56.4L391.2,234.1z"/>
	<path class="st1" d="M441.7,319.1L267,423.9c-6.8,4.1-15.3,4.1-22.1,0L70.3,319.1c-8.4-5-19.3-2.3-24.3,6.1
		c-5,8.4-2.3,19.3,6.1,24.3l174.6,104.8c9,5.4,19.2,8.1,29.3,8.1c10.1,0,20.3-2.7,29.3-8.1h0l174.6-104.8c8.4-5,11.1-15.9,6.1-24.3
		C461,316.8,450.1,314.1,441.7,319.1z"/>
	<path class="st1" d="M441.7,243.1L267.1,347.9c-6.8,4.1-15.3,4.1-22.1,0L70.3,243.1c-8.4-5-19.3-2.3-24.3,6.1
		c-5,8.4-2.3,19.3,6.1,24.3l174.7,104.8c9,5.4,19.1,8.1,29.3,8.1c10.1,0,20.2-2.7,29.3-8.1l174.6-104.8c8.4-5,11.1-15.9,6.1-24.3
		C461,240.7,450.1,238,441.7,243.1z"/>
	<polygon class="st0" points="221.6,173.6 221.6,173.6 221.6,173.6 	"/>
	<path class="st0" d="M52.1,192.9l68.7,41.2l100.8-60.5l-94-56.4l-75.5,45.3c-5.3,3.2-8.6,9-8.6,15.2
		C43.5,183.9,46.7,189.7,52.1,192.9z"/>
</g>
</svg>
