<?xml version="1.0" encoding="utf-8"?>
<!-- Generator: Adobe Illustrator 25.0.0, SVG Export Plug-In . SVG Version: 6.00 Build 0)  -->
<svg version="1.1" id="Layer_1" xmlns="http://www.w3.org/2000/svg" xmlns:xlink="http://www.w3.org/1999/xlink" x="0px" y="0px"
	 viewBox="0 0 512 512" style="enable-background:new 0 0 512 512;" xml:space="preserve">
<style type="text/css">
	.st0{fill:#05AFFE;}
</style>
<g>
	<g>
		<path class="st0" d="M350.1,181.4L181.4,350.1c-5.4,5.4-14.1,5.4-19.5,0l0,0c-5.4-5.4-5.4-14.1,0-19.5l168.7-168.7
			c5.4-5.4,14.1-5.4,19.5,0l0,0C355.5,167.3,355.5,176,350.1,181.4z"/>
	</g>
	<g>
		<path class="st0" d="M161.9,181.4l168.7,168.7c5.4,5.4,14.1,5.4,19.5,0l0,0c5.4-5.4,5.4-14.1,0-19.5L181.3,161.9
			c-5.4-5.4-14.1-5.4-19.5,0l0,0C156.5,167.3,156.5,176,161.9,181.4z"/>
	</g>
</g>
</svg>
