<?xml version="1.0" encoding="utf-8"?>
<!-- Generator: Adobe Illustrator 25.0.0, SVG Export Plug-In . SVG Version: 6.00 Build 0)  -->
<svg version="1.1" id="Layer_1" xmlns="http://www.w3.org/2000/svg" xmlns:xlink="http://www.w3.org/1999/xlink" x="0px" y="0px"
	 viewBox="0 0 512 512" style="enable-background:new 0 0 512 512;" xml:space="preserve">
<style type="text/css">
	.st0{fill:#05AFFE;}
	.st1{fill:#464849;}
</style>
<g>
	<g>
		<g>
			<g>
				<path class="st0" d="M161.7,350.3L161.7,350.3c-5.3-5.3-5.3-13.8,0-19l169.5-169.5c5.3-5.3,13.8-5.3,19,0v0
					c5.3,5.3,5.3,13.8,0,19L180.8,350.3C175.5,355.5,167,355.5,161.7,350.3z"/>
			</g>
			<g>
				<path class="st0" d="M331.2,350.3L161.7,180.8c-5.3-5.3-5.3-13.8,0-19l0,0c5.3-5.3,13.8-5.3,19,0l169.5,169.5
					c5.3,5.3,5.3,13.8,0,19l0,0C345,355.5,336.5,355.5,331.2,350.3z"/>
			</g>
		</g>
	</g>
	<g>
		<g>
			<g>
				<path class="st1" d="M431.6,471H80.4C58.7,471,41,453.3,41,431.6V80.4C41,58.7,58.7,41,80.4,41h351.3
					c21.7,0,39.4,17.7,39.4,39.4v351.3C471,453.3,453.3,471,431.6,471z M80.4,59C68.6,59,59,68.6,59,80.4v351.3
					c0,11.8,9.6,21.4,21.4,21.4h351.3c11.8,0,21.4-9.6,21.4-21.4V80.4c0-11.8-9.6-21.4-21.4-21.4H80.4z"/>
			</g>
		</g>
	</g>
</g>
</svg>
