<?xml version="1.0" encoding="utf-8"?>
<!-- Generator: Adobe Illustrator 25.0.0, SVG Export Plug-In . SVG Version: 6.00 Build 0)  -->
<svg version="1.1" id="Layer_1" xmlns="http://www.w3.org/2000/svg" xmlns:xlink="http://www.w3.org/1999/xlink" x="0px" y="0px"
	 viewBox="0 0 512 512" style="enable-background:new 0 0 512 512;" xml:space="preserve">
<style type="text/css">
	.st0{fill:#234261;}
	.st1{fill:#05AFFE;}
</style>
<g>
	<g>
		<g>
			<path class="st0" d="M256,459.5c-54.4,0-105.5-21.2-144-59.6C73.6,361.5,52.5,310.4,52.5,256c0-54.4,21.2-105.5,59.6-144
				c38.4-38.4,89.5-59.5,143.9-59.5c54.4,0,105.5,21.2,144,59.6c38.5,38.5,59.6,89.6,59.6,144c0,54.4-21.2,105.5-59.6,144
				C361.4,438.4,310.3,459.5,256,459.5z M256,67.3C152,67.3,67.3,152,67.3,256S152,444.7,256,444.7S444.7,360,444.7,256
				S360,67.3,256,67.3z"/>
		</g>
	</g>
	<path class="st1" d="M368.9,364.1c-1.6-4.2-3.4-8.4-5.4-12.5c-20.5-40.9-61.7-66.3-107.3-66.3c-45.5,0-86.6,25.4-107.3,66.2
		c-2,4-3.8,8.1-5.5,12.5c-3.9-4.1-7.5-8.3-10.9-12.7c2.4-5.6,5.3-11,8.4-16.2c15.7-25.8,39.9-45.8,68.1-56.3l8.7-3.2l-7.5-5.5
		c-20.1-14.7-32.1-38.3-32.1-63.1c0-43,35-78,78-78c43,0,78,35,78,78c0,24.8-12,48.4-32.1,63.1l-7.5,5.5l8.7,3.3
		c28.3,10.6,52.4,30.6,68.1,56.3c3.2,5.4,6.1,10.9,8.5,16.2C376.5,355.7,372.8,360,368.9,364.1z M256,143.9
		c-34.8,0-63.2,28.4-63.2,63.2s28.4,63.2,63.2,63.2s63.2-28.4,63.2-63.2S290.8,143.9,256,143.9z"/>
</g>
</svg>
