<?xml version="1.0" encoding="utf-8"?>
<!-- Generator: Adobe Illustrator 25.0.0, SVG Export Plug-In . SVG Version: 6.00 Build 0)  -->
<svg version="1.1" id="Layer_1" xmlns="http://www.w3.org/2000/svg" xmlns:xlink="http://www.w3.org/1999/xlink" x="0px" y="0px"
	 viewBox="0 0 512 512" style="enable-background:new 0 0 512 512;" xml:space="preserve">
<style type="text/css">
	.st0{fill:#05AFFE;}
	.st1{fill:#383A3A;}
</style>
<g>
	<g>
		<g>
			<rect x="153.7" y="273.1" class="st0" width="136.5" height="34.1"/>
		</g>
		<g>
			<rect x="153.7" y="204.8" class="st0" width="136.5" height="34.1"/>
		</g>
		<g>
			<rect x="153.7" y="341.3" class="st0" width="136.5" height="34.1"/>
		</g>
		<g>
			<path class="st1" d="M341.2,460.6H102.6c-9.4,0-17.1-7.6-17.1-17.1V136.7c0-9.4,7.6-17.1,17.1-17.1h238.6
				c9.4,0,17.1,7.6,17.1,17.1v306.9C358.2,453,350.6,460.6,341.2,460.6z M136.7,426.5h170.4c9.4,0,17.1-7.6,17.1-17.1V170.8
				c0-9.4-7.6-17.1-17.1-17.1H136.7c-9.4,0-17.1,7.6-17.1,17.1v238.6C119.6,418.9,127.3,426.5,136.7,426.5z"/>
		</g>
	</g>
	<g>
		<path class="st1" d="M409.4,375.3L409.4,375.3c-9.4,0-17.1-7.6-17.1-17.1V102.6c0-9.4-7.6-17.1-17.1-17.1H187.9
			c-9.4,0-17.1-7.6-17.1-17.1l0,0c0-9.4,7.6-17.1,17.1-17.1h221.6c9.4,0,17.1,7.6,17.1,17.1v289.8
			C426.5,367.7,418.9,375.3,409.4,375.3z"/>
	</g>
</g>
</svg>
