<?xml version="1.0" encoding="utf-8"?>
<!-- Generator: Adobe Illustrator 25.0.0, SVG Export Plug-In . SVG Version: 6.00 Build 0)  -->
<svg version="1.1" id="Layer_1" xmlns="http://www.w3.org/2000/svg" xmlns:xlink="http://www.w3.org/1999/xlink" x="0px" y="0px"
	 viewBox="0 0 512 512" style="enable-background:new 0 0 512 512;" xml:space="preserve">
<style type="text/css">
	.st0{fill:#FFFFFF;}
</style>
<g>
	<path class="st0" d="M196.58,35.19c-87.92,0-159.7,71.43-159.7,159.7s71.78,159.7,159.7,159.7c88.26,0,159.7-71.44,159.7-159.7
		S284.85,35.19,196.58,35.19z M196.58,310.98c-63.88,0-116.09-52.2-116.09-116.08c0-64.22,52.2-116.08,116.09-116.08
		c64.22,0,116.08,51.86,116.08,116.08C312.66,258.78,260.8,310.98,196.58,310.98z"/>
	<path class="st0" d="M152.53,195.02c0-14.62,5.94-27.89,15.53-37.51c3.09-3.1,3.1-8.11,0-11.2l0,0c-3.11-3.1-8.13-3.05-11.23,0.06
		c-12.43,12.47-20.12,29.68-20.12,48.64c0,18.83,7.59,35.93,19.87,48.4c3.23,3.28,8.56,3.12,11.59-0.34l0,0
		c2.71-3.1,2.61-7.79-0.29-10.72C158.39,222.74,152.53,209.55,152.53,195.02z"/>
	<path class="st0" d="M447.6,393.4l-67.63-67.63c-15.43-15.43-40.45-15.43-55.88,0h0c-15.43,15.43-15.43,40.45,0,55.88l67.63,67.63
		c15.43,15.43,40.45,15.43,55.88,0l0,0C463.03,433.85,463.03,408.83,447.6,393.4z"/>
</g>
</svg>
