<?xml version="1.0" encoding="utf-8"?>
<!-- Generator: Adobe Illustrator 25.0.0, SVG Export Plug-In . SVG Version: 6.00 Build 0)  -->
<svg version="1.1" id="Layer_1" xmlns="http://www.w3.org/2000/svg" xmlns:xlink="http://www.w3.org/1999/xlink" x="0px" y="0px"
	 viewBox="0 0 512 512" style="enable-background:new 0 0 512 512;" xml:space="preserve">
<style type="text/css">
	.st0{display:none;}
	.st1{display:inline;fill:#234261;}
	.st2{display:inline;}
	.st3{fill:url(#SVGID_1_);}
	.st4{fill:url(#SVGID_2_);}
	.st5{fill:url(#SVGID_3_);}
	.st6{fill:url(#SVGID_4_);}
	.st7{fill:#FFFFFF;}
	.st8{fill:#05AFFE;}
	.st9{opacity:0.49;fill:#FFFFFF;}
</style>
<g class="st0">
	<path class="st1" d="M444.7,306.6H67.3c-1.7,0-3-1.3-3-3v-95c0-1.7,1.3-3,3-3h377.4c1.7,0,3,1.3,3,3v95
		C447.7,305.3,446.3,306.6,444.7,306.6z"/>
	<g class="st2">
		
			<linearGradient id="SVGID_1_" gradientUnits="userSpaceOnUse" x1="-376.9469" y1="246.7907" x2="-370.7432" y2="246.7907" gradientTransform="matrix(5.3545 0 0 -5.3545 2112.113 1562.1322)">
			<stop  offset="0" style="stop-color:#63BE6B"/>
			<stop  offset="0.506" style="stop-color:#5BBC6A"/>
			<stop  offset="1" style="stop-color:#4AB96A"/>
		</linearGradient>
		<path class="st3" d="M127,244.5l-31.3-17.9c-0.4-0.3-0.8-0.2-1.3,0c-0.4,0.3-0.6,0.6-0.6,1.1c0,0,0,1.6,0,4.4l22.7,22.7L127,244.5
			z"/>
		
			<linearGradient id="SVGID_2_" gradientUnits="userSpaceOnUse" x1="-376.942" y1="244.153" x2="-372.6792" y2="244.153" gradientTransform="matrix(5.3545 0 0 -5.3545 2112.113 1562.1322)">
			<stop  offset="0" style="stop-color:#3EC6F2"/>
			<stop  offset="1" style="stop-color:#45AFE3"/>
		</linearGradient>
		<path class="st4" d="M93.7,232.1c0,9.8,0.2,33.6,0.2,45.5l22.7-22.7L93.7,232.1z"/>
		
			<linearGradient id="SVGID_3_" gradientUnits="userSpaceOnUse" x1="-372.6852" y1="244.0104" x2="-367.2783" y2="244.0104" gradientTransform="matrix(5.3545 0 0 -5.3545 2112.113 1562.1322)">
			<stop  offset="0" style="stop-color:#FAA51A"/>
			<stop  offset="0.387" style="stop-color:#FAB716"/>
			<stop  offset="0.741" style="stop-color:#FAC412"/>
			<stop  offset="1" style="stop-color:#FAC80F"/>
		</linearGradient>
		<path class="st5" d="M144.9,254.8L127,244.5l-10.4,10.4l11.7,11.7l16.6-9.7c0.4-0.3,0.6-0.7,0.6-1.1
			C145.6,255.4,145.3,255,144.9,254.8z"/>
		
			<linearGradient id="SVGID_4_" gradientUnits="userSpaceOnUse" x1="-376.9079" y1="241.2511" x2="-370.4948" y2="241.2511" gradientTransform="matrix(5.3545 0 0 -5.3545 2112.113 1562.1322)">
			<stop  offset="0" style="stop-color:#EC3B50"/>
			<stop  offset="1" style="stop-color:#E7515B"/>
		</linearGradient>
		<path class="st6" d="M94,277.6c0,4.2,0,7,0,7c0,0.5,0.3,0.8,0.6,1.1c0.4,0.3,0.8,0.3,1.3,0l32.4-18.9l-11.7-11.8L94,277.6z"/>
	</g>
	<g class="st2">
		<path class="st7" d="M198.2,246.9c-0.9-2.3-2.3-4.1-4.3-5.4c-2-1.3-4.3-2-7.1-2c-2.4,0-4.5,0.6-6.4,1.7c-1.9,1.1-3.4,2.7-4.5,4.8
			c-1.1,2.1-1.7,4.5-1.7,7.2c0,2.7,0.6,5.2,1.7,7.2c1.1,2.1,2.6,3.6,4.5,4.7c1.9,1.1,4.1,1.7,6.4,1.7c2.3,0,4.4-0.5,6.2-1.5
			s3.3-2.5,4.5-4.4c1.1-1.9,1.7-4.1,1.8-6.7H186v-1.6h15.4v1.3c-0.1,2.8-0.8,5.3-2,7.6c-1.3,2.2-3,4-5.2,5.2
			c-2.2,1.3-4.6,1.9-7.3,1.9c-2.8,0-5.3-0.6-7.5-2s-4-3.1-5.2-5.5c-1.3-2.3-1.9-5-1.9-7.9c0-3,0.6-5.6,1.9-8c1.3-2.3,3-4.1,5.2-5.5
			c2.2-1.3,4.7-2,7.5-2c3.2,0,6,0.8,8.4,2.4c2.4,1.6,4.1,3.9,5.2,6.7H198.2z"/>
		<path class="st7" d="M211.6,267.1c-1.7-1-3.1-2.4-4.1-4.2c-1-1.8-1.5-3.9-1.5-6.4c0-2.4,0.5-4.5,1.5-6.3c1-1.8,2.4-3.2,4.1-4.2
			c1.8-1,3.7-1.4,5.9-1.4c2.2,0,4.1,0.5,5.9,1.4c1.7,1,3.1,2.3,4.1,4.1c1,1.8,1.5,3.9,1.5,6.4c0,2.4-0.5,4.6-1.5,6.4
			c-1,1.8-2.4,3.2-4.1,4.2c-1.8,1-3.7,1.5-5.9,1.5C215.3,268.5,213.4,268,211.6,267.1z M222.2,265.7c1.5-0.8,2.7-1.9,3.5-3.5
			c0.9-1.5,1.3-3.4,1.3-5.7c0-2.2-0.4-4.1-1.3-5.7c-0.9-1.5-2.1-2.7-3.5-3.5c-1.5-0.8-3-1.1-4.7-1.1c-1.7,0-3.3,0.4-4.7,1.1
			c-1.4,0.8-2.6,1.9-3.5,3.5c-0.9,1.5-1.3,3.4-1.3,5.7c0,2.3,0.4,4.2,1.3,5.7s2,2.7,3.5,3.5c1.4,0.8,3,1.1,4.7,1.1
			C219.2,266.8,220.8,266.4,222.2,265.7z"/>
		<path class="st7" d="M239.3,267.1c-1.7-1-3.1-2.4-4.1-4.2c-1-1.8-1.5-3.9-1.5-6.4c0-2.4,0.5-4.5,1.5-6.3c1-1.8,2.4-3.2,4.1-4.2
			c1.8-1,3.7-1.4,5.9-1.4c2.2,0,4.1,0.5,5.9,1.4c1.7,1,3.1,2.3,4.1,4.1c1,1.8,1.5,3.9,1.5,6.4c0,2.4-0.5,4.6-1.5,6.4
			c-1,1.8-2.4,3.2-4.1,4.2c-1.8,1-3.7,1.5-5.9,1.5S241.1,268,239.3,267.1z M249.9,265.7c1.5-0.8,2.7-1.9,3.5-3.5
			c0.9-1.5,1.3-3.4,1.3-5.7c0-2.2-0.4-4.1-1.3-5.7c-0.9-1.5-2.1-2.7-3.5-3.5c-1.5-0.8-3-1.1-4.7-1.1c-1.7,0-3.3,0.4-4.7,1.1
			c-1.4,0.8-2.6,1.9-3.5,3.5c-0.9,1.5-1.3,3.4-1.3,5.7c0,2.3,0.4,4.2,1.3,5.7s2,2.7,3.5,3.5c1.4,0.8,3,1.1,4.7,1.1
			C246.9,266.8,248.5,266.4,249.9,265.7z"/>
		<path class="st7" d="M278.9,246.3c1.7,1.2,2.9,2.7,3.6,4.6v-6.1h1.9v24c0,2.1-0.5,4-1.4,5.6c-0.9,1.6-2.2,2.9-3.8,3.7
			s-3.4,1.3-5.4,1.3c-2.9,0-5.3-0.7-7.3-2.1c-1.9-1.4-3.2-3.3-3.8-5.7h1.9c0.6,1.9,1.6,3.3,3.2,4.4c1.6,1.1,3.5,1.7,5.9,1.7
			c1.6,0,3.1-0.4,4.4-1.1c1.3-0.7,2.4-1.8,3.1-3.1c0.8-1.4,1.1-3,1.1-4.8v-6.8c-0.7,1.9-1.9,3.4-3.6,4.6c-1.7,1.2-3.8,1.8-6.2,1.8
			c-2.2,0-4.1-0.5-5.8-1.5c-1.7-1-3-2.4-4-4.2s-1.4-3.9-1.4-6.3s0.5-4.5,1.4-6.3c1-1.8,2.3-3.2,4-4.2c1.7-1,3.6-1.5,5.8-1.5
			C275.1,244.6,277.2,245.2,278.9,246.3z M281.3,251.1c-0.8-1.6-2-2.8-3.5-3.6c-1.5-0.8-3.1-1.3-4.9-1.3c-1.9,0-3.5,0.4-5,1.2
			c-1.4,0.8-2.5,2-3.3,3.5c-0.8,1.5-1.2,3.4-1.2,5.5s0.4,3.9,1.2,5.5c0.8,1.5,1.9,2.7,3.4,3.6c1.4,0.8,3.1,1.2,5,1.2
			c1.8,0,3.4-0.4,4.9-1.3c1.5-0.8,2.6-2,3.5-3.6c0.8-1.6,1.2-3.4,1.2-5.4C282.5,254.5,282.1,252.7,281.3,251.1z"/>
		<path class="st7" d="M293.4,236.4v31.8h-1.9v-31.8H293.4z"/>
		<path class="st7" d="M321.4,257.3h-20.1c0.1,2.1,0.5,3.8,1.4,5.3c0.9,1.4,2,2.5,3.4,3.2c1.4,0.7,2.9,1.1,4.6,1.1
			c2.3,0,4.2-0.6,5.8-1.7c1.5-1.1,2.5-2.7,2.9-4.6h2c-0.5,2.4-1.6,4.3-3.5,5.8c-1.9,1.5-4.3,2.2-7.2,2.2c-2.2,0-4.1-0.5-5.8-1.5
			c-1.7-1-3.1-2.4-4-4.2c-1-1.8-1.5-3.9-1.5-6.4c0-2.4,0.5-4.6,1.4-6.4c1-1.8,2.3-3.2,4-4.1c1.7-1,3.7-1.4,5.9-1.4
			c2.2,0,4.2,0.5,5.8,1.4c1.6,1,2.9,2.2,3.8,3.8c0.9,1.6,1.3,3.3,1.3,5.1C321.5,256,321.5,256.7,321.4,257.3z M318.5,250.4
			c-0.8-1.4-1.9-2.5-3.3-3.2c-1.4-0.7-2.9-1.1-4.5-1.1c-1.6,0-3.1,0.3-4.5,1.1c-1.4,0.7-2.5,1.8-3.4,3.2c-0.9,1.4-1.3,3.2-1.4,5.2
			h18.3C319.7,253.6,319.3,251.9,318.5,250.4z"/>
		<path class="st7" d="M355.2,252.7c-1.7,1.5-4.1,2.2-7.4,2.2h-6.4v13.2h-1.9V238h8.4c3.3,0,5.8,0.8,7.4,2.3
			c1.6,1.5,2.4,3.6,2.4,6.2C357.7,249.2,356.9,251.3,355.2,252.7z M355.8,246.5c0-2.2-0.6-3.9-1.9-5c-1.3-1.2-3.3-1.7-6.1-1.7h-6.4
			v13.5h6.4C353.1,253.2,355.8,251,355.8,246.5z"/>
		<path class="st7" d="M364.8,236.4v31.8h-1.9v-31.8H364.8z"/>
		<path class="st7" d="M372.1,250.2c1-1.8,2.3-3.2,4-4.2c1.7-1,3.6-1.5,5.8-1.5c2.5,0,4.5,0.6,6.3,1.8c1.7,1.2,2.9,2.7,3.6,4.6v-6.1
			h1.9v23.3h-1.9V262c-0.7,1.9-1.9,3.4-3.6,4.7c-1.7,1.2-3.8,1.8-6.2,1.8c-2.2,0-4.1-0.5-5.8-1.5c-1.7-1-3-2.4-4-4.2
			c-1-1.8-1.4-3.9-1.4-6.3S371.2,252,372.1,250.2z M390.5,251.1c-0.8-1.6-2-2.8-3.5-3.6c-1.5-0.8-3.1-1.3-4.9-1.3
			c-1.9,0-3.5,0.4-5,1.2c-1.4,0.8-2.5,2-3.3,3.5c-0.8,1.5-1.2,3.4-1.2,5.5s0.4,3.9,1.2,5.5c0.8,1.5,1.9,2.7,3.4,3.6
			c1.4,0.8,3.1,1.2,5,1.2c1.8,0,3.4-0.4,4.9-1.3c1.5-0.8,2.6-2,3.5-3.6c0.8-1.6,1.2-3.4,1.2-5.4
			C391.8,254.5,391.4,252.7,390.5,251.1z"/>
		<path class="st7" d="M419,244.9l-13.6,34.3h-2l4.3-10.9l-9.8-23.3h2.1l8.8,21.2l8.2-21.2H419z"/>
	</g>
</g>
<g>
	<path class="st8" d="M435.7,306.5H76.3c-6.6,0-12-5.4-12-12v-77c0-6.6,5.4-12,12-12h359.4c6.6,0,12,5.4,12,12v77
		C447.7,301.1,442.3,306.5,435.7,306.5z"/>
	<g>
		<g>
			<g>
				<path class="st9" d="M89.7,290.4c-6.4-3.5-11.1-9.2-13.2-16.3c-2.1-7-1.3-14.4,2.1-20.9c3.5-6.4,9.2-11.1,16.3-13.2
					c7-2.1,14.4-1.3,20.9,2.1c6.4,3.5,11.1,9.2,13.2,16.3c2.1,7,1.3,14.4-2.1,20.9c-3.5,6.4-9.2,11.1-16.3,13.2
					C103.5,294.7,96.1,293.9,89.7,290.4z M114.1,245.1c-11.7-6.3-26.4-1.9-32.7,9.8c-6.3,11.7-1.9,26.4,9.8,32.7
					c11.7,6.3,26.4,1.9,32.7-9.8C130.2,266.1,125.8,251.4,114.1,245.1z"/>
			</g>
		</g>
		<path class="st9" d="M111.7,282.6c-0.2-4.1-1.8-8-4.5-11.2c3.3-0.5,6.4-2.4,8.1-5.6c2.9-5.3,0.9-11.9-4.4-14.8
			c-5.3-2.9-11.9-0.9-14.8,4.4c-1.7,3.2-1.7,6.8-0.2,9.9c-4.1-0.6-8.3,0.3-11.8,2.3c-0.8,0.5-1.6,1-2.4,1.6c0.1,1,0.4,2,0.7,3
			c0.1,0.2,0.1,0.4,0.2,0.6c0.7-0.7,1.4-1.3,2.1-1.8c4.5-3.2,10.7-3.7,15.8-0.9c5.2,2.8,8.1,8.2,7.9,13.8c0,0.9-0.1,1.8-0.3,2.7
			c0.2-0.1,0.4-0.1,0.6-0.2c1-0.3,2-0.7,2.9-1.1C111.7,284.6,111.8,283.6,111.7,282.6z M99,257.1c2-3.7,6.6-5.1,10.4-3.1
			c3.7,2,5.1,6.6,3.1,10.4c-2,3.7-6.6,5.1-10.4,3.1C98.4,265.4,97,260.8,99,257.1z"/>
	</g>
</g>
</svg>
