<?xml version="1.0" encoding="utf-8"?>
<!-- Generator: Adobe Illustrator 25.0.0, SVG Export Plug-In . SVG Version: 6.00 Build 0)  -->
<svg version="1.1" id="Layer_1" xmlns="http://www.w3.org/2000/svg" xmlns:xlink="http://www.w3.org/1999/xlink" x="0px" y="0px"
	 viewBox="0 0 512 512" style="enable-background:new 0 0 512 512;" xml:space="preserve">
<style type="text/css">
	.st0{fill:#05AFFE;}
	.st1{fill:#464849;}
</style>
<g>
	<g>
		<g>
			<path class="st0" d="M344.2,96v2c0,7,3.6,13.3,9.2,17.5c41.7,31.1,68,81.6,65.7,137.9c-3.5,83.7-72.9,152.8-156.6,156
				C169.6,412.9,93,338.4,93,246.3c0-53.4,25.8-100.9,65.5-130.7c5.8-4.3,9.4-10.8,9.4-18V96c0-18.6-21.2-28.9-36.2-17.8
				c-57,42.3-91.9,112.9-83.6,190.9c10.2,96.3,87.8,174.4,184.1,185.1c126,14.1,233.1-84.7,233.1-207.9c0-68.8-33.4-130-84.9-168.2
				C365.4,67.1,344.2,77.4,344.2,96z"/>
		</g>
	</g>
	<path class="st1" d="M256,265.1L256,265.1c-16.2,0-29.3-13.1-29.3-29.3V69.7c0-16.2,13.1-29.3,29.3-29.3l0,0
		c16.2,0,29.3,13.1,29.3,29.3v166.1C285.3,252,272.2,265.1,256,265.1z"/>
</g>
</svg>
