<?xml version="1.0" encoding="utf-8"?>
<!-- Generator: Adobe Illustrator 25.0.0, SVG Export Plug-In . SVG Version: 6.00 Build 0)  -->
<svg version="1.1" id="Layer_1" xmlns="http://www.w3.org/2000/svg" xmlns:xlink="http://www.w3.org/1999/xlink" x="0px" y="0px"
	 viewBox="0 0 512 512" style="enable-background:new 0 0 512 512;" xml:space="preserve">
<style type="text/css">
	.st0{fill:#FFFFFF;}
</style>
<g>
	<g>
		<path class="st0" d="M385.29,281.19c-42.46,0-77.01,34.55-77.01,77.01s34.55,77.01,77.01,77.01s77.01-34.55,77.01-77.01
			S427.76,281.19,385.29,281.19z M426.68,358.2c0,22.82-18.57,41.38-41.39,41.38c-22.82,0-41.38-18.57-41.38-41.38
			c0-22.82,18.57-41.39,41.38-41.39C408.11,316.82,426.68,335.38,426.68,358.2z"/>
		<path class="st0" d="M263.62,351.62c0-0.33,0-0.33,0-0.33c-2.63-6.25-8.88-10.86-16.45-10.86H67.89
			c-7.24,0-13.49,4.28-16.45,10.53v0.33c-0.66,1.97-1.32,4.28-1.32,6.91c0,2.63,0.66,4.94,1.32,6.91v0.33
			c2.96,6.25,9.21,10.53,16.45,10.53h179.28c7.57,0,13.82-4.61,16.45-10.86c0,0,0,0,0-0.33c0.99-1.97,1.32-4.28,1.32-6.58
			S264.61,353.6,263.62,351.62z"/>
	</g>
	<g>
		<path class="st0" d="M462.68,147.93c0-0.33,0-0.33,0-0.33c-2.63-6.25-8.88-10.86-16.45-10.86H266.96
			c-7.24,0-13.49,4.28-16.45,10.53v0.33c-0.66,1.97-1.32,4.28-1.32,6.91c0,2.63,0.66,4.94,1.32,6.91v0.33
			c2.96,6.25,9.21,10.53,16.45,10.53h179.28c7.57,0,13.82-4.61,16.45-10.86c0,0,0,0,0-0.33c0.99-1.97,1.32-4.28,1.32-6.58
			C464,152.21,463.67,149.91,462.68,147.93z"/>
		<path class="st0" d="M125.46,231.58c42.46,0,77-34.55,77-77.02c0-42.46-34.54-77-77-77c-42.47,0-77.02,34.54-77.02,77
			C48.44,197.03,82.99,231.58,125.46,231.58z M125.46,113.18c22.82,0,41.38,18.56,41.38,41.38c0,22.82-18.56,41.39-41.38,41.39
			c-22.82,0-41.39-18.57-41.39-41.39C84.06,131.74,102.63,113.18,125.46,113.18z"/>
	</g>
</g>
</svg>
