<?xml version="1.0" encoding="utf-8"?>
<!-- Generator: Adobe Illustrator 25.0.0, SVG Export Plug-In . SVG Version: 6.00 Build 0)  -->
<svg version="1.1" id="Layer_1" xmlns="http://www.w3.org/2000/svg" xmlns:xlink="http://www.w3.org/1999/xlink" x="0px" y="0px"
	 viewBox="0 0 400 120" style="enable-background:new 0 0 400 120;" xml:space="preserve">
<style type="text/css">
	.st0{display:none;}
	.st1{display:inline;fill:#234261;}
	.st2{display:inline;}
	.st3{fill:url(#SVGID_1_);}
	.st4{fill:url(#SVGID_2_);}
	.st5{fill:url(#SVGID_3_);}
	.st6{fill:url(#SVGID_4_);}
	.st7{fill:#FFFFFF;}
	.st8{fill:#234261;}
	.st9{fill:url(#SVGID_5_);}
	.st10{fill:url(#SVGID_6_);}
	.st11{fill:url(#SVGID_7_);}
	.st12{fill:url(#SVGID_8_);}
</style>
<g class="st0">
	<path class="st1" d="M388.7,110.6H11.3c-1.7,0-3-1.3-3-3v-95c0-1.7,1.3-3,3-3h377.4c1.7,0,3,1.3,3,3v95
		C391.7,109.3,390.3,110.6,388.7,110.6z"/>
	<g class="st2">
		
			<linearGradient id="SVGID_1_" gradientUnits="userSpaceOnUse" x1="-432.9469" y1="69.1932" x2="-426.7465" y2="69.1932" gradientTransform="matrix(5.3545 0 0 5.3545 2355.9651 -325.8897)">
			<stop  offset="0" style="stop-color:#63BE6B"/>
			<stop  offset="0.506" style="stop-color:#5BBC6A"/>
			<stop  offset="1" style="stop-color:#4AB96A"/>
		</linearGradient>
		<path class="st3" d="M71,48.5L39.7,30.6c-0.4-0.3-0.8-0.2-1.3,0c-0.4,0.3-0.6,0.6-0.6,1.1c0,0,0,1.6,0,4.4l22.7,22.7L71,48.5z"/>
		
			<linearGradient id="SVGID_2_" gradientUnits="userSpaceOnUse" x1="-432.942" y1="71.8535" x2="-428.6792" y2="71.8535" gradientTransform="matrix(5.3545 0 0 5.3545 2355.9651 -325.8897)">
			<stop  offset="0" style="stop-color:#3EC6F2"/>
			<stop  offset="1" style="stop-color:#45AFE3"/>
		</linearGradient>
		<path class="st4" d="M37.7,36.1c0,9.8,0.2,33.6,0.2,45.5l22.7-22.7L37.7,36.1z"/>
		
			<linearGradient id="SVGID_3_" gradientUnits="userSpaceOnUse" x1="-428.6852" y1="71.9843" x2="-423.2783" y2="71.9843" gradientTransform="matrix(5.3545 0 0 5.3545 2355.9651 -325.8897)">
			<stop  offset="0" style="stop-color:#FAA51A"/>
			<stop  offset="0.387" style="stop-color:#FAB716"/>
			<stop  offset="0.741" style="stop-color:#FAC412"/>
			<stop  offset="1" style="stop-color:#FAC80F"/>
		</linearGradient>
		<path class="st5" d="M88.9,58.8L71,48.5L60.6,58.9l11.7,11.7l16.6-9.7c0.4-0.3,0.6-0.7,0.6-1.1C89.6,59.4,89.3,59,88.9,58.8z"/>
		
			<linearGradient id="SVGID_4_" gradientUnits="userSpaceOnUse" x1="-432.9079" y1="74.7693" x2="-426.4948" y2="74.7693" gradientTransform="matrix(5.3545 0 0 5.3545 2355.9651 -325.8897)">
			<stop  offset="0" style="stop-color:#EC3B50"/>
			<stop  offset="1" style="stop-color:#E7515B"/>
		</linearGradient>
		<path class="st6" d="M38,81.6c0,4.2,0,7,0,7c0,0.5,0.3,0.8,0.6,1.1c0.4,0.3,0.8,0.3,1.3,0l32.4-18.9L60.6,59L38,81.6z"/>
	</g>
	<g class="st2">
		<path class="st7" d="M142.2,50.9c-0.9-2.3-2.3-4.1-4.3-5.4c-2-1.3-4.3-2-7.1-2c-2.4,0-4.5,0.6-6.4,1.7c-1.9,1.1-3.4,2.7-4.5,4.8
			s-1.7,4.5-1.7,7.2s0.6,5.2,1.7,7.2c1.1,2.1,2.6,3.6,4.5,4.7s4.1,1.7,6.4,1.7c2.3,0,4.4-0.5,6.2-1.5s3.3-2.5,4.5-4.4
			c1.1-1.9,1.7-4.1,1.8-6.7H130v-1.6h15.4v1.3c-0.1,2.8-0.8,5.3-2,7.6c-1.3,2.2-3,4-5.2,5.2c-2.2,1.3-4.6,1.9-7.3,1.9
			c-2.8,0-5.3-0.6-7.5-2s-4-3.1-5.2-5.5c-1.3-2.3-1.9-5-1.9-7.9c0-3,0.6-5.6,1.9-8c1.3-2.3,3-4.1,5.2-5.5c2.2-1.3,4.7-2,7.5-2
			c3.2,0,6,0.8,8.4,2.4c2.4,1.6,4.1,3.9,5.2,6.7L142.2,50.9L142.2,50.9z"/>
		<path class="st7" d="M155.6,71.1c-1.7-1-3.1-2.4-4.1-4.2c-1-1.8-1.5-3.9-1.5-6.4c0-2.4,0.5-4.5,1.5-6.3s2.4-3.2,4.1-4.2
			c1.8-1,3.7-1.4,5.9-1.4s4.1,0.5,5.9,1.4c1.7,1,3.1,2.3,4.1,4.1s1.5,3.9,1.5,6.4c0,2.4-0.5,4.6-1.5,6.4s-2.4,3.2-4.1,4.2
			c-1.8,1-3.7,1.5-5.9,1.5C159.3,72.5,157.4,72,155.6,71.1z M166.2,69.7c1.5-0.8,2.7-1.9,3.5-3.5c0.9-1.5,1.3-3.4,1.3-5.7
			c0-2.2-0.4-4.1-1.3-5.7c-0.9-1.5-2.1-2.7-3.5-3.5c-1.5-0.8-3-1.1-4.7-1.1s-3.3,0.4-4.7,1.1c-1.4,0.8-2.6,1.9-3.5,3.5
			c-0.9,1.5-1.3,3.4-1.3,5.7c0,2.3,0.4,4.2,1.3,5.7s2,2.7,3.5,3.5c1.4,0.8,3,1.1,4.7,1.1C163.2,70.8,164.8,70.4,166.2,69.7z"/>
		<path class="st7" d="M183.3,71.1c-1.7-1-3.1-2.4-4.1-4.2c-1-1.8-1.5-3.9-1.5-6.4c0-2.4,0.5-4.5,1.5-6.3s2.4-3.2,4.1-4.2
			c1.8-1,3.7-1.4,5.9-1.4s4.1,0.5,5.9,1.4c1.7,1,3.1,2.3,4.1,4.1c1,1.8,1.5,3.9,1.5,6.4c0,2.4-0.5,4.6-1.5,6.4s-2.4,3.2-4.1,4.2
			c-1.8,1-3.7,1.5-5.9,1.5S185.1,72,183.3,71.1z M193.9,69.7c1.5-0.8,2.7-1.9,3.5-3.5c0.9-1.5,1.3-3.4,1.3-5.7
			c0-2.2-0.4-4.1-1.3-5.7c-0.9-1.5-2.1-2.7-3.5-3.5c-1.5-0.8-3-1.1-4.7-1.1s-3.3,0.4-4.7,1.1c-1.4,0.8-2.6,1.9-3.5,3.5
			c-0.9,1.5-1.3,3.4-1.3,5.7c0,2.3,0.4,4.2,1.3,5.7s2,2.7,3.5,3.5c1.4,0.8,3,1.1,4.7,1.1C190.9,70.8,192.5,70.4,193.9,69.7z"/>
		<path class="st7" d="M222.9,50.3c1.7,1.2,2.9,2.7,3.6,4.6v-6.1h1.9v24c0,2.1-0.5,4-1.4,5.6s-2.2,2.9-3.8,3.7s-3.4,1.3-5.4,1.3
			c-2.9,0-5.3-0.7-7.3-2.1c-1.9-1.4-3.2-3.3-3.8-5.7h1.9c0.6,1.9,1.6,3.3,3.2,4.4s3.5,1.7,5.9,1.7c1.6,0,3.1-0.4,4.4-1.1
			s2.4-1.8,3.1-3.1c0.8-1.4,1.1-3,1.1-4.8v-6.8c-0.7,1.9-1.9,3.4-3.6,4.6s-3.8,1.8-6.2,1.8c-2.2,0-4.1-0.5-5.8-1.5
			c-1.7-1-3-2.4-4-4.2s-1.4-3.9-1.4-6.3s0.5-4.5,1.4-6.3c1-1.8,2.3-3.2,4-4.2s3.6-1.5,5.8-1.5C219.1,48.6,221.2,49.2,222.9,50.3z
			 M225.3,55.1c-0.8-1.6-2-2.8-3.5-3.6s-3.1-1.3-4.9-1.3c-1.9,0-3.5,0.4-5,1.2c-1.4,0.8-2.5,2-3.3,3.5s-1.2,3.4-1.2,5.5
			s0.4,3.9,1.2,5.5c0.8,1.5,1.9,2.7,3.4,3.6c1.4,0.8,3.1,1.2,5,1.2c1.8,0,3.4-0.4,4.9-1.3c1.5-0.8,2.6-2,3.5-3.6
			c0.8-1.6,1.2-3.4,1.2-5.4C226.5,58.5,226.1,56.7,225.3,55.1z"/>
		<path class="st7" d="M237.4,40.4v31.8h-1.9V40.4L237.4,40.4L237.4,40.4z"/>
		<path class="st7" d="M265.4,61.3h-20.1c0.1,2.1,0.5,3.8,1.4,5.3c0.9,1.4,2,2.5,3.4,3.2s2.9,1.1,4.6,1.1c2.3,0,4.2-0.6,5.8-1.7
			c1.5-1.1,2.5-2.7,2.9-4.6h2c-0.5,2.4-1.6,4.3-3.5,5.8s-4.3,2.2-7.2,2.2c-2.2,0-4.1-0.5-5.8-1.5c-1.7-1-3.1-2.4-4-4.2
			c-1-1.8-1.5-3.9-1.5-6.4c0-2.4,0.5-4.6,1.4-6.4c1-1.8,2.3-3.2,4-4.1c1.7-1,3.7-1.4,5.9-1.4c2.2,0,4.2,0.5,5.8,1.4
			c1.6,1,2.9,2.2,3.8,3.8s1.3,3.3,1.3,5.1C265.5,60,265.5,60.7,265.4,61.3z M262.5,54.4c-0.8-1.4-1.9-2.5-3.3-3.2s-2.9-1.1-4.5-1.1
			s-3.1,0.3-4.5,1.1c-1.4,0.7-2.5,1.8-3.4,3.2s-1.3,3.2-1.4,5.2h18.3C263.7,57.6,263.3,55.9,262.5,54.4z"/>
		<path class="st7" d="M299.2,56.7c-1.7,1.5-4.1,2.2-7.4,2.2h-6.4v13.2h-1.9V42h8.4c3.3,0,5.8,0.8,7.4,2.3s2.4,3.6,2.4,6.2
			C301.7,53.2,300.9,55.3,299.2,56.7z M299.8,50.5c0-2.2-0.6-3.9-1.9-5c-1.3-1.2-3.3-1.7-6.1-1.7h-6.4v13.5h6.4
			C297.1,57.2,299.8,55,299.8,50.5z"/>
		<path class="st7" d="M308.8,40.4v31.8h-1.9V40.4L308.8,40.4L308.8,40.4z"/>
		<path class="st7" d="M316.1,54.2c1-1.8,2.3-3.2,4-4.2s3.6-1.5,5.8-1.5c2.5,0,4.5,0.6,6.3,1.8c1.7,1.2,2.9,2.7,3.6,4.6v-6.1h1.9
			v23.3h-1.9V66c-0.7,1.9-1.9,3.4-3.6,4.7c-1.7,1.2-3.8,1.8-6.2,1.8c-2.2,0-4.1-0.5-5.8-1.5c-1.7-1-3-2.4-4-4.2
			c-1-1.8-1.4-3.9-1.4-6.3S315.2,56,316.1,54.2z M334.5,55.1c-0.8-1.6-2-2.8-3.5-3.6s-3.1-1.3-4.9-1.3c-1.9,0-3.5,0.4-5,1.2
			c-1.4,0.8-2.5,2-3.3,3.5s-1.2,3.4-1.2,5.5s0.4,3.9,1.2,5.5c0.8,1.5,1.9,2.7,3.4,3.6c1.4,0.8,3.1,1.2,5,1.2c1.8,0,3.4-0.4,4.9-1.3
			c1.5-0.8,2.6-2,3.5-3.6c0.8-1.6,1.2-3.4,1.2-5.4C335.8,58.5,335.4,56.7,334.5,55.1z"/>
		<path class="st7" d="M363,48.9l-13.6,34.3h-2l4.3-10.9L341.9,49h2.1l8.8,21.2L361,49L363,48.9L363,48.9z"/>
	</g>
</g>
<g>
	<path class="st8" d="M379.7,110.5H20.3c-6.6,0-12-5.4-12-12v-77c0-6.6,5.4-12,12-12h359.4c6.6,0,12,5.4,12,12v77
		C391.7,105.1,386.3,110.5,379.7,110.5z"/>
	<g>
		
			<linearGradient id="SVGID_5_" gradientUnits="userSpaceOnUse" x1="-432.9469" y1="69.1745" x2="-426.7465" y2="69.1745" gradientTransform="matrix(5.3545 0 0 5.3545 2355.9651 -325.8897)">
			<stop  offset="0" style="stop-color:#63BE6B"/>
			<stop  offset="0.506" style="stop-color:#5BBC6A"/>
			<stop  offset="1" style="stop-color:#4AB96A"/>
		</linearGradient>
		<path class="st9" d="M71,48.4L39.7,30.5c-0.4-0.3-0.8-0.2-1.3,0c-0.4,0.3-0.6,0.6-0.6,1.1c0,0,0,1.6,0,4.4l22.7,22.7L71,48.4z"/>
		
			<linearGradient id="SVGID_6_" gradientUnits="userSpaceOnUse" x1="-432.942" y1="71.8162" x2="-428.6792" y2="71.8162" gradientTransform="matrix(5.3545 0 0 5.3545 2355.9651 -325.8897)">
			<stop  offset="0" style="stop-color:#3EC6F2"/>
			<stop  offset="1" style="stop-color:#45AFE3"/>
		</linearGradient>
		<path class="st10" d="M37.7,35.9c0,9.8,0.2,33.6,0.2,45.5l22.7-22.7L37.7,35.9z"/>
		
			<linearGradient id="SVGID_7_" gradientUnits="userSpaceOnUse" x1="-428.6852" y1="71.9656" x2="-423.2783" y2="71.9656" gradientTransform="matrix(5.3545 0 0 5.3545 2355.9651 -325.8897)">
			<stop  offset="0" style="stop-color:#FAA51A"/>
			<stop  offset="0.387" style="stop-color:#FAB716"/>
			<stop  offset="0.741" style="stop-color:#FAC412"/>
			<stop  offset="1" style="stop-color:#FAC80F"/>
		</linearGradient>
		<path class="st11" d="M88.9,58.7L71,48.4L60.6,58.8l11.7,11.7l16.6-9.7c0.4-0.3,0.6-0.7,0.6-1.1C89.6,59.3,89.3,58.8,88.9,58.7z"
			/>
		
			<linearGradient id="SVGID_8_" gradientUnits="userSpaceOnUse" x1="-432.9079" y1="74.732" x2="-426.4948" y2="74.732" gradientTransform="matrix(5.3545 0 0 5.3545 2355.9651 -325.8897)">
			<stop  offset="0" style="stop-color:#EC3B50"/>
			<stop  offset="1" style="stop-color:#E7515B"/>
		</linearGradient>
		<path class="st12" d="M38,81.4c0,4.2,0,7,0,7c0,0.5,0.3,0.8,0.6,1.1c0.4,0.3,0.8,0.3,1.3,0l32.4-18.9L60.6,58.8L38,81.4z"/>
	</g>
	<g>
		<path class="st7" d="M142.2,50.8c-0.9-2.3-2.3-4.1-4.3-5.4c-2-1.3-4.3-2-7.1-2c-2.4,0-4.5,0.6-6.4,1.7c-1.9,1.1-3.4,2.7-4.5,4.8
			s-1.7,4.5-1.7,7.2s0.6,5.2,1.7,7.2c1.1,2.1,2.6,3.6,4.5,4.7s4.1,1.7,6.4,1.7c2.3,0,4.4-0.5,6.2-1.5s3.3-2.5,4.5-4.4
			c1.1-1.9,1.7-4.1,1.8-6.7H130v-1.6h15.4v1.3c-0.1,2.8-0.8,5.3-2,7.6c-1.3,2.2-3,4-5.2,5.2c-2.2,1.3-4.6,1.9-7.3,1.9
			c-2.8,0-5.3-0.6-7.5-2s-4-3.1-5.2-5.5c-1.3-2.3-1.9-5-1.9-7.9c0-3,0.6-5.6,1.9-8c1.3-2.3,3-4.1,5.2-5.5c2.2-1.3,4.7-2,7.5-2
			c3.2,0,6,0.8,8.4,2.4c2.4,1.6,4.1,3.9,5.2,6.7L142.2,50.8L142.2,50.8z"/>
		<path class="st7" d="M155.6,70.9c-1.7-1-3.1-2.4-4.1-4.2c-1-1.8-1.5-3.9-1.5-6.4c0-2.4,0.5-4.5,1.5-6.3s2.4-3.2,4.1-4.2
			c1.8-1,3.7-1.4,5.9-1.4s4.1,0.5,5.9,1.4c1.7,1,3.1,2.3,4.1,4.1s1.5,3.9,1.5,6.4c0,2.4-0.5,4.6-1.5,6.4s-2.4,3.2-4.1,4.2
			c-1.8,1-3.7,1.5-5.9,1.5S157.4,71.9,155.6,70.9z M166.2,69.5c1.5-0.8,2.7-1.9,3.5-3.5c0.9-1.5,1.3-3.4,1.3-5.7
			c0-2.2-0.4-4.1-1.3-5.7c-0.9-1.5-2.1-2.7-3.5-3.5c-1.5-0.8-3-1.1-4.7-1.1s-3.3,0.4-4.7,1.1c-1.4,0.8-2.6,1.9-3.5,3.5
			c-0.9,1.5-1.3,3.4-1.3,5.7c0,2.3,0.4,4.2,1.3,5.7s2,2.7,3.5,3.5c1.4,0.8,3,1.1,4.7,1.1S164.8,70.3,166.2,69.5z"/>
		<path class="st7" d="M183.3,70.9c-1.7-1-3.1-2.4-4.1-4.2c-1-1.8-1.5-3.9-1.5-6.4c0-2.4,0.5-4.5,1.5-6.3s2.4-3.2,4.1-4.2
			c1.8-1,3.7-1.4,5.9-1.4s4.1,0.5,5.9,1.4c1.7,1,3.1,2.3,4.1,4.1c1,1.8,1.5,3.9,1.5,6.4c0,2.4-0.5,4.6-1.5,6.4s-2.4,3.2-4.1,4.2
			c-1.8,1-3.7,1.5-5.9,1.5S185.1,71.9,183.3,70.9z M193.9,69.5c1.5-0.8,2.7-1.9,3.5-3.5c0.9-1.5,1.3-3.4,1.3-5.7
			c0-2.2-0.4-4.1-1.3-5.7c-0.9-1.5-2.1-2.7-3.5-3.5c-1.5-0.8-3-1.1-4.7-1.1s-3.3,0.4-4.7,1.1c-1.4,0.8-2.6,1.9-3.5,3.5
			c-0.9,1.5-1.3,3.4-1.3,5.7c0,2.3,0.4,4.2,1.3,5.7s2,2.7,3.5,3.5c1.4,0.8,3,1.1,4.7,1.1S192.5,70.3,193.9,69.5z"/>
		<path class="st7" d="M222.9,50.2c1.7,1.2,2.9,2.7,3.6,4.6v-6.1h1.9v24c0,2.1-0.5,4-1.4,5.6s-2.2,2.9-3.8,3.7s-3.4,1.3-5.4,1.3
			c-2.9,0-5.3-0.7-7.3-2.1c-1.9-1.4-3.2-3.3-3.8-5.7h1.9c0.6,1.9,1.6,3.3,3.2,4.4s3.5,1.7,5.9,1.7c1.6,0,3.1-0.4,4.4-1.1
			s2.4-1.8,3.1-3.1c0.8-1.4,1.1-3,1.1-4.8v-6.8c-0.7,1.9-1.9,3.4-3.6,4.6s-3.8,1.8-6.2,1.8c-2.2,0-4.1-0.5-5.8-1.5
			c-1.7-1-3-2.4-4-4.2c-1-1.8-1.4-3.9-1.4-6.3s0.5-4.5,1.4-6.3s2.3-3.2,4-4.2s3.6-1.5,5.8-1.5C219.1,48.4,221.2,49,222.9,50.2z
			 M225.3,55c-0.8-1.6-2-2.8-3.5-3.6s-3.1-1.3-4.9-1.3c-1.9,0-3.5,0.4-5,1.2c-1.4,0.8-2.5,2-3.3,3.5s-1.2,3.4-1.2,5.5
			s0.4,3.9,1.2,5.5c0.8,1.5,1.9,2.7,3.4,3.6c1.4,0.8,3.1,1.2,5,1.2c1.8,0,3.4-0.4,4.9-1.3c1.5-0.8,2.6-2,3.5-3.6
			c0.8-1.6,1.2-3.4,1.2-5.4C226.5,58.3,226.1,56.5,225.3,55z"/>
		<path class="st7" d="M237.4,40.3V72h-1.9V40.2h1.9V40.3z"/>
		<path class="st7" d="M265.4,61.1h-20.1c0.1,2.1,0.5,3.8,1.4,5.3c0.9,1.4,2,2.5,3.4,3.2s2.9,1.1,4.6,1.1c2.3,0,4.2-0.6,5.8-1.7
			c1.5-1.1,2.5-2.7,2.9-4.6h2c-0.5,2.4-1.6,4.3-3.5,5.8s-4.3,2.2-7.2,2.2c-2.2,0-4.1-0.5-5.8-1.5c-1.7-1-3.1-2.4-4-4.2
			c-1-1.8-1.5-3.9-1.5-6.4c0-2.4,0.5-4.6,1.4-6.4c1-1.8,2.3-3.2,4-4.1c1.7-1,3.7-1.4,5.9-1.4c2.2,0,4.2,0.5,5.8,1.4
			c1.6,1,2.9,2.2,3.8,3.8s1.3,3.3,1.3,5.1C265.5,59.8,265.5,60.6,265.4,61.1z M262.5,54.3c-0.8-1.4-1.9-2.5-3.3-3.2
			s-2.9-1.1-4.5-1.1s-3.1,0.3-4.5,1.1c-1.4,0.7-2.5,1.8-3.4,3.2s-1.3,3.2-1.4,5.2h18.3C263.7,57.5,263.3,55.7,262.5,54.3z"/>
		<path class="st7" d="M299.2,56.6c-1.7,1.5-4.1,2.2-7.4,2.2h-6.4V72h-1.9V41.9h8.4c3.3,0,5.8,0.8,7.4,2.3s2.4,3.6,2.4,6.2
			C301.7,53.1,300.9,55.1,299.2,56.6z M299.8,50.4c0-2.2-0.6-3.9-1.9-5c-1.3-1.2-3.3-1.7-6.1-1.7h-6.4v13.5h6.4
			C297.1,57.1,299.8,54.9,299.8,50.4z"/>
		<path class="st7" d="M308.8,40.3V72h-1.9V40.2h1.9V40.3z"/>
		<path class="st7" d="M316.1,54c1-1.8,2.3-3.2,4-4.2s3.6-1.5,5.8-1.5c2.5,0,4.5,0.6,6.3,1.8c1.7,1.2,2.9,2.7,3.6,4.6v-6.1h1.9V72
			h-1.9v-6.1c-0.7,1.9-1.9,3.4-3.6,4.7c-1.7,1.2-3.8,1.8-6.2,1.8c-2.2,0-4.1-0.5-5.8-1.5c-1.7-1-3-2.4-4-4.2c-1-1.8-1.4-3.9-1.4-6.3
			C314.7,57.9,315.2,55.8,316.1,54z M334.5,55c-0.8-1.6-2-2.8-3.5-3.6s-3.1-1.3-4.9-1.3c-1.9,0-3.5,0.4-5,1.2
			c-1.4,0.8-2.5,2-3.3,3.5s-1.2,3.4-1.2,5.5s0.4,3.9,1.2,5.5c0.8,1.5,1.9,2.7,3.4,3.6c1.4,0.8,3.1,1.2,5,1.2c1.8,0,3.4-0.4,4.9-1.3
			c1.5-0.8,2.6-2,3.5-3.6c0.8-1.6,1.2-3.4,1.2-5.4C335.8,58.3,335.4,56.5,334.5,55z"/>
		<path class="st7" d="M363,48.7L349.4,83h-2l4.3-10.9l-9.8-23.3h2.1l8.8,21.2l8.2-21.2h2V48.7z"/>
	</g>
</g>
</svg>
