<?xml version="1.0" encoding="utf-8"?>
<!-- Generator: Adobe Illustrator 25.0.0, SVG Export Plug-In . SVG Version: 6.00 Build 0)  -->
<svg version="1.1" id="Layer_1" xmlns="http://www.w3.org/2000/svg" xmlns:xlink="http://www.w3.org/1999/xlink" x="0px" y="0px"
	 viewBox="0 0 512 512" style="enable-background:new 0 0 512 512;" xml:space="preserve">
<style type="text/css">
	.st0{fill:#05AFFE;}
</style>
<g>
	<g>
		<g>
			<path class="st0" d="M357.2,269H154.8c-7.6,0-13.8-6.2-13.8-13.8l0,0c0-7.6,6.2-13.8,13.8-13.8h202.4c7.6,0,13.8,6.2,13.8,13.8
				l0,0C371,262.8,364.8,269,357.2,269z"/>
		</g>
		<g>
			<path class="st0" d="M357.2,346.4H154.8c-7.6,0-13.8-6.2-13.8-13.8l0,0c0-7.6,6.2-13.8,13.8-13.8h202.4c7.6,0,13.8,6.2,13.8,13.8
				l0,0C371,340.3,364.8,346.4,357.2,346.4z"/>
		</g>
		<g>
			<path class="st0" d="M357.2,193.1H154.8c-7.6,0-13.8-6.2-13.8-13.8l0,0c0-7.6,6.2-13.8,13.8-13.8h202.4c7.6,0,13.8,6.2,13.8,13.8
				l0,0C371,186.9,364.8,193.1,357.2,193.1z"/>
		</g>
	</g>
</g>
</svg>
