<?xml version="1.0" encoding="utf-8"?>
<!-- Generator: Adobe Illustrator 25.0.0, SVG Export Plug-In . SVG Version: 6.00 Build 0)  -->
<svg version="1.1" id="Layer_1" xmlns="http://www.w3.org/2000/svg" xmlns:xlink="http://www.w3.org/1999/xlink" x="0px" y="0px"
	 viewBox="0 0 512 512" style="enable-background:new 0 0 512 512;" xml:space="preserve">
<style type="text/css">
	.st0{fill:#05AFFE;}
	.st1{fill:#464849;}
	.st2{fill:#FFFFFF;}
</style>
<g>
	<g>
		<g>
			<g>
				<path class="st0" d="M92.2,382.6c0-15.8,0-27.9,0-39.1c0-9-3-13.5-12.8-14.3C57.6,327,44.9,311.9,44,290.1
					c0-59.4,0-118.7,0-177.4c0-24.1,15.8-39.8,39.8-39.8c91,0,181.1,0,272.1,0c24.1,0,39.8,15.8,39.8,39.8c0,58.7,0,117.3,0,176.7
					c0,25.6-15.8,40.6-41.3,40.6c-63.1,0-125.5,0-188.6,0.7c-6.8,0-15,3-21.1,7.6C127.5,351,111.7,366.1,92.2,382.6z"/>
			</g>
			<g>
				<path class="st1" d="M206.3,353.3c50.4,0,100,0,149.5,0c45.1,0,65.4-21.1,65.4-66.1c0-21.1,0-42.1,0-63.1c0-3.7,0-8.3,0-12
					c30.8-8.3,47.3,6.8,46.6,34.5c-1.5,39.8,0,80.4,0,120.3c0,22.6-6.1,28.6-27,34.5c-3.7,0.7-7.6,6.8-8.3,11.2
					c-1.5,7.6-0.7,15.8-0.7,26.3c-13.5-11.2-24.1-21.8-36.1-30.8c-5.3-3.7-12-6.8-18.7-6.8c-43.7-0.7-87.1-1.5-130.8,0
					C209.4,403,201.2,384.9,206.3,353.3z"/>
			</g>
		</g>
	</g>
	<path class="st2" d="M238.8,215h-89.5c-4.6,0-8.3,5.3-8.3,12c0,6.8,3.7,12,8.3,12h89.5c4.6,0,8.3-5.3,8.3-12
		C247,220.2,243.3,215,238.8,215z"/>
	<path class="st2" d="M276.4,157.2h-127c-4.6,0-8.3,5.3-8.3,12c0,6.8,3.7,12,8.3,12h127c4.6,0,8.3-5.3,8.3-12
		C284.6,162.3,280.9,157.2,276.4,157.2z"/>
</g>
</svg>
