<?xml version="1.0" encoding="utf-8"?>
<!-- Generator: Adobe Illustrator 25.0.0, SVG Export Plug-In . SVG Version: 6.00 Build 0)  -->
<svg version="1.1" id="Layer_1" xmlns="http://www.w3.org/2000/svg" xmlns:xlink="http://www.w3.org/1999/xlink" x="0px" y="0px"
	 viewBox="0 0 512 512" style="enable-background:new 0 0 512 512;" xml:space="preserve">
<style type="text/css">
	.st0{fill:none;}
	.st1{fill:#05AFFE;}
	.st2{fill:#234261;}
	.st3{display:none;}
	.st4{display:inline;}
	.st5{fill:#FFFFFF;}
</style>
<g>
	<path class="st0" d="M256,87.2c-93.2,0-168.8,75.6-168.8,168.8S162.8,424.8,256,424.8S424.8,349.2,424.8,256S349.2,87.2,256,87.2z
		 M237.2,237.2h37.5c31,0,56.3,25.2,56.3,56.3c0,31-25.2,56.3-56.3,56.3v18.8c0,10.3-8.4,18.8-18.8,18.8c-10.3,0-18.8-8.4-18.8-18.8
		v-18.8h-37.5c-10.3,0-18.8-8.4-18.8-18.8c0-10.3,8.4-18.8,18.8-18.8h75c10.3,0,18.8-8.4,18.8-18.8c0-10.3-8.4-18.8-18.8-18.8h-37.5
		c-31,0-56.3-25.2-56.3-56.3c0-31,25.2-56.3,56.3-56.3v-18.8c0-10.3,8.4-18.8,18.8-18.8c10.3,0,18.8,8.4,18.8,18.8V162h37.5
		c10.3,0,18.8,8.4,18.8,18.8c0,10.3-8.4,18.8-18.8,18.8h-75c-10.3,0-18.8,8.4-18.8,18.8C218.5,228.9,226.9,237.2,237.2,237.2z"/>
	<path class="st1" d="M237.2,199.7h75c10.3,0,18.8-8.4,18.8-18.8c0-10.3-8.4-18.8-18.8-18.8h-37.5v-18.8c0-10.3-8.4-18.8-18.8-18.8
		c-10.3,0-18.8,8.4-18.8,18.8v18.8c-31,0-56.3,25.2-56.3,56.3c0,31,25.2,56.3,56.3,56.3h37.5c10.3,0,18.8,8.4,18.8,18.8
		c0,10.3-8.4,18.8-18.8,18.8h-75c-10.3,0-18.8,8.4-18.8,18.8c0,10.3,8.4,18.8,18.8,18.8h37.5v18.8c0,10.3,8.4,18.8,18.8,18.8
		c10.3,0,18.8-8.4,18.8-18.8v-18.8c31,0,56.3-25.2,56.3-56.3c0-31-25.2-56.3-56.3-56.3h-37.5c-10.3,0-18.8-8.4-18.8-18.8
		C218.5,208.2,226.9,199.7,237.2,199.7z"/>
	<path class="st2" d="M256,49.7C142.1,49.7,49.7,142.1,49.7,256S142.1,462.3,256,462.3S462.3,369.9,462.3,256S369.9,49.7,256,49.7z
		 M256,424.8c-93.2,0-168.8-75.6-168.8-168.8S162.8,87.2,256,87.2S424.8,162.8,424.8,256S349.2,424.8,256,424.8z"/>
</g>
<g class="st3">
	<g class="st4">
		<g>
			<path class="st2" d="M462.3,254.8c0.3,57.1-22.7,108.8-59.7,146.4c-37.1,37.6-88.7,61.1-145.7,61.4c-47,0.2-90.7-15.3-125.6-42
				c-0.2-0.2-0.4-0.2-0.5-0.4c-0.2,0-0.2-0.2-0.4-0.4c-0.2,0-0.4-0.2-0.5-0.4c-3.8-3-7.6-6.2-11.3-9.6c-3.5-3.2-6.8-6.4-10.1-9.7
				V400c-0.2-0.2-0.2-0.2-0.4-0.2v-0.2c-2-1.8-3.6-3.6-5.4-5.4c-0.2-0.2-0.4-0.4-0.5-0.5c-32.5-36.1-52.4-83.9-52.6-136.6
				c-0.3-56.9,22.7-108.6,59.7-146.4c37.1-37.4,88.7-60.8,145.7-61.2c56.9-0.3,108.8,22.7,146.4,59.7
				C438.7,146.3,462.1,197.8,462.3,254.8z"/>
			<g>
				<g>
					<path class="st5" d="M322.3,278.5l40,124.8l-91-64.3l0.3-0.3l26-44.7L151.9,403.5l9.6-34c41.9-59.9,138.9-135,138.9-135
						c-82.4,2.3-135.6,27.8-135.6,27.8l-79.8-59l128.9-0.7L255,77.8l41.1,124.4l130.3-0.3L322.3,278.5z"/>
				</g>
				<path class="st1" d="M151.7,404.2c0,0,41.8-74.7,148.7-169.8c0,0-95.6,34.7-135.6,94.7L151.7,404.2z"/>
			</g>
		</g>
	</g>
</g>
</svg>
