<?xml version="1.0" encoding="utf-8"?>
<!-- Generator: Adobe Illustrator 25.0.0, SVG Export Plug-In . SVG Version: 6.00 Build 0)  -->
<svg version="1.1" id="Layer_1" xmlns="http://www.w3.org/2000/svg" xmlns:xlink="http://www.w3.org/1999/xlink" x="0px" y="0px"
	 viewBox="0 0 512 512" style="enable-background:new 0 0 512 512;" xml:space="preserve">
<style type="text/css">
	.st0{fill:#464849;}
	.st1{fill:#05AFFE;}
</style>
<g>
	<path class="st0" d="M69.9,428.5c0-133.5,0-130.1,0-262.5c-9.1,0-18.1,0-26,0c0,141.4,0,147.1,0,289.6c141.4,0,282.9,0,424.3,0
		c0-9.1,0-18.1,0-26C335.8,428.5,203.4,428.5,69.9,428.5z"/>
	<path class="st1" d="M356.2,128.8c-11.3-6.8-22.6-13.6-33.9-20.4c31.7-17,62.2-33.9,92.8-52c-1.1,36.2-1.1,70.1-2.3,106.4
		c-11.3-6.8-22.6-13.6-33.9-20.4c-1.1,2.3-2.3,3.4-3.4,5.7c-11.3,18.1-21.5,36.2-32.8,54.3c-1.1,2.3-3.4,3.4-5.7,2.3
		c-32.8-7.9-66.8-17-99.6-24.9c-3.4-1.1-5.7,0-7.9,2.3c-31.7,31.7-62.2,62.2-93.9,93.9c-1.1,1.1-2.3,2.3-3.4,3.4
		c-6.8-6.8-12.4-12.4-19.2-19.2c0,0,1.1-1.1,2.3-2.3c35.1-35.1,70.1-70.1,106.4-106.4c2.3-2.3,4.5-2.3,6.8-2.3
		c31.7,7.9,64.5,15.8,96.2,23.8c2.3,1.1,4.5,0,5.7-2.3C339.2,156.9,348.2,143.4,356.2,128.8z"/>
	<path class="st0" d="M389,178.4c9.1,5.7,17,10.2,24.9,14.7c1.1,1.1,2.3,3.4,2.3,4.5c0,29.4,0,57.7,0,87.1c0,37.3,0,74.7,0,112
		c0,1.1,0,3.4,0,4.5c-18.1,0-35.1,0-53.2,0c0-1.1,0-3.4,0-4.5c0-56.6,0-114.3,0-170.8c0-2.3,1.1-4.5,2.3-6.8
		C372,205.7,379.9,193.2,389,178.4z"/>
	<path class="st0" d="M255.5,401.3c-18.1,0-35.1,0-53.2,0c0-1.1,0-3.4,0-4.5c0-48.7,0-98.4,0-147.1c0-3.4,1.1-5.7,3.4-6.8
		c11.3-11.3,22.6-22.6,33.9-33.9c1.1-1.1,3.4-2.3,5.7-1.1c3.4,1.1,7.9,2.3,11.3,3.4C255.5,274.6,255.5,338,255.5,401.3z"/>
	<path class="st0" d="M335.8,402.5c-18.1,0-35.1,0-53.2,0c0-61.1,0-123.3,0-184.4c18.1,4.5,35.1,9.1,53.2,13.6
		C335.8,288.2,335.8,344.8,335.8,402.5z"/>
	<path class="st0" d="M123.1,401.3c0-31.7,0-62.2,0-95c3.4,3.4,5.7,6.8,7.9,10.2c15.8-15.8,29.4-29.4,45.3-45.3
		c0,44.1,0,87.1,0,130.1C158.2,401.3,141.2,401.3,123.1,401.3z"/>
</g>
</svg>
