<?xml version="1.0" encoding="utf-8"?>
<!-- Generator: Adobe Illustrator 25.0.0, SVG Export Plug-In . SVG Version: 6.00 Build 0)  -->
<svg version="1.1" id="Layer_1" xmlns="http://www.w3.org/2000/svg" xmlns:xlink="http://www.w3.org/1999/xlink" x="0px" y="0px"
	 viewBox="0 0 512 512" style="enable-background:new 0 0 512 512;" xml:space="preserve">
<style type="text/css">
	.st0{fill:#234261;}
	.st1{fill:#FFFFFF;}
	.st2{fill:#05AFFE;}
</style>
<g>
	<g>
		<g>
			<path class="st0" d="M462.3,254.8c0.3,57.1-22.7,108.8-59.7,146.4c-37.1,37.6-88.7,61.1-145.7,61.4c-47,0.2-90.7-15.3-125.6-42
				c-0.2-0.2-0.4-0.2-0.5-0.4c-0.2,0-0.2-0.2-0.4-0.4c-0.2,0-0.4-0.2-0.5-0.4c-3.8-3-7.6-6.2-11.3-9.6c-3.5-3.2-6.8-6.4-10.1-9.7
				V400c-0.2-0.2-0.2-0.2-0.4-0.2v-0.2c-2-1.8-3.6-3.6-5.4-5.4c-0.2-0.2-0.4-0.4-0.5-0.5c-32.5-36.1-52.4-83.9-52.6-136.6
				c-0.3-56.9,22.7-108.6,59.7-146.4c37.1-37.4,88.7-60.8,145.7-61.2c56.9-0.3,108.8,22.7,146.4,59.7
				C438.7,146.3,462.1,197.8,462.3,254.8z"/>
			<g>
				<g>
					<path class="st1" d="M322.3,278.5l40,124.8l-91-64.3l0.3-0.3l26-44.7L151.9,403.5l9.6-34c41.9-59.9,138.9-135,138.9-135
						c-82.4,2.3-135.6,27.8-135.6,27.8l-79.8-59l128.9-0.7L255,77.8l41.1,124.4l130.3-0.3L322.3,278.5z"/>
				</g>
				<path class="st2" d="M151.7,404.2c0,0,41.8-74.7,148.7-169.8c0,0-95.6,34.7-135.6,94.7L151.7,404.2z"/>
			</g>
		</g>
	</g>
</g>
</svg>
