<?xml version="1.0" encoding="utf-8"?>
<!-- Generator: Adobe Illustrator 25.0.0, SVG Export Plug-In . SVG Version: 6.00 Build 0)  -->
<svg version="1.1" id="Layer_1" xmlns="http://www.w3.org/2000/svg" xmlns:xlink="http://www.w3.org/1999/xlink" x="0px" y="0px"
	 viewBox="0 0 512 512" style="enable-background:new 0 0 512 512;" xml:space="preserve">
<style type="text/css">
	.st0{fill:#05AFFE;}
	.st1{fill:#234261;}
</style>
<g>
	<path class="st0" d="M340.1,243.7l-66.3-82.8c-6.8-8.5-19.1-9.8-27.6-3.1l0,0c-8.5,6.8-9.8,19.1-3.1,27.6l40.8,51H89.2
		c-10.9,0-19.7,8.8-19.7,19.7c0,10.9,8.8,19.7,19.7,19.7h194.7l-40.8,51c-6.8,8.5-5.4,20.8,3.1,27.6l0,0c8.5,6.8,20.8,5.4,27.6-3.1
		l66.2-82.8l9.8-12.3L340.1,243.7z"/>
	<path class="st1" d="M423.3,98.5c-19.2-22.1-47.5-26.2-98.8-33.5l-84.1-12c-22-3.2-37.9-5.4-51.4-5.4c-0.1,0-0.2,0-0.2,0
		c-11,0-26.9,1.3-40.1,12.8c-13.3,11.6-16.9,27.3-18.4,38.2c-1,7.4-1.5,15.6-1.7,25.2h0v0c-0.2,7.8-0.2,16.5-0.2,26.4v10.2h0.2h39.2
		v-10.2c0-32.7,0-54.3,6.8-60.1c6.8-5.8,28.2-2.9,60.5,1.8l84.1,12c46.3,6.7,65.4,9.7,74.7,20.4c9.2,10.6,9.6,30.1,9.6,76.8v109.9
		c0,46.8-0.4,66.1-9.6,76.8c-9.2,10.6-28.4,13.7-74.7,20.4l-84.3,12c-32.4,4.6-53.7,7.7-60.4,1.8c-5.5-4.8-6.5-20.1-6.7-43.3v-23.1
		h0h-39.3v6.3v16.8h0c0.1,13.9,0.5,25.1,1.8,34.8c1.5,10.9,5.1,26.6,18.4,38.2c13.2,11.5,29.2,12.8,40.1,12.8c0.1,0,0.1,0,0.2,0
		c13.5,0,29.4-2.3,51.4-5.4l84.1-12c51.3-7.4,79.6-11.4,98.8-33.5c19.2-22.1,19.2-50.7,19.2-102.6V201.1
		C442.6,149.2,442.6,120.6,423.3,98.5z"/>
</g>
</svg>
