<?xml version="1.0" encoding="utf-8"?>
<!-- Generator: Adobe Illustrator 25.0.0, SVG Export Plug-In . SVG Version: 6.00 Build 0)  -->
<svg version="1.1" id="Layer_1" xmlns="http://www.w3.org/2000/svg" xmlns:xlink="http://www.w3.org/1999/xlink" x="0px" y="0px"
	 viewBox="0 0 512 512" style="enable-background:new 0 0 512 512;" xml:space="preserve">
<style type="text/css">
	.st0{fill:#05AFFE;}
	.st1{fill:#464849;}
	.st2{fill:#FFFFFF;}
</style>
<g>
	<g>
		<path class="st0" d="M255.2,337.8c-9.6-0.1-19.8-1.5-29.7-4.4c-1.3-0.4-2.9-0.4-4.3-0.1c-15.1,3.6-30.2,7.3-45.2,11
			c-4.2,1-8.1,0.8-11.4-2.3c-2.5-2.3-3.6-5.2-3.3-8.6c1.1-14.4,2.1-28.9,3.3-43.3c0.2-1.9-0.1-3.6-1.1-5.3
			c-37.4-63.1-0.7-144.6,71.5-159.1c60.2-12.1,118.6,28.8,127.4,89.1c6.9,47.2-17.6,92.6-60.9,112.9
			C287,334.5,271.8,337.7,255.2,337.8z"/>
		<path class="st1" d="M290.7,399.4c15.5-3.8,30-9.7,43.2-18.4c38.9-25.4,61.5-61.1,67.2-107.2c1-8.3,0.8-16.8,0.9-25.2
			c0.1-14.8,0.4-29.6-2.2-44.4c-9.6-54.8-52.7-101.6-106.9-114.9c-49.7-12.2-94.6-1.7-133.3,31.7c-29.1,25.1-45.6,57.4-48.8,95.8
			c-1.4,15.9-0.6,32-0.8,48c-0.1,5.5,0,11.1,0,16.6c-0.1,8.1-5.2,13.2-13.4,13.2c-8.7,0-17.4,0-26.1,0
			c-15.1-0.1-26.9-11.6-26.9-26.7c-0.1-25.2-0.1-50.4,0-75.6c0-14.9,11.7-26.5,26.7-26.6c8.2-0.1,16.3-0.1,24.5,0
			c2.2,0,3.2-0.6,4.2-2.7c22.2-49.2,59-82.2,111.1-96.9c75.6-21.3,155.1,11.5,194.2,79.4c3.3,5.8,6.1,11.9,8.9,18
			c0.7,1.5,1.5,2.1,3.2,2.1c8.2-0.1,16.5-0.1,24.8,0c15.6,0,27.2,11.6,27.2,27.2c0,24.6,0,49.2,0,73.8c0,16.6-11.4,27.9-28.1,27.9
			c-4.9,0-9.9,0.1-14.8,0c-1.9,0-2.8,0.5-3.3,2.5c-12.5,50.2-41.9,87.4-87.3,112c-12.2,6.6-25.1,11.3-38.7,14.4
			c-1.9,0.4-2.8,1.2-3.3,3.1c-5.4,17.6-22.5,28.1-41,25.4c-17.3-2.6-30.5-18.1-30.7-35.9c-0.1-16.1,10.8-30.7,26.4-35.3
			c15.8-4.6,32.7,1.9,41.4,15.8C289.5,397.4,290.1,398.3,290.7,399.4z"/>
	</g>
	<path class="st2" d="M273.7,245.7h-61.1c-3.1,0-5.6,3.6-5.6,8.2c0,4.6,2.6,8.2,5.6,8.2h61.1c3.1,0,5.6-3.6,5.6-8.2
		S276.8,245.7,273.7,245.7z"/>
	<path class="st2" d="M299.4,206.3h-86.8c-3.1,0-5.6,3.6-5.6,8.2c0,4.6,2.6,8.2,5.6,8.2h86.8c3.1,0,5.6-3.6,5.6-8.2
		C305,209.9,302.4,206.3,299.4,206.3z"/>
</g>
</svg>
