<?xml version="1.0" encoding="utf-8"?>
<!-- Generator: Adobe Illustrator 25.0.0, SVG Export Plug-In . SVG Version: 6.00 Build 0)  -->
<svg version="1.1" id="Layer_1" xmlns="http://www.w3.org/2000/svg" xmlns:xlink="http://www.w3.org/1999/xlink" x="0px" y="0px"
	 viewBox="0 0 512 512" style="enable-background:new 0 0 512 512;" xml:space="preserve">
<style type="text/css">
	.st0{fill:#FFFFFF;}
	.st1{fill:#F2F2F2;}
	.st2{fill:#7C5CFF;}
</style>
<g>
	<g>
		<path class="st0" d="M430.1,431.8H82c-1,0-1.7-0.8-1.7-1.7V82c0-1,0.8-1.7,1.7-1.7h348.1c1,0,1.7,0.8,1.7,1.7v348.1
			C431.8,431.1,431.1,431.8,430.1,431.8z"/>
		<path class="st1" d="M406.9,435.5H105.3c-15.8,0-28.6-12.8-28.6-28.6V105.3c0-15.8,12.8-28.6,28.6-28.6h301.6
			c15.8,0,28.6,12.8,28.6,28.6v301.6C435.5,422.6,422.6,435.5,406.9,435.5z M105.3,83.9c-11.8,0-21.3,9.6-21.3,21.3v301.6
			c0,11.8,9.6,21.3,21.3,21.3h301.6c11.8,0,21.3-9.6,21.3-21.3V105.3c0-11.8-9.6-21.3-21.3-21.3H105.3z"/>
	</g>
	<g>
		<g>
			<g>
				<path class="st2" d="M231.9,354.4c-0.6,0-1.3-0.1-1.9-0.3c-2.5-0.8-4.2-3.2-4.2-5.8V297l-70-29.2c-2.2-0.9-3.7-3-3.8-5.4
					c-0.1-2.4,1.2-4.6,3.2-5.7l184.4-98.3c2.1-1.1,4.7-0.9,6.6,0.5c1.9,1.5,2.8,3.9,2.3,6.3L311.6,325c-0.4,1.8-1.6,3.3-3.2,4.1
					c-1.6,0.8-3.5,0.9-5.2,0.2L238,302.1v27.7l7.4-9.8c2-2.7,5.9-3.3,8.6-1.2c2.7,2,3.3,5.9,1.2,8.6l-18.4,24.6
					C235.6,353.5,233.7,354.4,231.9,354.4z M242.2,290.6l59,24.6l32.2-139.5l-161,85.9l57.8,24.1l52.4-58.2c2.3-2.5,6.2-2.7,8.7-0.5
					c2.5,2.3,2.7,6.2,0.5,8.7L242.2,290.6z"/>
			</g>
		</g>
	</g>
</g>
</svg>
