<?xml version="1.0" encoding="utf-8"?>
<!-- Generator: Adobe Illustrator 25.0.0, SVG Export Plug-In . SVG Version: 6.00 Build 0)  -->
<svg version="1.1" id="Layer_1" xmlns="http://www.w3.org/2000/svg" xmlns:xlink="http://www.w3.org/1999/xlink" x="0px" y="0px"
	 viewBox="0 0 512 512" style="enable-background:new 0 0 512 512;" xml:space="preserve">
<style type="text/css">
	.st0{display:none;}
	.st1{display:inline;}
	.st2{fill:#FFFFFF;}
	.st3{fill:#F2F2F2;}
	.st4{fill:#FF4930;}
	.st5{fill:#0090FF;}
	.st6{fill:#FFA131;}
</style>
<g class="st0">
	<g class="st1">
		<path class="st2" d="M425.2,426.9H86.8c-1,0-1.7-0.8-1.7-1.7V86.8c0-1,0.8-1.7,1.7-1.7h338.3c1,0,1.7,0.8,1.7,1.7v338.3
			C426.9,426.1,426.1,426.9,425.2,426.9z"/>
		<path class="st3" d="M402.6,430.4H109.4c-15.3,0-27.8-12.5-27.8-27.8V109.4c0-15.3,12.5-27.8,27.8-27.8h293.2
			c15.3,0,27.8,12.5,27.8,27.8v293.2C430.4,417.9,417.9,430.4,402.6,430.4z M109.4,88.6c-11.4,0-20.8,9.3-20.8,20.8v293.2
			c0,11.4,9.3,20.8,20.8,20.8h293.2c11.4,0,20.8-9.3,20.8-20.8V109.4c0-11.4-9.3-20.8-20.8-20.8H109.4z"/>
	</g>
	<g class="st1">
		<path class="st4" d="M166.2,228.7c9.7,0,18-3.1,25-10.3c7.2-7,10.3-15.3,10.3-25c0-9.7-3.1-18-10.3-25c-7-7.2-15.3-10.3-25-10.3
			c-9.7,0-18,3.1-25,10.3c-7.2,7-10.3,15.3-10.3,25c0,9.7,3.1,18,10.3,25C148.2,225.6,156.5,228.7,166.2,228.7z"/>
		<path class="st4" d="M314.3,181.4l-94.7,123.4L190,266.2l-59.2,76.4v23.8c0,12.3,10,22.3,22.3,22.3h215.3
			c12.3,0,22.3-10,22.3-22.3v-85.1L314.3,181.4z"/>
	</g>
</g>
<g class="st0">
	<g class="st1">
		<path class="st2" d="M425.2,426.9H86.8c-1,0-1.7-0.8-1.7-1.7V86.8c0-1,0.8-1.7,1.7-1.7h338.3c1,0,1.7,0.8,1.7,1.7v338.3
			C426.9,426.1,426.1,426.9,425.2,426.9z"/>
		<path class="st3" d="M402.6,430.4H109.4c-15.3,0-27.8-12.5-27.8-27.8V109.4c0-15.3,12.5-27.8,27.8-27.8h293.2
			c15.3,0,27.8,12.5,27.8,27.8v293.2C430.4,417.9,417.9,430.4,402.6,430.4z M109.4,88.6c-11.4,0-20.8,9.3-20.8,20.8v293.2
			c0,11.4,9.3,20.8,20.8,20.8h293.2c11.4,0,20.8-9.3,20.8-20.8V109.4c0-11.4-9.3-20.8-20.8-20.8H109.4z"/>
	</g>
	<g class="st1">
		<path class="st5" d="M226.3,238c-10.1,1.5-16.2,2.3-18.3,2.3c-7.1,0-10.7-2.5-10.7-7.5c0-4.1,2-7,6-8.5c4-1.6,14-2.8,29.8-3.6
			c5.5-14,10.7-25.3,15.5-33.9c4.8-8.6,9.2-12.8,13.3-12.8c3.3,0,5,0.9,5,2.6c0,2.6-0.4,5.1-1.1,7.2c-0.8,2.2-2.3,5.8-4.7,10.9
			c-2.8,6.1-6.3,14.4-10.5,24.8c16.6-0.6,29.1-0.9,37.7-0.9c8.4-20.4,14.4-33,18-37.8s6.9-7.1,9.6-7.1c4.1,0,6.2,1.5,6.2,4.5
			c0,1.2-1.6,5.1-4.7,11.9c-3.1,6.8-7.1,16.1-11.8,28H320c6.5,0,9.8,2.7,9.8,8.2c0,3.6-1.8,6-5.3,7.3c-3.6,1.3-9.2,1.9-17,1.9h-8
			c-3.3,8.8-7.2,20.9-11.9,36.4c5.9-0.1,13.9-0.2,24.1-0.2c5.7,0,8.5,2.7,8.5,8c0,6.2-4.1,9.3-12.3,9.3c-10.6,0-18.9,0.1-25,0.2
			c-3.7,14-6.5,26.8-8.3,38.4c-0.7,5.1-3.9,7.7-9.4,7.7c-2.8,0-5.1-0.8-6.9-2.5c-1.8-1.7-2.7-3.9-2.7-6.5c0-7.1,2.5-19.3,7.6-36.8
			l-35.7,0.7c-3.8,13.5-6.9,26.1-9.2,37.7c-0.4,2.2-1.8,4-4.2,5.4c-2.5,1.4-4.9,2.1-7.3,2.1c-5.4,0-8.1-2.9-8.1-8.6
			c0-4.4,3-16.3,8.9-35.6l-19.2,1.5c-4.2,0-6.3-3.4-6.3-10.1c0-2.6,1.7-4.7,5.1-6.2c3.4-1.5,12.1-2.4,26.2-2.9
			C219.4,256,223.6,244.1,226.3,238z M281.6,235.8c-16.9,0.3-29.3,0.7-37.1,1.1c-4.3,11.8-8.2,23.9-11.9,36.2l36-0.9
			c3.2-9.8,7.4-21.5,12.5-35.1c0.1-0.1,0.2-0.4,0.2-0.7C281.5,236.2,281.5,236,281.6,235.8z"/>
	</g>
</g>
<g>
	<g>
		<path class="st2" d="M425.2,426.9H86.8c-1,0-1.7-0.8-1.7-1.7V86.8c0-1,0.8-1.7,1.7-1.7h338.3c1,0,1.7,0.8,1.7,1.7v338.3
			C426.9,426.1,426.1,426.9,425.2,426.9z"/>
		<path class="st3" d="M402.6,430.4H109.4c-15.3,0-27.8-12.5-27.8-27.8V109.4c0-15.3,12.5-27.8,27.8-27.8h293.2
			c15.3,0,27.8,12.5,27.8,27.8v293.2C430.4,417.9,417.9,430.4,402.6,430.4z M109.4,88.6c-11.4,0-20.8,9.3-20.8,20.8v293.2
			c0,11.4,9.3,20.8,20.8,20.8h293.2c11.4,0,20.8-9.3,20.8-20.8V109.4c0-11.4-9.3-20.8-20.8-20.8H109.4z"/>
	</g>
	<g>
		<path class="st6" d="M284.3,362.9c-2-0.6-4.1-1-5.9-1.9c-29-14.3-53.7-34-74-59.1c-21.8-26.9-36.3-57.2-44-90.9
			c-2.2-9.8-3.8-19.7-4.5-29.7c-0.3-4,1.1-7.5,4.1-10.3c9.3-8.5,20-14.7,32.1-18.3c5-1.5,9.4,0.6,11.2,5.5
			c5.4,14.4,10.7,28.8,16,43.2c1.7,4.6,1,8.8-1.8,12.7c-3.6,4.9-7.1,9.8-10.7,14.7c-0.6,0.7-0.7,1.3-0.3,2.2
			c10.1,24.9,24.9,46.6,44.4,65.1c0.9,0.8,1.6,0.9,2.7,0.6c5.7-1.6,11.5-3,17.2-4.6c4.8-1.3,9-0.2,12.8,3.1
			c8.1,7.2,16.2,14.4,24.3,21.6c3.3,2.9,6.6,5.9,9.9,8.8c3.7,3.3,4.2,8.3,1.1,12.2c-7.8,10-17.3,17.8-28.7,23.3
			C288.5,362,286.4,362.3,284.3,362.9z"/>
		<path class="st6" d="M333.6,249.2c-2.9,0-5.2-1.8-5.7-4.7c-1-6.1-2.3-12.2-4.4-18c-7.5-20.7-20.8-36.5-39.9-47.5
			c-1.5-0.9-2.8-1.9-3.4-3.6c-0.8-2.3-0.1-4.8,1.7-6.4c1.9-1.6,4.5-2,6.7-0.6c5.2,3.4,10.7,6.6,15.5,10.6
			c18.4,15.2,29.7,34.8,34.4,58.2c0.4,1.7,0.6,3.5,0.8,5.3C339.9,246,337.2,249.2,333.6,249.2z"/>
		<path class="st6" d="M266,203.3c1.2,0.5,2.3,0.7,3.2,1.3c15.3,8.9,24.9,22,28.7,39.3c0.3,1.5,0.6,3,0.7,4.5c0.3,3-1.9,5.8-4.9,6.2
			c-3,0.5-6-1.4-6.5-4.4c-0.9-5-2.1-9.9-4.3-14.6c-4.4-9-10.9-16-19.6-21c-4.1-2.3-4.5-7.4-0.8-9.9C263.5,204,264.8,203.7,266,203.3
			z"/>
	</g>
</g>
</svg>
