<?xml version="1.0" encoding="utf-8"?>
<!-- Generator: Adobe Illustrator 25.0.0, SVG Export Plug-In . SVG Version: 6.00 Build 0)  -->
<svg version="1.1" id="Layer_1" xmlns="http://www.w3.org/2000/svg" xmlns:xlink="http://www.w3.org/1999/xlink" x="0px" y="0px"
	 viewBox="0 0 512 512" style="enable-background:new 0 0 512 512;" xml:space="preserve">
<style type="text/css">
	.st0{fill:#FFFFFF;}
	.st1{fill:#F2F2F2;}
	.st2{fill:#FF4930;}
</style>
<g>
	<g>
		<path class="st0" d="M425.2,426.9H86.8c-1,0-1.7-0.8-1.7-1.7V86.8c0-1,0.8-1.7,1.7-1.7h338.3c1,0,1.7,0.8,1.7,1.7v338.3
			C426.9,426.1,426.1,426.9,425.2,426.9z"/>
		<path class="st1" d="M402.6,430.4H109.4c-15.3,0-27.8-12.5-27.8-27.8V109.4c0-15.3,12.5-27.8,27.8-27.8h293.2
			c15.3,0,27.8,12.5,27.8,27.8v293.2C430.4,417.9,417.9,430.4,402.6,430.4z M109.4,88.6c-11.4,0-20.8,9.3-20.8,20.8v293.2
			c0,11.4,9.3,20.8,20.8,20.8h293.2c11.4,0,20.8-9.3,20.8-20.8V109.4c0-11.4-9.3-20.8-20.8-20.8H109.4z"/>
	</g>
	<g>
		<path class="st2" d="M166.2,228.7c9.7,0,18-3.1,25-10.3c7.2-7,10.3-15.3,10.3-25c0-9.7-3.1-18-10.3-25c-7-7.2-15.3-10.3-25-10.3
			c-9.7,0-18,3.1-25,10.3c-7.2,7-10.3,15.3-10.3,25c0,9.7,3.1,18,10.3,25C148.2,225.6,156.5,228.7,166.2,228.7z"/>
		<path class="st2" d="M314.3,181.4l-94.7,123.4L190,266.2l-59.2,76.4v23.8c0,12.3,10,22.3,22.3,22.3h215.3
			c12.3,0,22.3-10,22.3-22.3v-85.1L314.3,181.4z"/>
	</g>
</g>
</svg>
