<?xml version="1.0" encoding="utf-8"?>
<!-- Generator: Adobe Illustrator 25.0.0, SVG Export Plug-In . SVG Version: 6.00 Build 0)  -->
<svg version="1.1" id="Layer_1" xmlns="http://www.w3.org/2000/svg" xmlns:xlink="http://www.w3.org/1999/xlink" x="0px" y="0px"
	 viewBox="0 0 512 512" style="enable-background:new 0 0 512 512;" xml:space="preserve">
<style type="text/css">
	.st0{fill-rule:evenodd;clip-rule:evenodd;fill:#D1D3D4;}
	.st1{fill-rule:evenodd;clip-rule:evenodd;fill:#FFFFFF;}
	.st2{fill:#D30024;}
</style>
<g>
	<g id="XMLID_24_">
		<circle class="st0" cx="269.95" cy="270.95" r="239.64"/>
	</g>
	<g id="XMLID_23_">
		<circle class="st1" cx="240.05" cy="241.05" r="239.64"/>
	</g>
	<circle class="st2" cx="240.43" cy="240.02" r="194.61"/>
	<g id="XMLID_16_">
		<path class="st1" d="M188.49,124.08h107.06c34.4,0,62.67,28.26,62.67,62.67v106.47c0,34.4-28.26,62.67-62.67,62.67H188.49
			c-34.4,0-62.67-28.26-62.67-62.67V186.75C125.82,152.42,154.08,124.08,188.49,124.08L188.49,124.08z M304.42,164.63L304.42,164.63
			c7.18,0,13.32,6.07,13.32,13.32l0,0c0,7.18-6.07,13.32-13.32,13.32l0,0c-7.77,0-13.32-6.07-13.32-13.32l0,0
			C291.11,170.69,296.65,164.63,304.42,164.63L304.42,164.63z M241.76,176.76h0.52c34.4,0,63.26,28.85,63.26,63.26l0,0
			c0,34.92-28.85,63.26-63.26,63.26h-0.52c-34.4,0-62.67-28.26-62.67-63.26l0,0C179.09,205.62,207.35,176.76,241.76,176.76
			L241.76,176.76z M241.76,198.44h0.52c22.71,0,41.58,18.87,41.58,41.58l0,0c0,23.31-18.87,42.17-41.58,42.17h-0.52
			c-22.71,0-41.58-18.87-41.58-42.17l0,0C200.18,217.3,218.97,198.44,241.76,198.44L241.76,198.44z M189.08,144.06h105.95
			c23.82,0,43.28,19.38,43.28,43.28V292.7c0,23.82-19.38,43.28-43.28,43.28H189.08c-23.82,0-43.28-19.38-43.28-43.28V187.34
			C145.8,163.52,165.18,144.06,189.08,144.06L189.08,144.06z"/>
	</g>
</g>
</svg>
