<?xml version="1.0" encoding="utf-8"?>
<!-- Generator: Adobe Illustrator 25.0.0, SVG Export Plug-In . SVG Version: 6.00 Build 0)  -->
<svg version="1.1" id="Layer_1" xmlns="http://www.w3.org/2000/svg" xmlns:xlink="http://www.w3.org/1999/xlink" x="0px" y="0px"
	 viewBox="0 0 512 512" style="enable-background:new 0 0 512 512;" xml:space="preserve">
<style type="text/css">
	.st0{fill-rule:evenodd;clip-rule:evenodd;fill:#D1D3D4;}
	.st1{fill-rule:evenodd;clip-rule:evenodd;fill:#FFFFFF;}
	.st2{fill-rule:evenodd;clip-rule:evenodd;fill:#FE0000;}
</style>
<g>
	<g id="XMLID_10_">
		<circle class="st0" cx="270.95" cy="270.95" r="239.64"/>
	</g>
	<g id="XMLID_9_">
		<circle class="st1" cx="241.05" cy="241.05" r="239.64"/>
	</g>
	<g id="XMLID_7_">
		<path class="st2" d="M241.42,43.66c109.28,0,197.77,88.49,197.77,197.77c0,109.28-88.49,197.77-197.77,197.77
			S43.66,350.7,43.66,241.42S132.15,43.66,241.42,43.66L241.42,43.66z"/>
	</g>
	<g id="XMLID_3_">
		<g id="XMLID_6_">
			<path class="st1" d="M162.11,152.64c25.82-2.07,56.3-3.11,79.61-3.11l0,0l0,0c23.23,0,53.27,1.04,79.61,3.11
				c30.48,2.59,46.02,7.77,50.16,38.25c2.07,13.98,3.11,33.07,3.11,52.75l0,0c0,19.61-1.04,39.29-3.11,52.75
				c-4.14,31-19.61,35.66-50.16,38.25c-26.34,2.59-56.3,3.11-79.61,3.11l0,0l0,0c-23.23,0-53.79-0.52-79.61-3.11
				c-30.48-2.59-46.54-7.25-50.68-38.25c-1.55-13.47-2.59-33.07-2.59-52.75l0,0c0-19.61,1.04-38.77,2.59-52.75
				C115.57,160.41,131.63,155.23,162.11,152.64L162.11,152.64z"/>
		</g>
		<g id="XMLID_5_">
			<polygon class="st2" points="214.86,203.84 284.11,243.64 214.86,283.97 			"/>
		</g>
	</g>
</g>
</svg>
