<?xml version="1.0" encoding="utf-8"?>
<!-- Generator: Adobe Illustrator 25.0.0, SVG Export Plug-In . SVG Version: 6.00 Build 0)  -->
<svg version="1.1" id="Layer_1" xmlns="http://www.w3.org/2000/svg" xmlns:xlink="http://www.w3.org/1999/xlink" x="0px" y="0px"
	 viewBox="0 0 512 512" style="enable-background:new 0 0 512 512;" xml:space="preserve">
<style type="text/css">
	.st0{fill:#234261;}
	.st1{fill:#FFFFFF;}
	.st2{fill:#05AFFE;}
</style>
<g>
	<path class="st0" d="M507.35,256.12c0,69.44-28.13,132.17-73.46,177.5c-45.32,45.55-108.28,73.68-177.5,73.68
		c-57.16,0-110.29-19.2-152.49-51.8c-0.22-0.22-0.45-0.22-0.67-0.45c-0.22,0-0.22-0.22-0.45-0.45c-0.22,0-0.45-0.22-0.67-0.45
		c-4.69-3.57-9.15-7.59-13.62-11.61c-4.24-3.8-8.26-7.81-12.28-11.83v-0.22c-0.22-0.22-0.22-0.22-0.45-0.22v-0.22
		c-2.46-2.23-4.47-4.46-6.48-6.7c-0.22-0.22-0.45-0.45-0.67-0.67C29.33,378.47,5.44,320.2,5.44,256.12
		c0-69.21,28.13-131.95,73.46-177.5C124.22,33.3,187.19,5.17,256.4,5.17c69.21,0,132.18,28.13,177.5,73.45
		C479.22,124.17,507.35,186.91,507.35,256.12z"/>
	<g>
		<g>
			<path class="st1" d="M336.92,284.1l47.76,151.87l-110.19-78.71l0.32-0.39l31.8-54.22L128.96,435.07l11.83-41.43
				C192.03,321,310.49,230.46,310.49,230.46c-100.24,2.26-164.99,32.96-164.99,32.96l-96.62-72.19H205.6l50.73-151.48l49.12,151.48
				l158.46,0.39L336.92,284.1z"/>
		</g>
		<path class="st2" d="M128.72,435.97c0,0,51.24-90.45,181.79-205.48c0,0-116.45,41.57-165.41,114.19L128.72,435.97z"/>
	</g>
</g>
</svg>
