<?xml version="1.0" encoding="utf-8"?>
<!-- Generator: Adobe Illustrator 25.0.0, SVG Export Plug-In . SVG Version: 6.00 Build 0)  -->
<svg version="1.1" id="Layer_1" xmlns="http://www.w3.org/2000/svg" xmlns:xlink="http://www.w3.org/1999/xlink" x="0px" y="0px"
	 viewBox="0 0 512 512" style="enable-background:new 0 0 512 512;" xml:space="preserve">
<style type="text/css">
	.st0{fill:#464849;}
	.st1{fill:#0084FF;}
</style>
<g>
	<path class="st0" d="M418.1,154.1c0-3.1,0-6.2,0-9.4c0-1.6-0.2-3.3-0.2-5H94.1c-0.1,1.6-0.2,2.9-0.2,4.2c0,102.8,0,205.6,0,308.4
		c0,12.6,8.8,21.8,21.5,21.8c66.4,0.1,132.7,0.1,199.1-0.1c0.7,0,1.4-0.2,2.2-0.5c0,0,0,0,0,0h82.1c10.7,0,19.4-8.7,19.4-19.4V171.3
		C418.1,165.6,418.1,159.8,418.1,154.1z M402.7,454.2c0,2.2-1.8,4-4,4h-85.4l-1.2,0.5c-36.8,0.1-73.8,0.1-110.2,0.1
		c-28.8,0-58,0-86.6-0.1c-4.1,0-6.1-2.2-6.1-6.4c0-81.8,0-163.6,0-245.4v-51.8h293.5c0,5.4,0,10.8,0,16.2V454.2z"/>
	<g>
		<path class="st1" d="M93.8,123.4c0-17.9,0-35.5,0-53.1c0-3.6,0-7.2,0-10.8c0.1-12.5,9.3-21.7,21.7-21.7c93.7,0,187.4,0,281.1,0
			c11.4,0,21.2,8.8,21.3,20c0.4,21.7,0.1,43.4,0.1,65.6C310.1,123.4,202.3,123.4,93.8,123.4z M348.8,91.2
			C348.8,91.2,348.8,91.2,348.8,91.2c12.8,0,25.6,0,38.4,0c5.4,0,7.3-2,7.4-7.4c0.1-6.7,0.1-13.3,0-20c-0.1-5.4-2-7.4-7.5-7.4
			c-25.4-0.1-50.9-0.1-76.3,0c-5.2,0-7.4,2.3-7.5,7.5c-0.1,6,0,12,0,17.9c0,7.8,1.5,9.4,9.1,9.4C324.6,91.2,336.7,91.2,348.8,91.2z
			 M156,91.2C156,91.2,156,91.2,156,91.2c10.9,0,21.8-0.2,32.8,0.1c4.8,0.1,5.9-1.9,5.6-6.1c-0.3-3.7,0.8-7.5-5.3-7.5
			c-22.2,0.3-44.4,0.3-66.5,0c-5.3-0.1-5.3,2.7-5.2,6.5c0.2,3.4-1.1,7.3,4.9,7.1C133.4,90.9,144.7,91.2,156,91.2z M252.4,91.2
			c9.9,0,17.4-7.7,17.3-17.6c-0.1-9.5-7.9-17.2-17.3-17.2c-9.7,0-17.5,8-17.3,17.7C235.1,83.7,242.7,91.2,252.4,91.2z"/>
		<path class="st0" d="M256.1,187.4c62.4,0.1,112,50.1,111.9,112.8c0,61.8-50.7,111.4-113.6,111.2c-58.5-0.2-109.4-47.8-110.6-109.5
			C142.5,235.9,196.7,186.5,256.1,187.4z M357.7,299.2c0.3-55.6-44.9-101.1-101.1-101.6c-56.3-0.5-102,44.7-102.6,101.4
			c-0.6,55.7,45,101.6,101.3,102.2C312.3,401.8,358.5,354.5,357.7,299.2z"/>
		<path class="st1" d="M166.4,296.3c5.7,5.2,11.3,10.7,17.2,15.7c8.6,7.4,18.1,13.4,29,16.9c18,5.7,34,0.5,49.2-9
			c10.4-6.5,20.4-13.7,31-19.9c16.5-9.8,33.2-10.2,49.9,0.2c2.8,1.7,3.6,3.3,3.4,6.5c-2.9,39.2-32.1,74.7-74.7,81.9
			c-47.3,8-91.3-20.8-103-66.9c-2-8.1-2.4-16.6-3.5-24.9C165.4,296.5,165.9,296.4,166.4,296.3z"/>
	</g>
</g>
</svg>
