<?xml version="1.0" encoding="utf-8"?>
<!-- Generator: Adobe Illustrator 25.0.0, SVG Export Plug-In . SVG Version: 6.00 Build 0)  -->
<svg version="1.1" id="Layer_1" xmlns="http://www.w3.org/2000/svg" xmlns:xlink="http://www.w3.org/1999/xlink" x="0px" y="0px"
	 viewBox="0 0 512 512" style="enable-background:new 0 0 512 512;" xml:space="preserve">
<style type="text/css">
	.st0{fill:#464849;}
	.st1{fill:#0084FF;}
</style>
<g>
	<path class="st0" d="M381.9,141c0,0.1-0.1,0.1-0.1,0.2c-3.1,5.3-10,7.1-15.4,4c-8.2-4.9-16.3-9.7-24.8-13.6
		c-34.3-15.9-70.3-25.7-108.4-26.3c-42.3-0.6-75.8,16.7-102,49.4c-13.6,17.1-24.1,36-32.7,56c-12.5,29.1-25.1,58.3-31.6,89.5
		c-4.5,21.4-6.1,43.2,2.8,63.5C81.9,392,101,414.1,133,420.9c24.4,5.1,45.2-6,54.1-29.3c4.8-12.6,7.5-26,11.5-38.9
		c2.7-8.7,5.5-17.3,9.1-25.6c12.4-28.3,34.8-40.3,66.3-39.8c3.1,0.1,6.1,0.3,9.2,0.6c6.3,0.7,10.6,6.5,9.6,12.7l0,0.2
		c-0.9,5.5-5.9,9.5-11.5,9.1c-1.6-0.1-3.2-0.2-4.8-0.3c-24.4-0.7-40.1,9-49.2,31.7c-4.3,10.7-6.8,22.2-10.6,33.2
		c-3.5,10.4-6.9,20.9-11.5,30.8c-18.8,41.1-59.5,46.8-90.4,34.8c-20.4-7.9-35.6-22.5-49.5-38.9c-22.8-27-27.6-58.4-23.4-92.1
		c4.2-33.6,17.1-64.5,30.6-95.2c9.1-20.7,19.2-41,31.4-60.1c30.4-47.4,74.1-70.4,130.1-70.7c39.8-0.2,77.3,9.9,113.3,26.3
		c10.4,4.7,20.3,10.4,30.5,16.2C383.2,128.7,385.1,135.6,381.9,141z"/>
	<path class="st0" d="M443.4,56.4c1.5-2.5,4.9-3.3,7.3-1.6c1.1,0.8,2.1,1.5,2.9,2.5c1,1.1,1,3.8,0.4,5.3c-7.8,20-15.8,40-23.7,60
		c-24.3,61.6-48.5,123.3-72.6,185c-7.3,18.7-18.8,35-29.1,52c-9.1,14.9-14.3,11.4-25.4,4.4c-1.6-1-3.3-1.9-5-2.7
		c-6-2.9-8.7-8-7.6-14.1c2.7-14.9,5.5-29.8,9.1-44.4c1.7-6.8,4.9-13.5,8.5-19.6c33.5-56.4,67.3-112.7,101-169.1
		C420.7,94.8,432,75.6,443.4,56.4C443.4,56.4,443.4,56.4,443.4,56.4z"/>
	<path class="st0" d="M456.2,303.4c-20.1,28.5-48.1,39.5-82.2,36.4c-0.1,0-0.1,0-0.2,0c-0.6-0.1-1.2-0.1-1.7-0.3
		c-0.2-0.1-0.5-0.1-0.7-0.2c-5.6-1.6-7.7-7-7.8-7.3l0,0v0c-2.6-8.3,2.9-12,7-13.6c0,0,0,0,0.1,0c0.3-0.1,0.6-0.2,0.9-0.3
		c0,0,0,0,0,0c1-0.3,2.8-0.6,5.8-0.5h0.1c0.8,0,1.7,0.1,2.5,0.1c0,0,0.1,0,0.2,0c0.4,0,0.8,0,1.2,0.1c0.1,0,0.1,0,0.2,0
		c4.5,0.2,8.9,0.3,13.3-0.1c24.8-1.9,39.4-17.6,48.7-39.1c8.9-20.7,6-41.1-2.3-61.3c-4.5-10.9-10.8-20.8-18.5-29.6c0,0,0,0,0,0
		c-0.5-0.5-0.9-1-1.4-1.5c0,0-0.1-0.1-0.1-0.1c-0.2-0.3-0.5-0.5-0.7-0.8c-4.9-6-1.3-13.1-1-13.6c0,0,0,0,0,0
		c4.1-6.2,13.1-7.2,18.4-1.5c17.6,19.5,29.5,41.9,32.8,69.1C473.4,262.2,469.8,284,456.2,303.4z"/>
	<path class="st1" d="M221.1,453.2c1-0.9,1.6-1.6,2.4-2.1c20.2-14.8,33.4-34.3,39.4-58.6c2.8-11.1,9.3-18.8,20.7-21.6
		c19.7-4.8,36.8,12.5,32.4,32.4C306.9,444.8,261.6,469,221.1,453.2z"/>
	<path class="st1" d="M126.7,251.3c0.2-15.6,12.9-28,28.6-27.8c15.6,0.2,28,12.9,27.9,28.6c-0.2,15.5-13,28-28.6,27.9
		C139,279.8,126.5,267,126.7,251.3z"/>
	<path class="st1" d="M155.4,345.5c0,15.6-12.6,28.2-28.3,28.2c-15.6,0-28.2-12.6-28.2-28.3c0-15.6,12.6-28.2,28.3-28.2
		C142.8,317.2,155.4,329.8,155.4,345.5z"/>
	<path class="st1" d="M329.2,170.8c0,15.7-12.6,28.2-28.3,28.2c-15.6,0-28.2-12.6-28.2-28.3c0-15.6,12.7-28.2,28.3-28.2
		C316.6,142.5,329.2,155.2,329.2,170.8z"/>
	<path class="st1" d="M237.8,170.7c0.1,15.6-12.7,28.4-28.2,28.4c-15.5,0-28.3-12.8-28.3-28.4c0-15.6,12.8-28.2,28.5-28.1
		C225.2,142.7,237.7,155.2,237.8,170.7z"/>
</g>
<path class="st0" d="M330,105.1c-0.5-0.5-1-1.1-1.4-1.6C329.2,104.1,329.6,104.6,330,105.1z"/>
<path class="st0" d="M286.8,240.8c-0.4,0-0.8,0-1.3-0.1C286,240.7,286.4,240.8,286.8,240.8z"/>
</svg>
