<?xml version="1.0" encoding="utf-8"?>
<!-- Generator: Adobe Illustrator 25.0.0, SVG Export Plug-In . SVG Version: 6.00 Build 0)  -->
<svg version="1.1" id="Layer_1" xmlns="http://www.w3.org/2000/svg" xmlns:xlink="http://www.w3.org/1999/xlink" x="0px" y="0px"
	 viewBox="0 0 512 512" style="enable-background:new 0 0 512 512;" xml:space="preserve">
<style type="text/css">
	.st0{fill:none;}
	.st1{fill:#464849;}
	.st2{fill:#0084FF;}
</style>
<g>
	<g>
		<g>
			<path class="st0" d="M355,279.7c-0.4,3.7-0.5,7.2-1,10.9c-1.2,9.7-3.5,19.3-8.4,27.8c-2.2,3.8-5.1,7.3-8.3,10.6
				c-1.8,2-4.6,2.9-7.5,3c-0.4,0.1-0.9,0.1-1.3,0.1c0.3-0.5,0.4-1,0.4-1.7v-5.8c0-3.3-2.6-5.8-5.9-5.8H188.6c-3.1,0-5.8,2.5-5.8,5.8
				v5.8c0,0.3,0,0.7,0.1,0.9c-0.1,0-0.3-0.1-0.4-0.1c-1.2-0.4-2.4-0.9-3.4-1.7c-1.2-0.8-2.5-1.7-3.5-2.9
				c-12.5-13.1-17.2-29.2-18.5-46.9h25.4c0.1,0,0.3,0,0.3,0v3.7c0,3.3,2.6,5.9,5.8,5.9H323c3.3,0,5.9-2.6,5.9-5.9v-3.7H355z"/>
			<path class="st0" d="M436.6,309.6c-14.1-0.1-28.2-0.1-42.3,0c-1,0-2.3,0.7-3,1.5c-3.2,3.9-6.2,7.9-9.3,11.8
				c-5.5,7-10.9,14.1-16.6,21.4c0.7,0.1,0.9,0.2,1.2,0.2c17,0,34,0,50.9,0c0.6,0,1.2,0,1.7-0.2c5.2-2.5,10.7-4.4,15.3-7.6
				c9.1-6.2,10.7-16.2,4.9-25.5C438.9,310.4,437.5,309.6,436.6,309.6z"/>
			<path class="st0" d="M118.1,309.5c-14.3,0-28.5,0-42.8,0c-0.7,0-1.7,0.3-2.1,0.9c-4.4,6.6-6,15.6,0.5,22.9
				c3.6,4.1,8.3,6.6,13.2,8.8c3.9,1.7,7.8,2.6,12.1,2.5c13-0.2,26.1-0.1,39.1-0.1c1.6,0,3.2,0,5.4,0c-8-11.7-15.7-22.9-23.4-34.1
				C119.8,309.9,118.8,309.5,118.1,309.5z"/>
			<path class="st0" d="M400.9,193.4c-16.2-15.7-32.3-31.5-48.7-47c-5.9-5.5-13.2-8.6-21.4-8.6c-49.9-0.1-99.7-0.1-149.6,0
				c-8.4,0-15.8,3.2-21.8,8.9c-16.1,15.3-32,30.9-47.9,46.3c-0.6,0.5-1.1,1.1-1.9,2c97.7,0,195,0,292.9,0
				C401.7,194.2,401.3,193.8,400.9,193.4z"/>
			<path class="st0" d="M137.1,263.5c-13.9-14-30-24.5-48.2-31.9c-2.4-1-5.3-1.6-7.9-1.5c-12.2,0.5-21.9,10.4-22.7,22.9
				c-0.8,12.2,7.4,23.3,19.1,25.6c2.7,0.5,5.5,0.5,8.3,0.7c12.1,1,24.2,2.1,36.2,3.1c0-0.1,0-0.2,0-0.4c0.6,0,1.2,0.1,1.7,0
				c5.2-0.7,10.5-0.9,15.5-2.2c4.4-1.1,5.6-4.7,3.5-8.7C141.1,268.5,139.3,265.7,137.1,263.5z"/>
			<path class="st0" d="M451.6,244.2c-5.8-12.8-18.8-17.4-32-10.9c-15.2,7.5-28.6,17.5-40.1,30c-2.2,2.4-4.1,5.1-5.7,8
				c-3,5.5-1.3,9.3,4.7,10.7c4,0.9,8.2,1.1,10.9,1.4c5.3-0.4,9.1-0.5,12.8-0.9c8.7-1,17.4-2,26.1-3.2c3.6-0.5,7.4-1,10.7-2.4
				C451.9,271.4,457.3,256.8,451.6,244.2z"/>
			<path class="st1" d="M54.5,374.3c0.2,12.1,9.5,22.1,21.6,22.5c10.6,0.3,21.2,0.3,31.7,0c10.6-0.3,19.5-8.4,21.2-18.9
				c0.5-2.9,0.4-6,0.6-9H54.5C54.5,370.7,54.5,372.5,54.5,374.3z"/>
			<path class="st1" d="M382.6,368.9c0,1.6,0,3.1,0,4.6c0,13.1,9.7,23.2,22.8,23.4c9.8,0.2,19.5,0.2,29.3,0
				c13.1-0.2,22.8-10.2,22.9-23.3c0-1.6,0-3.1,0-4.7H382.6z"/>
		</g>
		<g>
			<path class="st0" d="M137.1,263.5c-13.9-14-30-24.5-48.2-31.9c-2.4-1-5.3-1.6-7.9-1.5c-12.2,0.5-21.9,10.4-22.7,22.9
				c-0.8,12.2,7.4,23.3,19.1,25.6c2.7,0.5,5.5,0.5,8.3,0.7c12.1,1,24.2,2.1,36.2,3.1c0-0.1,0-0.2,0-0.4c0.6,0,1.2,0.1,1.7,0
				c5.2-0.7,10.5-0.9,15.5-2.2c4.4-1.1,5.6-4.7,3.5-8.7C141.1,268.5,139.3,265.7,137.1,263.5z"/>
			<path class="st0" d="M118.1,309.5c-14.3,0-28.5,0-42.8,0c-0.7,0-1.7,0.3-2.1,0.9c-4.4,6.6-6,15.6,0.5,22.9
				c3.6,4.1,8.3,6.6,13.2,8.8c3.9,1.7,7.8,2.6,12.1,2.5c13-0.2,26.1-0.1,39.1-0.1c1.6,0,3.2,0,5.4,0c-8-11.7-15.7-22.9-23.4-34.1
				C119.8,309.9,118.8,309.5,118.1,309.5z"/>
			<path class="st0" d="M355,279.7c-0.4,3.7-0.5,7.2-1,10.9c-1.2,9.7-3.5,19.3-8.4,27.8c-2.2,3.8-5.1,7.3-8.3,10.6
				c-1.8,2-4.6,2.9-7.5,3c-0.4,0.1-0.9,0.1-1.3,0.1c0.3-0.5,0.4-1,0.4-1.7v-5.8c0-3.3-2.6-5.8-5.9-5.8H188.6c-3.1,0-5.8,2.5-5.8,5.8
				v5.8c0,0.3,0,0.7,0.1,0.9c-0.1,0-0.3-0.1-0.4-0.1c-1.2-0.4-2.4-0.9-3.4-1.7c-1.2-0.8-2.5-1.7-3.5-2.9
				c-12.5-13.1-17.2-29.2-18.5-46.9h25.4c0.1,0,0.3,0,0.3,0v3.7c0,3.3,2.6,5.9,5.8,5.9H323c3.3,0,5.9-2.6,5.9-5.9v-3.7H355z"/>
			<path class="st0" d="M419.6,233.3c-15.2,7.5-28.6,17.5-40.1,30c-2.2,2.4-4.1,5.1-5.7,8c-3,5.5-1.3,9.3,4.7,10.7
				c4,0.9,8.2,1.1,10.9,1.4c5.3-0.4,9.1-0.5,12.8-0.9c8.7-1,17.4-2,26.1-3.2c3.6-0.5,7.4-1,10.7-2.4c12.8-5.5,18.3-20.1,12.5-32.7
				C445.8,231.4,432.8,226.8,419.6,233.3z"/>
			<path class="st0" d="M436.6,309.6c-14.1-0.1-28.2-0.1-42.3,0c-1,0-2.3,0.7-3,1.5c-3.2,3.9-6.2,7.9-9.3,11.8
				c-5.5,7-10.9,14.1-16.6,21.4c0.7,0.1,0.9,0.2,1.2,0.2c17,0,34,0,50.9,0c0.6,0,1.2,0,1.7-0.2c5.2-2.5,10.7-4.4,15.3-7.6
				c9.1-6.2,10.7-16.2,4.9-25.5C438.9,310.4,437.5,309.6,436.6,309.6z"/>
			<path class="st2" d="M471.4,264.4c-0.4-22.3-8.9-41.3-24.3-57.2c-5.2-5.5-10.9-10.6-16.4-15.7c-0.5-0.5-1.3-0.9-2-1.3l-26.3,4.9
				H109.6L83,189.7c-0.3,0.3-0.4,0.5-0.7,0.8c-5.4,5.2-10.9,10.4-16.3,15.7c-15.9,15.9-24.8,35-25.3,57.4
				c-0.4,18.1-0.1,36.2-0.1,54.1c0,12.7,4.2,23.7,12.3,33.4c0.9,1,1.4,2.8,1.4,4.2c0.1,4.5,0.1,9,0.1,13.5h403.1c0-4.7-0.1-9.3,0-14
				c0-1,0.4-2.5,1.2-3.3c8.5-10,12.7-21.6,12.6-34.7C471.2,299.3,471.6,281.8,471.4,264.4z M353.9,290.6c-1.2,9.7-3.5,19.3-8.4,27.8
				c-2.2,3.8-5.1,7.3-8.3,10.6c-1.8,2-4.6,2.9-7.5,3c-0.4,0.1-0.9,0.1-1.3,0.1c-0.7,2.4-2.9,4.1-5.5,4.1H188.6
				c-2.9,0-5.2-2.1-5.6-4.9c-0.1,0-0.3-0.1-0.4-0.1c-1.2-0.4-2.4-0.9-3.4-1.7c-1.2-0.8-2.5-1.7-3.5-2.9
				c-12.5-13.1-17.2-29.2-18.5-46.9h25.4c0.1,0,0.3,0,0.3,0v-2.1c0-3.1,2.6-5.8,5.8-5.8H323c3.3,0,5.9,2.6,5.9,5.8v2.1H355
				C354.6,283.4,354.4,286.9,353.9,290.6z M138.1,344.5c-13.1,0-26.1,0-39.2,0.1c-4.2,0.1-8.1-0.8-12.1-2.5c-5-2.2-9.6-4.7-13.2-8.8
				c-6.4-7.3-4.9-16.4-0.5-22.9c0.4-0.5,1.4-0.9,2.1-0.9h42.9c0.7,0,1.7,0.4,2.1,0.9c7.7,11.1,15.3,22.4,23.3,34.1H138.1z
				 M139.1,280c-5,1.3-10.2,1.6-15.5,2.2h-1.7c0,0.1,0,0.1,0,0.3c-2.1-0.3-4.3-0.4-6.4-0.5l-0.8-0.1c-9.7-0.8-19.4-1.7-29.1-2.5
				c-2.8-0.1-5.5-0.1-8.3-0.7c-11.8-2.4-19.9-13.5-19.1-25.7c0.9-12.5,10.5-22.4,22.8-22.9c2.6,0,5.4,0.5,7.9,1.6
				c18.2,7.3,34.3,18,48.2,31.9c2.2,2.2,4.1,5,5.5,7.9C144.7,275.3,143.5,278.8,139.1,280z M434.5,336.7c-4.7,3.1-10.2,5.1-15.3,7.6
				c-0.5,0.3-1.2,0.3-1.7,0.3c-17,0-34,0-51-0.1c-0.3,0-0.4,0-1.2-0.1c5.8-7.3,11.3-14.4,16.6-21.4c3.1-4.1,6.2-8,9.3-11.9
				c0.7-0.8,2-1.4,3-1.4c14-0.1,28.2-0.1,42.3,0c0.9,0,2.2,0.8,2.8,1.7C445.2,320.5,443.6,330.5,434.5,336.7z M439.1,277
				c-3.4,1.3-7.1,1.8-10.7,2.4c-8.7,1.2-17.4,2.2-26.1,3.1c-3.8,0.4-7.5,0.5-12.8,0.9c-2.6-0.4-6.8-0.5-10.9-1.4
				c-6-1.3-7.6-5.2-4.7-10.6c1.6-2.9,3.4-5.6,5.6-8c11.5-12.6,24.9-22.5,40.1-30c13.2-6.4,26.2-1.8,32,10.9
				C457.3,256.8,451.8,271.5,439.1,277z"/>
		</g>
		<g>
			<path class="st2" d="M106.9,162.9c-0.7-7-4.2-12.1-10.3-13.5c-9.2-2.1-18.2-1.2-26.4,3.7c-6,3.5-8.2,9.2-7.3,16
				c1.2,8.9,6.6,14.8,14.5,18.5c1.8,0.8,3.6,1.4,5.6,2.1l26.7,5.4l-2.4-28.7C107.1,164.8,107,163.8,106.9,162.9z"/>
			<path class="st2" d="M85.8,179.5l-1.2-0.4c-0.9-0.3-1.9-0.6-2.7-1c-6.7-3.2-8.1-7.1-8.6-10.4c-0.5-3.6,0.7-4.6,2.2-5.5
				c3.7-2.2,7.7-3.3,12-3.3c2.1,0,4.4,0.3,6.7,0.8c1.2,0.3,2,1.7,2.2,4.3l0.3,3.4L98,182L85.8,179.5z"/>
			<path class="st2" d="M439.8,151.5c-5.8-2.6-12-3.4-18.3-3.1c-10.6,0.5-15.4,5.2-16.4,15.7c-0.1,0.6-0.2,1.1-0.4,2l-2.2,28.9
				l26.3-4.9c1.1-0.9,1.7-1.1,2.3-1.3c7.1-2.3,13.1-6.2,16.8-12.8C453.6,166.2,450.3,156.1,439.8,151.5z"/>
			<path class="st1" d="M402.4,164.1c-11.9-11.4-23.7-23-35.6-34.3c-10.1-9.6-22.2-14.7-36.2-14.7c-49.7-0.1-99.4-0.1-149.1,0
				c-13.9,0-26,5.1-36,14.6c-12.1,11.4-24,23.1-36,34.7c-0.6,0.6-1.2,1.1-2.2,2l2.4,28.7c0.8-0.8,1.3-1.4,1.9-2
				c16-15.5,31.8-31,47.9-46.3c6-5.7,13.4-8.9,21.8-8.9c49.9-0.1,99.7-0.1,149.6,0c8.2,0,15.6,3.1,21.4,8.6
				c16.4,15.5,32.5,31.3,48.7,47c0.4,0.4,0.8,0.8,1.6,1.6l2.2-28.9C403.7,165.3,403.1,164.7,402.4,164.1z"/>
		</g>
		<polygon class="st2" points="121.9,282.2 108.8,281.5 127,288.8 		"/>
	</g>
	<path class="st2" d="M194.6,289.3v29.6h89.3v-29.6H194.6z M152.7,269.1v71.6h206.2v-71.6H152.7z M182.9,277.6
		c0-3.1,2.6-5.8,5.8-5.8H323c3.3,0,5.9,2.6,5.9,5.8v5.8c0,3.3-2.6,5.9-5.9,5.9H188.6c-3.1,0-5.8-2.6-5.8-5.9V277.6z M323,336.2
		H188.6c-2.9,0-5.2-2.1-5.6-4.9c-0.1-0.3-0.1-0.7-0.1-0.9v-5.8c0-3.3,2.6-5.8,5.8-5.8H323c3.3,0,5.9,2.5,5.9,5.8v5.8
		c0,0.7-0.1,1.2-0.4,1.7C327.8,334.5,325.6,336.2,323,336.2z"/>
</g>
</svg>
