<?xml version="1.0" encoding="utf-8"?>
<!-- Generator: Adobe Illustrator 25.0.0, SVG Export Plug-In . SVG Version: 6.00 Build 0)  -->
<svg version="1.1" id="Layer_1" xmlns="http://www.w3.org/2000/svg" xmlns:xlink="http://www.w3.org/1999/xlink" x="0px" y="0px"
	 viewBox="0 0 512 512" style="enable-background:new 0 0 512 512;" xml:space="preserve">
<style type="text/css">
	.st0{fill:#464849;}
	.st1{fill:#0084FF;}
</style>
<g>
	<path class="st0" d="M468.9,51.2c-0.3-4.3-1.3-7.8-6.4-8.3h-2.9c-10,0-19.7,2.9-28,8.5c-2.6,1.8-5.1,3.7-7.5,5.8
		c-76,65.5-152.1,130.7-228.2,196c-1.6,1.4-3.7,2.4-5.8,2.8c-11.7,2.4-23.4,4.5-35,7c-3.4,0.7-5,0.2-6.7-3.1
		c-10.1-20.2-32.6-32.6-54-30.2c-24.6,2.7-43.6,18.7-49.6,41.6c-0.8,2.9-1.3,5.9-1.9,8.9V291c0.3,0.9,0.6,1.8,0.8,2.7
		c4.1,22.6,16.9,38.2,38.9,44.9c21.7,6.6,41.2,1.3,57.1-15.2c9.3-9.6,13.9-21.5,15.1-35c11.7-2.3,23.2-4.6,34.8-6.6
		c1.4-0.2,3.6,1.1,4.8,2.3c11.4,11.2,22.5,22.6,33.9,33.7c2.1,2,2.5,3.9,1.9,6.6c-1.8,8.6-3.4,17.1-5,25.7c-1.3,7-1.3,7-8.4,8.2
		c-28.2,4.8-47.6,30.3-45.6,60c1.8,27,25.8,49.9,53.3,50.7c26.8,0.8,50.1-16.5,56.5-42c6.5-25.8-5.4-51.7-29.4-63.9
		c-2.4-1.2-3.1-2.3-2.5-5.1c2.5-12.1,4.7-24.2,7.2-36.3c0.4-1.9,1.3-4,2.6-5.5c40.1-46.9,80.3-93.8,120.5-140.7
		c26.4-30.8,52.7-61.5,79.1-92.3C466.3,74.2,469.8,63.5,468.9,51.2z M98.7,316.2c-17-0.1-30.6-13.8-30.7-30.7c0-17,14-31,31-31
		c17.1,0,30.8,13.9,30.8,31.1C129.7,302.7,115.9,316.3,98.7,316.2z M257.7,413.4c-0.1,16.9-13.9,30.7-30.7,30.8
		c-17.1,0.1-30.9-13.7-31-30.8c0-17.2,13.6-30.9,30.8-30.9C244,382.5,257.8,396.3,257.7,413.4z M262.8,266.2
		c-10,0-18.2-8.1-18.2-18.2c0-10,8.1-18.2,18.2-18.2c10,0,18.2,8.1,18.2,18.2C281,258.1,272.8,266.2,262.8,266.2z"/>
	<path class="st1" d="M382,315.8c9.4-9.4,19.2-19.2,28.7-28.8c5.6,5.6,11.3,11.3,17,17.1c-9.5,9.4-19.5,19.3-29.3,29.1
		c8,8,15.5,15.5,22.8,22.8c9.6-9.6,19.5-19.5,28.9-29c6.3,6.3,12,12,18,18c-0.3,0.4-1.2,1.4-2.1,2.4c-17,17-33.9,34-50.9,50.9
		c-21,20.9-50.5,20.9-71.5,0c-20.9-20.9-41.8-41.8-62.7-62.7c-1-1-1.9-2-3.1-3.3c18.3-21.3,36.5-42.6,55.2-64.4
		c2.3,2.8,4.4,5.3,6.6,8.1c10.5-10.5,20.3-20.4,30-30.1c6.1,6.1,11.7,11.8,17.3,17.3c-9.5,9.4-19.4,19.2-28.9,28.6
		C366.4,300.2,373.9,307.7,382,315.8z"/>
	<path class="st1" d="M179.5,234.6c-3.6-3.8-6.8-7.3-10.3-10.8c-18.3-18.4-36.7-36.7-55-55c-21.5-21.5-21.5-50.6-0.2-72.1
		c16.8-16.9,33.7-33.8,50.6-50.6c0.9-0.9,1.8-1.7,2.3-2.2c5.8,5.8,11.6,11.6,17.3,17.3c-9.2,9.2-19.1,19.1-28.7,28.6
		c8,8,15.5,15.5,23,23c9.5-9.5,19.3-19.4,28.9-29c6.1,6.1,11.9,11.8,18,17.8c-9.7,9.6-19.6,19.5-29.2,29.1
		c7.7,7.8,15.2,15.2,22.8,22.8c9.6-9.7,19.5-19.6,29.1-29.2c6.2,6.2,11.9,11.9,17.7,17.7c-9.6,9.5-19.4,19.3-29.9,29.7
		c3.1,2.2,5.8,4.2,9.1,6.5C222.5,197.6,201.3,215.8,179.5,234.6z"/>
</g>
</svg>
