<?xml version="1.0" encoding="utf-8"?>
<!-- Generator: Adobe Illustrator 25.0.0, SVG Export Plug-In . SVG Version: 6.00 Build 0)  -->
<svg version="1.1" id="Layer_1" xmlns="http://www.w3.org/2000/svg" xmlns:xlink="http://www.w3.org/1999/xlink" x="0px" y="0px"
	 viewBox="0 0 512 512" style="enable-background:new 0 0 512 512;" xml:space="preserve">
<style type="text/css">
	.st0{fill:#0084FF;}
</style>
<g>
	<g>
		<path class="st0" d="M190.6,91c0-0.6,0.2-1.1,0.6-1.5c0.4-0.4,0.9-0.6,1.5-0.6h126.4c0.6,0,1.1,0.2,1.5,0.6
			c0.4,0.4,0.6,0.9,0.6,1.5v31.3l15.2,0.4V91c0-4.8-2-9.1-5.1-12.2c-3.2-3.2-7.5-5.1-12.2-5.1H192.8c-4.8,0-9.1,1.9-12.2,5.1
			c-3.2,3.2-5.1,7.5-5.1,12.2v31.6l15.2-0.3V91z"/>
		<path class="st0" d="M283.9,268.9c-3.1-3-7.4-4.9-12-4.9h-31.9c-4.7,0-8.9,1.9-12,5c-3.1,3-5,7.3-5,11.9v67.2c0,4.6,1.9,8.9,5,12
			c3.1,3,7.3,4.9,12,4.9h31.9c4.6,0,8.9-1.9,12-4.9c3-3.1,4.9-7.4,4.9-12v-67.2C288.8,276.4,286.9,272.1,283.9,268.9z M273.7,348.1
			c0,0.4-0.1,0.9-0.6,1.3c-0.3,0.3-0.7,0.4-1.1,0.4h-31.9c-0.6,0-1-0.1-1.3-0.4c-0.3-0.4-0.6-0.9-0.6-1.3v-67.2
			c0-0.4,0.3-0.9,0.6-1.3c0.3-0.3,0.7-0.4,1.3-0.4h31.9c0.4,0,0.9,0.1,1.1,0.6c0.4,0.3,0.6,0.7,0.6,1.1V348.1z"/>
		<path d="M464.2,143.9c-4.4-4.4-10.4-7.1-17.3-7.1H336.5l-15.2-0.3H190.6l-15.2,0.3H65c-6.7,0-12.9,2.7-17.3,7.1
			c-4.4,4.4-7.1,10.6-7.1,17.3v254.6c0,6.9,2.7,12.9,7.1,17.4c4.4,4.4,10.6,7.1,17.3,7.1h381.9c6.9,0,12.9-2.7,17.3-7.1
			c4.6-4.6,7.3-10.6,7.3-17.3V161.1C471.5,154.4,468.6,148.3,464.2,143.9z M456.2,282.8c-55.7,16-94.5,22.9-150.4,25.6v15.2
			c55.7-2.6,94.6-9.3,150.4-25v117.2c0,2.6-1,4.9-2.7,6.6c-1.7,1.7-4,2.7-6.6,2.7H65c-2.6,0-4.9-1-6.6-2.7c-1.7-1.7-2.7-4-2.7-6.6
			V298.5c55.9,15.7,97.2,22.4,153.1,25v-15.2c-55.9-2.6-97.2-9.6-153.1-25.6V161.1c0-2.6,1-4.9,2.7-6.6c1.7-1.7,4-2.7,6.6-2.7h381.9
			c2.6,0,4.9,1,6.6,2.7c1.7,1.7,2.7,4,2.7,6.6V282.8z"/>
	</g>
</g>
</svg>
