<?xml version="1.0" encoding="utf-8"?>
<!-- Generator: Adobe Illustrator 25.0.0, SVG Export Plug-In . SVG Version: 6.00 Build 0)  -->
<svg version="1.1" id="Layer_1" xmlns="http://www.w3.org/2000/svg" xmlns:xlink="http://www.w3.org/1999/xlink" x="0px" y="0px"
	 viewBox="0 0 512 512" style="enable-background:new 0 0 512 512;" xml:space="preserve">
<style type="text/css">
	.st0{fill:#464849;}
	.st1{fill:#E1EAFF;}
</style>
<path class="st0" d="M-271-107.9c-0.5-0.5-1-1.1-1.4-1.6C-271.8-108.9-271.4-108.4-271-107.9z"/>
<path class="st0" d="M-314.2,27.8c-0.4,0-0.8,0-1.3-0.1C-315,27.7-314.6,27.8-314.2,27.8z"/>
<g>
	<g>
		<g>
			<path class="st1" d="M256,458c-111.4,0-202-90.6-202-202S144.6,54,256,54s202,90.6,202,202S367.4,458,256,458z M256,91.4
				c-90.7,0-164.6,73.8-164.6,164.6S165.3,420.6,256,420.6S420.6,346.7,420.6,256S346.7,91.4,256,91.4z"/>
		</g>
		<g>
			<path class="st1" d="M256,378.6c-67.6,0-122.6-55-122.6-122.6s55-122.6,122.6-122.6s122.6,55,122.6,122.6S323.6,378.6,256,378.6z
				 M256,170.8c-47,0-85.2,38.2-85.2,85.2s38.2,85.2,85.2,85.2s85.2-38.2,85.2-85.2S303,170.8,256,170.8z"/>
		</g>
	</g>
</g>
</svg>
