<?xml version="1.0" encoding="utf-8"?>
<!-- Generator: Adobe Illustrator 25.0.0, SVG Export Plug-In . SVG Version: 6.00 Build 0)  -->
<svg version="1.1" id="Layer_1" xmlns="http://www.w3.org/2000/svg" xmlns:xlink="http://www.w3.org/1999/xlink" x="0px" y="0px"
	 viewBox="0 0 512 512" style="enable-background:new 0 0 512 512;" xml:space="preserve">
<style type="text/css">
	.st0{fill:#464849;}
	.st1{fill:#0084FF;}
</style>
<g>
	<g>
		<path class="st0" d="M461.8,185.8L286.8,98.2c-17.5-8.8-38.5-8.9-56.2-0.4L50.4,185c-6.1,3-9.8,9-9.8,15.7s3.8,12.8,9.9,15.7
			l10.1,4.8c1.4-5.2,4.6-9.8,9-12.8l-12.4-5.9c-1-0.5-1.2-1.2-1.2-1.8c0-0.6,0.2-1.4,1.2-1.8l180.3-87.2c13.4-6.5,29.3-6.4,42.6,0.3
			l174.9,87.5c1,0.5,1.2,1.4,1.2,2c0,0.6-0.2,1.5-1.2,2l-178.9,87.1c-10.9,5.3-23.4,5.4-34.3,0.1L127.2,236l-28.4,3.5l136.1,65.1
			c7.5,3.6,15.6,5.4,23.7,5.4c8.2,0,16.4-1.8,24-5.6l179-87.1c6.1-3,9.8-9,9.9-15.7C471.5,194.8,467.8,188.8,461.8,185.8z"/>
	</g>
	<g>
		<path class="st0" d="M383.9,273.2v74.5c-47.2,55.8-126.9,57.3-127.7,57.3c-74.7,0-119-47.2-127.7-57.3v-76.7l-15.4-7.4v89.4
			l1.6,2.1c2,2.7,50.4,65.3,141.5,65.3c3.6,0,89.6-1.5,141.3-65.1l1.7-2.1v-87.5L383.9,273.2z"/>
	</g>
	<g>
		<path class="st1" d="M262.8,201.7c0,3.8-2.9,7.2-6.8,7.6l-167,20.5c-1.8,0.2-3.2,1.8-3.2,3.6v66c-2.5-0.7-5.1-1-7.8-1
			c-2.6,0-5.2,0.4-7.6,1v-72.5c0-5.8,4.4-10.8,10.1-11.5l173.6-21.3c4.2-0.5,8,2.5,8.6,6.7C262.8,201.1,262.8,201.4,262.8,201.7z"/>
	</g>
	<circle class="st0" cx="78.1" cy="327.6" r="23.8"/>
	<path class="st1" d="M108.9,419.1H47.1l20.4-64.3c3.3,1.3,6.8,2,10.6,2c3.6,0,7.1-0.7,10.3-1.9L108.9,419.1z"/>
</g>
</svg>
