<?xml version="1.0" encoding="utf-8"?>
<!-- Generator: Adobe Illustrator 25.0.0, SVG Export Plug-In . SVG Version: 6.00 Build 0)  -->
<svg version="1.1" id="Layer_1" xmlns="http://www.w3.org/2000/svg" xmlns:xlink="http://www.w3.org/1999/xlink" x="0px" y="0px"
	 viewBox="0 0 512 512" style="enable-background:new 0 0 512 512;" xml:space="preserve">
<style type="text/css">
	.st0{fill:#0084FF;}
	.st1{fill:#464849;}
	.st2{fill:none;}
</style>
<g>
	<path class="st0" d="M286.7,214.8h-62.9c-4.9,0-8.6,4-8.6,8.5v63c0,4.9,4.1,8.6,8.6,8.6h62.9c4.9,0,8.6-4.1,8.6-8.6v-63
		C295.3,218.4,291.6,214.8,286.7,214.8z M278.2,277.7h-45.8V232h45.8V277.7z"/>
	<g>
		<path class="st0" d="M286.7,214.8h-62.9c-4.9,0-8.6,4-8.6,8.5v63c0,4.9,4.1,8.6,8.6,8.6h62.9c4.9,0,8.6-4.1,8.6-8.6v-63
			C295.3,218.4,291.6,214.8,286.7,214.8z M278.2,277.7h-45.8V232h45.8V277.7z"/>
		<path class="st1" d="M391.1,263.5l0.3-17.2h-51.5v-37.2H371c4.9,0,8.6-4.1,8.6-8.6v-38.8h-17.2v29.9h-25
			c-4.9-12.7-17.1-21.7-31.8-21.7h-41.7v-37.6h-17.1v37.6h-42.1c-14.4,0-26.6,9-31.9,21.7h-25v-29.9h-17.1v38.8c0,4.9,4,8.6,8.6,8.6
			h31.1v37.2h-51.1v17.2h51.1v36.8h-31.1c-4.9,0-8.6,4.1-8.6,8.6v39.2h17.1v-30.6h25c4.9,12.7,17.2,21.7,31.9,21.7h41.7v37.2h17.2
			v-37.2h41.7c14.3,0,26.6-9,31.9-21.7H362v30.6h17.2v-39.2c0-4.9-3.7-8.6-8.6-8.6h-31.1v-36.8H391.1z M306,322.3H204.6
			c-9.5,0-16.8-7.4-16.8-16.8v-101c0-4.7,1.8-8.9,4.8-11.9c0.7-0.8,1.5-1.5,2.5-2.1c2.7-1.8,5.9-2.8,9.5-2.8h101
			c2.3,0,4.6,0.4,6.6,1.3c2,0.9,3.9,2.1,5.3,3.6c3.1,3,4.9,7.1,4.9,11.9v101h0.3C322.7,314.9,315.4,322.3,306,322.3z"/>
	</g>
	<g>
		<path class="st0" d="M99,230.7c-6.5-6-15-9-23.8-8.7c-8.9,0.3-17,4.2-23,10.7c-6,6.5-9,15.1-8.7,23.8c0.4,8.9,4.2,17,10.8,23
			c6.1,5.7,14,8.8,22.3,8.8c0.5,0,1-0.1,1.5-0.1c17.7-0.8,31.6-15.4,31.6-33v-1.5C109.3,244.8,105.6,236.6,99,230.7z M77.2,269.8
			c-3.9,0.2-7.7-1.2-10.6-3.9c-2.9-2.7-4.6-6.3-4.7-10.2c-0.2-4,1.2-7.7,3.9-10.6c2.6-2.9,6.3-4.6,10.2-4.8h0.7
			c3.7,0,7.2,1.4,9.9,3.9c2.9,2.7,4.6,6.3,4.8,10.2C91.7,262.5,85.4,269.4,77.2,269.8z"/>
	</g>
	<g>
		<path class="st0" d="M457.9,230.4c-6.5-5.9-15-9-23.8-8.6c-8.9,0.3-17,4.1-23,10.7c-6,6.5-9,15-8.7,23.8c0.4,8.9,4.2,17,10.8,23
			c6.1,5.7,14,8.7,22.3,8.7h1.5c17.7-0.9,31.6-15.5,31.6-33.1v-1.5C468.2,244.6,464.4,236.4,457.9,230.4z M436.1,269.6
			c-3.9,0.2-7.7-1.2-10.6-3.9c-2.9-2.7-4.6-6.3-4.7-10.2c-0.2-4,1.2-7.7,3.8-10.7c2.7-2.8,6.4-4.6,10.2-4.7h0.7
			c3.7,0,7.2,1.4,9.9,3.9c2.9,2.7,4.6,6.3,4.8,10.2C450.5,262.3,444.3,269.2,436.1,269.6z"/>
	</g>
	<g>
		<path class="st0" d="M161.6,96.7c-6.5-5.9-15-9-23.8-8.7c-8.9,0.4-17,4.2-23,10.8c-6,6.5-9.1,15-8.7,23.8c0.3,8.8,4.2,17,10.8,23
			c6.1,5.6,14,8.7,22.3,8.7c0.5,0,1,0,1.5-0.1c17.8-0.8,31.7-15.5,31.7-33.1v-1.5C171.9,110.8,168,102.7,161.6,96.7z M139.8,135.9
			c-3.9,0.2-7.7-1.2-10.6-3.9c-2.9-2.7-4.6-6.3-4.7-10.2c-0.2-3.9,1.1-7.7,3.8-10.6c2.7-2.9,6.3-4.6,10.2-4.7h0.7
			c3.7,0,7.1,1.3,9.9,3.9c2.9,2.6,4.6,6.3,4.8,10.2C154.3,128.7,147.9,135.6,139.8,135.9z"/>
	</g>
	<g>
		<path class="st0" d="M393.4,96.7c-6.5-6-15-9-23.8-8.7c-8.9,0.4-17,4.2-23,10.8c-5.9,6.5-9,15-8.7,23.8c0.4,8.8,4.2,17,10.8,23
			c6.1,5.6,14,8.7,22.4,8.7c0.4,0,0.9,0,1.5-0.1c17.7-0.8,31.7-15.5,31.7-33.1v-1.5C403.7,110.8,399.9,102.7,393.4,96.7z
			 M371.6,135.9c-3.9,0.2-7.7-1.2-10.6-3.9c-2.8-2.7-4.6-6.3-4.7-10.2c-0.2-3.9,1.2-7.7,3.9-10.6c2.7-2.9,6.3-4.6,10.2-4.7h0.7
			c3.7,0,7.2,1.3,10,3.9c2.8,2.6,4.6,6.3,4.7,10.2C386.1,128.7,379.8,135.6,371.6,135.9z"/>
	</g>
	<g>
		<path class="st0" d="M278.2,66c-6.5-6-15-9-23.8-8.7c-8.9,0.4-17,4.2-23,10.8c-5.9,6.5-9,15-8.7,23.8c0.4,8.8,4.2,17,10.8,23
			c6.1,5.6,14,8.7,22.4,8.7c0.4,0,0.9,0,1.5-0.1C275,122.7,289,108,289,90.5V89C288.5,80.1,284.8,71.9,278.2,66z M256.4,105.2
			c-3.9,0.2-7.7-1.2-10.6-3.9c-2.8-2.7-4.6-6.3-4.7-10.2c-0.2-3.9,1.2-7.7,3.9-10.6c2.7-2.9,6.3-4.6,10.2-4.7h0.7
			c3.7,0,7.2,1.3,10,3.9c2.8,2.6,4.6,6.3,4.7,10.2C270.9,97.9,264.6,104.8,256.4,105.2z"/>
	</g>
	<g>
		<path class="st0" d="M161.6,366.6c-6.5-5.9-15-9-23.8-8.7c-8.9,0.4-17,4.2-23,10.8c-6,6.5-9.1,15-8.7,23.8c0.3,8.9,4.2,17,10.8,23
			c6.1,5.6,14,8.7,22.3,8.7h1.5c17.8-0.9,31.7-15.6,31.7-33.1v-1.5C171.9,380.7,168,372.6,161.6,366.6z M139.8,405.7
			c-3.9,0.2-7.7-1.2-10.6-3.9c-2.9-2.7-4.6-6.3-4.7-10.2c-0.2-3.9,1.1-7.7,3.8-10.6c2.7-2.8,6.3-4.6,10.2-4.7h0.7
			c3.7,0,7.1,1.4,9.9,3.9c2.9,2.7,4.6,6.3,4.8,10.2C154.3,398.5,147.9,405.4,139.8,405.7z"/>
	</g>
	<g>
		<path class="st0" d="M393.4,366.6c-6.5-5.9-15-9-23.8-8.7c-8.9,0.4-17,4.2-23,10.8c-5.9,6.5-9,15-8.7,23.8c0.4,8.8,4.2,17,10.8,23
			c6.1,5.6,14,8.7,22.4,8.7h1.5c17.7-0.9,31.7-15.6,31.7-33.1v-1.5C403.7,380.7,399.9,372.5,393.4,366.6z M371.6,405.7
			c-3.9,0.2-7.7-1.2-10.6-3.9c-2.8-2.7-4.6-6.3-4.7-10.2c-0.2-3.9,1.2-7.7,3.9-10.6c2.7-2.8,6.3-4.6,10.2-4.7h0.7
			c3.7,0,7.2,1.3,10,3.9c2.8,2.7,4.6,6.3,4.7,10.2C386.1,398.5,379.8,405.4,371.6,405.7z"/>
	</g>
	<g>
		<path class="st0" d="M278.2,397.2c-6.5-6-15-9-23.8-8.7c-8.9,0.3-17,4.2-23,10.7c-5.9,6.5-9,15.1-8.7,23.8c0.4,8.9,4.2,17,10.8,23
			c6.1,5.7,14,8.7,22.4,8.7h1.5c17.7-0.8,31.7-15.5,31.7-33.1v-1.5C288.5,411.3,284.8,403.2,278.2,397.2z M256.4,436.3
			c-3.9,0.2-7.7-1.1-10.6-3.8c-2.8-2.7-4.6-6.3-4.7-10.2c-0.2-4,1.2-7.7,3.9-10.6c2.7-2.9,6.3-4.6,10.2-4.8h0.7
			c3.7,0,7.2,1.4,10,3.9c2.8,2.7,4.6,6.3,4.7,10.2C270.9,429.1,264.6,436,256.4,436.3z"/>
	</g>
	<line class="st2" x1="147.8" y1="161.6" x2="130.6" y2="161.6"/>
	<line class="st2" x1="263.9" y1="132.2" x2="246.7" y2="132.2"/>
	<line class="st2" x1="379.6" y1="161.6" x2="362.4" y2="161.6"/>
	<line class="st2" x1="147.8" y1="348.1" x2="130.6" y2="348.1"/>
	<line class="st2" x1="263.5" y1="376.3" x2="246.3" y2="376.3"/>
	<line class="st2" x1="379.2" y1="348.1" x2="362" y2="348.1"/>
</g>
</svg>
