<?xml version="1.0" encoding="utf-8"?>
<!-- Generator: Adobe Illustrator 25.0.0, SVG Export Plug-In . SVG Version: 6.00 Build 0)  -->
<svg version="1.1" id="Layer_1" xmlns="http://www.w3.org/2000/svg" xmlns:xlink="http://www.w3.org/1999/xlink" x="0px" y="0px"
	 viewBox="0 0 512 512" style="enable-background:new 0 0 512 512;" xml:space="preserve">
<style type="text/css">
	.st0{fill:#0084FF;}
	.st1{fill:#464849;}
</style>
<g>
	<path class="st0" d="M256,114.1c-70,0-126.7,56.7-126.7,126.7c0,22.4,5.7,43.8,16.6,62.8c3.9,6.8,12.5,9.1,19.1,5.2
		c6.8-3.9,9.1-12.5,5.2-19.1c-8.4-14.7-12.9-31.5-12.9-48.8c0-54.4,44.2-98.6,98.6-98.6s98.6,44.2,98.6,98.6c0,18.2-5,36-14.3,51.2
		c-4.1,6.6-2,15.2,4.7,19.3c6.6,4.1,15.2,2,19.3-4.7c12-19.7,18.4-42.4,18.4-65.8C382.7,170.8,326,114.1,256,114.1z"/>
	<path class="st0" d="M256,35.9c-116.7,0-211.1,94.5-211.1,211.1c0,37.2,9.7,73.2,27.7,104.8c3.9,6.8,12.5,9.1,19.1,5.2
		c6.8-3.9,9.1-12.5,5.2-19.1c-15.6-27.6-24-58.7-24-90.9c0-101.3,81.9-183.2,183-183.2s183,81.9,183,183c0,34-9.3,66.7-26.7,95
		c-4.1,6.6-2,15.2,4.7,19.3c6.6,4.1,15.4,2.1,19.3-4.5c20-32.7,30.8-70.5,30.8-109.7C467.1,130.4,372.7,35.9,256,35.9z"/>
	<path class="st1" d="M318.1,230.1c-7.2,1.1-13.4,2.3-19.5,4.1c-4.7,1.3-15.6,5-17,5.4c-1.5,0.4-2.7,1.1-4,1.8
		c-0.1,0-0.2,0.1-0.3,0.1c-0.4,0.2-0.7,0.4-1.1,0.7c-4.4,2.3-7.6,6.6-7.7,11.8l-3.6,122.1c-11.3-6.9-25.2-11-40-11
		c-36.3,0-67.1,24-67.1,55.5s30.6,55.5,67.1,55.5c36.3,0,67.1-24,67.1-55.5c0-2.3-0.2-4.5-0.5-6.7c0.1-0.7,0.5-1.4,0.5-2.1
		l4.4-147.4c3.9-1.3,8-2.6,9.8-3.1c4.8-1.4,10-2.5,16.1-3.4c7.7-1.1,13.1-8.2,11.8-15.9C332.9,234.2,325.8,229,318.1,230.1z"/>
</g>
</svg>
