<?xml version="1.0" encoding="utf-8"?>
<!-- Generator: Adobe Illustrator 25.0.0, SVG Export Plug-In . SVG Version: 6.00 Build 0)  -->
<svg version="1.1" id="Layer_1" xmlns="http://www.w3.org/2000/svg" xmlns:xlink="http://www.w3.org/1999/xlink" x="0px" y="0px"
	 viewBox="0 0 512 512" style="enable-background:new 0 0 512 512;" xml:space="preserve">
<style type="text/css">
	.st0{fill:#0084FF;}
	.st1{fill:none;}
	.st2{fill:#464849;}
</style>
<g>
	<path class="st0" d="M466.9,165.3c-3.5-4.7-8.3-7.9-14.1-10.5c-62.1-27.7-124.1-55.6-186.1-83.5c-2.3-1-4.7-2-7-3
		c-4.6-2-8.3,0-8.3,0c-25.9,11.7-51.8,23.6-77.7,35.2c-39.5,17.8-78.9,35.7-118.5,53.3c-5.6,2.5-8.9,6.8-11.6,11.8
		c-0.9,1.6-1.5,3.5-1.8,5.4c-0.2,1.7-0.1,3.8,1,5.7c4.6,11,12.7,14.7,24.6,14.7c125.9-0.2,251.7-0.2,377.5,0
		c11.7,0,20.3-3.5,24.8-14.7c0.6-1.2,0.7-2.7,0.7-4.1C470.3,171.9,469.1,168.3,466.9,165.3z M256.1,155.4c-13.5,0-24.5-11-24.5-24.5
		c0-13.5,10.9-24.5,24.5-24.5c13.5,0,24.5,10.9,24.5,24.5C280.6,144.4,269.6,155.4,256.1,155.4z"/>
	<g>
		<rect x="130.6" y="231.5" class="st1" width="57.3" height="174.2"/>
		<path class="st1" d="M279.6,406.1c1,0,1.7-0.1,2.4-0.2l-55,0.1C244.9,406,262.2,405.8,279.6,406.1z"/>
		<path class="st1" d="M285.2,400.3c-0.2-18-0.1-36-0.1-53.9c0-36.4-0.1-72.8,0.1-109c0-4.8-1.2-6.6-6.3-6.4
			c-9.3,0.4-18.5,0.1-27.8,0.1H227V406l55-0.1C284.5,405.3,285.2,403.7,285.2,400.3z"/>
		<rect x="324.2" y="231.4" class="st1" width="57.4" height="174.2"/>
		<path class="st0" d="M428.3,406.1c-2.3-0.2-4.6-0.3-7.1-0.5l-39.6-0.1l-99.6,0.3c-0.7,0.1-1.4,0.2-2.4,0.2
			c-17.4-0.2-34.7-0.1-52.6-0.1l-39.1-0.2h-57.3l-39.7-0.1c-2.3,0.2-4.2,0.3-6.1,0.5c-10.2,0.8-17.7,8.9-17.8,19.3
			c-0.2,9.7,7.5,18,17.5,19c2.2,0.2,4.3,0.2,6.5,0.2h329c2.7,0,5.6-0.1,8.3-0.3c9.7-1.1,16.6-9.1,16.7-19.1
			C445.1,415.4,437.8,407.2,428.3,406.1z"/>
		<path class="st2" d="M130.6,231.5h57.3v174.2L227,406V231.1h24.2c9.3,0,18.5,0.3,27.8-0.1c5.1-0.2,6.3,1.5,6.3,6.4
			c-0.2,36.3-0.1,72.7-0.1,109c0,17.9-0.2,35.9,0.1,53.9c0,3.3-0.8,5-3.2,5.5l99.6-0.3h-57.4V231.4h57.4v174.2l39.6,0.1V231.6
			c2.3-0.3,3.9-0.5,5.7-0.7c5.1-0.6,7.8-3.5,8.3-8.4c0.5-5-2-8.4-6.7-9.9c-1.9-0.6-3.9-0.6-5.9-0.6H89.5c-2,0-4,0.2-5.9,0.7
			c-4.8,1.4-7.1,4.7-6.8,9.7c0.3,4.7,3,7.6,7.6,8.5c2.1,0.4,4.2,0.6,6.4,0.8v174l39.7,0.1V231.5z"/>
	</g>
</g>
</svg>
