<?xml version="1.0" encoding="utf-8"?>
<!-- Generator: Adobe Illustrator 25.0.0, SVG Export Plug-In . SVG Version: 6.00 Build 0)  -->
<svg version="1.1" id="Layer_1" xmlns="http://www.w3.org/2000/svg" xmlns:xlink="http://www.w3.org/1999/xlink" x="0px" y="0px"
	 viewBox="0 0 512 512" style="enable-background:new 0 0 512 512;" xml:space="preserve">
<style type="text/css">
	.st0{fill:#464849;}
	.st1{fill:#0084FF;}
	.st2{fill:#FFFFFF;}
</style>
<g>
	<g>
		<path class="st0" d="M219,220.5c4.7-5.2,8.1-10.2,9.3-14c6.7-22,3.6-40.8-21.7-68.6l-61.8-74.4c-8.8-10.3-29.5,4.8-20.8,17.3
			l49.5,60.9c9.4,11.4-8,26.4-17.7,14.7l-51.2-63c-9.5-10.9-29.2,3.5-19.3,16c14.4,17.3,36.7,45.7,51.2,63
			c10,10.2-5.2,25.2-15.1,12.6l-50.8-62.6c-7.4-8.1-19.6-3.1-22.9,6.4c-3.5,10.1,5.1,17.5,10.9,25l56.7,73.2
			c17.6,20.4,37.2,32.5,60.1,25.6c3.5-1.1,7.8-3.2,12.4-6l152.3,196.6c8.2,10.6,24,11.7,34.3,3.2l2.3-1.9
			c11.6-9.6,13.4-27.2,3.5-38.6L219,220.5z"/>
		<path class="st1" d="M145.7,401.8c-27.4,33.2,16.8,65.1,40.7,34.8l62.4-79.3l-32.4-41.3L145.7,401.8z"/>
		<path class="st1" d="M441.7,81.5C383.8,32.5,264.3,139,296.5,219l-25.1,30.4l32.8,37.5l29.7-37.7
			C407.5,284.6,512.1,141,441.7,81.5z"/>
	</g>
	<path class="st2" d="M440.2,122.5c0,0-9.7,64-70.2,96.7C370,219.2,448.3,208.7,440.2,122.5z"/>
</g>
</svg>
