<?xml version="1.0" encoding="utf-8"?>
<!-- Generator: Adobe Illustrator 25.0.0, SVG Export Plug-In . SVG Version: 6.00 Build 0)  -->
<svg version="1.1" id="Layer_1" xmlns="http://www.w3.org/2000/svg" xmlns:xlink="http://www.w3.org/1999/xlink" x="0px" y="0px"
	 viewBox="0 0 512 512" style="enable-background:new 0 0 512 512;" xml:space="preserve">
<style type="text/css">
	.st0{fill-rule:evenodd;clip-rule:evenodd;fill:#0084FF;}
	.st1{fill-rule:evenodd;clip-rule:evenodd;}
</style>
<g>
	<g>
		<g>
			<path class="st0" d="M53.4,291.5L53.4,291.5c-7.1,0-12.8-5.8-12.8-12.8v-45.2c0-7.1,5.8-12.8,12.8-12.8h0
				c7.1,0,12.8,5.8,12.8,12.8v45.2C66.2,285.7,60.5,291.5,53.4,291.5z"/>
			<path class="st0" d="M93.3,325.8L93.3,325.8c-7.1,0-12.8-5.8-12.8-12.8V201.5c0-7.1,5.8-12.8,12.8-12.8h0
				c7.1,0,12.8,5.8,12.8,12.8V313C106.2,320.1,100.4,325.8,93.3,325.8z"/>
			<path class="st0" d="M133.3,355.1L133.3,355.1c-7.1,0-12.8-5.8-12.8-12.8V169.6c0-7.1,5.8-12.8,12.8-12.8h0
				c7.1,0,12.8,5.8,12.8,12.8v172.6C146.2,349.4,140.4,355.1,133.3,355.1z"/>
		</g>
		<g>
			<path class="st0" d="M458.6,291.5L458.6,291.5c7.1,0,12.8-5.8,12.8-12.8v-45.2c0-7.1-5.8-12.8-12.8-12.8h0
				c-7.1,0-12.8,5.8-12.8,12.8v45.2C445.8,285.8,451.5,291.5,458.6,291.5z"/>
			<path class="st0" d="M418.7,325.9L418.7,325.9c7.1,0,12.8-5.8,12.8-12.8V201.6c0-7.1-5.8-12.8-12.8-12.8h0
				c-7.1,0-12.8,5.8-12.8,12.8V313C405.8,320.1,411.6,325.9,418.7,325.9z"/>
			<path class="st0" d="M378.7,355.2L378.7,355.2c7.1,0,12.8-5.8,12.8-12.8V169.7c0-7.1-5.8-12.8-12.8-12.8l0,0
				c-7.1,0-12.8,5.8-12.8,12.8v172.6C365.8,349.5,371.6,355.2,378.7,355.2z"/>
		</g>
	</g>
	<path class="st1" d="M302,274.9H210c-6.9,0-12.6-5.6-12.6-12.6v-9.4c0-6.9,5.6-12.6,12.6-12.6H302c6.9,0,12.6,5.6,12.6,12.6v9.4
		C314.6,269.3,309,274.9,302,274.9z"/>
</g>
</svg>
