<?xml version="1.0" encoding="utf-8"?>
<!-- Generator: Adobe Illustrator 25.0.0, SVG Export Plug-In . SVG Version: 6.00 Build 0)  -->
<svg version="1.1" id="Layer_1" xmlns="http://www.w3.org/2000/svg" xmlns:xlink="http://www.w3.org/1999/xlink" x="0px" y="0px"
	 viewBox="0 0 512 512" style="enable-background:new 0 0 512 512;" xml:space="preserve">
<style type="text/css">
	.st0{fill:#0084FF;}
	.st1{fill:#464849;}
</style>
<g>
	<g>
		<path class="st0" d="M49.8,291.8c-0.9,0-1.8-0.2-2.6-0.6c-2.3-1-3.8-3.4-3.7-5.9c1.3-55.7,24-107.9,63.9-146.9
			c39.9-39.1,92.7-60.6,148.6-60.6c3.5,0,6.3,2.8,6.3,6.3s-2.8,6.3-6.3,6.3c-18,0-35.7,17.5-50,49.2
			c-14.9,33.1-24.3,78.5-26.5,127.8c-0.1,2.1-1.2,3.9-2.9,5c-1.7,1.1-3.9,1.3-5.8,0.5c-32.5-13.8-84.4-12.5-116.7,17.2
			C52.9,291.2,51.4,291.8,49.8,291.8z M221.7,93.4c-87.4,15.5-156.4,88.7-164.8,178.4c14.6-10,32.3-16.5,51.9-19
			c20.1-2.6,40.5-0.7,58.5,5.4c3-47.5,12.5-91.2,27.2-123.8C202.5,116.8,211.7,103,221.7,93.4z"/>
	</g>
	<g>
		<path class="st0" d="M462.2,291.8c-1.5,0-3.1-0.6-4.3-1.7c-32.3-29.7-84.2-31-116.7-17.2c-1.9,0.8-4.1,0.6-5.8-0.5
			c-1.7-1.1-2.8-3-2.9-5c-2.2-49.3-11.7-94.7-26.5-127.8c-14.2-31.7-32-49.2-50-49.2c-3.5,0-6.3-2.8-6.3-6.3s2.8-6.3,6.3-6.3
			c55.9,0,108.7,21.5,148.6,60.6c39.9,39,62.6,91.2,63.9,146.9c0.1,2.5-1.4,4.8-3.7,5.9C463.9,291.6,463.1,291.8,462.2,291.8z
			 M385.6,251.7c5.8,0,11.7,0.4,17.6,1.1c19.6,2.5,37.3,9,51.9,19c-8.4-89.8-77.4-163-164.8-178.4c10,9.6,19.2,23.4,27.1,41
			c14.6,32.6,24.2,76.3,27.2,123.8C357.4,253.9,371.4,251.7,385.6,251.7z"/>
	</g>
	<g>
		<path class="st0" d="M338.8,273.4c-1.1,0-2.3-0.3-3.3-0.9c-24.9-15.2-48-18.2-79.5-18.2s-54.6,3-79.5,18.2c-2,1.2-4.5,1.2-6.5,0
			c-2-1.2-3.2-3.4-3.1-5.7c2.3-50.8,12.1-97.9,27.6-132.4c16.4-36.5,38.2-56.6,61.5-56.6s45.1,20.1,61.5,56.6
			C333,169,342.8,216,345.1,266.8c0.1,2.3-1.1,4.5-3.1,5.7C341,273.1,339.9,273.4,338.8,273.4z M256,241.8
			c28.8,0,52.2,2.6,75.9,14.4c-3.1-44.9-12.2-85.9-25.9-116.5c-14.2-31.7-32-49.2-50-49.2s-35.7,17.5-50,49.2
			c-13.7,30.6-22.8,71.6-25.9,116.5C203.8,244.3,227.2,241.8,256,241.8z"/>
	</g>
	<path class="st1" d="M329.4,404.1c-5.5,0-9.9,4.5-9.9,9.9c0,14.8-12,26.8-26.8,26.8s-26.8-12-26.8-26.8V275.5
		c0-5.5-4.5-9.9-9.9-9.9s-9.9,4.5-9.9,9.9V414c0,25.7,20.9,46.6,46.6,46.6c25.7,0,46.6-20.9,46.6-46.6
		C339.3,408.6,334.9,404.1,329.4,404.1z"/>
	<path class="st1" d="M256,51.4c-3.5,0-6.3,2.8-6.3,6.3v2.6v1v4c0,3.5,2.8,6.3,6.3,6.3c3.5,0,6.3-2.8,6.3-6.3v-4v-1v-2.6
		C262.3,54.2,259.5,51.4,256,51.4z"/>
</g>
</svg>
