<?xml version="1.0" encoding="utf-8"?>
<!-- Generator: Adobe Illustrator 25.0.0, SVG Export Plug-In . SVG Version: 6.00 Build 0)  -->
<svg version="1.1" id="Layer_1" xmlns="http://www.w3.org/2000/svg" xmlns:xlink="http://www.w3.org/1999/xlink" x="0px" y="0px"
	 viewBox="0 0 512 512" style="enable-background:new 0 0 512 512;" xml:space="preserve">
<style type="text/css">
	.st0{fill:#464849;}
	.st1{fill:#0084FF;}
</style>
<g>
	<path class="st0" d="M382.1,404.3H270.7V149.2c10.7-3.9,19.2-12.4,23-23.1h76.8v12c0,1.3,1.1,2.4,2.4,2.4h20.3
		c1.3,0,2.4-1.1,2.4-2.4v-12h22.7c1.5,0,2.8-1.1,2.8-2.4v-20.3c0-1.3-1.3-2.4-2.8-2.4H293.6c-5.2-14.6-19.2-25.1-35.6-25.1
		s-30.4,10.5-35.6,25.1H98.2c-1.5,0-2.8,1.1-2.8,2.4v20.3c0,1.3,1.3,2.4,2.8,2.4h20.1v12c0,1.3,1.1,2.4,2.4,2.4h20.3
		c1.3,0,2.4-1.1,2.4-2.4v-12h79c3.8,10.9,12.4,19.5,23.3,23.3v255H134.2c-8.8,0-15.9,7.2-15.9,15.9c0,8.8,7.2,15.9,15.9,15.9h247.9
		c8.8,0,15.9-7.2,15.9-15.9v0C398,411.4,390.9,404.3,382.1,404.3z M258,130c-9.1,0-16.4-7.4-16.4-16.4s7.4-16.4,16.4-16.4
		c9.1,0,16.4,7.4,16.4,16.4S267.1,130,258,130z"/>
	<g>
		<path class="st1" d="M218.4,299.9c0.1-1.2-0.3-2.6-1-3.9l-80.3-141.9c-0.6-1.2-1.7-2.3-2.9-3c-3.6-2.1-8.1-0.8-10.2,2.8
			L41.9,295.6c-0.8,1.1-1.4,2.6-1.4,4.1c0,0.7,0.1,1.2,0.3,1.8c0.8,33.3,40.2,60.1,88.9,60.1c49.1,0,88.9-27.4,88.9-61.2v-0.6H218.4
			z M123.1,185.1l7.7-14.3l6.6,14.2l60.8,107.4H61.1L123.1,185.1z M129.7,347.8c-37.5,0-70-18.6-74.6-41.8h149
			C199.3,329.5,167.2,347.8,129.7,347.8z"/>
		<path class="st1" d="M470.5,296l-80.3-141.9c-0.7-1.2-1.7-2.3-2.9-3c-3.6-2.1-8.3-1-10.3,2.6l-82.1,141.8
			c-0.8,1.2-1.2,2.8-1.2,4.3c0,0.6,0,1.2,0.1,1.8c0.8,33.3,40.4,60.1,88.9,60.1c49.1,0,88.9-27.4,88.9-61.2v-0.6
			C471.5,298.6,471.2,297.3,470.5,296z M376.1,185.2l7.8-13.5l6.5,13.2l60.8,107.4H313.9L376.1,185.2z M382.6,347.8
			c-37.5,0-70-18.6-74.6-41.8h149.1C452.2,329.5,420.1,347.8,382.6,347.8z"/>
	</g>
</g>
</svg>
