<?xml version="1.0" encoding="utf-8"?>
<!-- Generator: Adobe Illustrator 25.0.0, SVG Export Plug-In . SVG Version: 6.00 Build 0)  -->
<svg version="1.1" id="Layer_1" xmlns="http://www.w3.org/2000/svg" xmlns:xlink="http://www.w3.org/1999/xlink" x="0px" y="0px"
	 viewBox="0 0 512 512" style="enable-background:new 0 0 512 512;" xml:space="preserve">
<style type="text/css">
	.st0{fill:#FFFFFF;}
	.st1{fill:#0084FF;}
	.st2{fill:#22A1FF;}
</style>
<g>
	<path class="st0" d="M174.5,283.8c8,0,9.1-0.8,11.8-8.3c7.2-20,14.4-40,21.6-60c0.4-1,0.8-2,1.7-4.3c0.7,6.2,1.3,11,1.7,15.8
		c1.3,16.3,2.5,32.6,3.9,48.9c1.5,17.8,3,35.6,4.6,53.5c0.3,3.9,2.1,6.9,6.4,7.3c4,0.3,6.2-2,7.2-5.8c6.4-23,12.8-45.9,19.2-68.9
		c0.4-1.3,0.8-2.6,1.5-4.9c0.7,3,1.4,5.9,2,8.7v-42.7c-0.4-0.1-0.9-0.1-1.3-0.1c-4.7,0-6.2,3.1-7.2,7c-5.2,19-10.5,37.9-15.8,56.9
		c-0.3,1-0.7,2-1.5,4.3c-0.7-6.2-1.3-11-1.7-15.9c-1.9-23.7-3.8-47.3-5.8-71c-0.7-8.3-1.6-16.6-2.4-24.9c-0.4-3.9-2.4-6.5-6.2-6.9
		c-3.9-0.3-6.1,2.3-7.3,5.8c-6.8,19.1-13.7,38.3-20.5,57.4c-3.7,10.4-7.5,20.9-11.2,31.3c-0.8,2.2-1.7,3.5-4.5,3.5
		c-40.8-0.1-81.7-0.1-122.5-0.1c-0.6,0-1.2-0.1-1.7-0.2c-0.3-0.3-0.6-0.6-0.6-0.8l0.9,14.6c1.8-0.1,3.6-0.2,5.3-0.2
		C92.8,283.8,133.6,283.8,174.5,283.8z"/>
	<path class="st1" d="M48,270.5c40.8,0,81.7,0,122.5,0.1c2.8,0,3.7-1.2,4.5-3.5c3.7-10.5,7.4-20.9,11.2-31.3
		c6.8-19.1,13.7-38.3,20.5-57.4c1.3-3.5,3.4-6.2,7.3-5.8c3.9,0.3,5.9,2.9,6.2,6.9c0.8,8.3,1.7,16.6,2.4,24.9c2,23.7,3.8,47.3,5.8,71
		c0.4,4.9,1,9.7,1.7,15.9c0.8-2.3,1.2-3.2,1.5-4.3c5.3-19,10.6-37.9,15.8-56.9c1.1-3.9,2.6-7,7.2-7c0.5,0,0.9,0.1,1.3,0.1V45.2
		c-8.9,0-17.8,0.5-26.7,1.3c-24.1,2.1-44.2,24.7-44.5,48.8c-0.5,27.8-0.3,55.7-0.1,83.5c0,4.4-1.1,5.8-5.7,5.8
		c-27.4-0.2-54.8-0.2-82.1,0c-24.4,0.2-47,19.1-50.2,43.2c-1.8,13.7-0.8,27.7-1,41.6c0,0.2,0.3,0.5,0.6,0.8
		C46.8,270.3,47.4,270.5,48,270.5z"/>
	<path class="st1" d="M254,257.1c-0.7,2.4-1.1,3.7-1.5,4.9c-6.4,23-12.9,45.9-19.2,68.9c-1,3.8-3.2,6.1-7.2,5.8
		c-4.2-0.4-6-3.4-6.4-7.3c-1.6-17.8-3.1-35.6-4.6-53.5c-1.3-16.3-2.5-32.6-3.9-48.9c-0.4-4.8-1-9.6-1.7-15.8
		c-0.9,2.3-1.3,3.3-1.7,4.3c-7.2,20-14.4,40-21.6,60c-2.7,7.5-3.8,8.3-11.8,8.3c-40.8,0-81.7,0-122.5,0c-1.8,0-3.5,0.2-5.3,0.2
		c3.9,23.8,26.1,42.8,50.1,43c27.2,0.2,54.5,0.1,81.7,0.1c6.1,0,6.2,0,6.2,6c0,26.9-0.2,53.8,0.1,80.7c0.2,24.5,16.5,45.3,40.5,50.6
		c10.2,2.3,20.5,2.5,30.9,2.2V265.9C255.3,263,254.7,260.1,254,257.1z"/>
	<path class="st0" d="M329.2,269.6c-7.2,0-8.2,0.8-10.4,7.8c-1.3,4-2.6,8-4.7,11.8c-2-13.8-4-27.6-5.9-41.4c-2.2-16-4.4-32-6.7-48
		c-0.5-3.5-2.4-6.1-6.3-6.3c-4-0.2-6.2,2-7.1,5.8c-4.9,20.5-9.8,41-14.7,61.4c-0.7,2.8-1.4,5.7-2.8,8.6c-1.7-7.2-3.5-14.4-5.1-21.6
		c-1.4-5.8-2.6-11.7-3.9-17.6c-0.8-3.4-2-6.5-5.7-7.1v42.7c1.9,8,3.6,15.6,5.4,23.2c0.9,4,1.9,8.1,2.8,12.1c0.8,3.5,2.8,5.9,6.7,5.9
		c3.8,0,5.9-2.3,6.7-5.8c4.6-19.4,9.3-38.9,13.9-58.3c0.4-1.5,0.8-2.9,1.8-4.4c1.1,7.5,2.2,15.1,3.3,22.6
		c2.8,20.4,5.6,40.9,8.5,61.3c0.5,3.3,2.2,5.7,5.9,6.1c3.8,0.4,6.2-1.3,7.4-4.9c3.8-12.2,7.6-24.4,11.3-36.6
		c0.8-2.5,1.6-4.1,4.9-4.1c42.7,0.1,85.4,0.1,128.1,0.1c0.6,0,1.2,0.1,2.4,0.2l0.6-13.7c-1.9,0-3.8,0-5.6,0
		C416.5,269.6,372.9,269.6,329.2,269.6z"/>
	<path class="st2" d="M261.7,230.3c1.4,5.8,2.6,11.7,3.9,17.6c1.7,7.2,3.4,14.4,5.1,21.6c1.4-3,2.1-5.8,2.8-8.6
		c4.9-20.5,9.8-41,14.7-61.4c0.9-3.9,3.1-6,7.1-5.8c3.9,0.2,5.8,2.8,6.3,6.3c2.3,16,4.4,32,6.7,48c1.9,13.8,3.9,27.6,5.9,41.4
		c2.1-3.9,3.4-7.8,4.7-11.8c2.2-7,3.2-7.8,10.4-7.8c43.6,0,87.2,0,130.9,0c1.8,0,3.7,0,5.6,0c0.2-1.2,0.6-2.1,0.6-3
		c0-9.7,0.3-19.5,0-29.2c-1.1-34-29-53.6-55.4-52.9c-26,0.7-52,0.1-78,0.1c-1.8,0-3.5,0-5.6,0c0-2.7,0-4.5,0-6.4
		c0-26.1,0.1-52.3,0-78.4c-0.1-27.7-18.7-50.3-46.1-53.4c-8.3-0.9-16.7-1.3-25.1-1.2v177.9C259.7,223.7,260.9,226.9,261.7,230.3z"/>
	<path class="st2" d="M289.2,463.9c22.8-6.9,37.9-27.3,38.1-51.4c0.1-26.4,0-52.9,0-79.3c0-1.8,0-3.6,0-6c2.4,0,4.2,0,6,0
		c26.6,0,53.2,0.1,79.8,0c24-0.1,44.7-15.9,51.1-39c0.4-1.5,0.6-3.2,0.9-4.9c-1.2-0.1-1.8-0.2-2.4-0.2c-42.7,0-85.4,0-128.1-0.1
		c-3.3,0-4.2,1.6-4.9,4.1c-3.7,12.2-7.5,24.4-11.3,36.6c-1.1,3.6-3.6,5.3-7.4,4.9c-3.7-0.4-5.5-2.8-5.9-6.1
		c-2.9-20.4-5.7-40.9-8.5-61.3c-1-7.5-2.2-15.1-3.3-22.6c-1.1,1.5-1.5,3-1.8,4.4c-4.6,19.4-9.3,38.9-13.9,58.3
		c-0.8,3.5-2.9,5.8-6.7,5.8c-3.8,0-5.8-2.4-6.7-5.9c-0.9-4-1.9-8.1-2.8-12.1c-1.8-7.6-3.5-15.2-5.4-23.2v200.8
		c7.9-0.2,15.8-0.7,23.7-0.9C282.8,465.8,286.1,464.9,289.2,463.9z"/>
</g>
</svg>
