<?xml version="1.0" encoding="utf-8"?>
<!-- Generator: Adobe Illustrator 25.0.0, SVG Export Plug-In . SVG Version: 6.00 Build 0)  -->
<svg version="1.1" id="Layer_1" xmlns="http://www.w3.org/2000/svg" xmlns:xlink="http://www.w3.org/1999/xlink" x="0px" y="0px"
	 viewBox="0 0 512 512" style="enable-background:new 0 0 512 512;" xml:space="preserve">
<style type="text/css">
	.st0{fill:#464849;}
	.st1{fill:none;}
	.st2{fill:#0084FF;}
</style>
<g>
	<g>
		<path class="st0" d="M409.4,283.6c38.7,23,59.8,56.1,62,101.3c-9.9,0-19.2,0-28.6,0c-0.7-5.5-1-10.9-2.2-16.2
			c-5.5-25.4-19.8-44.6-42-57.9c-8-4.8-16.6-8-25.8-9.8c-1.7-0.3-2.4-1-2.4-2.8c0.1-8.9,0.1-17.8,0-26.6c0-2,0.6-2.7,2.6-3.2
			c13-3.1,24.1-9.2,32-20.3c17.3-24.5,8-59-19.3-71.5c-4.2-1.9-8.8-3-13.2-4.6c-0.8-0.3-1.9-1.2-1.9-1.9c-0.1-8.9-0.1-17.8,0-26.6
			c0-0.2,0.2-0.5,0.3-0.7c24.5,2.3,52.7,17.6,65,45.9c7.4,17,8.4,34.6,3.7,52.4C435.1,258.9,424.7,272.9,409.4,283.6z"/>
		<path class="st0" d="M69.4,384.9c-9.6,0-18.9,0-28.9,0c2-45.3,23.4-78.3,61.5-101.1c-31.2-25.4-41.2-57.2-25.8-94.7
			c11.6-28.1,35.4-41.6,64.8-46.9c0,10,0,19.5,0,29.2c-14.3,3.2-26.5,9.9-34.9,22.2c-5.8,8.6-8.3,18.2-7.9,28.5
			c1,23.2,16.6,41.1,42.8,46.6c0,10.4,0,20.8,0,31.5c-20.3,4-37.4,13.7-50.8,29.5C76.8,345.7,69.8,364,69.4,384.9z"/>
	</g>
	<g>
		<path class="st1" d="M254.9,126.9c-38.7,0.3-70.7,32.4-70.7,71.6c0,40.1,31.9,71.7,72.4,71.8c39.1,0,71.1-32.2,71.1-71.7
			C327.6,158,294.5,126.6,254.9,126.9z"/>
		<g>
			<path class="st1" d="M254.9,126.9c-38.7,0.3-70.7,32.4-70.7,71.6c0,40.1,31.9,71.7,72.4,71.8c39.1,0,71.1-32.2,71.1-71.7
				C327.6,158,294.5,126.6,254.9,126.9z"/>
			<path class="st2" d="M312.7,281.6c25-18.1,40.3-42.4,43.2-73.5c2.9-31.2-7-58.2-29.1-80.4c-38.3-38.5-101.1-39.2-139.7-1.8
				c-19.3,18.7-30.3,41.3-31.3,68.2c-1.4,37,14.2,66,43.7,87.8c-69.8,30.9-88.8,98.6-86.5,131.9c9.3,0,18.6,0,28.1,0
				c0.1-2.7,0.2-5.1,0.4-7.5c0.2-2.5,0.4-5,0.8-7.5c7.2-45.1,32.3-75.8,74.5-92.8c0.4-0.2,0.9-0.3,1.2-0.3
				c3.9-1.3,43.1-13.2,75.9,0.1c0.6,0,1.2,0.2,1.9,0.5c43.1,17.6,68,49.3,74.3,95.5c0.5,4,0.6,8,0.9,11.9c9.6,0,19,0,28.9,0
				C396.8,352.2,367.5,308.6,312.7,281.6z M256.6,270.3c-40.5,0-72.4-31.6-72.4-71.8c0-39.3,31.9-71.3,70.7-71.6
				c39.6-0.4,72.7,31.1,72.8,71.7C327.7,238.1,295.7,270.4,256.6,270.3z"/>
		</g>
	</g>
</g>
</svg>
