<?xml version="1.0" encoding="utf-8"?>
<!-- Generator: Adobe Illustrator 25.0.0, SVG Export Plug-In . SVG Version: 6.00 Build 0)  -->
<svg version="1.1" id="Layer_1" xmlns="http://www.w3.org/2000/svg" xmlns:xlink="http://www.w3.org/1999/xlink" x="0px" y="0px"
	 viewBox="0 0 512 512" style="enable-background:new 0 0 512 512;" xml:space="preserve">
<style type="text/css">
	.st0{fill:#0084FF;}
	.st1{fill:#464849;}
</style>
<g>
	<g>
		<rect x="195.9" y="333.3" class="st0" width="49" height="47.8"/>
		<rect x="266" y="333.3" class="st0" width="49" height="47.8"/>
		<path class="st0" d="M195.9,314.3h49v-59.7C217.1,260.5,196.2,285,195.9,314.3z"/>
		<path class="st0" d="M296.9,271.4c-8.3-8.3-19-14.3-30.9-16.8v59.7h49C314.8,297.6,307.9,282.4,296.9,271.4z"/>
	</g>
	<path class="st1" d="M87.3,383.9v-146L249,139.4c4.4-2.7,9.8-2.6,14.2,0.1l160.5,99.4v47l-0.1,14.1v83.6c0,8.7-7,15.7-15.7,15.7h0
		c-8.7,0-15.7-7-15.7-15.7V265.8l-130.6-80.9c-3.3-2.1-7.5-2.1-10.9,0l-132.1,80.4v118.6c0,8.7-7,15.7-15.7,15.7h0
		C94.3,399.6,87.3,392.6,87.3,383.9z"/>
	<g>
		<path class="st0" d="M464.6,172.1L263.4,48.6c-5.2-3.2-11.8-3.2-17.1,0l-101.6,63v-10.3H92.9v42.5l-45.5,28.3
			c-4.4,2.7-6.5,8.1-5,13.1l5.5,19.1c2.1,7.4,10.7,10.7,17.2,6.6L250.9,96.3c3.2-2,7.2-2,10.4,0l185.2,114.7c6.5,4,15,0.8,17.2-6.5
			l5.8-19.3C471.1,180.3,469.1,174.8,464.6,172.1z"/>
		<path class="st0" d="M436.6,424.1H75.6c-17.7,0-32,14.3-32,32v9.7h425v-9.7C468.6,438.4,454.3,424.1,436.6,424.1z"/>
	</g>
</g>
</svg>
