<?xml version="1.0" encoding="utf-8"?>
<!-- Generator: Adobe Illustrator 25.0.0, SVG Export Plug-In . SVG Version: 6.00 Build 0)  -->
<svg version="1.1" id="Layer_1" xmlns="http://www.w3.org/2000/svg" xmlns:xlink="http://www.w3.org/1999/xlink" x="0px" y="0px"
	 viewBox="0 0 512 512" style="enable-background:new 0 0 512 512;" xml:space="preserve">
<style type="text/css">
	.st0{fill:#484848;}
	.st1{fill:#0084FF;}
</style>
<g>
	<g>
		<path class="st0" d="M272.3,96.4c-1.9-7.9-4.9-15.3-9-22.3C249.8,51.3,214.1,49,196.9,72c-8.1,10.8-13,22.9-16.4,35.8
			c-5,18.8-7,37.9-7.2,57.3c0,0.6,0.2,1.2,0.4,1.8c-2.9-1.8-6.4-2.8-10-2.8c-3.2,0-6.1,0.7-8.8,2.1c0.1-0.5,0.2-0.9,0.2-1.3
			c0.3-21,2.6-41.7,8-62c4.2-15.8,10.5-30.6,20.8-43.6c24.7-31.1,77.6-29.2,97.5,10c7.3,14.3,10.8,29.5,12.2,45.3
			c0.7,7.9,1,15.9,1.4,23.3c-0.5,9.5-1,18.4-1.6,27.3c0,0.6,0,1.2,0,1.7c-3-2-6.6-3.1-10.4-3.1c-2.8,0-5.5,0.6-7.9,1.7
			C277.1,142.3,277.7,119.2,272.3,96.4z"/>
		<path class="st0" d="M244.9,116.7h-16.2c2.9-14.9,7.2-29.4,14.6-43c0.7-1.3,1.5-2.6,2.3-3.9c0.1-0.2,0.4-0.4,0.8-0.7
			c4.5,2.7,7.8,6.6,10.3,11.2c0.4,0.7-0.1,2.1-0.5,3C250.8,93.9,247.4,105.1,244.9,116.7z"/>
		<path class="st0" d="M344.4,115c-1-5.5-1.8-10.9-2.9-16.3c-1.6-7.8-4.2-15.3-8.1-22.4c-10-18-26.9-24.2-46.6-20.3
			c-2.3,0.5-3.4,0-4.8-1.8c-2.8-3.5-5.9-6.7-9-10.2c5.5-2.7,11.2-4.2,17.2-4.7c28.4-2.4,49.3,10.2,60.7,36.6
			c5.2,11.9,7.7,24.4,9.1,37.3c0.1,0.5,0,1.1,0,1.9C354.9,115,349.8,115,344.4,115z"/>
	</g>
	<path class="st1" d="M432.1,437.1c-0.7-10.9-1.5-21.7-2.3-32.6c-2.2-29.6-4.4-59.3-6.5-88.9c-1.8-24.7-3.5-49.4-5.3-74.1
		c-2.4-32.5-4.8-64.9-7.1-97.4c-0.8-10.9-7.8-17.7-18.8-17.7c-28.5,0-57,0-85.5,0c-1,0-2,0.1-2.9,0.1c0,6.1,0,11.9,0,17.9
		c9.7,0,19.2,0,28.9,0c0,103.7,0,207.1,0,310.7c-1.3-0.1-2.4-0.1-3.5-0.2c-13.2-1.2-26.3-2.5-39.5-3.6c-28-2.5-56-5-84.1-7.6
		c-34.1-3.1-68.2-6.2-102.2-9.3c-5-0.5-5.5-1-5.1-5.9c0.7-8.5,1.3-17,1.9-25.5c1.8-24.2,3.5-48.4,5.3-72.7c2.3-32,4.7-64,7.1-96
		c2.1-28.7,4.2-57.4,6.3-86.1c0.2-2.6,1.4-3.9,4.1-3.8c7.1,0.1,14.3,0,21.4,0c1,0,2,0,3,0c0.7-6.1,1.3-11.9,2-18.1
		c-9.3,0-18.2,0-27.1,0c-1.1,0-2.3,0-3.4,0.2c-9.5,1.3-17.2,9.3-18,18.9c-1.1,13-1.9,26-2.9,39c-1.8,24.2-3.5,48.4-5.3,72.7
		c-1.8,24.5-3.6,49-5.4,73.5c-1.5,19.6-2.9,39.3-4.3,58.9c-1,13.4-2.1,26.7-2.9,40.1c-0.7,12,7.8,21.5,19.6,22.6
		c34.9,3.2,69.9,6.3,104.8,9.5c45.3,4.1,90.6,8.2,135.9,12.3c1.5,0.1,3,0,4.4-0.4c24.4-5.8,48.9-11.6,73.3-17.4
		C427.1,454.2,432.7,446.6,432.1,437.1z M414.9,435.9c-10.6-3.6-21.2-7.1-31.7-10.7c-1.8-0.6-2.9-0.3-4.1,1
		c-3.4,3.6-6.8,7.1-10.2,10.7l-18.8,18.7c3.5-6.1,7-12.3,10.5-18.4c3.7-6.5,7.5-13,11.1-19.5c0.7-1.2,1.1-2.8,1.1-4.2
		c-0.2-34-0.4-68.1-0.7-102.1c-0.4-51.5-0.7-103-1-154.4c0-2.4,0-4.8,0-7.3c0.2,0,0.4,0.1,0.5,0.1c0.8,16.2,1.7,32.4,2.5,48.6
		c1.8,35.2,3.6,70.4,5.4,105.6c1.8,35.4,3.6,70.8,5.3,106.2c0.1,2.7,0.9,4.4,3.2,5.9c9.6,6.3,19,12.8,28.4,19.2
		c0.5,0.3,0.9,0.8,1.2,1.6C416.8,436.5,415.8,436.2,414.9,435.9z"/>
	<polygon class="st1" points="267.4,144.3 182.6,144.3 185.4,126.4 267.4,126.4 	"/>
	<circle class="st0" cx="163.7" cy="183.7" r="19.5"/>
	<circle class="st0" cx="283.1" cy="182.9" r="19.1"/>
</g>
</svg>
