<?xml version="1.0" encoding="utf-8"?>
<!-- Generator: Adobe Illustrator 25.0.0, SVG Export Plug-In . SVG Version: 6.00 Build 0)  -->
<svg version="1.1" id="Layer_1" xmlns="http://www.w3.org/2000/svg" xmlns:xlink="http://www.w3.org/1999/xlink" x="0px" y="0px"
	 viewBox="0 0 512 512" style="enable-background:new 0 0 512 512;" xml:space="preserve">
<style type="text/css">
	.st0{fill:#464849;}
	.st1{fill:#C8C8C8;}
	.st2{fill:#FFFFFF;}
	.st3{fill:#0084FF;}
</style>
<path class="st0" d="M330,105.1c-0.5-0.5-1-1.1-1.4-1.6C329.2,104.1,329.6,104.6,330,105.1z"/>
<path class="st0" d="M286.8,240.8c-0.4,0-0.8,0-1.3-0.1C286,240.7,286.4,240.8,286.8,240.8z"/>
<g>
	<path class="st1" d="M256.5,54.5C137,52.9,48.3,155.2,54.3,264.6c7,128.9,99.2,193.6,206.9,192.9c113.2-0.8,199.1-81,196.8-202.3
		C455.7,134.2,366.7,56.1,256.5,54.5L256.5,54.5z"/>
	<path class="st2" d="M162,92C78.4,140,25.3,275.8,114.4,378.6c10.9,12.6,28.2,21.4,41.4,27.3c89.8,40.6,198.5-21.8,240.5-69.4
		c33.4-37.8,45.6-62.8,41.7-114.4c-3.1-40.1-20.2-78.8-55.8-107.4C301.8,49.9,215.1,61.6,162,92L162,92z"/>
	<path class="st0" d="M246.3,174.7c-0.3-0.2-31.4-18-55.6-27c-25.2-9.3-43.7-14.3-43.9-14.4l3.5-13c0.8,0.2,19.3,5.2,45.1,14.8
		c25.2,9.4,56.3,27.2,57.6,28L246.3,174.7L246.3,174.7z"/>
	<path class="st0" d="M301,139.6l18.3-65.3l13,3.6l-18.3,65.3L301,139.6z"/>
	<path class="st0" d="M437,224.3c-0.2-0.1-18.1-6.9-38-12.3c-15-4.1-34.4-8.2-34.6-8.2l2.8-13.2c0.8,0.2,19.9,4.2,35.3,8.4
		c20.7,5.6,38.6,12.4,39.4,12.7L437,224.3z"/>
	<path class="st0" d="M331.1,356.3c0-0.2-1.7-20.7-5.7-41.7c-4-20.7-11.6-40.2-11.7-40.4l12.5-4.9c0.3,0.8,8.2,20.8,12.4,42.8
		c4.2,21.8,5.9,42.3,5.9,43.2L331.1,356.3L331.1,356.3z"/>
	<path class="st0" d="M398,375l-8.9-10.1c0.1-0.1,13.1-11.5,29-33.1c14.7-19.9,21.5-37.3,21.6-37.5l12.5,4.8
		c-0.3,0.8-7.5,19.3-23.3,40.7C412.1,362.6,398.6,374.5,398,375L398,375z"/>
	<path class="st0" d="M151.9,306.2l77.8-69.5l9,10l-77.8,69.5L151.9,306.2z"/>
	<path class="st0" d="M84.8,287.6c-0.2-1.3-4.6-32.4-4.6-60.9c0-28.4,3.2-54.7,3.4-55.8l13.4,1.7c0,0.3-3.3,26.6-3.3,54.1
		c0,27.4,4.5,58.7,4.5,59C98.2,285.7,84.8,287.6,84.8,287.6z"/>
	<path class="st0" d="M281.2,423.2c-0.8-0.1-21.4-2.7-56.8-13.1c-22.6-6.7-48.4-20.3-49.5-20.9l6.3-11.9c0.3,0.1,25.7,13.6,47,19.9
		c34.3,10.1,54.5,12.6,54.7,12.7L281.2,423.2L281.2,423.2z"/>
	<path class="st3" d="M220.9,150.9c-1,2.6,0.3,96.3,2.5,99.1s96.3,34.8,100.5,33.7c4.2-1,54.5-80.1,54.5-83.3s-61.8-79.4-65-80.1
		C310.2,119.7,222.3,147.4,220.9,150.9z"/>
	<path class="st3" d="M436.2,162.4c0,0-13.9,46.1-13.9,49.6c0,3.5,8.4,22.8,12.3,46.7s-1.7,59.7,0.7,61.2s14.6,0.7,14.6,0.7
		s11.7-36.9,6.8-84.3C451.8,188.9,436.2,162.4,436.2,162.4L436.2,162.4z"/>
	<path class="st3" d="M336.2,346c-2.8,0.3-77,63.9-76.6,65.7c0.3,1.7,29,44,29,44s36.1-2.9,69.1-20.8s45.6-33.8,45.6-33.8
		s4.6-42.5,2.8-42.9C404.4,357.9,339.7,345.6,336.2,346L336.2,346z"/>
	<path class="st3" d="M88.8,266.6c-1.9,1.6-13,26-16.2,39.7C69.5,320,67.7,333,67.7,333s8.4,24.4,21.1,42.5
		c15.7,22.4,36.1,38.2,36.1,38.2s66.5-20.3,66.9-23.1c0.4-2.8-7.7-27.4-13.4-47.8c-5.6-20.4-6.7-43.2-8.8-44.6
		c-2.1-1.4-23.5-8.1-40.4-14.8S90.9,264.8,88.8,266.6L88.8,266.6z"/>
	<path class="st3" d="M67.9,181.8c0,0,18.4,15.9,21.2,15.9c2.8,0,20.7-23.6,38.6-37.9c24.3-19.3,36.2-25.7,36.6-28.1
		c0.3-2.5,10.9-61.2,10.9-61.2s-39,14.8-67.5,47.4S67.9,181.8,67.9,181.8z"/>
	<path class="st3" d="M266.9,54.8c0,0,22.4,11.5,30.6,17.2c8.2,5.7,20.2,17.7,23.8,18.1c3.5,0.4,52.3,0.4,52.3,0.4
		S351.5,75.4,327,66.7C297.5,56.2,266.9,54.8,266.9,54.8L266.9,54.8z"/>
</g>
</svg>
