<?xml version="1.0" encoding="utf-8"?>
<!-- Generator: Adobe Illustrator 25.0.0, SVG Export Plug-In . SVG Version: 6.00 Build 0)  -->
<svg version="1.1" id="Layer_1" xmlns="http://www.w3.org/2000/svg" xmlns:xlink="http://www.w3.org/1999/xlink" x="0px" y="0px"
	 viewBox="0 0 512 512" style="enable-background:new 0 0 512 512;" xml:space="preserve">
<style type="text/css">
	.st0{fill:#0084FF;}
	.st1{fill:#464849;}
</style>
<g>
	<path class="st0" d="M354.5,113.7c-18.5-13.4-36.3-26.3-54.2-39.1c-5.6-4-9.5-8.9-8.5-16.1c1.5-10.8,11.9-16.2,22.7-11.6
		c20.8,8.8,41.5,17.9,62.2,26.9c10.4,4.5,10.4,4.5,18-4.2c6.3-7.2,12.5-14.4,18.8-21.6c10.7-12.2,27.1-13.5,37.9-3
		c11.2,10.8,10.4,27.1-2,38.4c-8.7,8-17.4,16-26.4,23.7c-3.2,2.7-3.3,4.9-1.7,8.4c9.6,21.8,19.2,43.6,28.4,65.6
		c1.7,4,2.4,8.9,1.7,13.1c-1,5.9-5.7,9.6-11.7,10.7c-6.5,1.2-11.8-1.3-15.7-6.6c-10.1-13.9-20.2-27.9-30.3-41.9
		c-3.3-4.5-6.5-9-10.1-13.9c-13.8,12.1-27.3,23.8-40.5,35.6c-1.3,1.1-1.8,3.6-1.9,5.5c-0.8,10.1-1.6,20.3-2.1,30.4
		c-0.2,5-2.2,8.4-7.1,9.7c-4.9,1.2-8.1-1.2-9.8-5.5c-8.2-20.7-22.4-35.3-43.2-43.3c-4.2-1.6-6.9-4.7-5.6-9.8c1.3-4.9,4.7-7,9.6-7.2
		c9.9-0.4,19.9-0.9,29.8-1.6c2.1-0.1,4.7-0.8,6-2.2C330.8,140.8,342.3,127.5,354.5,113.7z"/>
	<g>
		<g>
			<path class="st0" d="M427.8,387v43.3c0,1.4-1.2,2.6-2.6,2.6h-42.9c-1.4,0-2.6-1.2-2.6-2.6V387c0-1.4,1.2-2.6,2.6-2.6h42.9
				C426.6,384.4,427.8,385.6,427.8,387z"/>
			<path class="st0" d="M427.8,299.3v43.3c0,1.4-1.2,2.6-2.6,2.6h-42.9c-1.4,0-2.6-1.2-2.6-2.6v-43.3c0-1.4,1.2-2.6,2.6-2.6h42.9
				C426.6,296.7,427.8,297.9,427.8,299.3z"/>
			<path class="st0" d="M131.3,299.3v43.3c0,1.4-1.2,2.6-2.6,2.6H85.8c-1.4,0-2.6-1.2-2.6-2.6v-43.3c0.1-1.4,1.2-2.6,2.6-2.6h42.9
				C130.1,296.7,131.3,297.9,131.3,299.3z"/>
			<path class="st0" d="M131.3,211.6V255c0,1.4-1.2,2.6-2.6,2.6H85.8c-1.4,0-2.6-1.2-2.6-2.6v-43.3c0.1-1.4,1.2-2.6,2.6-2.6h42.9
				C130.1,209.1,131.3,210.2,131.3,211.6z"/>
			<path class="st0" d="M133.1,124v43.3c0,1.4-1.2,2.6-2.6,2.6H87.6c-1.4,0-2.6-1.2-2.6-2.6V124c0-1.5,1.1-2.6,2.6-2.6h42.9
				C131.9,121.4,133.1,122.6,133.1,124z"/>
			<path class="st0" d="M352.8,299.3v43.3c0,1.4-1.2,2.6-2.6,2.6h-42.9c-1.4,0-2.6-1.2-2.6-2.6v-43.3c0-1.4,1.2-2.6,2.6-2.6h42.9
				C351.6,296.7,352.8,297.9,352.8,299.3z"/>
			<path class="st1" d="M241.1,77.6c-1.9-2.2-4.6-3.6-7.6-3.6H57.8c-3,0-5.7,1.4-7.5,3.6c-1.8,2-2.8,4.7-2.8,7.7v377.5
				c0,2.9,1,5.7,2.8,7.6c1.8,2.3,4.5,3.7,7.5,3.7h175.7c3,0,5.7-1.4,7.6-3.6c1.7-2,2.7-4.7,2.7-7.7V85.3
				C243.8,82.3,242.8,79.7,241.1,77.6z M228.9,457.5c0,0.6-0.2,1.2-0.4,1.5c-0.1,0.1-0.2,0.2-0.2,0.2h-165c0,0-0.1-0.1-0.2-0.2
				c-0.2-0.3-0.4-0.9-0.4-1.5V90.7c0-0.7,0.2-1.2,0.4-1.5c0.1-0.1,0.2-0.2,0.2-0.2h165.2c0,0,0,0.1,0.1,0.2c0.2,0.3,0.4,0.9,0.4,1.5
				V457.5z"/>
			<path class="st0" d="M206.4,386.9v43.3c0,1.4-1.2,2.6-2.6,2.6H161c-1.5,0-2.6-1.2-2.6-2.6v-43.3c0-1.4,1.1-2.6,2.6-2.6h42.9
				C205.3,384.4,206.4,385.5,206.4,386.9z"/>
			<path class="st0" d="M131.4,386.9v43.3c0,1.4-1.2,2.6-2.6,2.6H85.9c-1.4,0-2.6-1.2-2.6-2.6v-43.3c0-1.4,1.2-2.6,2.6-2.6h42.9
				C130.2,384.4,131.4,385.5,131.4,386.9z"/>
			<path class="st0" d="M352.8,387v43.3c0,1.4-1.2,2.6-2.6,2.6h-42.9c-1.4,0-2.6-1.2-2.6-2.6V387c0-1.4,1.2-2.6,2.6-2.6h42.9
				C351.6,384.4,352.8,385.6,352.8,387z"/>
			<path class="st0" d="M206.4,211.6V255c0,1.4-1.2,2.6-2.6,2.6H161c-1.5,0-2.6-1.2-2.6-2.6v-43.3c0-1.4,1.1-2.6,2.6-2.6h42.9
				C205.3,209.1,206.4,210.2,206.4,211.6z"/>
			<path class="st0" d="M208.2,124v43.3c0,1.4-1.2,2.6-2.6,2.6h-42.9c-1.4,0-2.6-1.2-2.6-2.6V124c0-1.5,1.2-2.6,2.6-2.6h42.9
				C207,121.4,208.2,122.6,208.2,124z"/>
			<path class="st0" d="M206.4,299.3v43.3c0,1.4-1.2,2.6-2.6,2.6H161c-1.5,0-2.6-1.2-2.6-2.6v-43.3c0-1.4,1.1-2.6,2.6-2.6h42.9
				C205.3,296.7,206.4,297.9,206.4,299.3z"/>
		</g>
		<path class="st1" d="M461.7,256.1c-1.9-2.3-4.6-3.7-7.6-3.7H278.3c-3,0-5.7,1.4-7.5,3.7c-1.7,2-2.7,4.7-2.7,7.7v199.1
			c0,2.9,1.1,5.7,2.8,7.7c1.9,2.3,4.5,3.7,7.5,3.7h175.8c2.8,0,5.3-1.3,7.2-3.3c0.1-0.1,0.2-0.3,0.3-0.4c1.7-2,2.7-4.7,2.7-7.7
			V263.7C464.4,260.8,463.4,258.1,461.7,256.1z M448.8,459.2H283.7c0,0-0.1-0.1-0.2-0.2c-0.3-0.3-0.4-0.9-0.4-1.5V269
			c0-0.6,0.2-1.2,0.4-1.5c0.1-0.1,0.2-0.2,0.2-0.2h165.1c0,0,0.2,0,0.6,0v17.5h0.1v174.3H448.8C448.8,459.2,448.8,459.2,448.8,459.2
			z"/>
	</g>
</g>
</svg>
