<?xml version="1.0" encoding="utf-8"?>
<!-- Generator: Adobe Illustrator 25.0.0, SVG Export Plug-In . SVG Version: 6.00 Build 0)  -->
<svg version="1.1" id="Layer_1" xmlns="http://www.w3.org/2000/svg" xmlns:xlink="http://www.w3.org/1999/xlink" x="0px" y="0px"
	 viewBox="0 0 512 512" style="enable-background:new 0 0 512 512;" xml:space="preserve">
<style type="text/css">
	.st0{fill:#8E8E8E;}
</style>
<g>
	<g>
		<path class="st0" d="M395.6,77.1H116.4c-27,0-48.8,21.9-48.8,48.8v279.2c0,9.9,3.1,19.3,7.9,27l0.3,0.3
			c8.8,13.1,23.8,21.6,40.6,21.6h279.2c17.3,0,32.4-8.8,41.1-22.4c4.8-7.7,7.7-16.7,7.7-26.4V126C444.4,99,422.6,77.1,395.6,77.1z
			 M429.1,405.2c0,18.4-15,33.5-33.5,33.5H116.4c-18.4,0-33.2-15-33.2-33.5V126c0-18.4,14.8-33.5,33.2-33.5h279.2
			c18.4,0,33.5,15,33.5,33.5V405.2z"/>
	</g>
	<g>
		<g>
			<path class="st0" d="M256,181c-44,0-79.7,42.8-79.7,95.9c0,4,0.3,8.2,0.6,12.2c0.6,4.5,1.1,8.8,2.3,13.1
				c0.9,3.7,1.7,7.4,3.4,11.1c0.6,2.8,1.7,5.4,2.8,7.9c0.6,1.7,1.4,3.4,2.3,5.1c1.4,2.8,3.1,5.7,4.8,8.5c0.6,1.1,1.1,2,2,3.1
				c1.4,2.6,3.4,4.8,5.1,7.1c2,2,3.7,4,6,6c1.7,2,3.1,3.4,4.8,4.8c1.7,1.4,3.4,2.8,5.1,4c0.9,0.9,2,1.4,3.1,2.3
				c1.7,1.1,3.7,2.3,5.7,3.1c4,2.3,7.9,4,12.2,5.1c2,0.9,4.3,1.4,6.2,1.7c4.5,0.8,8.8,1.4,13.3,1.4c4.5,0,9.1-0.6,13.3-1.4
				c2.3-0.3,4.3-0.9,6.5-1.7c1.7-0.3,3.1-0.8,4.3-1.4c1.7-0.6,3.4-1.4,5.1-2c2.3-1.1,4.5-2.6,6.8-3.7c1.7-1.1,3.1-2.3,4.8-3.4
				c1.7-1.1,3.4-2.6,5.1-4c3.1-2.3,6-5.1,8.2-7.9c0.3-0.6,0.9-1.1,1.4-1.7c2.8-3.1,5.1-6.2,7.4-9.9c0.3-0.3,0.3-0.3,0.3-0.6
				c2-2.8,3.7-6,5.4-9.4c1.1-1.7,1.7-3.4,2.3-5.1c1.1-2.6,2.3-5.1,2.8-7.9c1.7-3.7,2.6-7.4,3.4-11.1c0.9-4.3,1.7-8.5,2-13.1
				c0.6-4,0.9-8.2,0.9-12.2C336,223.9,300.3,181,256,181z M256,352.1c-25.8,0-49.1-22.4-56.2-54.5v-0.3c-1.4-6.2-2.3-13.3-2.3-20.4
				c0-41.1,26.1-74.6,58.5-74.6s58.7,33.5,58.7,74.6c0,7.1-0.9,14.2-2.3,20.7C305.4,329.7,282.1,352.1,256,352.1z"/>
		</g>
		<g>
			<path class="st0" d="M429.1,322.9c-19.6-21-47.1-33.8-77.8-33.8h-37.2l-1.7,8.5c-7.1,32.1-30.4,54.5-56.5,54.5
				c-25.8,0-49.1-22.4-56.2-54.5v-0.3l-2-8.2h-37.2c-30.4,0-57.9,12.8-77.5,33.8c-6.2,6.2-11.4,13.3-15.6,21v61.3
				c0,9.9,3.1,19.3,7.9,27c-0.3-2-0.3-4.3-0.3-6.2v-29.8c0-12.8,2.8-25,7.9-35.8c13.6-29.5,43.1-49.9,77.5-49.9h20.7
				c0.3,0.9,0.6,2,1.1,2.8c0.6,2.8,1.7,5.4,2.8,7.9c0.6,1.7,1.4,3.4,2.3,5.1c1.4,2.8,3.1,5.7,4.8,8.5c0.6,1.1,1.1,2,2,3.1
				c1.4,2.6,3.4,4.8,5.1,7.1c2,2,3.7,4,6,6c1.7,2,3.1,3.4,4.8,4.8c1.7,1.4,3.4,2.8,5.1,4c0.9,0.9,2,1.4,3.1,2.3
				c1.7,1.1,3.7,2.3,5.7,3.1c4,2.3,7.9,4,12.2,5.1c2,0.9,4.3,1.4,6.2,1.7c4.5,0.8,8.8,1.4,13.3,1.4c4.5,0,9.1-0.6,13.3-1.4
				c2.3-0.3,4.3-0.9,6.5-1.7c1.7-0.3,3.1-0.8,4.3-1.4c1.7-0.6,3.4-1.4,5.1-2c2.3-1.1,4.5-2.6,6.8-3.7c1.7-1.1,3.1-2.3,4.8-3.4
				c1.7-1.1,3.4-2.6,5.1-4c2.8-2.3,5.7-5.1,8.2-7.9c0.3-0.6,0.9-1.1,1.4-1.7c2.8-3.1,5.1-6.2,7.4-9.9c0.3-0.3,0.3-0.3,0.3-0.6
				c2-2.8,3.7-6,5.4-9.4c1.1-1.7,1.7-3.4,2.3-5.1c1.1-2.6,2.3-5.1,2.8-7.9c0.6-0.9,0.9-2,1.1-2.8h20.4c34.6,0,64.1,20.4,77.8,49.9
				c5.1,10.8,7.9,23,7.9,35.8v29.8c0,2,0,3.7-0.3,5.7c4.8-7.7,7.7-16.7,7.7-26.4v-61.9C440.2,335.9,435.1,328.9,429.1,322.9z"/>
		</g>
	</g>
</g>
</svg>
